<?xml version="1.0" encoding="utf-8"?>
<!-- Generator: Adobe Illustrator 26.1.0, SVG Export Plug-In . SVG Version: 6.00 Build 0)  -->
<svg version="1.1" id="Слой_1" xmlns="http://www.w3.org/2000/svg" xmlns:xlink="http://www.w3.org/1999/xlink" x="0px" y="0px"
	 viewBox="0 0 1230.9 310.9" style="enable-background:new 0 0 1230.9 310.9;" xml:space="preserve">
<style type="text/css">
	.st0{fill:#FFFFFF;}
	.st1{stroke:#000000;stroke-width:0.8;stroke-linejoin:round;}
	
		.st2{clip-path:url(#SVGID_00000044158356697124160870000004046554015572965251_);fill:none;stroke:#0000FF;stroke-width:1.5;stroke-linecap:square;stroke-linejoin:round;}
	
		.st3{clip-path:url(#SVGID_00000114784113894845332540000000013605752782449025_);fill:none;stroke:#FF0000;stroke-width:1.5;stroke-linecap:square;stroke-linejoin:round;}
	.st4{fill:none;stroke:#000000;stroke-width:0.8;stroke-linecap:square;}
	
		.st5{clip-path:url(#SVGID_00000039120370176461187500000012761811210304301995_);fill:none;stroke:#0000FF;stroke-width:1.5;stroke-linecap:square;stroke-linejoin:round;}
	
		.st6{clip-path:url(#SVGID_00000143595031749136120740000008881267153012873116_);fill:none;stroke:#FF0000;stroke-width:1.5;stroke-linecap:square;stroke-linejoin:round;}
	
		.st7{clip-path:url(#SVGID_00000182519557087522052070000007727175202325372828_);fill:none;stroke:#0000FF;stroke-width:1.5;stroke-linecap:square;stroke-linejoin:round;}
	
		.st8{clip-path:url(#SVGID_00000129178197206528509920000014017312509984277946_);fill:none;stroke:#FF0000;stroke-width:1.5;stroke-linecap:square;stroke-linejoin:round;}
	.st9{opacity:0.8;fill:#FFFFFF;stroke:#CCCCCC;enable-background:new    ;}
	.st10{fill:none;stroke:#0000FF;stroke-width:1.5;stroke-linecap:square;stroke-linejoin:round;}
	.st11{fill:none;stroke:#FF0000;stroke-width:1.5;stroke-linecap:square;stroke-linejoin:round;}
</style>
<path class="st0" d="M3.7,307.1h432v-288H3.7V307.1z"/>
<g id="patch_2">
	<path class="st0" d="M57.7,271.1h334.8V53.7H57.7V271.1z"/>
</g>
<g id="matplotlib.axis_1">
	<g id="xtick_1">
		<g id="line2d_1">
			<g>
				<g>
					<path id="meebed39c4e" class="st1" d="M71.4,271.1v3.5"/>
				</g>
			</g>
		</g>
		<g id="text_1">
			<g transform="translate(59.737154 266.598437)scale(0.1 -0.1)">
				<g>
					<path id="DejaVuSans-30" d="M69.2-125c-5.1,0-8.9-2.5-11.5-7.5c-2.6-5-3.8-12.5-3.8-22.5c0-10,1.3-17.5,3.8-22.5
						c2.6-5,6.4-7.5,11.5-7.5c5.1,0,8.9,2.5,11.5,7.5c2.6,5,3.8,12.5,3.8,22.5c0,10-1.3,17.5-3.8,22.5C78.1-127.5,74.3-125,69.2-125
						z M69.2-117.2c8.2,0,14.4-3.2,18.7-9.7c4.3-6.5,6.5-15.8,6.5-28.1c0-12.3-2.2-21.6-6.5-28.1c-4.3-6.5-10.6-9.7-18.7-9.7
						c-8.2,0-14.4,3.2-18.7,9.7c-4.3,6.5-6.5,15.8-6.5,28.1c0,12.3,2.2,21.7,6.5,28.1C54.8-120.4,61-117.2,69.2-117.2z"/>
				</g>
				<g>
					<path id="DejaVuSans-2e" d="M111.7-179H122v-12.4h-10.3V-179z"/>
				</g>
				<g>
					<path id="DejaVuSans-30_00000054258996408094930950000017661912271741352582_" d="M164.6-125c-5.1,0-8.9-2.5-11.5-7.5
						c-2.6-5-3.8-12.5-3.8-22.5c0-10,1.3-17.5,3.8-22.5c2.6-5,6.4-7.5,11.5-7.5c5.1,0,8.9,2.5,11.5,7.5c2.6,5,3.8,12.5,3.8,22.5
						c0,10-1.3,17.5-3.8,22.5C173.5-127.5,169.7-125,164.6-125z M164.6-117.2c8.2,0,14.4-3.2,18.7-9.7c4.3-6.5,6.5-15.8,6.5-28.1
						c0-12.3-2.2-21.6-6.5-28.1c-4.3-6.5-10.6-9.7-18.7-9.7c-8.2,0-14.4,3.2-18.7,9.7c-4.3,6.5-6.5,15.8-6.5,28.1
						c0,12.3,2.2,21.7,6.5,28.1C150.2-120.4,156.4-117.2,164.6-117.2z"/>
				</g>
			</g>
		</g>
	</g>
	<g id="xtick_2">
		<g id="line2d_2">
			<g>
				<g>
					<path id="meebed39c4e_00000026863578017854306830000000539060582951383226_" class="st1" d="M109.7,271.1v3.5"/>
				</g>
			</g>
		</g>
		<g id="text_2">
			<g transform="translate(97.973792 266.598437)scale(0.1 -0.1)">
				<g>
					<path id="DejaVuSans-32" d="M56.6-183.1H91v-8.3H44.7v8.3c3.7,3.9,8.8,9.1,15.3,15.6c6.5,6.5,10.5,10.7,12.2,12.6
						c3.2,3.5,5.4,6.5,6.6,9c1.3,2.5,1.9,4.9,1.9,7.2c0,3.9-1.4,7-4.1,9.5c-2.7,2.4-6.3,3.7-10.6,3.7c-3.1,0-6.4-0.5-9.8-1.6
						c-3.4-1.1-7.1-2.7-11-4.9v10c4,1.6,7.7,2.8,11.1,3.6c3.5,0.8,6.6,1.2,9.5,1.2c7.6,0,13.6-1.9,18.1-5.7
						c4.5-3.8,6.7-8.8,6.7-15.1c0-3-0.6-5.8-1.7-8.5c-1.1-2.7-3.2-5.8-6.1-9.5c-0.8-0.9-3.4-3.7-7.8-8.2
						C70.7-168.7,64.5-175,56.6-183.1z"/>
				</g>
				<g>
					<path id="DejaVuSans-2e_00000002354003594421640970000017812361269227402664_" d="M111.7-179H122v-12.4h-10.3V-179z"/>
				</g>
				<g>
					<path id="DejaVuSans-35" d="M143.6-118.5h38.7v-8.3h-29.7v-17.9c1.4,0.5,2.9,0.9,4.3,1.1c1.4,0.2,2.9,0.4,4.3,0.4
						c8.1,0,14.6-2.2,19.3-6.7c4.8-4.5,7.1-10.5,7.1-18.1c0-7.8-2.4-13.9-7.3-18.3c-4.9-4.3-11.8-6.5-20.7-6.5
						c-3.1,0-6.2,0.3-9.4,0.8c-3.2,0.5-6.4,1.3-9.8,2.3v9.9c2.9-1.6,6-2.8,9.1-3.6s6.4-1.2,9.9-1.2c5.6,0,10.1,1.5,13.4,4.4
						c3.3,3,4.9,7,4.9,12.1c0,5.1-1.6,9.1-4.9,12c-3.3,3-7.7,4.5-13.4,4.5c-2.6,0-5.3-0.3-7.9-0.9c-2.6-0.6-5.3-1.5-8-2.7V-118.5z"
						/>
				</g>
			</g>
		</g>
	</g>
	<g id="xtick_3">
		<g id="line2d_3">
			<g>
				<g>
					<path id="meebed39c4e_00000143584417796492680580000004266818339564251318_" class="st1" d="M147.9,271.1v3.5"/>
				</g>
			</g>
		</g>
		<g id="text_3">
			<g transform="translate(136.210429 266.598437)scale(0.1 -0.1)">
				<g>
					<path id="DejaVuSans-35_00000131357271628870018300000013810089242638989488_" d="M48.2-118.5h38.7v-8.3H57.2v-17.9
						c1.4,0.5,2.9,0.9,4.3,1.1c1.4,0.2,2.9,0.4,4.3,0.4c8.1,0,14.6-2.2,19.3-6.7c4.8-4.5,7.1-10.5,7.1-18.1c0-7.8-2.4-13.9-7.3-18.3
						c-4.9-4.3-11.8-6.5-20.7-6.5c-3.1,0-6.2,0.3-9.4,0.8c-3.2,0.5-6.4,1.3-9.8,2.3v9.9c2.9-1.6,6-2.8,9.1-3.6s6.4-1.2,9.9-1.2
						c5.6,0,10.1,1.5,13.4,4.4c3.3,3,4.9,7,4.9,12.1c0,5.1-1.6,9.1-4.9,12c-3.3,3-7.7,4.5-13.4,4.5c-2.6,0-5.3-0.3-7.9-0.9
						c-2.6-0.6-5.3-1.5-8-2.7V-118.5z"/>
				</g>
				<g>
					<path id="DejaVuSans-2e_00000175309201851861262320000015712367368605228168_" d="M111.7-179H122v-12.4h-10.3V-179z"/>
				</g>
				<g>
					<path id="DejaVuSans-30_00000124873669575183444270000013811259730401589684_" d="M164.6-125c-5.1,0-8.9-2.5-11.5-7.5
						c-2.6-5-3.8-12.5-3.8-22.5c0-10,1.3-17.5,3.8-22.5c2.6-5,6.4-7.5,11.5-7.5c5.1,0,8.9,2.5,11.5,7.5c2.6,5,3.8,12.5,3.8,22.5
						c0,10-1.3,17.5-3.8,22.5C173.5-127.5,169.7-125,164.6-125z M164.6-117.2c8.2,0,14.4-3.2,18.7-9.7c4.3-6.5,6.5-15.8,6.5-28.1
						c0-12.3-2.2-21.6-6.5-28.1c-4.3-6.5-10.6-9.7-18.7-9.7c-8.2,0-14.4,3.2-18.7,9.7c-4.3,6.5-6.5,15.8-6.5,28.1
						c0,12.3,2.2,21.7,6.5,28.1C150.2-120.4,156.4-117.2,164.6-117.2z"/>
				</g>
			</g>
		</g>
	</g>
	<g id="xtick_4">
		<g id="line2d_4">
			<g>
				<g>
					<path id="meebed39c4e_00000080176304506680877680000005436974897277398189_" class="st1" d="M186.1,271.1v3.5"/>
				</g>
			</g>
		</g>
		<g id="text_4">
			<g transform="translate(174.447067 266.598437)scale(0.1 -0.1)">
				<g>
					<path id="DejaVuSans-37" d="M45.6-118.5h46.9v-4.2L66-191.4H55.7l24.9,64.6h-35V-118.5z"/>
				</g>
				<g>
					<path id="DejaVuSans-2e_00000026872387648345292630000010999454073090980238_" d="M111.7-179H122v-12.4h-10.3V-179z"/>
				</g>
				<g>
					<path id="DejaVuSans-35_00000126302721336279877890000006309497333029427841_" d="M143.6-118.5h38.7v-8.3h-29.7v-17.9
						c1.4,0.5,2.9,0.9,4.3,1.1c1.4,0.2,2.9,0.4,4.3,0.4c8.1,0,14.6-2.2,19.3-6.7c4.8-4.5,7.1-10.5,7.1-18.1c0-7.8-2.4-13.9-7.3-18.3
						c-4.9-4.3-11.8-6.5-20.7-6.5c-3.1,0-6.2,0.3-9.4,0.8c-3.2,0.5-6.4,1.3-9.8,2.3v9.9c2.9-1.6,6-2.8,9.1-3.6s6.4-1.2,9.9-1.2
						c5.6,0,10.1,1.5,13.4,4.4c3.3,3,4.9,7,4.9,12.1c0,5.1-1.6,9.1-4.9,12c-3.3,3-7.7,4.5-13.4,4.5c-2.6,0-5.3-0.3-7.9-0.9
						c-2.6-0.6-5.3-1.5-8-2.7V-118.5z"/>
				</g>
			</g>
		</g>
	</g>
	<g id="xtick_5">
		<g id="line2d_5">
			<g>
				<g>
					<path id="meebed39c4e_00000173876252885968482320000011725356397209059212_" class="st1" d="M224.4,271.1v3.5"/>
				</g>
			</g>
		</g>
		<g id="text_5">
			<g transform="translate(209.502455 266.598437)scale(0.1 -0.1)">
				<g>
					<path id="DejaVuSans-31" d="M49.8-183.1h16.1v55.6L48.4-131v9l17.4,3.5h9.9v-64.6h16.1v-8.3h-42V-183.1z"/>
				</g>
				<g>
					<path id="DejaVuSans-30_00000076587928646593565810000011108734513332876968_" d="M132.8-125c-5.1,0-8.9-2.5-11.5-7.5
						c-2.6-5-3.8-12.5-3.8-22.5c0-10,1.3-17.5,3.8-22.5c2.6-5,6.4-7.5,11.5-7.5c5.1,0,8.9,2.5,11.5,7.5c2.6,5,3.8,12.5,3.8,22.5
						c0,10-1.3,17.5-3.8,22.5C141.7-127.5,137.9-125,132.8-125z M132.8-117.2c8.2,0,14.4-3.2,18.7-9.7c4.3-6.5,6.5-15.8,6.5-28.1
						c0-12.3-2.2-21.6-6.5-28.1c-4.3-6.5-10.6-9.7-18.7-9.7c-8.2,0-14.4,3.2-18.7,9.7c-4.3,6.5-6.5,15.8-6.5,28.1
						c0,12.3,2.2,21.7,6.5,28.1C118.4-120.4,124.6-117.2,132.8-117.2z"/>
				</g>
				<g>
					<path id="DejaVuSans-2e_00000016036465841401915450000008606926139723888311_" d="M175.3-179h10.3v-12.4h-10.3V-179z"/>
				</g>
				<g>
					<path id="DejaVuSans-30_00000145764249126987597230000001227693598085660555_" d="M228.2-125c-5.1,0-8.9-2.5-11.5-7.5
						c-2.6-5-3.8-12.5-3.8-22.5c0-10,1.3-17.5,3.8-22.5c2.6-5,6.4-7.5,11.5-7.5c5.1,0,8.9,2.5,11.5,7.5c2.6,5,3.8,12.5,3.8,22.5
						c0,10-1.3,17.5-3.8,22.5C237.2-127.5,233.3-125,228.2-125z M228.2-117.2c8.2,0,14.4-3.2,18.7-9.7c4.3-6.5,6.5-15.8,6.5-28.1
						c0-12.3-2.2-21.6-6.5-28.1c-4.3-6.5-10.6-9.7-18.7-9.7c-8.2,0-14.4,3.2-18.7,9.7c-4.3,6.5-6.5,15.8-6.5,28.1
						c0,12.3,2.2,21.7,6.5,28.1C213.8-120.4,220-117.2,228.2-117.2z"/>
				</g>
			</g>
		</g>
	</g>
	<g id="xtick_6">
		<g id="line2d_6">
			<g>
				<g>
					<path id="meebed39c4e_00000077309233077726556390000005707637751775456698_" class="st1" d="M262.6,271.1v3.5"/>
				</g>
			</g>
		</g>
		<g id="text_6">
			<g transform="translate(247.739092 266.598437)scale(0.1 -0.1)">
				<g>
					<path id="DejaVuSans-31_00000153673322492727928800000012285910526586327222_" d="M49.8-183.1h16.1v55.6L48.4-131v9l17.4,3.5
						h9.9v-64.6h16.1v-8.3h-42V-183.1z"/>
				</g>
				<g>
					<path id="DejaVuSans-32_00000125582598970918257740000007798343885959175850_" d="M120.2-183.1h34.4v-8.3h-46.3v8.3
						c3.7,3.9,8.8,9.1,15.3,15.6c6.5,6.5,10.5,10.7,12.2,12.6c3.2,3.5,5.4,6.5,6.6,9c1.3,2.5,1.9,4.9,1.9,7.2c0,3.9-1.4,7-4.1,9.5
						c-2.7,2.4-6.3,3.7-10.6,3.7c-3.1,0-6.4-0.5-9.8-1.6c-3.4-1.1-7.1-2.7-11-4.9v10c4,1.6,7.7,2.8,11.1,3.6
						c3.5,0.8,6.6,1.2,9.5,1.2c7.6,0,13.6-1.9,18.1-5.7c4.5-3.8,6.7-8.8,6.7-15.1c0-3-0.6-5.8-1.7-8.5c-1.1-2.7-3.2-5.8-6.1-9.5
						c-0.8-0.9-3.4-3.7-7.8-8.2C134.3-168.7,128.1-175,120.2-183.1z"/>
				</g>
				<g>
					<path id="DejaVuSans-2e_00000031208506344569413520000000511561051626644118_" d="M175.3-179h10.3v-12.4h-10.3V-179z"/>
				</g>
				<g>
					<path id="DejaVuSans-35_00000111165992825531704290000017150553543776520616_" d="M207.2-118.5h38.7v-8.3h-29.7v-17.9
						c1.4,0.5,2.9,0.9,4.3,1.1c1.4,0.2,2.9,0.4,4.3,0.4c8.1,0,14.6-2.2,19.3-6.7c4.8-4.5,7.1-10.5,7.1-18.1c0-7.8-2.4-13.9-7.3-18.3
						c-4.9-4.3-11.8-6.5-20.7-6.5c-3.1,0-6.2,0.3-9.4,0.8c-3.2,0.5-6.4,1.3-9.8,2.3v9.9c2.9-1.6,6-2.8,9.1-3.6s6.4-1.2,9.9-1.2
						c5.6,0,10.1,1.5,13.4,4.4c3.3,3,4.9,7,4.9,12.1c0,5.1-1.6,9.1-4.9,12c-3.3,3-7.7,4.5-13.4,4.5c-2.6,0-5.3-0.3-7.9-0.9
						c-2.6-0.6-5.3-1.5-8-2.7V-118.5z"/>
				</g>
			</g>
		</g>
	</g>
	<g id="xtick_7">
		<g id="line2d_7">
			<g>
				<g>
					<path id="meebed39c4e_00000049937267196657038230000012207158746554180762_" class="st1" d="M300.8,271.1v3.5"/>
				</g>
			</g>
		</g>
		<g id="text_7">
			<g transform="translate(285.97573 266.598437)scale(0.1 -0.1)">
				<g>
					<path id="DejaVuSans-31_00000046313465283772734020000007269722982732823688_" d="M49.8-183.1h16.1v55.6L48.4-131v9l17.4,3.5
						h9.9v-64.6h16.1v-8.3h-42V-183.1z"/>
				</g>
				<g>
					<path id="DejaVuSans-35_00000005251609358061945720000010595516856543830424_" d="M111.8-118.5h38.7v-8.3h-29.7v-17.9
						c1.4,0.5,2.9,0.9,4.3,1.1c1.4,0.2,2.9,0.4,4.3,0.4c8.1,0,14.6-2.2,19.3-6.7c4.8-4.5,7.1-10.5,7.1-18.1c0-7.8-2.4-13.9-7.3-18.3
						c-4.9-4.3-11.8-6.5-20.7-6.5c-3.1,0-6.2,0.3-9.4,0.8c-3.2,0.5-6.4,1.3-9.8,2.3v9.9c2.9-1.6,6-2.8,9.1-3.6s6.4-1.2,9.9-1.2
						c5.6,0,10.1,1.5,13.4,4.4c3.3,3,4.9,7,4.9,12.1c0,5.1-1.6,9.1-4.9,12c-3.3,3-7.7,4.5-13.4,4.5c-2.6,0-5.3-0.3-7.9-0.9
						c-2.6-0.6-5.3-1.5-8-2.7V-118.5z"/>
				</g>
				<g>
					<path id="DejaVuSans-2e_00000158029799295004895810000011973456669040742558_" d="M175.3-179h10.3v-12.4h-10.3V-179z"/>
				</g>
				<g>
					<path id="DejaVuSans-30_00000176033528538584989230000005647542454539836846_" d="M228.2-125c-5.1,0-8.9-2.5-11.5-7.5
						c-2.6-5-3.8-12.5-3.8-22.5c0-10,1.3-17.5,3.8-22.5c2.6-5,6.4-7.5,11.5-7.5c5.1,0,8.9,2.5,11.5,7.5c2.6,5,3.8,12.5,3.8,22.5
						c0,10-1.3,17.5-3.8,22.5C237.2-127.5,233.3-125,228.2-125z M228.2-117.2c8.2,0,14.4-3.2,18.7-9.7c4.3-6.5,6.5-15.8,6.5-28.1
						c0-12.3-2.2-21.6-6.5-28.1c-4.3-6.5-10.6-9.7-18.7-9.7c-8.2,0-14.4,3.2-18.7,9.7c-4.3,6.5-6.5,15.8-6.5,28.1
						c0,12.3,2.2,21.7,6.5,28.1C213.8-120.4,220-117.2,228.2-117.2z"/>
				</g>
			</g>
		</g>
	</g>
	<g id="xtick_8">
		<g id="line2d_8">
			<g>
				<g>
					<path id="meebed39c4e_00000120545813759610905720000012919389643545920153_" class="st1" d="M339.1,271.1v3.5"/>
				</g>
			</g>
		</g>
		<g id="text_8">
			<g transform="translate(324.212368 266.598437)scale(0.1 -0.1)">
				<g>
					<path id="DejaVuSans-31_00000125585985627506597170000014057382385782087848_" d="M49.8-183.1h16.1v55.6L48.4-131v9l17.4,3.5
						h9.9v-64.6h16.1v-8.3h-42V-183.1z"/>
				</g>
				<g>
					<path id="DejaVuSans-37_00000162336182107122327770000001236357195039662485_" d="M109.2-118.5h46.9v-4.2l-26.5-68.7h-10.3
						l24.9,64.6h-35V-118.5z"/>
				</g>
				<g>
					<path id="DejaVuSans-2e_00000124852398728507282010000003792755339305274535_" d="M175.3-179h10.3v-12.4h-10.3V-179z"/>
				</g>
				<g>
					<path id="DejaVuSans-35_00000081616333916589305890000000418714730285207720_" d="M207.2-118.5h38.7v-8.3h-29.7v-17.9
						c1.4,0.5,2.9,0.9,4.3,1.1c1.4,0.2,2.9,0.4,4.3,0.4c8.1,0,14.6-2.2,19.3-6.7c4.8-4.5,7.1-10.5,7.1-18.1c0-7.8-2.4-13.9-7.3-18.3
						c-4.9-4.3-11.8-6.5-20.7-6.5c-3.1,0-6.2,0.3-9.4,0.8c-3.2,0.5-6.4,1.3-9.8,2.3v9.9c2.9-1.6,6-2.8,9.1-3.6s6.4-1.2,9.9-1.2
						c5.6,0,10.1,1.5,13.4,4.4c3.3,3,4.9,7,4.9,12.1c0,5.1-1.6,9.1-4.9,12c-3.3,3-7.7,4.5-13.4,4.5c-2.6,0-5.3-0.3-7.9-0.9
						c-2.6-0.6-5.3-1.5-8-2.7V-118.5z"/>
				</g>
			</g>
		</g>
	</g>
	<g id="xtick_9">
		<g id="line2d_9">
			<g>
				<g>
					<path id="meebed39c4e_00000125572220906570630100000015364799807420530863_" class="st1" d="M377.3,271.1v3.5"/>
				</g>
			</g>
		</g>
		<g id="text_9">
			<g transform="translate(362.449006 266.598437)scale(0.1 -0.1)">
				<g>
					<path id="DejaVuSans-32_00000098936842753387818450000010409633142398221995_" d="M56.6-183.1H91v-8.3H44.7v8.3
						c3.7,3.9,8.8,9.1,15.3,15.6c6.5,6.5,10.5,10.7,12.2,12.6c3.2,3.5,5.4,6.5,6.6,9c1.3,2.5,1.9,4.9,1.9,7.2c0,3.9-1.4,7-4.1,9.5
						c-2.7,2.4-6.3,3.7-10.6,3.7c-3.1,0-6.4-0.5-9.8-1.6c-3.4-1.1-7.1-2.7-11-4.9v10c4,1.6,7.7,2.8,11.1,3.6
						c3.5,0.8,6.6,1.2,9.5,1.2c7.6,0,13.6-1.9,18.1-5.7c4.5-3.8,6.7-8.8,6.7-15.1c0-3-0.6-5.8-1.7-8.5c-1.1-2.7-3.2-5.8-6.1-9.5
						c-0.8-0.9-3.4-3.7-7.8-8.2C70.7-168.7,64.5-175,56.6-183.1z"/>
				</g>
				<g>
					<path id="DejaVuSans-30_00000064344171654495518750000005872812320625025927_" d="M132.8-125c-5.1,0-8.9-2.5-11.5-7.5
						c-2.6-5-3.8-12.5-3.8-22.5c0-10,1.3-17.5,3.8-22.5c2.6-5,6.4-7.5,11.5-7.5c5.1,0,8.9,2.5,11.5,7.5c2.6,5,3.8,12.5,3.8,22.5
						c0,10-1.3,17.5-3.8,22.5C141.7-127.5,137.9-125,132.8-125z M132.8-117.2c8.2,0,14.4-3.2,18.7-9.7c4.3-6.5,6.5-15.8,6.5-28.1
						c0-12.3-2.2-21.6-6.5-28.1c-4.3-6.5-10.6-9.7-18.7-9.7c-8.2,0-14.4,3.2-18.7,9.7c-4.3,6.5-6.5,15.8-6.5,28.1
						c0,12.3,2.2,21.7,6.5,28.1C118.4-120.4,124.6-117.2,132.8-117.2z"/>
				</g>
				<g>
					<path id="DejaVuSans-2e_00000109000559024934712790000009568514939839231617_" d="M175.3-179h10.3v-12.4h-10.3V-179z"/>
				</g>
				<g>
					<path id="DejaVuSans-30_00000084524006555263880770000003927510866913713548_" d="M228.2-125c-5.1,0-8.9-2.5-11.5-7.5
						c-2.6-5-3.8-12.5-3.8-22.5c0-10,1.3-17.5,3.8-22.5c2.6-5,6.4-7.5,11.5-7.5c5.1,0,8.9,2.5,11.5,7.5c2.6,5,3.8,12.5,3.8,22.5
						c0,10-1.3,17.5-3.8,22.5C237.2-127.5,233.3-125,228.2-125z M228.2-117.2c8.2,0,14.4-3.2,18.7-9.7c4.3-6.5,6.5-15.8,6.5-28.1
						c0-12.3-2.2-21.6-6.5-28.1c-4.3-6.5-10.6-9.7-18.7-9.7c-8.2,0-14.4,3.2-18.7,9.7c-4.3,6.5-6.5,15.8-6.5,28.1
						c0,12.3,2.2,21.7,6.5,28.1C213.8-120.4,220-117.2,228.2-117.2z"/>
				</g>
			</g>
		</g>
	</g>
	<g id="text_10">
		<g transform="translate(217.908594 280.276563)scale(0.1 -0.1)">
			<g>
				<path id="DejaVuSans-43" d="M101.8-124.1v-10.4c-3.3,3.1-6.9,5.4-10.6,6.9c-3.8,1.5-7.8,2.3-12,2.3c-8.3,0-14.7-2.5-19.1-7.6
					c-4.4-5.1-6.6-12.5-6.6-22.1c0-9.6,2.2-17,6.6-22s10.8-7.6,19.1-7.6c4.2,0,8.2,0.8,12,2.3c3.8,1.5,7.3,3.8,10.6,6.9v-10.3
					c-3.4-2.3-7.1-4.1-11-5.3c-3.9-1.2-7.9-1.8-12.2-1.8c-11,0-19.7,3.4-26.1,10.1c-6.3,6.8-9.5,16-9.5,27.7c0,11.7,3.2,21,9.5,27.7
					c6.4,6.8,15.1,10.1,26.1,10.1c4.4,0,8.5-0.6,12.3-1.7C94.8-120.1,98.4-121.8,101.8-124.1z"/>
			</g>
		</g>
	</g>
</g>
<g id="matplotlib.axis_2">
	<g id="ytick_1">
		<g id="line2d_10">
			<g>
				<g>
					<path id="md5db024bc3" class="st1" d="M57.7,236h-3.5"/>
				</g>
			</g>
		</g>
		<g id="text_11">
			<g transform="translate(16.354687 220.699685)scale(0.1 -0.1)">
				<g>
					<path id="DejaVuSans-2212" d="M48-155.9h62.6v-8.3H48V-155.9z"/>
				</g>
				<g>
					<path id="DejaVuSans-30_00000155143551117310845320000017790650470351280058_" d="M153-125c-5.1,0-8.9-2.5-11.5-7.5
						c-2.6-5-3.8-12.5-3.8-22.5c0-10,1.3-17.5,3.8-22.5c2.6-5,6.4-7.5,11.5-7.5c5.1,0,8.9,2.5,11.5,7.5c2.6,5,3.8,12.5,3.8,22.5
						c0,10-1.3,17.5-3.8,22.5C161.9-127.5,158.1-125,153-125z M153-117.2c8.2,0,14.4-3.2,18.7-9.7c4.3-6.5,6.5-15.8,6.5-28.1
						c0-12.3-2.2-21.6-6.5-28.1c-4.3-6.5-10.6-9.7-18.7-9.7c-8.2,0-14.4,3.2-18.7,9.7c-4.3,6.5-6.5,15.8-6.5,28.1
						c0,12.3,2.2,21.7,6.5,28.1C138.6-120.4,144.8-117.2,153-117.2z"/>
				</g>
				<g>
					<path id="DejaVuSans-2e_00000074415117962145200880000006656903878990874012_" d="M195.5-179h10.3v-12.4h-10.3V-179z"/>
				</g>
				<g>
					<path id="DejaVuSans-34" d="M254.4-127.1L229.5-166h24.9V-127.1z M251.8-118.5h12.4V-166h10.4v-8.2h-10.4v-17.2h-9.8v17.2
						h-32.9v9.5L251.8-118.5z"/>
				</g>
				<g>
					<path id="DejaVuSans-35_00000127765007084114657860000000859407018292344466_" d="M291-118.5h38.7v-8.3H300v-17.9
						c1.4,0.5,2.9,0.9,4.3,1.1c1.4,0.2,2.9,0.4,4.3,0.4c8.1,0,14.6-2.2,19.3-6.7c4.8-4.5,7.1-10.5,7.1-18.1c0-7.8-2.4-13.9-7.3-18.3
						c-4.9-4.3-11.8-6.5-20.7-6.5c-3.1,0-6.2,0.3-9.4,0.8c-3.2,0.5-6.4,1.3-9.8,2.3v9.9c2.9-1.6,6-2.8,9.1-3.6s6.4-1.2,9.9-1.2
						c5.6,0,10.1,1.5,13.4,4.4c3.3,3,4.9,7,4.9,12.1c0,5.1-1.6,9.1-4.9,12c-3.3,3-7.7,4.5-13.4,4.5c-2.6,0-5.3-0.3-7.9-0.9
						c-2.6-0.6-5.3-1.5-8-2.7V-118.5z"/>
				</g>
			</g>
		</g>
	</g>
	<g id="ytick_2">
		<g id="line2d_11">
			<g>
				<g>
					<path id="md5db024bc3_00000043444637855361893930000005081472758238543283_" class="st1" d="M57.7,196.1h-3.5"/>
				</g>
			</g>
		</g>
		<g id="text_12">
			<g transform="translate(16.354687 180.754801)scale(0.1 -0.1)">
				<g>
					<path id="DejaVuSans-2212_00000136371489053784656020000005381330170504702878_" d="M48-155.9h62.6v-8.3H48V-155.9z"/>
				</g>
				<g>
					<path id="DejaVuSans-30_00000063593726616882891090000004804934476531680423_" d="M153-125c-5.1,0-8.9-2.5-11.5-7.5
						c-2.6-5-3.8-12.5-3.8-22.5c0-10,1.3-17.5,3.8-22.5c2.6-5,6.4-7.5,11.5-7.5c5.1,0,8.9,2.5,11.5,7.5c2.6,5,3.8,12.5,3.8,22.5
						c0,10-1.3,17.5-3.8,22.5C161.9-127.5,158.1-125,153-125z M153-117.2c8.2,0,14.4-3.2,18.7-9.7c4.3-6.5,6.5-15.8,6.5-28.1
						c0-12.3-2.2-21.6-6.5-28.1c-4.3-6.5-10.6-9.7-18.7-9.7c-8.2,0-14.4,3.2-18.7,9.7c-4.3,6.5-6.5,15.8-6.5,28.1
						c0,12.3,2.2,21.7,6.5,28.1C138.6-120.4,144.8-117.2,153-117.2z"/>
				</g>
				<g>
					<path id="DejaVuSans-2e_00000037668595790133275440000008197046867927965857_" d="M195.5-179h10.3v-12.4h-10.3V-179z"/>
				</g>
				<g>
					<path id="DejaVuSans-34_00000161605859601128048630000007031286181721518745_" d="M254.4-127.1L229.5-166h24.9V-127.1z
						 M251.8-118.5h12.4V-166h10.4v-8.2h-10.4v-17.2h-9.8v17.2h-32.9v9.5L251.8-118.5z"/>
				</g>
				<g>
					<path id="DejaVuSans-30_00000129913681120667997190000006948394601867435912_" d="M312-125c-5.1,0-8.9-2.5-11.5-7.5
						c-2.6-5-3.8-12.5-3.8-22.5c0-10,1.3-17.5,3.8-22.5c2.6-5,6.4-7.5,11.5-7.5c5.1,0,8.9,2.5,11.5,7.5c2.6,5,3.8,12.5,3.8,22.5
						c0,10-1.3,17.5-3.8,22.5C320.9-127.5,317.1-125,312-125z M312-117.2c8.2,0,14.4-3.2,18.7-9.7c4.3-6.5,6.5-15.8,6.5-28.1
						c0-12.3-2.2-21.6-6.5-28.1c-4.3-6.5-10.6-9.7-18.7-9.7c-8.2,0-14.4,3.2-18.7,9.7c-4.3,6.5-6.5,15.8-6.5,28.1
						c0,12.3,2.2,21.7,6.5,28.1C297.6-120.4,303.8-117.2,312-117.2z"/>
				</g>
			</g>
		</g>
	</g>
	<g id="ytick_3">
		<g id="line2d_12">
			<g>
				<g>
					<path id="md5db024bc3_00000038398910250633667760000003298960358094437038_" class="st1" d="M57.7,156.2h-3.5"/>
				</g>
			</g>
		</g>
		<g id="text_13">
			<g transform="translate(16.354687 140.809916)scale(0.1 -0.1)">
				<g>
					<path id="DejaVuSans-2212_00000002381590771456065360000014096382282104957061_" d="M48-155.9h62.6v-8.3H48V-155.9z"/>
				</g>
				<g>
					<path id="DejaVuSans-30_00000047760821720826510430000012579168755801357985_" d="M153-125c-5.1,0-8.9-2.5-11.5-7.5
						c-2.6-5-3.8-12.5-3.8-22.5c0-10,1.3-17.5,3.8-22.5c2.6-5,6.4-7.5,11.5-7.5c5.1,0,8.9,2.5,11.5,7.5c2.6,5,3.8,12.5,3.8,22.5
						c0,10-1.3,17.5-3.8,22.5C161.9-127.5,158.1-125,153-125z M153-117.2c8.2,0,14.4-3.2,18.7-9.7c4.3-6.5,6.5-15.8,6.5-28.1
						c0-12.3-2.2-21.6-6.5-28.1c-4.3-6.5-10.6-9.7-18.7-9.7c-8.2,0-14.4,3.2-18.7,9.7c-4.3,6.5-6.5,15.8-6.5,28.1
						c0,12.3,2.2,21.7,6.5,28.1C138.6-120.4,144.8-117.2,153-117.2z"/>
				</g>
				<g>
					<path id="DejaVuSans-2e_00000170252578474372003470000001104921730688505996_" d="M195.5-179h10.3v-12.4h-10.3V-179z"/>
				</g>
				<g>
					<path id="DejaVuSans-33" d="M257.2-152.1c4.7-1,8.4-3.1,11-6.3c2.7-3.2,4-7.1,4-11.8c0-7.2-2.5-12.8-7.4-16.7
						c-4.9-3.9-12-5.9-21.1-5.9c-3.1,0-6.2,0.3-9.4,0.9c-3.2,0.6-6.6,1.5-10,2.7v9.5c2.7-1.6,5.7-2.8,9-3.6
						c3.3-0.8,6.7-1.2,10.2-1.2c6.2,0,10.9,1.2,14.1,3.7c3.2,2.4,4.9,6,4.9,10.6c0,4.3-1.5,7.7-4.5,10.1c-3,2.4-7.2,3.6-12.6,3.6
						h-8.5v8.1h8.9c4.8,0,8.6,1,11.1,2.9c2.6,1.9,3.9,4.7,3.9,8.4c0,3.7-1.3,6.6-4,8.6c-2.6,2-6.4,3-11.4,3c-2.7,0-5.6-0.3-8.7-0.9
						c-3.1-0.6-6.5-1.5-10.2-2.7v8.8c3.8,1,7.3,1.8,10.5,2.3s6.4,0.8,9.2,0.8c7.5,0,13.4-1.7,17.8-5.1c4.4-3.4,6.5-8,6.5-13.8
						c0-4-1.2-7.5-3.5-10.2S261.4-151,257.2-152.1z"/>
				</g>
				<g>
					<path id="DejaVuSans-35_00000183968411476110893190000011717062161896645300_" d="M291-118.5h38.7v-8.3H300v-17.9
						c1.4,0.5,2.9,0.9,4.3,1.1c1.4,0.2,2.9,0.4,4.3,0.4c8.1,0,14.6-2.2,19.3-6.7c4.8-4.5,7.1-10.5,7.1-18.1c0-7.8-2.4-13.9-7.3-18.3
						c-4.9-4.3-11.8-6.5-20.7-6.5c-3.1,0-6.2,0.3-9.4,0.8c-3.2,0.5-6.4,1.3-9.8,2.3v9.9c2.9-1.6,6-2.8,9.1-3.6s6.4-1.2,9.9-1.2
						c5.6,0,10.1,1.5,13.4,4.4c3.3,3,4.9,7,4.9,12.1c0,5.1-1.6,9.1-4.9,12c-3.3,3-7.7,4.5-13.4,4.5c-2.6,0-5.3-0.3-7.9-0.9
						c-2.6-0.6-5.3-1.5-8-2.7V-118.5z"/>
				</g>
			</g>
		</g>
	</g>
	<g id="ytick_4">
		<g id="line2d_13">
			<g>
				<g>
					<path id="md5db024bc3_00000123420040467125433120000015925741471454978208_" class="st1" d="M57.7,116.2h-3.5"/>
				</g>
			</g>
		</g>
		<g id="text_14">
			<g transform="translate(16.354687 100.865032)scale(0.1 -0.1)">
				<g>
					<path id="DejaVuSans-2212_00000157301179814241772310000015391371474430881429_" d="M48-155.9h62.6v-8.3H48V-155.9z"/>
				</g>
				<g>
					<path id="DejaVuSans-30_00000026865884087273427830000001660950337838412164_" d="M153-125c-5.1,0-8.9-2.5-11.5-7.5
						c-2.6-5-3.8-12.5-3.8-22.5c0-10,1.3-17.5,3.8-22.5c2.6-5,6.4-7.5,11.5-7.5c5.1,0,8.9,2.5,11.5,7.5c2.6,5,3.8,12.5,3.8,22.5
						c0,10-1.3,17.5-3.8,22.5C161.9-127.5,158.1-125,153-125z M153-117.2c8.2,0,14.4-3.2,18.7-9.7c4.3-6.5,6.5-15.8,6.5-28.1
						c0-12.3-2.2-21.6-6.5-28.1c-4.3-6.5-10.6-9.7-18.7-9.7c-8.2,0-14.4,3.2-18.7,9.7c-4.3,6.5-6.5,15.8-6.5,28.1
						c0,12.3,2.2,21.7,6.5,28.1C138.6-120.4,144.8-117.2,153-117.2z"/>
				</g>
				<g>
					<path id="DejaVuSans-2e_00000065769906366799479770000000448839039913038010_" d="M195.5-179h10.3v-12.4h-10.3V-179z"/>
				</g>
				<g>
					<path id="DejaVuSans-33_00000083791591770119287880000001151017681541968012_" d="M257.2-152.1c4.7-1,8.4-3.1,11-6.3
						c2.7-3.2,4-7.1,4-11.8c0-7.2-2.5-12.8-7.4-16.7c-4.9-3.9-12-5.9-21.1-5.9c-3.1,0-6.2,0.3-9.4,0.9c-3.2,0.6-6.6,1.5-10,2.7v9.5
						c2.7-1.6,5.7-2.8,9-3.6c3.3-0.8,6.7-1.2,10.2-1.2c6.2,0,10.9,1.2,14.1,3.7c3.2,2.4,4.9,6,4.9,10.6c0,4.3-1.5,7.7-4.5,10.1
						c-3,2.4-7.2,3.6-12.6,3.6h-8.5v8.1h8.9c4.8,0,8.6,1,11.1,2.9c2.6,1.9,3.9,4.7,3.9,8.4c0,3.7-1.3,6.6-4,8.6c-2.6,2-6.4,3-11.4,3
						c-2.7,0-5.6-0.3-8.7-0.9c-3.1-0.6-6.5-1.5-10.2-2.7v8.8c3.8,1,7.3,1.8,10.5,2.3s6.4,0.8,9.2,0.8c7.5,0,13.4-1.7,17.8-5.1
						c4.4-3.4,6.5-8,6.5-13.8c0-4-1.2-7.5-3.5-10.2S261.4-151,257.2-152.1z"/>
				</g>
				<g>
					<path id="DejaVuSans-30_00000080205915706859778390000004671509842586005923_" d="M312-125c-5.1,0-8.9-2.5-11.5-7.5
						c-2.6-5-3.8-12.5-3.8-22.5c0-10,1.3-17.5,3.8-22.5c2.6-5,6.4-7.5,11.5-7.5c5.1,0,8.9,2.5,11.5,7.5c2.6,5,3.8,12.5,3.8,22.5
						c0,10-1.3,17.5-3.8,22.5C320.9-127.5,317.1-125,312-125z M312-117.2c8.2,0,14.4-3.2,18.7-9.7c4.3-6.5,6.5-15.8,6.5-28.1
						c0-12.3-2.2-21.6-6.5-28.1c-4.3-6.5-10.6-9.7-18.7-9.7c-8.2,0-14.4,3.2-18.7,9.7c-4.3,6.5-6.5,15.8-6.5,28.1
						c0,12.3,2.2,21.7,6.5,28.1C297.6-120.4,303.8-117.2,312-117.2z"/>
				</g>
			</g>
		</g>
	</g>
	<g id="ytick_5">
		<g id="line2d_14">
			<g>
				<g>
					<path id="md5db024bc3_00000132063301906597467780000003847764390616272541_" class="st1" d="M57.7,76.3h-3.5"/>
				</g>
			</g>
		</g>
		<g id="text_15">
			<g transform="translate(16.354687 60.920147)scale(0.1 -0.1)">
				<g>
					<path id="DejaVuSans-2212_00000093162808995576742650000006926634660540410757_" d="M48-155.9h62.6v-8.3H48V-155.9z"/>
				</g>
				<g>
					<path id="DejaVuSans-30_00000073696898839988997620000002283406286490666641_" d="M153-125c-5.1,0-8.9-2.5-11.5-7.5
						c-2.6-5-3.8-12.5-3.8-22.5c0-10,1.3-17.5,3.8-22.5c2.6-5,6.4-7.5,11.5-7.5c5.1,0,8.9,2.5,11.5,7.5c2.6,5,3.8,12.5,3.8,22.5
						c0,10-1.3,17.5-3.8,22.5C161.9-127.5,158.1-125,153-125z M153-117.2c8.2,0,14.4-3.2,18.7-9.7c4.3-6.5,6.5-15.8,6.5-28.1
						c0-12.3-2.2-21.6-6.5-28.1c-4.3-6.5-10.6-9.7-18.7-9.7c-8.2,0-14.4,3.2-18.7,9.7c-4.3,6.5-6.5,15.8-6.5,28.1
						c0,12.3,2.2,21.7,6.5,28.1C138.6-120.4,144.8-117.2,153-117.2z"/>
				</g>
				<g>
					<path id="DejaVuSans-2e_00000035521540727877696690000015572396962280136103_" d="M195.5-179h10.3v-12.4h-10.3V-179z"/>
				</g>
				<g>
					<path id="DejaVuSans-32_00000098199568623510380340000007337365076069500051_" d="M235.8-183.1h34.4v-8.3h-46.3v8.3
						c3.7,3.9,8.8,9.1,15.3,15.6c6.5,6.5,10.5,10.7,12.2,12.6c3.2,3.5,5.4,6.5,6.6,9c1.3,2.5,1.9,4.9,1.9,7.2c0,3.9-1.4,7-4.1,9.5
						c-2.7,2.4-6.3,3.7-10.6,3.7c-3.1,0-6.4-0.5-9.8-1.6c-3.4-1.1-7.1-2.7-11-4.9v10c4,1.6,7.7,2.8,11.1,3.6
						c3.5,0.8,6.6,1.2,9.5,1.2c7.6,0,13.6-1.9,18.1-5.7c4.5-3.8,6.7-8.8,6.7-15.1c0-3-0.6-5.8-1.7-8.5c-1.1-2.7-3.2-5.8-6.1-9.5
						c-0.8-0.9-3.4-3.7-7.8-8.2C249.9-168.7,243.7-175,235.8-183.1z"/>
				</g>
				<g>
					<path id="DejaVuSans-35_00000152959514649820490390000001890671453491712923_" d="M291-118.5h38.7v-8.3H300v-17.9
						c1.4,0.5,2.9,0.9,4.3,1.1c1.4,0.2,2.9,0.4,4.3,0.4c8.1,0,14.6-2.2,19.3-6.7c4.8-4.5,7.1-10.5,7.1-18.1c0-7.8-2.4-13.9-7.3-18.3
						c-4.9-4.3-11.8-6.5-20.7-6.5c-3.1,0-6.2,0.3-9.4,0.8c-3.2,0.5-6.4,1.3-9.8,2.3v9.9c2.9-1.6,6-2.8,9.1-3.6s6.4-1.2,9.9-1.2
						c5.6,0,10.1,1.5,13.4,4.4c3.3,3,4.9,7,4.9,12.1c0,5.1-1.6,9.1-4.9,12c-3.3,3-7.7,4.5-13.4,4.5c-2.6,0-5.3-0.3-7.9-0.9
						c-2.6-0.6-5.3-1.5-8-2.7V-118.5z"/>
				</g>
			</g>
		</g>
	</g>
	<g id="text_16">
		<g transform="translate(10.275 157.401875)rotate(-90)scale(0.1 -0.1)">
			<g>
				<path id="DejaVuSans-52" d="M-147-3.2c2.1-0.7,4.2-2.2,6.2-4.6s4-5.6,6-9.7l10-19.9h-10.6l-9.3,18.7c-2.4,4.9-4.8,8.1-7,9.7
					s-5.3,2.4-9.2,2.4h-10.8v-30.8h-9.9v72.9h22.3c8.3,0,14.6-1.7,18.7-5.2c4.1-3.5,6.2-8.7,6.2-15.8c0-4.6-1.1-8.4-3.2-11.4
					C-139.8,0.1-142.9-2-147-3.2z M-171.7,27.4V1.5h12.4c4.8,0,8.3,1.1,10.8,3.3s3.6,5.4,3.6,9.7s-1.2,7.5-3.6,9.6s-6,3.2-10.8,3.2
					H-171.7z"/>
			</g>
			<g>
				<path id="DejaVuSans-4d" d="M-112.1,35.5h14.7l18.6-49.6l18.7,49.6h14.7v-72.9H-55v64l-18.8-50h-9.9l-18.8,50v-64h-9.6V35.5z"/>
			</g>
			<g>
				<path id="DejaVuSans-53" d="M17.9,33.1v-9.6c-3.7,1.8-7.3,3.1-10.6,4c-3.3,0.9-6.5,1.3-9.6,1.3c-5.4,0-9.5-1-12.4-3.1
					c-2.9-2.1-4.4-5-4.4-8.9c0-3.2,1-5.7,2.9-7.3c1.9-1.6,5.6-3,11-4l6-1.2C8.1,2.9,13.5,0.4,17-3.1s5.2-8.3,5.2-14.2
					c0-7.1-2.4-12.4-7.1-16.1C10.4-37,3.5-38.8-5.7-38.8c-3.4,0-7.1,0.4-11,1.2c-3.9,0.8-7.9,1.9-12.1,3.5V-24
					c4-2.2,7.9-3.9,11.8-5.1c3.8-1.1,7.6-1.7,11.3-1.7c5.6,0,10,1.1,13,3.3c3.1,2.2,4.6,5.4,4.6,9.5c0,3.6-1.1,6.4-3.3,8.4
					S2.9-6.1-2.1-5.1l-6,1.2c-7.4,1.5-12.7,3.8-16,6.9c-3.3,3.1-4.9,7.5-4.9,13c0,6.4,2.3,11.5,6.8,15.2s10.8,5.6,18.8,5.6
					c3.4,0,6.9-0.3,10.5-0.9C10.5,35.3,14.2,34.4,17.9,33.1z"/>
			</g>
			<g>
				<path id="DejaVuSans-45" d="M37.7,35.5h46.1v-8.3H47.5V5.6h34.7v-8.3H47.5v-26.4h37.1v-8.3h-47V35.5z"/>
			</g>
		</g>
	</g>
</g>
<g id="line2d_15">
	<g>
		<defs>
			<rect id="SVGID_1_" x="57.7" y="53.7" width="334.8" height="217.4"/>
		</defs>
		<clipPath id="SVGID_00000047033125970312942190000011781338957843059108_">
			<use xlink:href="#SVGID_1_"  style="overflow:visible;"/>
		</clipPath>
		
			<path style="clip-path:url(#SVGID_00000047033125970312942190000011781338957843059108_);fill:none;stroke:#0000FF;stroke-width:1.5;stroke-linecap:square;stroke-linejoin:round;" d="
			M73,252.3l1.5-39.9l1.5-17.8l1.5-12.4l1.5-9.5l1.5-8.2l1.5-6.4l4.6-15.5l1.5-4.5l1.5-3.8l1.5-3l3.1-5.1l1.5-2.9l1.5-2.6l3.1-4.3
			l1.5-1.8l4.6-4.5l3.1-2.8l1.5-1l4.6-2.3l7.6-3.8l3.1-1.5l1.5-0.8l4.6-1.5l3.1-1.5l3.1-1.1l4.6-1.2l6.1-1.6l9.2-2.9l4.6-1l3.1-0.5
			l4.6-1.1l1.5-0.5l7.6-1.6l9.2-1.6l7.6-1.4l9.2-1.3l7.6-1l7.6-0.9l7.6-0.8l4.6-0.6l6.1-0.7l16.8-2l7.6-0.7l29.1-2.5l10.7-1.2
			l18.4-1.9l4.6-0.4l26-1.6l24.5-1.4l0,0"/>
	</g>
</g>
<g id="line2d_16">
	<g>
		<defs>
			<rect id="SVGID_00000120554494883539405420000007656867761365091485_" x="57.7" y="53.7" width="334.8" height="217.4"/>
		</defs>
		<clipPath id="SVGID_00000054241295596182436730000010504829645770877369_">
			<use xlink:href="#SVGID_00000120554494883539405420000007656867761365091485_"  style="overflow:visible;"/>
		</clipPath>
		
			<path style="clip-path:url(#SVGID_00000054241295596182436730000010504829645770877369_);fill:none;stroke:#FF0000;stroke-width:1.5;stroke-linecap:square;stroke-linejoin:round;" d="
			M73,261.3l1.5-27.9l1.5-12.9l1.5-5.5l1.5-2.6l1.5-6.5l3.1-4.9l1.5-2l1.5,1.3l1.5-0.9l1.5-1.1l3.1,3.3l1.5,0.8l1.5-0.2l1.5,0.5
			l3.1-1.3l1.5-2l1.5-0.5l1.5-0.2l1.5-0.8l1.5-0.4l1.5,0l1.5-0.2l1.5-0.6l1.5-1l6.1-5.6l3.1-2.3l1.5-0.9l3.1-1l4.6-3l1.5-0.8
			l1.5-0.4l4.6-0.7l1.5-0.3l1.5-0.6l3.1-1.6l4.6-2.1l1.5-0.8l1.5-0.4l3.1,0.8l3.1,1l4.6,2.4l1.5,0.2l3.1-0.7l3.1-0.5l1.5-0.4
			l4.6-1.4l1.5-0.6l4.6-1l12.2-3.3l4.6-1.1l3.1-0.6l3.1-0.5l7.6-0.5l1.5-0.2l1.5-0.1l3.1-0.3l9.2-0.2l13.8,0.4l4.6-0.4l3.1-0.4
			l4.6-0.4l4.6-0.4l6.1-0.4l4.6-0.3l1.5-0.3l4.6-0.6l10.7-1.2l15.3-0.9l4.6-0.2l6.1-0.6l4.6-0.5l4.6-0.4l12.2-1.2l1.5-0.2l39.8,0.6
			l0,0"/>
	</g>
</g>
<g id="patch_3">
	<path class="st4" d="M57.7,271.1V53.7"/>
</g>
<g id="patch_4">
	<path class="st4" d="M392.5,271.1V53.7"/>
</g>
<g id="patch_5">
	<path class="st4" d="M57.7,271.1h334.8"/>
</g>
<g id="patch_6">
	<path class="st4" d="M57.7,53.7h334.8"/>
</g>
<path class="st0" d="M412,307.1h432v-288H412V307.1z"/>
<g id="patch_2_00000060735778827153615430000015282894383501833873_">
	<path class="st0" d="M466,271.1h334.8V53.7H466V271.1z"/>
</g>
<g id="matplotlib.axis_1_00000011000169279725971860000004538556961257503125_">
	<g id="xtick_1_00000015353467827299196300000003853504066955436966_">
		<g id="line2d_1_00000121969650629180638040000015819865459470350764_">
			<g>
				<g>
					<path id="mf81bb102a8" class="st1" d="M515,271.1v3.5"/>
				</g>
			</g>
		</g>
		<g id="text_1_00000123439308516844136260000014481657374054665353_">
			<g transform="translate(95.084801 266.598437)scale(0.1 -0.1)">
				<g>
					<path id="DejaVuSans-30_00000038404516466063973140000000905970404821394613_" d="M4151.7-125c-5.1,0-8.9-2.5-11.5-7.5
						c-2.6-5-3.8-12.5-3.8-22.5c0-10,1.3-17.5,3.8-22.5c2.6-5,6.4-7.5,11.5-7.5c5.1,0,8.9,2.5,11.5,7.5c2.6,5,3.8,12.5,3.8,22.5
						c0,10-1.3,17.5-3.8,22.5C4160.6-127.5,4156.8-125,4151.7-125z M4151.7-117.2c8.2,0,14.4-3.2,18.7-9.7
						c4.3-6.5,6.5-15.8,6.5-28.1c0-12.3-2.2-21.6-6.5-28.1c-4.3-6.5-10.6-9.7-18.7-9.7c-8.2,0-14.4,3.2-18.7,9.7
						c-4.3,6.5-6.5,15.8-6.5,28.1c0,12.3,2.2,21.7,6.5,28.1C4137.3-120.4,4143.5-117.2,4151.7-117.2z"/>
				</g>
				<g>
					<path id="DejaVuSans-2e_00000087401346423997816950000013369801793509045174_" d="M4194.2-179h10.3v-12.4h-10.3V-179z"/>
				</g>
				<g>
					<path id="DejaVuSans-31_00000053543210399712474720000014292397757192581787_" d="M4227.7-183.1h16.1v55.6l-17.5-3.5v9
						l17.4,3.5h9.9v-64.6h16.1v-8.3h-42V-183.1z"/>
				</g>
			</g>
		</g>
	</g>
	<g id="xtick_2_00000061433428602941863540000001283802343225075378_">
		<g id="line2d_2_00000163070795642037426260000014499055971159426695_">
			<g>
				<g>
					<path id="mf81bb102a8_00000054971562830367266240000003801143188936097192_" class="st1" d="M582.7,271.1v3.5"/>
				</g>
			</g>
		</g>
		<g id="text_2_00000135682567320360506150000014628593635862792636_">
			<g transform="translate(162.721165 266.598437)scale(0.1 -0.1)">
				<g>
					<path id="DejaVuSans-30_00000086651575161667434190000016550422340139495825_" d="M4151.7-125c-5.1,0-8.9-2.5-11.5-7.5
						c-2.6-5-3.8-12.5-3.8-22.5c0-10,1.3-17.5,3.8-22.5c2.6-5,6.4-7.5,11.5-7.5c5.1,0,8.9,2.5,11.5,7.5c2.6,5,3.8,12.5,3.8,22.5
						c0,10-1.3,17.5-3.8,22.5C4160.6-127.5,4156.8-125,4151.7-125z M4151.7-117.2c8.2,0,14.4-3.2,18.7-9.7
						c4.3-6.5,6.5-15.8,6.5-28.1c0-12.3-2.2-21.6-6.5-28.1c-4.3-6.5-10.6-9.7-18.7-9.7c-8.2,0-14.4,3.2-18.7,9.7
						c-4.3,6.5-6.5,15.8-6.5,28.1c0,12.3,2.2,21.7,6.5,28.1C4137.3-120.4,4143.5-117.2,4151.7-117.2z"/>
				</g>
				<g>
					<path id="DejaVuSans-2e_00000162325029285829717110000015321426332364844969_" d="M4194.2-179h10.3v-12.4h-10.3V-179z"/>
				</g>
				<g>
					<path id="DejaVuSans-32_00000106136512194519564260000002813459957167463819_" d="M4234.5-183.1h34.4v-8.3h-46.3v8.3
						c3.7,3.9,8.8,9.1,15.3,15.6c6.5,6.5,10.5,10.7,12.2,12.6c3.2,3.5,5.4,6.5,6.6,9c1.3,2.5,1.9,4.9,1.9,7.2c0,3.9-1.4,7-4.1,9.5
						c-2.7,2.4-6.3,3.7-10.6,3.7c-3.1,0-6.4-0.5-9.8-1.6c-3.4-1.1-7.1-2.7-11-4.9v10c4,1.6,7.7,2.8,11.1,3.6
						c3.5,0.8,6.6,1.2,9.5,1.2c7.6,0,13.6-1.9,18.1-5.7c4.5-3.8,6.7-8.8,6.7-15.1c0-3-0.6-5.8-1.7-8.5c-1.1-2.7-3.2-5.8-6.1-9.5
						c-0.8-0.9-3.4-3.7-7.8-8.2C4248.6-168.7,4242.4-175,4234.5-183.1z"/>
				</g>
			</g>
		</g>
	</g>
	<g id="xtick_3_00000041993991296211209450000014606479764509148547_">
		<g id="line2d_3_00000012449133832054400990000000262734906133976199_">
			<g>
				<g>
					<path id="mf81bb102a8_00000026161805844292836260000006212934614324495031_" class="st1" d="M650.3,271.1v3.5"/>
				</g>
			</g>
		</g>
		<g id="text_3_00000096775474475509805590000009917945315845346986_">
			<g transform="translate(230.357528 266.598437)scale(0.1 -0.1)">
				<g>
					<path id="DejaVuSans-30_00000024680120702030714380000013727685988349208733_" d="M4151.7-125c-5.1,0-8.9-2.5-11.5-7.5
						c-2.6-5-3.8-12.5-3.8-22.5c0-10,1.3-17.5,3.8-22.5c2.6-5,6.4-7.5,11.5-7.5c5.1,0,8.9,2.5,11.5,7.5c2.6,5,3.8,12.5,3.8,22.5
						c0,10-1.3,17.5-3.8,22.5C4160.6-127.5,4156.8-125,4151.7-125z M4151.7-117.2c8.2,0,14.4-3.2,18.7-9.7
						c4.3-6.5,6.5-15.8,6.5-28.1c0-12.3-2.2-21.6-6.5-28.1c-4.3-6.5-10.6-9.7-18.7-9.7c-8.2,0-14.4,3.2-18.7,9.7
						c-4.3,6.5-6.5,15.8-6.5,28.1c0,12.3,2.2,21.7,6.5,28.1C4137.3-120.4,4143.5-117.2,4151.7-117.2z"/>
				</g>
				<g>
					<path id="DejaVuSans-2e_00000095323872005755367400000002827936742485725619_" d="M4194.2-179h10.3v-12.4h-10.3V-179z"/>
				</g>
				<g>
					<path id="DejaVuSans-33_00000165946096963080215780000004725963576989227678_" d="M4255.9-152.1c4.7-1,8.4-3.1,11-6.3
						c2.7-3.2,4-7.1,4-11.8c0-7.2-2.5-12.8-7.4-16.7c-4.9-3.9-12-5.9-21.1-5.9c-3.1,0-6.2,0.3-9.4,0.9c-3.2,0.6-6.6,1.5-10,2.7v9.5
						c2.7-1.6,5.7-2.8,9-3.6c3.3-0.8,6.7-1.2,10.2-1.2c6.2,0,10.9,1.2,14.1,3.7c3.2,2.4,4.9,6,4.9,10.6c0,4.3-1.5,7.7-4.5,10.1
						c-3,2.4-7.2,3.6-12.6,3.6h-8.5v8.1h8.9c4.8,0,8.6,1,11.1,2.9c2.6,1.9,3.9,4.7,3.9,8.4c0,3.7-1.3,6.6-4,8.6c-2.6,2-6.4,3-11.4,3
						c-2.7,0-5.6-0.3-8.7-0.9c-3.1-0.6-6.5-1.5-10.2-2.7v8.8c3.8,1,7.3,1.8,10.5,2.3c3.3,0.5,6.4,0.8,9.2,0.8
						c7.5,0,13.4-1.7,17.8-5.1c4.4-3.4,6.5-8,6.5-13.8c0-4-1.2-7.5-3.5-10.2S4260.1-151,4255.9-152.1z"/>
				</g>
			</g>
		</g>
	</g>
	<g id="xtick_4_00000018941398616000192460000005518819204303634579_">
		<g id="line2d_4_00000147920956458427161530000004922640050414862764_">
			<g>
				<g>
					<path id="mf81bb102a8_00000144296913952139746340000012158694371716280468_" class="st1" d="M717.9,271.1v3.5"/>
				</g>
			</g>
		</g>
		<g id="text_4_00000086680831698876003460000004694092310316859303_">
			<g transform="translate(297.993892 266.598437)scale(0.1 -0.1)">
				<g>
					<path id="DejaVuSans-30_00000058572206934835835470000004381275040173664898_" d="M4151.7-125c-5.1,0-8.9-2.5-11.5-7.5
						c-2.6-5-3.8-12.5-3.8-22.5c0-10,1.3-17.5,3.8-22.5c2.6-5,6.4-7.5,11.5-7.5c5.1,0,8.9,2.5,11.5,7.5c2.6,5,3.8,12.5,3.8,22.5
						c0,10-1.3,17.5-3.8,22.5C4160.6-127.5,4156.8-125,4151.7-125z M4151.7-117.2c8.2,0,14.4-3.2,18.7-9.7
						c4.3-6.5,6.5-15.8,6.5-28.1c0-12.3-2.2-21.6-6.5-28.1c-4.3-6.5-10.6-9.7-18.7-9.7c-8.2,0-14.4,3.2-18.7,9.7
						c-4.3,6.5-6.5,15.8-6.5,28.1c0,12.3,2.2,21.7,6.5,28.1C4137.3-120.4,4143.5-117.2,4151.7-117.2z"/>
				</g>
				<g>
					<path id="DejaVuSans-2e_00000059995052744552277110000001223845514225122743_" d="M4194.2-179h10.3v-12.4h-10.3V-179z"/>
				</g>
				<g>
					<path id="DejaVuSans-34_00000052078029617951966370000004600099048528495781_" d="M4253.1-127.1l-24.9-38.9h24.9V-127.1z
						 M4250.5-118.5h12.4V-166h10.4v-8.2h-10.4v-17.2h-9.8v17.2h-32.9v9.5L4250.5-118.5z"/>
				</g>
			</g>
		</g>
	</g>
	<g id="xtick_5_00000124127586014441629380000005899167812867217027_">
		<g id="line2d_5_00000005240717909800507200000000094393614593989525_">
			<g>
				<g>
					<path id="mf81bb102a8_00000131345298758256967650000001811309670161072266_" class="st1" d="M785.6,271.1v3.5"/>
				</g>
			</g>
		</g>
		<g id="text_5_00000016066903735969107380000018391343166187255986_">
			<g transform="translate(365.630256 266.598437)scale(0.1 -0.1)">
				<g>
					<path id="DejaVuSans-30_00000106138559741040526480000003736916565939640493_" d="M4151.7-125c-5.1,0-8.9-2.5-11.5-7.5
						c-2.6-5-3.8-12.5-3.8-22.5c0-10,1.3-17.5,3.8-22.5c2.6-5,6.4-7.5,11.5-7.5c5.1,0,8.9,2.5,11.5,7.5c2.6,5,3.8,12.5,3.8,22.5
						c0,10-1.3,17.5-3.8,22.5C4160.6-127.5,4156.8-125,4151.7-125z M4151.7-117.2c8.2,0,14.4-3.2,18.7-9.7
						c4.3-6.5,6.5-15.8,6.5-28.1c0-12.3-2.2-21.6-6.5-28.1c-4.3-6.5-10.6-9.7-18.7-9.7c-8.2,0-14.4,3.2-18.7,9.7
						c-4.3,6.5-6.5,15.8-6.5,28.1c0,12.3,2.2,21.7,6.5,28.1C4137.3-120.4,4143.5-117.2,4151.7-117.2z"/>
				</g>
				<g>
					<path id="DejaVuSans-2e_00000148640657028549315610000009832022636696011427_" d="M4194.2-179h10.3v-12.4h-10.3V-179z"/>
				</g>
				<g>
					<path id="DejaVuSans-35_00000122704690049456403400000003393344781802208942_" d="M4226.1-118.5h38.7v-8.3h-29.7v-17.9
						c1.4,0.5,2.9,0.9,4.3,1.1c1.4,0.2,2.9,0.4,4.3,0.4c8.1,0,14.6-2.2,19.3-6.7c4.8-4.5,7.1-10.5,7.1-18.1c0-7.8-2.4-13.9-7.3-18.3
						c-4.9-4.3-11.8-6.5-20.7-6.5c-3.1,0-6.2,0.3-9.4,0.8c-3.2,0.5-6.4,1.3-9.8,2.3v9.9c2.9-1.6,6-2.8,9.1-3.6s6.4-1.2,9.9-1.2
						c5.6,0,10.1,1.5,13.4,4.4c3.3,3,4.9,7,4.9,12.1c0,5.1-1.6,9.1-4.9,12c-3.3,3-7.7,4.5-13.4,4.5c-2.6,0-5.3-0.3-7.9-0.9
						c-2.6-0.6-5.3-1.5-8-2.7V-118.5z"/>
				</g>
			</g>
		</g>
	</g>
	<g id="text_6_00000085215380518968474270000007722573744129446786_">
		<g transform="translate(202.357031 280.276563)scale(0.1 -0.1)">
			<g>
				<path id="DejaVuSans-67_00000011728787739911056950000005689561375351372946_" d="M4165.3-163.4c0,6.5-1.3,11.6-4,15.1
					c-2.7,3.6-6.4,5.4-11.3,5.4c-4.8,0-8.6-1.8-11.2-5.4c-2.7-3.6-4-8.6-4-15.1c0-6.5,1.3-11.5,4-15.1c2.7-3.6,6.4-5.4,11.2-5.4
					c4.9,0,8.6,1.8,11.3,5.4C4163.9-174.9,4165.3-169.9,4165.3-163.4z M4174.3-184.6c0-9.3-2.1-16.2-6.2-20.8
					c-4.1-4.5-10.5-6.8-19-6.8c-3.2,0-6.1,0.2-8.9,0.7c-2.8,0.5-5.5,1.2-8.2,2.2v8.7c2.6-1.4,5.2-2.5,7.8-3.2c2.6-0.7,5.2-1,7.9-1
					c5.9,0,10.3,1.5,13.2,4.6c2.9,3.1,4.4,7.7,4.4,13.9v4.5c-1.9-3.2-4.2-5.6-7.1-7.2c-2.9-1.6-6.4-2.4-10.4-2.4
					c-6.7,0-12.1,2.6-16.2,7.7c-4.1,5.1-6.2,11.9-6.2,20.3c0,8.5,2.1,15.2,6.2,20.3c4.1,5.1,9.5,7.7,16.2,7.7c4,0,7.5-0.8,10.4-2.4
					c2.9-1.6,5.3-4,7.1-7.2v8.3h9V-184.6z"/>
			</g>
			<g>
				<path id="DejaVuSans-61_00000114046323732212590490000012612238500342746029_" d="M4217.6-163.9c-7.3,0-12.3-0.8-15.1-2.5
					c-2.8-1.7-4.2-4.5-4.2-8.5c0-3.2,1.1-5.7,3.2-7.6c2.1-1.9,5-2.8,8.6-2.8c5,0,9,1.8,12,5.3c3,3.5,4.5,8.2,4.5,14.1v2H4217.6z
					 M4235.6-160.2v-31.2h-9v8.3c-2.1-3.3-4.6-5.8-7.7-7.3c-3.1-1.6-6.8-2.4-11.2-2.4c-5.6,0-10,1.6-13.4,4.7c-3.3,3.1-5,7.4-5,12.6
					c0,6.1,2.1,10.8,6.2,13.9c4.1,3.1,10.3,4.7,18.4,4.7h12.6v0.9c0,4.1-1.4,7.3-4.1,9.6c-2.7,2.3-6.5,3.4-11.5,3.4
					c-3.1,0-6.2-0.4-9.1-1.1c-3-0.8-5.8-1.9-8.5-3.4v8.3c3.3,1.3,6.5,2.2,9.6,2.8c3.1,0.6,6.1,1,9,1c7.9,0,13.8-2.1,17.7-6.2
					C4233.6-145.6,4235.6-151.9,4235.6-160.2z"/>
			</g>
			<g>
				<path id="DejaVuSans-6d" d="M4296.6-147.2c2.2,4,4.9,7,8.1,8.9c3.1,1.9,6.8,2.9,11,2.9c5.7,0,10.1-2,13.2-6
					c3.1-4,4.6-9.6,4.6-17v-33h-9v32.7c0,5.2-0.9,9.1-2.8,11.7c-1.9,2.5-4.7,3.8-8.5,3.8c-4.7,0-8.3-1.5-11-4.6
					c-2.7-3.1-4-7.3-4-12.6v-30.9h-9v32.7c0,5.3-0.9,9.2-2.8,11.7c-1.9,2.5-4.7,3.8-8.6,3.8c-4.6,0-8.2-1.6-11-4.7
					c-2.7-3.1-4-7.3-4-12.6v-30.9h-9v54.7h9v-8.5c2.1,3.4,4.5,5.8,7.4,7.4c2.9,1.6,6.3,2.4,10.2,2.4c4,0,7.4-1,10.1-3
					C4293.2-140.4,4295.3-143.4,4296.6-147.2z"/>
			</g>
			<g>
				<path id="DejaVuSans-6d_00000054235866972089417410000008674894456835135637_" d="M4394.1-147.2c2.2,4,4.9,7,8.1,8.9
					c3.1,1.9,6.8,2.9,11,2.9c5.7,0,10.1-2,13.2-6c3.1-4,4.6-9.6,4.6-17v-33h-9v32.7c0,5.2-0.9,9.1-2.8,11.7
					c-1.9,2.5-4.7,3.8-8.5,3.8c-4.7,0-8.3-1.5-11-4.6c-2.7-3.1-4-7.3-4-12.6v-30.9h-9v32.7c0,5.3-0.9,9.2-2.8,11.7
					c-1.9,2.5-4.7,3.8-8.6,3.8c-4.6,0-8.2-1.6-11-4.7c-2.7-3.1-4-7.3-4-12.6v-30.9h-9v54.7h9v-8.5c2.1,3.4,4.5,5.8,7.4,7.4
					c2.9,1.6,6.3,2.4,10.2,2.4c4,0,7.4-1,10.1-3C4390.7-140.4,4392.7-143.4,4394.1-147.2z"/>
			</g>
			<g>
				<path id="DejaVuSans-61_00000009574336645745078050000009184960670587792041_" d="M4473.7-163.9c-7.3,0-12.3-0.8-15.1-2.5
					c-2.8-1.7-4.2-4.5-4.2-8.5c0-3.2,1.1-5.7,3.2-7.6c2.1-1.9,5-2.8,8.6-2.8c5,0,9,1.8,12,5.3c3,3.5,4.5,8.2,4.5,14.1v2H4473.7z
					 M4491.7-160.2v-31.2h-9v8.3c-2.1-3.3-4.6-5.8-7.7-7.3c-3.1-1.6-6.8-2.4-11.2-2.4c-5.6,0-10,1.6-13.4,4.7c-3.3,3.1-5,7.4-5,12.6
					c0,6.1,2.1,10.8,6.2,13.9c4.1,3.1,10.3,4.7,18.4,4.7h12.6v0.9c0,4.1-1.4,7.3-4.1,9.6c-2.7,2.3-6.5,3.4-11.5,3.4
					c-3.1,0-6.2-0.4-9.1-1.1c-3-0.8-5.8-1.9-8.5-3.4v8.3c3.3,1.3,6.5,2.2,9.6,2.8c3.1,0.6,6.1,1,9,1c7.9,0,13.8-2.1,17.7-6.2
					C4489.7-145.6,4491.7-151.9,4491.7-160.2z"/>
			</g>
		</g>
	</g>
</g>
<g id="matplotlib.axis_2_00000015340049722789256470000005372309453008665238_">
	<g id="ytick_1_00000052786324070906762480000002730222175041137286_">
		<g id="line2d_6_00000021121128219052104600000002415091771233491329_">
			<g>
				<g>
					<path id="m4d1f598210" class="st1" d="M466,263.6h-3.5"/>
				</g>
			</g>
		</g>
		<g id="text_7_00000150102870702288549580000012806883949185122471_">
			<g transform="translate(16.354687 248.288077)scale(0.1 -0.1)">
				<g>
					<path id="DejaVuSans-2212_00000126323519220340300710000011888262502997232285_" d="M4130.5-155.9h62.6v-8.3h-62.6V-155.9z"/>
				</g>
				<g>
					<path id="DejaVuSans-30_00000056406220344450133580000001140747482473663138_" d="M4235.5-125c-5.1,0-8.9-2.5-11.5-7.5
						c-2.6-5-3.8-12.5-3.8-22.5c0-10,1.3-17.5,3.8-22.5c2.6-5,6.4-7.5,11.5-7.5c5.1,0,8.9,2.5,11.5,7.5c2.6,5,3.8,12.5,3.8,22.5
						c0,10-1.3,17.5-3.8,22.5C4244.4-127.5,4240.6-125,4235.5-125z M4235.5-117.2c8.2,0,14.4-3.2,18.7-9.7
						c4.3-6.5,6.5-15.8,6.5-28.1c0-12.3-2.2-21.6-6.5-28.1c-4.3-6.5-10.6-9.7-18.7-9.7c-8.2,0-14.4,3.2-18.7,9.7
						c-4.3,6.5-6.5,15.8-6.5,28.1c0,12.3,2.2,21.7,6.5,28.1C4221-120.4,4227.3-117.2,4235.5-117.2z"/>
				</g>
				<g>
					<path id="DejaVuSans-2e_00000080896868369944604590000018038069243009183661_" d="M4278-179h10.3v-12.4H4278V-179z"/>
				</g>
				<g>
					<path id="DejaVuSans-35_00000012432991388699917290000008181900573349421488_" d="M4309.9-118.5h38.7v-8.3h-29.7v-17.9
						c1.4,0.5,2.9,0.9,4.3,1.1c1.4,0.2,2.9,0.4,4.3,0.4c8.1,0,14.6-2.2,19.3-6.7c4.8-4.5,7.1-10.5,7.1-18.1c0-7.8-2.4-13.9-7.3-18.3
						c-4.9-4.3-11.8-6.5-20.7-6.5c-3.1,0-6.2,0.3-9.4,0.8c-3.2,0.5-6.4,1.3-9.8,2.3v9.9c2.9-1.6,6-2.8,9.1-3.6s6.4-1.2,9.9-1.2
						c5.6,0,10.1,1.5,13.4,4.4c3.3,3,4.9,7,4.9,12.1c0,5.1-1.6,9.1-4.9,12c-3.3,3-7.7,4.5-13.4,4.5c-2.6,0-5.3-0.3-7.9-0.9
						c-2.6-0.6-5.3-1.5-8-2.7V-118.5z"/>
				</g>
				<g>
					<path id="DejaVuSans-35_00000152965270321907251830000008914764192582382269_" d="M4373.5-118.5h38.7v-8.3h-29.7v-17.9
						c1.4,0.5,2.9,0.9,4.3,1.1c1.4,0.2,2.9,0.4,4.3,0.4c8.1,0,14.6-2.2,19.3-6.7c4.8-4.5,7.1-10.5,7.1-18.1c0-7.8-2.4-13.9-7.3-18.3
						c-4.9-4.3-11.8-6.5-20.7-6.5c-3.1,0-6.2,0.3-9.4,0.8c-3.2,0.5-6.4,1.3-9.8,2.3v9.9c2.9-1.6,6-2.8,9.1-3.6s6.4-1.2,9.9-1.2
						c5.6,0,10.1,1.5,13.4,4.4c3.3,3,4.9,7,4.9,12.1c0,5.1-1.6,9.1-4.9,12c-3.3,3-7.7,4.5-13.4,4.5c-2.6,0-5.3-0.3-7.9-0.9
						c-2.6-0.6-5.3-1.5-8-2.7V-118.5z"/>
				</g>
			</g>
		</g>
	</g>
	<g id="ytick_2_00000097489398574288520630000007988965108759985086_">
		<g id="line2d_7_00000083782752456490976640000009151899881766191776_">
			<g>
				<g>
					<path id="m4d1f598210_00000072983154863845193500000005239859924863115696_" class="st1" d="M466,216.8h-3.5"/>
				</g>
			</g>
		</g>
		<g id="text_8_00000059270789247611688820000011930978618802547389_">
			<g transform="translate(16.354687 201.468145)scale(0.1 -0.1)">
				<g>
					<path id="DejaVuSans-2212_00000117660165728292406050000007893202849246820525_" d="M4130.5-155.9h62.6v-8.3h-62.6V-155.9z"/>
				</g>
				<g>
					<path id="DejaVuSans-30_00000053544773559794165530000010288111028318085003_" d="M4235.5-125c-5.1,0-8.9-2.5-11.5-7.5
						c-2.6-5-3.8-12.5-3.8-22.5c0-10,1.3-17.5,3.8-22.5c2.6-5,6.4-7.5,11.5-7.5c5.1,0,8.9,2.5,11.5,7.5c2.6,5,3.8,12.5,3.8,22.5
						c0,10-1.3,17.5-3.8,22.5C4244.4-127.5,4240.6-125,4235.5-125z M4235.5-117.2c8.2,0,14.4-3.2,18.7-9.7
						c4.3-6.5,6.5-15.8,6.5-28.1c0-12.3-2.2-21.6-6.5-28.1c-4.3-6.5-10.6-9.7-18.7-9.7c-8.2,0-14.4,3.2-18.7,9.7
						c-4.3,6.5-6.5,15.8-6.5,28.1c0,12.3,2.2,21.7,6.5,28.1C4221-120.4,4227.3-117.2,4235.5-117.2z"/>
				</g>
				<g>
					<path id="DejaVuSans-2e_00000041997646979436276240000005963815472419465630_" d="M4278-179h10.3v-12.4H4278V-179z"/>
				</g>
				<g>
					<path id="DejaVuSans-35_00000170996725990729126120000014080821399464419733_" d="M4309.9-118.5h38.7v-8.3h-29.7v-17.9
						c1.4,0.5,2.9,0.9,4.3,1.1c1.4,0.2,2.9,0.4,4.3,0.4c8.1,0,14.6-2.2,19.3-6.7c4.8-4.5,7.1-10.5,7.1-18.1c0-7.8-2.4-13.9-7.3-18.3
						c-4.9-4.3-11.8-6.5-20.7-6.5c-3.1,0-6.2,0.3-9.4,0.8c-3.2,0.5-6.4,1.3-9.8,2.3v9.9c2.9-1.6,6-2.8,9.1-3.6s6.4-1.2,9.9-1.2
						c5.6,0,10.1,1.5,13.4,4.4c3.3,3,4.9,7,4.9,12.1c0,5.1-1.6,9.1-4.9,12c-3.3,3-7.7,4.5-13.4,4.5c-2.6,0-5.3-0.3-7.9-0.9
						c-2.6-0.6-5.3-1.5-8-2.7V-118.5z"/>
				</g>
				<g>
					<path id="DejaVuSans-30_00000026144871011462484810000010506067973120994437_" d="M4394.5-125c-5.1,0-8.9-2.5-11.5-7.5
						c-2.6-5-3.8-12.5-3.8-22.5c0-10,1.3-17.5,3.8-22.5c2.6-5,6.4-7.5,11.5-7.5c5.1,0,8.9,2.5,11.5,7.5c2.6,5,3.8,12.5,3.8,22.5
						c0,10-1.3,17.5-3.8,22.5C4403.4-127.5,4399.6-125,4394.5-125z M4394.5-117.2c8.2,0,14.4-3.2,18.7-9.7
						c4.3-6.5,6.5-15.8,6.5-28.1c0-12.3-2.2-21.6-6.5-28.1c-4.3-6.5-10.6-9.7-18.7-9.7c-8.2,0-14.4,3.2-18.7,9.7
						c-4.3,6.5-6.5,15.8-6.5,28.1c0,12.3,2.2,21.7,6.5,28.1C4380.1-120.4,4386.3-117.2,4394.5-117.2z"/>
				</g>
			</g>
		</g>
	</g>
	<g id="ytick_3_00000072271452225498643880000015175637988654795418_">
		<g id="line2d_8_00000149381406409585171500000008410554608124915862_">
			<g>
				<g>
					<path id="m4d1f598210_00000110467158619063088190000018026707852203332764_" class="st1" d="M466,170h-3.5"/>
				</g>
			</g>
		</g>
		<g id="text_9_00000072242103238797990490000015124152636738258323_">
			<g transform="translate(16.354687 154.648212)scale(0.1 -0.1)">
				<g>
					<path id="DejaVuSans-2212_00000013900988090856247660000014917337934955544764_" d="M4130.5-155.9h62.6v-8.3h-62.6V-155.9z"/>
				</g>
				<g>
					<path id="DejaVuSans-30_00000013885567079455351220000005926369772069428143_" d="M4235.5-125c-5.1,0-8.9-2.5-11.5-7.5
						c-2.6-5-3.8-12.5-3.8-22.5c0-10,1.3-17.5,3.8-22.5c2.6-5,6.4-7.5,11.5-7.5c5.1,0,8.9,2.5,11.5,7.5c2.6,5,3.8,12.5,3.8,22.5
						c0,10-1.3,17.5-3.8,22.5C4244.4-127.5,4240.6-125,4235.5-125z M4235.5-117.2c8.2,0,14.4-3.2,18.7-9.7
						c4.3-6.5,6.5-15.8,6.5-28.1c0-12.3-2.2-21.6-6.5-28.1c-4.3-6.5-10.6-9.7-18.7-9.7c-8.2,0-14.4,3.2-18.7,9.7
						c-4.3,6.5-6.5,15.8-6.5,28.1c0,12.3,2.2,21.7,6.5,28.1C4221-120.4,4227.3-117.2,4235.5-117.2z"/>
				</g>
				<g>
					<path id="DejaVuSans-2e_00000044890597259404731830000001895457326045006473_" d="M4278-179h10.3v-12.4H4278V-179z"/>
				</g>
				<g>
					<path id="DejaVuSans-34_00000181064554190453307110000008619570906011053715_" d="M4336.9-127.1L4312-166h24.9V-127.1z
						 M4334.3-118.5h12.4V-166h10.4v-8.2h-10.4v-17.2h-9.8v17.2H4304v9.5L4334.3-118.5z"/>
				</g>
				<g>
					<path id="DejaVuSans-35_00000025415491263796378050000009912468763088312970_" d="M4373.5-118.5h38.7v-8.3h-29.7v-17.9
						c1.4,0.5,2.9,0.9,4.3,1.1c1.4,0.2,2.9,0.4,4.3,0.4c8.1,0,14.6-2.2,19.3-6.7c4.8-4.5,7.1-10.5,7.1-18.1c0-7.8-2.4-13.9-7.3-18.3
						c-4.9-4.3-11.8-6.5-20.7-6.5c-3.1,0-6.2,0.3-9.4,0.8c-3.2,0.5-6.4,1.3-9.8,2.3v9.9c2.9-1.6,6-2.8,9.1-3.6s6.4-1.2,9.9-1.2
						c5.6,0,10.1,1.5,13.4,4.4c3.3,3,4.9,7,4.9,12.1c0,5.1-1.6,9.1-4.9,12c-3.3,3-7.7,4.5-13.4,4.5c-2.6,0-5.3-0.3-7.9-0.9
						c-2.6-0.6-5.3-1.5-8-2.7V-118.5z"/>
				</g>
			</g>
		</g>
	</g>
	<g id="ytick_4_00000076601037120015683530000010686803624839389352_">
		<g id="line2d_9_00000093868431873295379660000010437719749378216876_">
			<g>
				<g>
					<path id="m4d1f598210_00000160891077985476314400000018248391865411692733_" class="st1" d="M466,123.2h-3.5"/>
				</g>
			</g>
		</g>
		<g id="text_10_00000043439511457422839890000011568055238035423898_">
			<g transform="translate(16.354687 107.82828)scale(0.1 -0.1)">
				<g>
					<path id="DejaVuSans-2212_00000082351201024124327510000008189708256376106629_" d="M4130.5-155.9h62.6v-8.3h-62.6V-155.9z"/>
				</g>
				<g>
					<path id="DejaVuSans-30_00000034091304934141458400000000788439745361870723_" d="M4235.5-125c-5.1,0-8.9-2.5-11.5-7.5
						c-2.6-5-3.8-12.5-3.8-22.5c0-10,1.3-17.5,3.8-22.5c2.6-5,6.4-7.5,11.5-7.5c5.1,0,8.9,2.5,11.5,7.5c2.6,5,3.8,12.5,3.8,22.5
						c0,10-1.3,17.5-3.8,22.5C4244.4-127.5,4240.6-125,4235.5-125z M4235.5-117.2c8.2,0,14.4-3.2,18.7-9.7
						c4.3-6.5,6.5-15.8,6.5-28.1c0-12.3-2.2-21.6-6.5-28.1c-4.3-6.5-10.6-9.7-18.7-9.7c-8.2,0-14.4,3.2-18.7,9.7
						c-4.3,6.5-6.5,15.8-6.5,28.1c0,12.3,2.2,21.7,6.5,28.1C4221-120.4,4227.3-117.2,4235.5-117.2z"/>
				</g>
				<g>
					<path id="DejaVuSans-2e_00000134217343464928215650000016836051726667252103_" d="M4278-179h10.3v-12.4H4278V-179z"/>
				</g>
				<g>
					<path id="DejaVuSans-34_00000010284227422311002160000017555757853365154738_" d="M4336.9-127.1L4312-166h24.9V-127.1z
						 M4334.3-118.5h12.4V-166h10.4v-8.2h-10.4v-17.2h-9.8v17.2H4304v9.5L4334.3-118.5z"/>
				</g>
				<g>
					<path id="DejaVuSans-30_00000029023512855837320680000012983835459831637169_" d="M4394.5-125c-5.1,0-8.9-2.5-11.5-7.5
						c-2.6-5-3.8-12.5-3.8-22.5c0-10,1.3-17.5,3.8-22.5c2.6-5,6.4-7.5,11.5-7.5c5.1,0,8.9,2.5,11.5,7.5c2.6,5,3.8,12.5,3.8,22.5
						c0,10-1.3,17.5-3.8,22.5C4403.4-127.5,4399.6-125,4394.5-125z M4394.5-117.2c8.2,0,14.4-3.2,18.7-9.7
						c4.3-6.5,6.5-15.8,6.5-28.1c0-12.3-2.2-21.6-6.5-28.1c-4.3-6.5-10.6-9.7-18.7-9.7c-8.2,0-14.4,3.2-18.7,9.7
						c-4.3,6.5-6.5,15.8-6.5,28.1c0,12.3,2.2,21.7,6.5,28.1C4380.1-120.4,4386.3-117.2,4394.5-117.2z"/>
				</g>
			</g>
		</g>
	</g>
	<g id="ytick_5_00000009554206814567142570000014914851927015173813_">
		<g id="line2d_10_00000138552725639794792570000000832520798424137895_">
			<g>
				<g>
					<path id="m4d1f598210_00000137832614343457547130000011480478786940350122_" class="st1" d="M466,76.3h-3.5"/>
				</g>
			</g>
		</g>
		<g id="text_11_00000059281203629900675580000003467316871341234086_">
			<g transform="translate(16.354687 61.008347)scale(0.1 -0.1)">
				<g>
					<path id="DejaVuSans-2212_00000049224038718187254200000013185662932441947834_" d="M4130.5-155.9h62.6v-8.3h-62.6V-155.9z"/>
				</g>
				<g>
					<path id="DejaVuSans-30_00000096773197941443117580000014203864635832328083_" d="M4235.5-125c-5.1,0-8.9-2.5-11.5-7.5
						c-2.6-5-3.8-12.5-3.8-22.5c0-10,1.3-17.5,3.8-22.5c2.6-5,6.4-7.5,11.5-7.5c5.1,0,8.9,2.5,11.5,7.5c2.6,5,3.8,12.5,3.8,22.5
						c0,10-1.3,17.5-3.8,22.5C4244.4-127.5,4240.6-125,4235.5-125z M4235.5-117.2c8.2,0,14.4-3.2,18.7-9.7
						c4.3-6.5,6.5-15.8,6.5-28.1c0-12.3-2.2-21.6-6.5-28.1c-4.3-6.5-10.6-9.7-18.7-9.7c-8.2,0-14.4,3.2-18.7,9.7
						c-4.3,6.5-6.5,15.8-6.5,28.1c0,12.3,2.2,21.7,6.5,28.1C4221-120.4,4227.3-117.2,4235.5-117.2z"/>
				</g>
				<g>
					<path id="DejaVuSans-2e_00000032647513715452846740000009966780133064856459_" d="M4278-179h10.3v-12.4H4278V-179z"/>
				</g>
				<g>
					<path id="DejaVuSans-33_00000085955265739469124540000003625338473592962749_" d="M4339.7-152.1c4.7-1,8.4-3.1,11-6.3
						c2.7-3.2,4-7.1,4-11.8c0-7.2-2.5-12.8-7.4-16.7c-4.9-3.9-12-5.9-21.1-5.9c-3.1,0-6.2,0.3-9.4,0.9c-3.2,0.6-6.6,1.5-10,2.7v9.5
						c2.7-1.6,5.7-2.8,9-3.6c3.3-0.8,6.7-1.2,10.2-1.2c6.2,0,10.9,1.2,14.1,3.7c3.2,2.4,4.9,6,4.9,10.6c0,4.3-1.5,7.7-4.5,10.1
						c-3,2.4-7.2,3.6-12.6,3.6h-8.5v8.1h8.9c4.8,0,8.6,1,11.1,2.9c2.6,1.9,3.9,4.7,3.9,8.4c0,3.7-1.3,6.6-4,8.6c-2.6,2-6.4,3-11.4,3
						c-2.7,0-5.6-0.3-8.7-0.9c-3.1-0.6-6.5-1.5-10.2-2.7v8.8c3.8,1,7.3,1.8,10.5,2.3c3.3,0.5,6.4,0.8,9.3,0.8
						c7.5,0,13.4-1.7,17.8-5.1c4.4-3.4,6.5-8,6.5-13.8c0-4-1.2-7.5-3.5-10.2S4343.9-151,4339.7-152.1z"/>
				</g>
				<g>
					<path id="DejaVuSans-35_00000031890827508436262730000006046939680918077068_" d="M4373.5-118.5h38.7v-8.3h-29.7v-17.9
						c1.4,0.5,2.9,0.9,4.3,1.1c1.4,0.2,2.9,0.4,4.3,0.4c8.1,0,14.6-2.2,19.3-6.7c4.8-4.5,7.1-10.5,7.1-18.1c0-7.8-2.4-13.9-7.3-18.3
						c-4.9-4.3-11.8-6.5-20.7-6.5c-3.1,0-6.2,0.3-9.4,0.8c-3.2,0.5-6.4,1.3-9.8,2.3v9.9c2.9-1.6,6-2.8,9.1-3.6s6.4-1.2,9.9-1.2
						c5.6,0,10.1,1.5,13.4,4.4c3.3,3,4.9,7,4.9,12.1c0,5.1-1.6,9.1-4.9,12c-3.3,3-7.7,4.5-13.4,4.5c-2.6,0-5.3-0.3-7.9-0.9
						c-2.6-0.6-5.3-1.5-8-2.7V-118.5z"/>
				</g>
			</g>
		</g>
	</g>
	<g id="text_12_00000183233789868590353050000005476833555350119556_">
		<g transform="translate(10.275 157.401875)rotate(-90)scale(0.1 -0.1)">
			<g>
				<path id="DejaVuSans-52_00000178163460910365233440000017176710456631091104_" d="M-147-4085.7c2.1-0.7,4.2-2.2,6.2-4.6
					s4-5.6,6-9.7l10-19.9h-10.6l-9.3,18.7c-2.4,4.9-4.8,8.1-7,9.7s-5.3,2.4-9.2,2.4h-10.8v-30.8h-9.9v72.9h22.3
					c8.3,0,14.6-1.7,18.7-5.2c4.1-3.5,6.2-8.7,6.2-15.8c0-4.6-1.1-8.4-3.2-11.4C-139.8-4082.4-142.9-4084.5-147-4085.7z
					 M-171.7-4055.1v-25.9h12.4c4.8,0,8.3,1.1,10.8,3.3s3.6,5.4,3.6,9.7s-1.2,7.5-3.6,9.6s-6,3.2-10.8,3.2H-171.7z"/>
			</g>
			<g>
				<path id="DejaVuSans-4d_00000043449749955345563890000012386519406715545236_" d="M-112.1-4047h14.7l18.6-49.6l18.7,49.6h14.7
					v-72.9H-55v64l-18.8-50h-9.9l-18.8,50v-64h-9.6V-4047z"/>
			</g>
			<g>
				<path id="DejaVuSans-53_00000168097830373574388760000003389417595243889293_" d="M17.9-4049.4v-9.6c-3.7,1.8-7.3,3.1-10.6,4
					c-3.3,0.9-6.5,1.3-9.6,1.3c-5.4,0-9.5-1-12.4-3.1s-4.4-5-4.4-8.9c0-3.2,1-5.7,2.9-7.3c1.9-1.6,5.6-3,11-4l6-1.2
					c7.4-1.4,12.8-3.9,16.3-7.4s5.2-8.3,5.2-14.2c0-7.1-2.4-12.4-7.1-16.1c-4.7-3.6-11.7-5.5-20.8-5.5c-3.4,0-7.1,0.4-11,1.2
					c-3.9,0.8-7.9,1.9-12.1,3.5v10.2c4-2.2,7.9-3.9,11.8-5.1c3.8-1.1,7.6-1.7,11.3-1.7c5.6,0,10,1.1,13,3.3c3.1,2.2,4.6,5.4,4.6,9.5
					c0,3.6-1.1,6.4-3.3,8.4s-5.8,3.5-10.8,4.5l-6,1.2c-7.4,1.5-12.7,3.8-16,6.9c-3.3,3.1-4.9,7.5-4.9,13c0,6.4,2.3,11.5,6.8,15.2
					s10.8,5.6,18.8,5.6c3.4,0,6.9-0.3,10.5-0.9C10.5-4047.2,14.2-4048.1,17.9-4049.4z"/>
			</g>
			<g>
				<path id="DejaVuSans-45_00000165923856479037579510000014204591362899425975_" d="M37.7-4047h46.1v-8.3H47.5v-21.6h34.7v-8.3
					H47.5v-26.4h37.1v-8.3h-47V-4047z"/>
			</g>
		</g>
	</g>
</g>
<g id="line2d_11_00000085963996523769187670000012216121222035818633_">
	<g>
		<defs>
			<rect id="SVGID_00000176042118312931106270000006474199024651710640_" x="466" y="53.7" width="334.8" height="217.4"/>
		</defs>
		<clipPath id="SVGID_00000044166720347147517780000003107264460042116498_">
			<use xlink:href="#SVGID_00000176042118312931106270000006474199024651710640_"  style="overflow:visible;"/>
		</clipPath>
		
			<path style="clip-path:url(#SVGID_00000044166720347147517780000003107264460042116498_);fill:none;stroke:#0000FF;stroke-width:1.5;stroke-linecap:square;stroke-linejoin:round;" d="
			M481.2,222.1l33.8-38.2l33.8-26.9l33.8-23l33.8-16l33.8-14.1l33.8-11.7l33.8-11.5l33.8-9l33.8-8.1"/>
	</g>
</g>
<g id="line2d_12_00000022549190625127994600000016407116562781026190_">
	<g>
		<defs>
			<rect id="SVGID_00000115490051232074692280000001102878697332287382_" x="466" y="53.7" width="334.8" height="217.4"/>
		</defs>
		<clipPath id="SVGID_00000033336434520513193400000007630151110572516780_">
			<use xlink:href="#SVGID_00000115490051232074692280000001102878697332287382_"  style="overflow:visible;"/>
		</clipPath>
		
			<path style="clip-path:url(#SVGID_00000033336434520513193400000007630151110572516780_);fill:none;stroke:#FF0000;stroke-width:1.5;stroke-linecap:square;stroke-linejoin:round;" d="
			M481.2,261.3l33.8-43.2l33.8-27.9l33.8-17.8l33.8-11.8l33.8-10.3l33.8-10.5l33.8-5.7l33.8-5.6l33.8-0.6"/>
	</g>
</g>
<g id="patch_3_00000038379079389091891160000015145465682501235328_">
	<path class="st4" d="M466,271.1V53.7"/>
</g>
<g id="patch_4_00000020392860522329405100000007473274473218269358_">
	<path class="st4" d="M800.8,271.1V53.7"/>
</g>
<g id="patch_5_00000167373092026178760940000012199290806642815150_">
	<path class="st4" d="M466,271.1h334.8"/>
</g>
<g id="patch_6_00000072250698337873253120000005433530996517124004_">
	<path class="st4" d="M466,53.7h334.8"/>
</g>
<path class="st0" d="M823.3,307.1h432v-288h-432V307.1z"/>
<g id="patch_2_00000039119808115617743220000004622239506288126888_">
	<path class="st0" d="M877.3,271.1h334.8V53.7H877.3V271.1z"/>
</g>
<g id="matplotlib.axis_1_00000096020012168718969750000007712406790669502872_">
	<g id="xtick_1_00000036231139617334394410000010027809680812980359_">
		<g id="line2d_1_00000134963193731901548090000002420933304877031041_">
			<g>
				<g>
					<path id="mf737613fe3" class="st1" d="M892.5,271.1v3.5"/>
				</g>
			</g>
		</g>
		<g id="text_1_00000010283506750047246500000002800221878714373559_">
			<g transform="translate(62.228338 266.598437)scale(0.1 -0.1)">
				<g>
					<path id="DejaVuSans-72_00000117658812589291316050000001951007604122415016_" d="M8274.3-145.1c-1,0.6-2.1,1-3.3,1.3
						c-1.2,0.3-2.5,0.4-3.9,0.4c-5.1,0-9-1.7-11.7-5s-4.1-8-4.1-14.2v-28.8h-9v54.7h9v-8.5c1.9,3.3,4.4,5.8,7.4,7.4
						c3,1.6,6.7,2.4,11,2.4c0.6,0,1.3,0,2-0.1c0.8-0.1,1.6-0.2,2.5-0.4L8274.3-145.1z"/>
				</g>
				<g>
					<path id="DejaVuSans-62" d="M8323-164.1c0,6.6-1.4,11.8-4.1,15.5s-6.5,5.6-11.2,5.6c-4.8,0-8.5-1.9-11.2-5.6s-4.1-8.9-4.1-15.5
						s1.4-11.8,4.1-15.5s6.5-5.6,11.2-5.6c4.8,0,8.5,1.9,11.2,5.6S8323-170.7,8323-164.1z M8292.4-145c1.9,3.2,4.3,5.7,7.2,7.2
						c2.9,1.6,6.3,2.4,10.3,2.4c6.6,0,12-2.6,16.2-7.9c4.2-5.3,6.2-12.2,6.2-20.8s-2.1-15.5-6.2-20.8c-4.1-5.3-9.5-7.9-16.2-7.9
						c-4,0-7.4,0.8-10.3,2.4c-2.9,1.6-5.3,4-7.2,7.2v-8.2h-9v76h9V-145z"/>
				</g>
				<g>
					<path id="DejaVuSans-66" d="M8374.9-115.4v-7.5h-8.6c-3.2,0-5.5-0.7-6.7-2c-1.2-1.3-1.9-3.6-1.9-7v-4.8h14.8v-7h-14.8v-47.7h-9
						v47.7h-8.6v7h8.6v3.8c0,6.1,1.4,10.5,4.2,13.3c2.8,2.8,7.3,4.2,13.5,4.2H8374.9z"/>
				</g>
			</g>
		</g>
	</g>
	<g id="xtick_2_00000118367537156163696490000013380747297867750016_">
		<g id="line2d_2_00000090990325975478809170000009571051633033778324_">
			<g>
				<g>
					<path id="mf737613fe3_00000088836014012817425680000013234366968937567136_" class="st1" d="M1044.7,271.1v3.5"/>
				</g>
			</g>
		</g>
		<g id="text_2_00000026151499183782245440000016627794681869372298_">
			<g transform="translate(210.817969 266.598437)scale(0.1 -0.1)">
				<g>
					<path id="DejaVuSans-70" d="M8251.3-183.2v-29h-9v75.5h9v-8.3c1.9,3.2,4.3,5.7,7.2,7.2c2.9,1.6,6.3,2.4,10.3,2.4
						c6.6,0,12-2.6,16.2-7.9c4.2-5.3,6.2-12.2,6.2-20.8s-2.1-15.5-6.2-20.8c-4.1-5.3-9.5-7.9-16.2-7.9c-4,0-7.4,0.8-10.3,2.4
						C8255.6-188.9,8253.2-186.4,8251.3-183.2z M8281.9-164.1c0,6.6-1.4,11.8-4.1,15.5s-6.5,5.6-11.2,5.6c-4.8,0-8.5-1.9-11.2-5.6
						s-4.1-8.9-4.1-15.5s1.4-11.8,4.1-15.5s6.5-5.6,11.2-5.6c4.8,0,8.5,1.9,11.2,5.6S8281.9-170.7,8281.9-164.1z"/>
				</g>
				<g>
					<path id="DejaVuSans-6f_00000067212132421872872550000009005908065377752744_" d="M8327.3-143c-4.8,0-8.6-1.9-11.4-5.6
						s-4.2-8.9-4.2-15.5s1.4-11.7,4.2-15.5c2.8-3.8,6.6-5.6,11.5-5.6c4.8,0,8.6,1.9,11.4,5.7c2.8,3.8,4.2,8.9,4.2,15.4
						c0,6.5-1.4,11.6-4.2,15.4C8335.9-144.9,8332.1-143,8327.3-143z M8327.3-135.4c7.8,0,13.9-2.5,18.4-7.6
						c4.5-5.1,6.7-12.1,6.7-21.1c0-8.9-2.2-16-6.7-21.1c-4.5-5.1-10.6-7.6-18.4-7.6c-7.8,0-14,2.5-18.4,7.6
						c-4.4,5.1-6.7,12.1-6.7,21.1c0,9,2.2,16,6.7,21.1C8313.3-137.9,8319.4-135.4,8327.3-135.4z"/>
				</g>
				<g>
					<path id="DejaVuSans-6c_00000093134564972492816700000004331212155362136746_" d="M8367.3-115.4h9v-76h-9V-115.4z"/>
				</g>
				<g>
					<path id="DejaVuSans-79" d="M8417.8-196.5c-2.5-6.5-5-10.8-7.4-12.7c-2.4-2-5.6-3-9.7-3h-7.2v7.5h5.3c2.5,0,4.4,0.6,5.8,1.8
						c1.4,1.2,2.9,3.9,4.5,8.3l1.6,4.1l-22.1,53.8h9.5l17.1-42.8l17.1,42.8h9.5L8417.8-196.5z"/>
				</g>
			</g>
		</g>
	</g>
	<g id="xtick_3_00000135662577722895749490000003023138741272961452_">
		<g id="line2d_3_00000110467001453035752700000013517721754286005177_">
			<g>
				<g>
					<path id="mf737613fe3_00000134966797336615227310000017876362908886736008_" class="st1" d="M1196.9,271.1v3.5"/>
				</g>
			</g>
		</g>
		<g id="text_3_00000111878975058534677430000017103622042052550056_">
			<g transform="translate(353.920881 266.598437)scale(0.1 -0.1)">
				<g>
					<path id="DejaVuSans-73_00000099629534178521165780000008926687120333474437_" d="M8277.5-138.3v-8.5c-2.5,1.3-5.2,2.3-7.9,2.9
						c-2.7,0.7-5.6,1-8.5,1c-4.5,0-7.8-0.7-10-2s-3.3-3.4-3.3-6.2c0-2.1,0.8-3.7,2.4-4.9s4.8-2.3,9.6-3.4l3.1-0.7
						c6.4-1.4,10.9-3.3,13.6-5.8s4-6,4-10.4c0-5.1-2-9.1-6-12.1c-4-3-9.5-4.4-16.6-4.4c-2.9,0-6,0.3-9.2,0.9s-6.5,1.4-10,2.6v9.3
						c3.3-1.7,6.6-3,9.8-3.9c3.2-0.9,6.4-1.3,9.6-1.3c4.2,0,7.5,0.7,9.8,2.2c2.3,1.4,3.4,3.5,3.4,6.1c0,2.4-0.8,4.3-2.5,5.6
						c-1.6,1.3-5.2,2.6-10.8,3.8l-3.1,0.7c-5.6,1.2-9.6,3-12.1,5.4c-2.5,2.4-3.7,5.8-3.7,10c0,5.1,1.8,9.1,5.5,11.9
						c3.6,2.8,8.8,4.2,15.5,4.2c3.3,0,6.4-0.2,9.4-0.7C8272.3-136.6,8275-137.3,8277.5-138.3z"/>
				</g>
				<g>
					<path id="DejaVuSans-69_00000025438739743283995830000013434562612806374331_" d="M8294.7-136.7h9v-54.7h-9V-136.7z
						 M8294.7-115.4h9v-11.4h-9V-115.4z"/>
				</g>
				<g>
					<path id="DejaVuSans-67_00000060736677778606443640000018218579354106243486_" d="M8358.5-163.4c0,6.5-1.3,11.6-4,15.1
						c-2.7,3.6-6.4,5.4-11.3,5.4c-4.8,0-8.6-1.8-11.2-5.4c-2.7-3.6-4-8.6-4-15.1c0-6.5,1.3-11.5,4-15.1s6.4-5.4,11.2-5.4
						c4.9,0,8.6,1.8,11.3,5.4C8357.1-174.9,8358.5-169.9,8358.5-163.4z M8367.5-184.6c0-9.3-2.1-16.2-6.2-20.8
						c-4.1-4.5-10.5-6.8-19-6.8c-3.2,0-6.1,0.2-8.9,0.7s-5.5,1.2-8.2,2.2v8.7c2.6-1.4,5.2-2.5,7.8-3.2c2.6-0.7,5.2-1,7.9-1
						c5.9,0,10.3,1.5,13.2,4.6s4.4,7.7,4.4,13.9v4.5c-1.9-3.2-4.2-5.6-7.1-7.2s-6.4-2.4-10.4-2.4c-6.7,0-12.1,2.6-16.2,7.7
						c-4.1,5.1-6.2,11.9-6.2,20.3c0,8.5,2.1,15.2,6.2,20.3c4.1,5.1,9.5,7.7,16.2,7.7c4,0,7.5-0.8,10.4-2.4s5.3-4,7.1-7.2v8.3h9
						V-184.6z"/>
				</g>
				<g>
					<path id="DejaVuSans-6d_00000057849652954818857400000012966716463741337521_" d="M8428.5-147.2c2.2,4,4.9,7,8.1,8.9
						s6.8,2.9,11,2.9c5.7,0,10.1-2,13.2-6c3.1-4,4.6-9.6,4.6-17v-33h-9v32.7c0,5.2-0.9,9.1-2.8,11.7c-1.9,2.5-4.7,3.8-8.5,3.8
						c-4.7,0-8.3-1.5-11-4.6c-2.7-3.1-4-7.3-4-12.6v-30.9h-9v32.7c0,5.3-0.9,9.2-2.8,11.7s-4.7,3.8-8.6,3.8c-4.6,0-8.2-1.6-11-4.7
						c-2.7-3.1-4-7.3-4-12.6v-30.9h-9v54.7h9v-8.5c2.1,3.4,4.5,5.8,7.4,7.4s6.3,2.4,10.2,2.4c4,0,7.4-1,10.1-3
						C8425.2-140.4,8427.2-143.4,8428.5-147.2z"/>
				</g>
				<g>
					<path id="DejaVuSans-6f_00000103956358074847962320000002857216041204953218_" d="M8504.6-143c-4.8,0-8.6-1.9-11.4-5.6
						s-4.2-8.9-4.2-15.5s1.4-11.7,4.2-15.5c2.8-3.8,6.6-5.6,11.5-5.6c4.8,0,8.6,1.9,11.4,5.7c2.8,3.8,4.2,8.9,4.2,15.4
						c0,6.5-1.4,11.6-4.2,15.4C8513.1-144.9,8509.4-143,8504.6-143z M8504.6-135.4c7.8,0,13.9-2.5,18.4-7.6
						c4.5-5.1,6.7-12.1,6.7-21.1c0-8.9-2.2-16-6.7-21.1c-4.5-5.1-10.6-7.6-18.4-7.6c-7.8,0-14,2.5-18.4,7.6
						c-4.4,5.1-6.7,12.1-6.7,21.1c0,9,2.2,16,6.7,21.1C8490.6-137.9,8496.7-135.4,8504.6-135.4z"/>
				</g>
				<g>
					<path id="DejaVuSans-69_00000013180895767873266730000002724691090228296619_" d="M8544.6-136.7h9v-54.7h-9V-136.7z
						 M8544.6-115.4h9v-11.4h-9V-115.4z"/>
				</g>
				<g>
					<path id="DejaVuSans-64_00000120534591617435364680000007590224116129764489_" d="M8608.3-145v29.6h9v-76h-9v8.2
						c-1.9-3.2-4.3-5.7-7.2-7.2c-2.9-1.6-6.3-2.4-10.4-2.4c-6.6,0-12,2.6-16.1,7.9c-4.1,5.3-6.2,12.2-6.2,20.8s2.1,15.5,6.2,20.8
						c4.2,5.3,9.5,7.9,16.1,7.9c4,0,7.5-0.8,10.4-2.4C8604.1-139.3,8606.4-141.8,8608.3-145z M8577.7-164.1c0-6.6,1.4-11.8,4.1-15.5
						s6.5-5.6,11.2-5.6s8.5,1.9,11.2,5.6c2.7,3.8,4.1,8.9,4.1,15.5s-1.4,11.8-4.1,15.5c-2.7,3.8-6.5,5.6-11.2,5.6s-8.5-1.9-11.2-5.6
						S8577.7-157.5,8577.7-164.1z"/>
				</g>
			</g>
		</g>
	</g>
	<g id="text_4_00000051362690782001451360000014129857567547708578_">
		<g transform="translate(206.007031 280.276563)scale(0.1 -0.1)">
			<g>
				<path id="DejaVuSans-6b" d="M8242.3-115.4h9v-44.9l26.8,23.6h11.5l-29-25.6l30.2-29.1h-11.7l-27.8,26.7v-26.7h-9V-115.4z"/>
			</g>
			<g>
				<path id="DejaVuSans-65_00000000923246151078627610000011483460356186988693_" d="M8343.7-161.8v-4.4h-41.3
					c0.4-6.2,2.3-10.9,5.6-14.1c3.3-3.2,8-4.9,13.9-4.9c3.4,0,6.8,0.4,10,1.3s6.5,2.1,9.7,3.8v-8.5c-3.2-1.4-6.5-2.4-9.9-3.1
					s-6.8-1.1-10.3-1.1c-8.7,0-15.6,2.5-20.7,7.6c-5.1,5.1-7.6,12-7.6,20.6c0,8.9,2.4,16,7.2,21.3c4.8,5.3,11.4,7.9,19.6,7.9
					c7.4,0,13.2-2.4,17.5-7.1C8341.5-147.2,8343.7-153.7,8343.7-161.8z M8334.7-159.2c-0.1,4.9-1.4,8.8-4.1,11.8
					c-2.7,2.9-6.2,4.4-10.7,4.4c-5,0-9-1.4-12-4.2c-3-2.8-4.7-6.8-5.2-12L8334.7-159.2z"/>
			</g>
			<g>
				<path id="DejaVuSans-72_00000170993298015274180860000003156797529110695333_" d="M8390.1-145.1c-1,0.6-2.1,1-3.3,1.3
					c-1.2,0.3-2.5,0.4-3.9,0.4c-5.1,0-9-1.7-11.7-5c-2.7-3.3-4.1-8-4.1-14.2v-28.8h-9v54.7h9v-8.5c1.9,3.3,4.4,5.8,7.4,7.4
					c3,1.6,6.7,2.4,11,2.4c0.6,0,1.3,0,2-0.1c0.8-0.1,1.6-0.2,2.5-0.4L8390.1-145.1z"/>
			</g>
			<g>
				<path id="DejaVuSans-6e_00000116205979841224313180000014875759022842602640_" d="M8443.2-158.4v-33h-9v32.7c0,5.2-1,9-3,11.6
					c-2,2.6-5,3.9-9.1,3.9c-4.9,0-8.7-1.5-11.5-4.6c-2.8-3.1-4.2-7.3-4.2-12.6v-30.9h-9v54.7h9v-8.5c2.2,3.3,4.7,5.8,7.6,7.4
					c2.9,1.6,6.3,2.4,10.1,2.4c6.3,0,11-1.9,14.2-5.8C8441.6-145.1,8443.2-150.8,8443.2-158.4z"/>
			</g>
			<g>
				<path id="DejaVuSans-65_00000178188560141401485730000010992190035168425651_" d="M8507.9-161.8v-4.4h-41.3
					c0.4-6.2,2.3-10.9,5.6-14.1c3.3-3.2,8-4.9,13.9-4.9c3.4,0,6.8,0.4,10,1.3s6.5,2.1,9.7,3.8v-8.5c-3.2-1.4-6.5-2.4-9.9-3.1
					s-6.8-1.1-10.3-1.1c-8.7,0-15.6,2.5-20.7,7.6c-5.1,5.1-7.6,12-7.6,20.6c0,8.9,2.4,16,7.2,21.3c4.8,5.3,11.4,7.9,19.6,7.9
					c7.4,0,13.2-2.4,17.5-7.1C8505.8-147.2,8507.9-153.7,8507.9-161.8z M8499-159.2c-0.1,4.9-1.4,8.8-4.1,11.8
					c-2.7,2.9-6.2,4.4-10.7,4.4c-5,0-9-1.4-12-4.2c-3-2.8-4.7-6.8-5.2-12L8499-159.2z"/>
			</g>
			<g>
				<path id="DejaVuSans-6c_00000148630149663327828910000004956584521187903151_" d="M8522.7-115.4h9v-76h-9V-115.4z"/>
			</g>
		</g>
	</g>
</g>
<g id="matplotlib.axis_2_00000122678784724423125500000010160553785878183098_">
	<g id="ytick_1_00000040544554322821753440000007040098154091868600_">
		<g id="line2d_4_00000034786409993136342140000008263472795726353835_">
			<g>
				<g>
					<path id="mede99d61d4" class="st1" d="M877.3,239.7h-3.5"/>
				</g>
			</g>
		</g>
		<g id="text_5_00000153668084420216738540000016317828674363653551_">
			<g transform="translate(32.257812 224.401528)scale(0.1 -0.1)">
				<g>
					<path id="DejaVuSans-2212_00000127723093083831325580000016858794057702523533_" d="M8243.8-155.9h62.6v-8.3h-62.6V-155.9z"/>
				</g>
				<g>
					<path id="DejaVuSans-34_00000079461758550536125500000001785636958428246661_" d="M8354.8-127.1l-24.9-38.9h24.9V-127.1z
						 M8352.2-118.5h12.4V-166h10.4v-8.2h-10.4v-17.2h-9.8v17.2h-32.9v9.5L8352.2-118.5z"/>
				</g>
			</g>
		</g>
	</g>
	<g id="ytick_2_00000054966377866507288130000010342431434007282332_">
		<g id="line2d_5_00000043456404324186332050000003437848533294235301_">
			<g>
				<g>
					<path id="mede99d61d4_00000022561084359791637090000010467011449694982061_" class="st1" d="M877.3,192.1h-3.5"/>
				</g>
			</g>
		</g>
		<g id="text_6_00000078018236563071788700000005868454229498944139_">
			<g transform="translate(32.257812 176.728862)scale(0.1 -0.1)">
				<g>
					<path id="DejaVuSans-2212_00000021091446964826371060000015370125434452730552_" d="M8243.8-155.9h62.6v-8.3h-62.6V-155.9z"/>
				</g>
				<g>
					<path id="DejaVuSans-33_00000180360899129771239830000008444682042063492540_" d="M8357.6-152.1c4.7-1,8.4-3.1,11-6.3
						c2.7-3.2,4-7.1,4-11.8c0-7.2-2.5-12.8-7.4-16.7c-4.9-3.9-12-5.9-21.1-5.9c-3.1,0-6.2,0.3-9.4,0.9s-6.6,1.5-10,2.7v9.5
						c2.7-1.6,5.7-2.8,9-3.6c3.3-0.8,6.7-1.2,10.2-1.2c6.2,0,10.9,1.2,14.1,3.7s4.9,6,4.9,10.6c0,4.3-1.5,7.7-4.5,10.1
						c-3,2.4-7.2,3.6-12.6,3.6h-8.5v8.1h8.9c4.8,0,8.6,1,11.1,2.9s3.9,4.7,3.9,8.4c0,3.7-1.3,6.6-4,8.6c-2.6,2-6.4,3-11.4,3
						c-2.7,0-5.6-0.3-8.7-0.9c-3.1-0.6-6.5-1.5-10.2-2.7v8.8c3.8,1,7.3,1.8,10.5,2.3s6.4,0.8,9.2,0.8c7.5,0,13.4-1.7,17.8-5.1
						c4.4-3.4,6.5-8,6.5-13.8c0-4-1.2-7.5-3.5-10.2S8361.8-151,8357.6-152.1z"/>
				</g>
			</g>
		</g>
	</g>
	<g id="ytick_3_00000173850699169651380930000001142740091687443621_">
		<g id="line2d_6_00000094620595768722996260000008791923082238870700_">
			<g>
				<g>
					<path id="mede99d61d4_00000132798913504530431470000007481815213799372720_" class="st1" d="M877.3,144.4h-3.5"/>
				</g>
			</g>
		</g>
		<g id="text_7_00000050655208797701177820000015719177752121296050_">
			<g transform="translate(32.257812 129.056197)scale(0.1 -0.1)">
				<g>
					<path id="DejaVuSans-2212_00000130640716618746379720000008025024482511410050_" d="M8243.8-155.9h62.6v-8.3h-62.6V-155.9z"/>
				</g>
				<g>
					<path id="DejaVuSans-32_00000028283384351353090190000017757810325841692088_" d="M8336.2-183.1h34.4v-8.3h-46.3v8.3
						c3.7,3.9,8.8,9.1,15.3,15.6c6.5,6.5,10.5,10.7,12.2,12.6c3.2,3.5,5.4,6.5,6.6,9c1.3,2.5,1.9,4.9,1.9,7.2c0,3.9-1.4,7-4.1,9.5
						c-2.7,2.4-6.3,3.7-10.6,3.7c-3.1,0-6.4-0.5-9.8-1.6c-3.4-1.1-7.1-2.7-11-4.9v10c4,1.6,7.7,2.8,11.1,3.6
						c3.5,0.8,6.6,1.2,9.5,1.2c7.6,0,13.6-1.9,18.1-5.7c4.5-3.8,6.7-8.8,6.7-15.1c0-3-0.6-5.8-1.7-8.5c-1.1-2.7-3.2-5.8-6.1-9.5
						c-0.8-0.9-3.4-3.7-7.8-8.2C8350.3-168.7,8344.1-175,8336.2-183.1z"/>
				</g>
			</g>
		</g>
	</g>
	<g id="ytick_4_00000098933969193389412510000015457505614565964465_">
		<g id="line2d_7_00000089540525090327765960000018344555693544878010_">
			<g>
				<g>
					<path id="mede99d61d4_00000159429517778916876870000009887538009230835896_" class="st1" d="M877.3,96.7h-3.5"/>
				</g>
			</g>
		</g>
		<g id="text_8_00000057831399100663467430000015819679337554498689_">
			<g transform="translate(32.257812 81.383531)scale(0.1 -0.1)">
				<g>
					<path id="DejaVuSans-2212_00000125583858377764519940000009357057471199033256_" d="M8243.8-155.9h62.6v-8.3h-62.6V-155.9z"/>
				</g>
				<g>
					<path id="DejaVuSans-31_00000122690850688002226800000015320126001015087803_" d="M8329.4-183.1h16.1v55.6L8328-131v9l17.4,3.5
						h9.9v-64.6h16.1v-8.3h-42V-183.1z"/>
				</g>
			</g>
		</g>
	</g>
	<g id="text_9_00000086663531773837630710000001965612127928871591_">
		<g transform="translate(26.178125 157.401875)rotate(-90)scale(0.1 -0.1)">
			<g>
				<path id="DejaVuSans-52_00000077313377626392912840000008091565875765249208_" d="M-147-8199c2.1-0.7,4.2-2.2,6.2-4.6
					s4-5.6,6-9.7l10-19.9h-10.6l-9.3,18.7c-2.4,4.9-4.8,8.1-7,9.7s-5.3,2.4-9.2,2.4h-10.8v-30.8h-9.9v72.9h22.3
					c8.3,0,14.6-1.7,18.7-5.2c4.1-3.5,6.2-8.7,6.2-15.8c0-4.6-1.1-8.4-3.2-11.4C-139.8-8195.7-142.9-8197.8-147-8199z
					 M-171.7-8168.4v-25.9h12.4c4.8,0,8.3,1.1,10.8,3.3c2.4,2.2,3.6,5.4,3.6,9.7c0,4.3-1.2,7.5-3.6,9.6c-2.4,2.2-6,3.2-10.8,3.2
					H-171.7z"/>
			</g>
			<g>
				<path id="DejaVuSans-4d_00000125584994702581285330000017734587876263919756_" d="M-112.1-8160.3h14.7l18.6-49.6l18.7,49.6h14.7
					v-72.9H-55v64l-18.8-50h-9.9l-18.8,50v-64h-9.6V-8160.3z"/>
			</g>
			<g>
				<path id="DejaVuSans-53_00000122688674601471547450000002648297183348876222_" d="M17.9-8162.7v-9.6c-3.7,1.8-7.3,3.1-10.6,4
					c-3.3,0.9-6.5,1.3-9.6,1.3c-5.4,0-9.5-1-12.4-3.1c-2.9-2.1-4.4-5-4.4-8.9c0-3.2,1-5.7,2.9-7.3c1.9-1.6,5.6-3,11-4l6-1.2
					c7.4-1.4,12.8-3.9,16.3-7.4s5.2-8.3,5.2-14.2c0-7.1-2.4-12.4-7.1-16.1c-4.7-3.6-11.7-5.5-20.8-5.5c-3.4,0-7.1,0.4-11,1.2
					c-3.9,0.8-7.9,1.9-12.1,3.5v10.2c4-2.2,7.9-3.9,11.8-5.1c3.8-1.1,7.6-1.7,11.3-1.7c5.6,0,10,1.1,13,3.3c3.1,2.2,4.6,5.4,4.6,9.5
					c0,3.6-1.1,6.4-3.3,8.4s-5.8,3.5-10.8,4.5l-6,1.2c-7.4,1.5-12.7,3.8-16,6.9c-3.3,3.1-4.9,7.5-4.9,13c0,6.4,2.3,11.5,6.8,15.2
					c4.5,3.7,10.8,5.6,18.8,5.6c3.4,0,6.9-0.3,10.5-0.9C10.5-8160.5,14.2-8161.4,17.9-8162.7z"/>
			</g>
			<g>
				<path id="DejaVuSans-45_00000158719036178747943490000000702524160004000131_" d="M37.7-8160.3h46.1v-8.3H47.5v-21.6h34.7v-8.3
					H47.5v-26.4h37.1v-8.3h-47V-8160.3z"/>
			</g>
		</g>
	</g>
</g>
<g id="line2d_8_00000134934340909242994710000007363397048214218674_">
	<g>
		<defs>
			<rect id="SVGID_00000078767690136350097620000006103527554670748602_" x="877.3" y="53.7" width="334.8" height="217.4"/>
		</defs>
		<clipPath id="SVGID_00000092440931033252572190000005743807147241022910_">
			<use xlink:href="#SVGID_00000078767690136350097620000006103527554670748602_"  style="overflow:visible;"/>
		</clipPath>
		
			<path style="clip-path:url(#SVGID_00000092440931033252572190000005743807147241022910_);fill:none;stroke:#0000FF;stroke-width:1.5;stroke-linecap:square;stroke-linejoin:round;" d="
			M892.5,64.9l152.2-1.4l152.2,197.7"/>
	</g>
</g>
<g id="line2d_9_00000096769386792191768130000004280865507286657190_">
	<g>
		<defs>
			<rect id="SVGID_00000006681849761387499520000013061163169374161065_" x="877.3" y="53.7" width="334.8" height="217.4"/>
		</defs>
		<clipPath id="SVGID_00000174580403659097632110000012773763089332442018_">
			<use xlink:href="#SVGID_00000006681849761387499520000013061163169374161065_"  style="overflow:visible;"/>
		</clipPath>
		
			<path style="clip-path:url(#SVGID_00000174580403659097632110000012773763089332442018_);fill:none;stroke:#FF0000;stroke-width:1.5;stroke-linecap:square;stroke-linejoin:round;" d="
			M892.5,68.4l152.2,0.6L1196.9,256"/>
	</g>
</g>
<g id="patch_3_00000030453802681972636010000014163261490408981138_">
	<path class="st4" d="M877.3,271.1V53.7"/>
</g>
<g id="patch_4_00000132803772662101878980000005917870551980565174_">
	<path class="st4" d="M1212.1,271.1V53.7"/>
</g>
<g id="patch_5_00000095327849805969150370000003780958316224644752_">
	<path class="st4" d="M877.3,271.1h334.8"/>
</g>
<g id="patch_6_00000057133084311865746410000018389154614793644679_">
	<path class="st4" d="M877.3,53.7h334.8"/>
</g>
<g id="legend_1_00000133509006803456826510000008791083006368410016_">
	<g id="patch_7_00000047775612088903300030000011334073038926404768_">
		<path class="st9" d="M73.4,41.9H208c1.3,0,2-0.7,2-2V11.5c0-1.3-0.7-2-2-2H73.4c-1.3,0-2,0.7-2,2v28.4
			C71.4,41.2,72.1,41.9,73.4,41.9z"/>
	</g>
	<g id="line2d_10_00000096048380068068351270000013551959233850550156_">
		<path class="st10" d="M75.4,17.6h10h10"/>
	</g>
	<g id="text_10_00000079475411990272059940000015077764930869516178_">
		<g transform="translate(277.20625 51.158437)scale(0.1 -0.1)">
			<g>
				<path id="DejaVuSans-53_00000047049734515940422110000000133868428460161416_" d="M-1684.3,371.1v-9.6c-3.7,1.8-7.3,3.1-10.6,4
					c-3.3,0.9-6.5,1.3-9.6,1.3c-5.4,0-9.5-1-12.4-3.1c-2.9-2.1-4.4-5-4.4-8.9c0-3.2,1-5.7,2.9-7.3c1.9-1.6,5.6-3,11-4l6-1.2
					c7.4-1.4,12.8-3.9,16.3-7.4s5.2-8.3,5.2-14.2c0-7.1-2.4-12.4-7.1-16.1c-4.7-3.6-11.7-5.5-20.8-5.5c-3.4,0-7.1,0.4-11,1.2
					c-3.9,0.8-7.9,1.9-12.1,3.5V314c4-2.2,7.9-3.9,11.8-5.1c3.8-1.1,7.6-1.7,11.3-1.7c5.6,0,10,1.1,13,3.3c3.1,2.2,4.6,5.4,4.6,9.5
					c0,3.6-1.1,6.4-3.3,8.4c-2.2,2-5.8,3.5-10.8,4.5l-6,1.2c-7.4,1.5-12.7,3.8-16,6.9c-3.3,3.1-4.9,7.5-4.9,13
					c0,6.4,2.3,11.5,6.8,15.2c4.5,3.7,10.8,5.6,18.8,5.6c3.4,0,6.9-0.3,10.5-0.9C-1691.6,373.3-1688,372.4-1684.3,371.1z"/>
			</g>
			<g>
				<path id="DejaVuSans-56_00000013194861207080292650000013358749707572582292_" d="M-1645.7,300.6l-27.8,72.9h10.3l23.1-61.4
					l23.1,61.4h10.2l-27.8-72.9H-1645.7z"/>
			</g>
			<g>
				<path id="DejaVuSans-52_00000026861674135490609650000015272057503444867207_" d="M-1561.5,334.8c2.1-0.7,4.2-2.2,6.2-4.6
					s4-5.6,6-9.7l10-19.9h-10.6l-9.3,18.7c-2.4,4.9-4.8,8.1-7,9.7s-5.3,2.4-9.2,2.4h-10.8v-30.8h-9.9v72.9h22.3
					c8.3,0,14.6-1.7,18.7-5.2c4.1-3.5,6.2-8.7,6.2-15.8c0-4.6-1.1-8.4-3.2-11.4C-1554.4,338.1-1557.5,336-1561.5,334.8z
					 M-1586.3,365.4v-25.9h12.4c4.8,0,8.3,1.1,10.8,3.3c2.4,2.2,3.6,5.4,3.6,9.7c0,4.3-1.2,7.5-3.6,9.6c-2.4,2.2-6,3.2-10.8,3.2
					H-1586.3z"/>
			</g>
			<g>
				<path id="DejaVuSans-20_00000062169695356487668020000009625011384406139804_" d="M-1536.5,300.6"/>
			</g>
			<g>
				<path id="DejaVuSans-74_00000015344615623792867360000007442604931183339660_" d="M-1486.4,370.8v-15.5h18.5v-7h-18.5v-29.7
					c0-4.5,0.6-7.3,1.8-8.6c1.2-1.3,3.7-1.9,7.5-1.9h9.2v-7.5h-9.2c-6.9,0-11.7,1.3-14.4,3.9c-2.6,2.6-4,7.3-4,14.1v29.7h-6.6v7h6.6
					v15.5H-1486.4z"/>
			</g>
			<g>
				<path id="DejaVuSans-72_00000129911528508721532290000010685623622880287156_" d="M-1424.3,346.9c-1,0.6-2.1,1-3.3,1.3
					c-1.2,0.3-2.5,0.4-3.9,0.4c-5.1,0-9-1.7-11.7-5c-2.7-3.3-4.1-8-4.1-14.2v-28.8h-9v54.7h9v-8.5c1.9,3.3,4.4,5.8,7.4,7.4
					c3,1.6,6.7,2.4,11,2.4c0.6,0,1.3,0,2-0.1c0.8-0.1,1.6-0.2,2.5-0.4L-1424.3,346.9z"/>
			</g>
			<g>
				<path id="DejaVuSans-61_00000044168097337703849310000018300642593604205198_" d="M-1390.1,328.1c-7.3,0-12.3-0.8-15.1-2.5
					s-4.2-4.5-4.2-8.5c0-3.2,1.1-5.7,3.2-7.6c2.1-1.9,5-2.8,8.6-2.8c5,0,9,1.8,12,5.3s4.5,8.2,4.5,14.1v2H-1390.1z M-1372.1,331.8
					v-31.2h-9v8.3c-2.1-3.3-4.6-5.8-7.7-7.3c-3.1-1.6-6.8-2.4-11.2-2.4c-5.6,0-10,1.6-13.4,4.7c-3.3,3.1-5,7.4-5,12.6
					c0,6.1,2.1,10.8,6.2,13.9c4.1,3.1,10.3,4.7,18.4,4.7h12.6v0.9c0,4.1-1.4,7.3-4.1,9.6c-2.7,2.3-6.5,3.4-11.5,3.4
					c-3.1,0-6.2-0.4-9.1-1.1c-3-0.8-5.8-1.9-8.5-3.4v8.3c3.3,1.3,6.5,2.2,9.6,2.8c3.1,0.6,6.1,1,9,1c7.9,0,13.8-2.1,17.7-6.2
					C-1374.1,346.4-1372.1,340.2-1372.1,331.8z"/>
			</g>
			<g>
				<path id="DejaVuSans-69_00000041280914170785239700000007777807060380246173_" d="M-1353.6,355.3h9v-54.7h-9V355.3z
					 M-1353.6,376.6h9v-11.4h-9V376.6z"/>
			</g>
			<g>
				<path id="DejaVuSans-6e_00000013906145698171668860000010955851626048027551_" d="M-1280.4,333.6v-33h-9v32.7c0,5.2-1,9-3,11.6
					c-2,2.6-5,3.9-9.1,3.9c-4.9,0-8.7-1.5-11.5-4.6c-2.8-3.1-4.2-7.3-4.2-12.6v-30.9h-9v54.7h9v-8.5c2.2,3.3,4.7,5.8,7.6,7.4
					c2.9,1.6,6.3,2.4,10.1,2.4c6.3,0,11-1.9,14.2-5.8C-1282,346.9-1280.4,341.2-1280.4,333.6z"/>
			</g>
			<g>
				<path id="DejaVuSans-69_00000046330664226514806570000012315768615975384997_" d="M-1262.5,355.3h9v-54.7h-9V355.3z
					 M-1262.5,376.6h9v-11.4h-9V376.6z"/>
			</g>
			<g>
				<path id="DejaVuSans-6e_00000039835798951909087220000010347063739499878552_" d="M-1189.2,333.6v-33h-9v32.7c0,5.2-1,9-3,11.6
					c-2,2.6-5,3.9-9.1,3.9c-4.9,0-8.7-1.5-11.5-4.6c-2.8-3.1-4.2-7.3-4.2-12.6v-30.9h-9v54.7h9v-8.5c2.2,3.3,4.7,5.8,7.6,7.4
					c2.9,1.6,6.3,2.4,10.1,2.4c6.3,0,11-1.9,14.2-5.8C-1190.8,346.9-1189.2,341.2-1189.2,333.6z"/>
			</g>
			<g>
				<path id="DejaVuSans-67_00000062152522291163885120000011562188632847561391_" d="M-1135.3,328.6c0,6.5-1.3,11.6-4,15.1
					c-2.7,3.6-6.4,5.4-11.3,5.4c-4.8,0-8.6-1.8-11.2-5.4c-2.7-3.6-4-8.6-4-15.1c0-6.5,1.3-11.5,4-15.1c2.7-3.6,6.4-5.4,11.2-5.4
					c4.9,0,8.6,1.8,11.3,5.4C-1136.7,317.1-1135.3,322.1-1135.3,328.6z M-1126.3,307.4c0-9.3-2.1-16.2-6.2-20.8
					c-4.1-4.5-10.5-6.8-19-6.8c-3.2,0-6.1,0.2-8.9,0.7s-5.5,1.2-8.2,2.2v8.7c2.6-1.4,5.2-2.5,7.8-3.2c2.6-0.7,5.2-1,7.9-1
					c5.9,0,10.3,1.5,13.2,4.6c2.9,3.1,4.4,7.7,4.4,13.9v4.5c-1.9-3.2-4.2-5.6-7.1-7.2s-6.4-2.4-10.4-2.4c-6.7,0-12.1,2.6-16.2,7.7
					c-4.1,5.1-6.2,11.9-6.2,20.3c0,8.5,2.1,15.2,6.2,20.3c4.1,5.1,9.5,7.7,16.2,7.7c4,0,7.5-0.8,10.4-2.4s5.3-4,7.1-7.2v8.3h9V307.4
					z"/>
			</g>
			<g>
				<path id="DejaVuSans-20_00000067957188943012233120000007732259663877706665_" d="M-1117.3,300.6"/>
			</g>
			<g>
				<path id="DejaVuSans-73_00000053527818245595770230000002133496640577500840_" d="M-1041.2,353.7v-8.5c-2.5,1.3-5.2,2.3-7.9,2.9
					c-2.7,0.7-5.6,1-8.5,1c-4.5,0-7.8-0.7-10-2c-2.2-1.4-3.3-3.4-3.3-6.2c0-2.1,0.8-3.7,2.4-4.9s4.8-2.3,9.6-3.4l3.1-0.7
					c6.4-1.4,10.9-3.3,13.6-5.8c2.7-2.5,4-6,4-10.4c0-5.1-2-9.1-6-12.1c-4-3-9.5-4.4-16.6-4.4c-2.9,0-6,0.3-9.2,0.9
					c-3.2,0.6-6.5,1.4-10,2.6v9.3c3.3-1.7,6.6-3,9.8-3.9c3.2-0.9,6.4-1.3,9.6-1.3c4.2,0,7.5,0.7,9.8,2.2c2.3,1.4,3.4,3.5,3.4,6.1
					c0,2.4-0.8,4.3-2.5,5.6c-1.6,1.3-5.2,2.6-10.8,3.8l-3.1,0.7c-5.6,1.2-9.6,3-12.1,5.4c-2.5,2.4-3.7,5.8-3.7,10
					c0,5.1,1.8,9.1,5.5,11.9c3.6,2.8,8.8,4.2,15.5,4.2c3.3,0,6.4-0.2,9.4-0.7C-1046.4,355.4-1043.7,354.7-1041.2,353.7z"/>
			</g>
			<g>
				<path id="DejaVuSans-63_00000060711409491250234880000014292577973506315139_" d="M-984.6,353.2v-8.4c-2.5,1.4-5.1,2.5-7.6,3.2
					c-2.6,0.7-5.1,1-7.7,1c-5.8,0-10.4-1.8-13.6-5.5c-3.2-3.7-4.8-8.9-4.8-15.5c0-6.7,1.6-11.9,4.8-15.6c3.2-3.7,7.8-5.5,13.6-5.5
					c2.6,0,5.2,0.3,7.7,1c2.6,0.7,5.1,1.8,7.6,3.2v-8.3c-2.5-1.2-5.1-2-7.8-2.6c-2.7-0.6-5.5-0.9-8.6-0.9c-8.2,0-14.8,2.6-19.6,7.8
					c-4.8,5.2-7.3,12.2-7.3,21c0,8.9,2.4,15.9,7.3,21c4.9,5.1,11.6,7.7,20.2,7.7c2.8,0,5.5-0.3,8.1-0.9
					C-989.6,355.2-987.1,354.4-984.6,353.2z"/>
			</g>
			<g>
				<path id="DejaVuSans-6f_00000003063777659325344250000006071539521892904862_" d="M-947.8,349c-4.8,0-8.6-1.9-11.4-5.6
					c-2.8-3.8-4.2-8.9-4.2-15.5c0-6.5,1.4-11.7,4.2-15.5c2.8-3.8,6.6-5.6,11.5-5.6c4.8,0,8.6,1.9,11.4,5.7c2.8,3.8,4.2,8.9,4.2,15.4
					c0,6.5-1.4,11.6-4.2,15.4C-939.2,347.1-943,349-947.8,349z M-947.8,356.6c7.8,0,13.9-2.5,18.4-7.6c4.5-5.1,6.7-12.1,6.7-21.1
					c0-8.9-2.2-16-6.7-21.1c-4.5-5.1-10.6-7.6-18.4-7.6c-7.8,0-14,2.5-18.4,7.6c-4.4,5.1-6.7,12.1-6.7,21.1c0,9,2.2,16,6.7,21.1
					C-961.8,354.1-955.6,356.6-947.8,356.6z"/>
			</g>
			<g>
				<path id="DejaVuSans-72_00000129907085216334758530000012193893958487434639_" d="M-876.1,346.9c-1,0.6-2.1,1-3.3,1.3
					c-1.2,0.3-2.5,0.4-3.9,0.4c-5.1,0-9-1.7-11.7-5c-2.7-3.3-4.1-8-4.1-14.2v-28.8h-9v54.7h9v-8.5c1.9,3.3,4.4,5.8,7.4,7.4
					c3,1.6,6.7,2.4,11,2.4c0.6,0,1.3,0,2-0.1c0.8-0.1,1.6-0.2,2.5-0.4L-876.1,346.9z"/>
			</g>
			<g>
				<path id="DejaVuSans-65_00000083049581422656210630000017191721416147678628_" d="M-822.1,330.2v-4.4h-41.3
					c0.4-6.2,2.3-10.9,5.6-14.1c3.3-3.2,8-4.9,13.9-4.9c3.4,0,6.8,0.4,10,1.3c3.2,0.8,6.5,2.1,9.7,3.8v-8.5
					c-3.2-1.4-6.5-2.4-9.9-3.1c-3.4-0.7-6.8-1.1-10.3-1.1c-8.7,0-15.6,2.5-20.7,7.6c-5.1,5.1-7.6,12-7.6,20.6c0,8.9,2.4,16,7.2,21.3
					c4.8,5.3,11.4,7.9,19.6,7.9c7.4,0,13.2-2.4,17.5-7.1C-824.3,344.8-822.1,338.4-822.1,330.2z M-831.1,332.9
					c-0.1,4.9-1.4,8.8-4.1,11.8c-2.7,2.9-6.2,4.4-10.7,4.4c-5,0-9-1.4-12-4.2c-3-2.8-4.7-6.8-5.2-12L-831.1,332.9z"/>
			</g>
		</g>
	</g>
	<g id="line2d_11_00000130635943963349152740000014092433810753792950_">
		<path class="st11" d="M75.4,32.3h10h10"/>
	</g>
	<g id="text_11_00000127043402648195752390000011137902294260529831_">
		<g transform="translate(277.20625 65.836562)scale(0.1 -0.1)">
			<g>
				<path id="DejaVuSans-53_00000086656460605392840230000015939771520675975071_" d="M-1684.3,371.1v-9.6c-3.7,1.8-7.3,3.1-10.6,4
					c-3.3,0.9-6.5,1.3-9.6,1.3c-5.4,0-9.5-1-12.4-3.1c-2.9-2.1-4.4-5-4.4-8.9c0-3.2,1-5.7,2.9-7.3c1.9-1.6,5.6-3,11-4l6-1.2
					c7.4-1.4,12.8-3.9,16.3-7.4s5.2-8.3,5.2-14.2c0-7.1-2.4-12.4-7.1-16.1c-4.7-3.6-11.7-5.5-20.8-5.5c-3.4,0-7.1,0.4-11,1.2
					c-3.9,0.8-7.9,1.9-12.1,3.5V314c4-2.2,7.9-3.9,11.8-5.1c3.8-1.1,7.6-1.7,11.3-1.7c5.6,0,10,1.1,13,3.3c3.1,2.2,4.6,5.4,4.6,9.5
					c0,3.6-1.1,6.4-3.3,8.4c-2.2,2-5.8,3.5-10.8,4.5l-6,1.2c-7.4,1.5-12.7,3.8-16,6.9c-3.3,3.1-4.9,7.5-4.9,13
					c0,6.4,2.3,11.5,6.8,15.2s10.8,5.6,18.8,5.6c3.4,0,6.9-0.3,10.5-0.9C-1691.6,373.3-1688,372.4-1684.3,371.1z"/>
			</g>
			<g>
				<path id="DejaVuSans-56_00000000907170495100760860000009121865921649469869_" d="M-1645.7,300.6l-27.8,72.9h10.3l23.1-61.4
					l23.1,61.4h10.2l-27.8-72.9H-1645.7z"/>
			</g>
			<g>
				<path id="DejaVuSans-52_00000112600826258954139790000015421587703472437159_" d="M-1561.5,334.8c2.1-0.7,4.2-2.2,6.2-4.6
					s4-5.6,6-9.7l10-19.9h-10.6l-9.3,18.7c-2.4,4.9-4.8,8.1-7,9.7s-5.3,2.4-9.2,2.4h-10.8v-30.8h-9.9v72.9h22.3
					c8.3,0,14.6-1.7,18.7-5.2c4.1-3.5,6.2-8.7,6.2-15.8c0-4.6-1.1-8.4-3.2-11.4C-1554.4,338.1-1557.5,336-1561.5,334.8z
					 M-1586.3,365.4v-25.9h12.4c4.8,0,8.3,1.1,10.8,3.3c2.4,2.2,3.6,5.4,3.6,9.7c0,4.3-1.2,7.5-3.6,9.6c-2.4,2.2-6,3.2-10.8,3.2
					H-1586.3z"/>
			</g>
			<g>
				<path id="DejaVuSans-20_00000137841886636474115400000001452305036904707233_" d="M-1536.5,300.6"/>
			</g>
			<g>
				<path id="DejaVuSans-76_00000096058040577237844700000003952819257546303365_" d="M-1501.7,355.3h9.5l17.1-45.9l17.1,45.9h9.5
					l-20.5-54.7h-12.2L-1501.7,355.3z"/>
			</g>
			<g>
				<path id="DejaVuSans-61_00000026886140533484502890000005335581167275781510_" d="M-1411.2,328.1c-7.3,0-12.3-0.8-15.1-2.5
					s-4.2-4.5-4.2-8.5c0-3.2,1.1-5.7,3.2-7.6c2.1-1.9,5-2.8,8.6-2.8c5,0,9,1.8,12,5.3s4.5,8.2,4.5,14.1v2H-1411.2z M-1393.3,331.8
					v-31.2h-9v8.3c-2.1-3.3-4.6-5.8-7.7-7.3c-3.1-1.6-6.8-2.4-11.2-2.4c-5.6,0-10,1.6-13.4,4.7c-3.3,3.1-5,7.4-5,12.6
					c0,6.1,2.1,10.8,6.2,13.9c4.1,3.1,10.3,4.7,18.4,4.7h12.6v0.9c0,4.1-1.4,7.3-4.1,9.6c-2.7,2.3-6.5,3.4-11.5,3.4
					c-3.1,0-6.2-0.4-9.1-1.1c-3-0.8-5.8-1.9-8.5-3.4v8.3c3.3,1.3,6.5,2.2,9.6,2.8c3.1,0.6,6.1,1,9,1c7.9,0,13.8-2.1,17.7-6.2
					C-1395.2,346.4-1393.3,340.2-1393.3,331.8z"/>
			</g>
			<g>
				<path id="DejaVuSans-6c_00000123426293733093161050000004523092329790752164_" d="M-1374.8,376.6h9v-76h-9V376.6z"/>
			</g>
			<g>
				<path id="DejaVuSans-69_00000086651425583810264190000010587438659430854807_" d="M-1347,355.3h9v-54.7h-9V355.3z M-1347,376.6
					h9v-11.4h-9V376.6z"/>
			</g>
			<g>
				<path id="DejaVuSans-64_00000075860155290115418320000009367824891656078009_" d="M-1283.2,347v29.6h9v-76h-9v8.2
					c-1.9-3.2-4.3-5.7-7.2-7.2c-2.9-1.6-6.3-2.4-10.4-2.4c-6.6,0-12,2.6-16.1,7.9c-4.1,5.3-6.2,12.2-6.2,20.8s2.1,15.5,6.2,20.8
					c4.2,5.3,9.5,7.9,16.1,7.9c4,0,7.5-0.8,10.4-2.4C-1287.5,352.7-1285.1,350.3-1283.2,347z M-1313.8,327.9
					c0-6.6,1.4-11.8,4.1-15.5c2.7-3.8,6.5-5.6,11.2-5.6s8.5,1.9,11.2,5.6c2.7,3.8,4.1,8.9,4.1,15.5c0,6.6-1.4,11.8-4.1,15.5
					c-2.7,3.8-6.5,5.6-11.2,5.6s-8.5-1.9-11.2-5.6C-1312.5,339.7-1313.8,334.5-1313.8,327.9z"/>
			</g>
			<g>
				<path id="DejaVuSans-61_00000005964474508321450650000000635757381992854973_" d="M-1230.9,328.1c-7.3,0-12.3-0.8-15.1-2.5
					s-4.2-4.5-4.2-8.5c0-3.2,1.1-5.7,3.2-7.6c2.1-1.9,5-2.8,8.6-2.8c5,0,9,1.8,12,5.3s4.5,8.2,4.5,14.1v2H-1230.9z M-1213,331.8
					v-31.2h-9v8.3c-2.1-3.3-4.6-5.8-7.7-7.3c-3.1-1.6-6.8-2.4-11.2-2.4c-5.6,0-10,1.6-13.4,4.7c-3.3,3.1-5,7.4-5,12.6
					c0,6.1,2.1,10.8,6.2,13.9c4.1,3.1,10.3,4.7,18.4,4.7h12.6v0.9c0,4.1-1.4,7.3-4.1,9.6c-2.7,2.3-6.5,3.4-11.5,3.4
					c-3.1,0-6.2-0.4-9.1-1.1c-3-0.8-5.8-1.9-8.5-3.4v8.3c3.3,1.3,6.5,2.2,9.6,2.8c3.1,0.6,6.1,1,9,1c7.9,0,13.8-2.1,17.7-6.2
					C-1214.9,346.4-1213,340.2-1213,331.8z"/>
			</g>
			<g>
				<path id="DejaVuSans-74_00000157988063084904381290000004573589980810928785_" d="M-1185.6,370.8v-15.5h18.5v-7h-18.5v-29.7
					c0-4.5,0.6-7.3,1.8-8.6c1.2-1.3,3.7-1.9,7.5-1.9h9.2v-7.5h-9.2c-6.9,0-11.7,1.3-14.4,3.9c-2.6,2.6-4,7.3-4,14.1v29.7h-6.6v7h6.6
					v15.5H-1185.6z"/>
			</g>
			<g>
				<path id="DejaVuSans-69_00000047769277805416379220000015101196758540178322_" d="M-1155.3,355.3h9v-54.7h-9V355.3z
					 M-1155.3,376.6h9v-11.4h-9V376.6z"/>
			</g>
			<g>
				<path id="DejaVuSans-6f_00000072269046949191583990000003295258875106116518_" d="M-1106.3,349c-4.8,0-8.6-1.9-11.4-5.6
					c-2.8-3.8-4.2-8.9-4.2-15.5c0-6.5,1.4-11.7,4.2-15.5c2.8-3.8,6.6-5.6,11.5-5.6c4.8,0,8.6,1.9,11.4,5.7c2.8,3.8,4.2,8.9,4.2,15.4
					c0,6.5-1.4,11.6-4.2,15.4C-1097.7,347.1-1101.5,349-1106.3,349z M-1106.3,356.6c7.8,0,13.9-2.5,18.4-7.6
					c4.5-5.1,6.7-12.1,6.7-21.1c0-8.9-2.2-16-6.7-21.1c-4.5-5.1-10.6-7.6-18.4-7.6c-7.8,0-14,2.5-18.4,7.6
					c-4.4,5.1-6.7,12.1-6.7,21.1c0,9,2.2,16,6.7,21.1C-1120.3,354.1-1114.1,356.6-1106.3,356.6z"/>
			</g>
			<g>
				<path id="DejaVuSans-6e_00000060023164640344479670000010586490482609278630_" d="M-1020.8,333.6v-33h-9v32.7c0,5.2-1,9-3,11.6
					c-2,2.6-5,3.9-9.1,3.9c-4.9,0-8.7-1.5-11.5-4.6c-2.8-3.1-4.2-7.3-4.2-12.6v-30.9h-9v54.7h9v-8.5c2.2,3.3,4.7,5.8,7.6,7.4
					c2.9,1.6,6.3,2.4,10.1,2.4c6.3,0,11-1.9,14.2-5.8C-1022.4,346.9-1020.8,341.2-1020.8,333.6z"/>
			</g>
			<g>
				<path id="DejaVuSans-20_00000000944530233972314010000009678144793331908765_" d="M-1012.3,300.6"/>
			</g>
			<g>
				<path id="DejaVuSans-73_00000167386194948992026200000016472388982053688490_" d="M-936.3,353.7v-8.5c-2.5,1.3-5.2,2.3-7.9,2.9
					c-2.7,0.7-5.6,1-8.5,1c-4.5,0-7.8-0.7-10-2c-2.2-1.4-3.3-3.4-3.3-6.2c0-2.1,0.8-3.7,2.4-4.9s4.8-2.3,9.6-3.4l3.1-0.7
					c6.4-1.4,10.9-3.3,13.6-5.8c2.7-2.5,4-6,4-10.4c0-5.1-2-9.1-6-12.1c-4-3-9.5-4.4-16.6-4.4c-2.9,0-6,0.3-9.2,0.9
					c-3.2,0.6-6.5,1.4-10,2.6v9.3c3.3-1.7,6.6-3,9.8-3.9c3.2-0.9,6.4-1.3,9.6-1.3c4.2,0,7.5,0.7,9.8,2.2c2.3,1.4,3.4,3.5,3.4,6.1
					c0,2.4-0.8,4.3-2.5,5.6c-1.6,1.3-5.2,2.6-10.8,3.8l-3.1,0.7c-5.6,1.2-9.6,3-12.1,5.4c-2.5,2.4-3.7,5.8-3.7,10
					c0,5.1,1.8,9.1,5.5,11.9c3.6,2.8,8.8,4.2,15.5,4.2c3.3,0,6.4-0.2,9.4-0.7C-941.4,355.4-938.7,354.7-936.3,353.7z"/>
			</g>
			<g>
				<path id="DejaVuSans-63_00000058571661301900554710000008308654261085901713_" d="M-879.7,353.2v-8.4c-2.5,1.4-5.1,2.5-7.6,3.2
					c-2.6,0.7-5.1,1-7.7,1c-5.8,0-10.4-1.8-13.6-5.5c-3.2-3.7-4.8-8.9-4.8-15.5c0-6.7,1.6-11.9,4.8-15.6c3.2-3.7,7.8-5.5,13.6-5.5
					c2.6,0,5.2,0.3,7.7,1c2.6,0.7,5.1,1.8,7.6,3.2v-8.3c-2.5-1.2-5.1-2-7.8-2.6c-2.7-0.6-5.5-0.9-8.6-0.9c-8.2,0-14.8,2.6-19.6,7.8
					c-4.8,5.2-7.3,12.2-7.3,21c0,8.9,2.4,15.9,7.3,21c4.9,5.1,11.6,7.7,20.2,7.7c2.8,0,5.5-0.3,8.1-0.9
					C-884.7,355.2-882.1,354.4-879.7,353.2z"/>
			</g>
			<g>
				<path id="DejaVuSans-6f_00000143596285200758419130000017244902993656292245_" d="M-842.9,349c-4.8,0-8.6-1.9-11.4-5.6
					c-2.8-3.8-4.2-8.9-4.2-15.5c0-6.5,1.4-11.7,4.2-15.5c2.8-3.8,6.6-5.6,11.5-5.6c4.8,0,8.6,1.9,11.4,5.7c2.8,3.8,4.2,8.9,4.2,15.4
					c0,6.5-1.4,11.6-4.2,15.4C-834.3,347.1-838.1,349-842.9,349z M-842.9,356.6c7.8,0,13.9-2.5,18.4-7.6c4.5-5.1,6.7-12.1,6.7-21.1
					c0-8.9-2.2-16-6.7-21.1c-4.5-5.1-10.6-7.6-18.4-7.6c-7.8,0-14,2.5-18.4,7.6c-4.4,5.1-6.7,12.1-6.7,21.1c0,9,2.2,16,6.7,21.1
					C-856.8,354.1-850.7,356.6-842.9,356.6z"/>
			</g>
			<g>
				<path id="DejaVuSans-72_00000104697201490734387160000014063513439379282593_" d="M-771.2,346.9c-1,0.6-2.1,1-3.3,1.3
					c-1.2,0.3-2.5,0.4-3.9,0.4c-5.1,0-9-1.7-11.7-5c-2.7-3.3-4.1-8-4.1-14.2v-28.8h-9v54.7h9v-8.5c1.9,3.3,4.4,5.8,7.4,7.4
					c3,1.6,6.7,2.4,11,2.4c0.6,0,1.3,0,2-0.1c0.8-0.1,1.6-0.2,2.5-0.4L-771.2,346.9z"/>
			</g>
			<g>
				<path id="DejaVuSans-65_00000017500917887541575400000013724524300222348966_" d="M-717.2,330.2v-4.4h-41.3
					c0.4-6.2,2.3-10.9,5.6-14.1c3.3-3.2,8-4.9,13.9-4.9c3.4,0,6.8,0.4,10,1.3c3.2,0.8,6.5,2.1,9.7,3.8v-8.5
					c-3.2-1.4-6.5-2.4-9.9-3.1c-3.4-0.7-6.8-1.1-10.3-1.1c-8.7,0-15.6,2.5-20.7,7.6c-5.1,5.1-7.6,12-7.6,20.6c0,8.9,2.4,16,7.2,21.3
					c4.8,5.3,11.4,7.9,19.6,7.9c7.4,0,13.2-2.4,17.5-7.1C-719.4,344.8-717.2,338.4-717.2,330.2z M-726.2,332.9
					c-0.1,4.9-1.4,8.8-4.1,11.8c-2.7,2.9-6.2,4.4-10.7,4.4c-5,0-9-1.4-12-4.2c-3-2.8-4.7-6.8-5.2-12L-726.2,332.9z"/>
			</g>
		</g>
	</g>
</g>
</svg>
