<?xml version="1.0" encoding="utf-8"?>
<!-- Generator: Adobe Illustrator 26.1.0, SVG Export Plug-In . SVG Version: 6.00 Build 0)  -->
<svg version="1.1" id="Слой_1" xmlns="http://www.w3.org/2000/svg" xmlns:xlink="http://www.w3.org/1999/xlink" x="0px" y="0px"
	 viewBox="0 0 578.27 433.7" style="enable-background:new 0 0 578.27 433.7;" xml:space="preserve">
<style type="text/css">
	.st0{fill:#FFFFFF;}
	.st1{fill:none;stroke:#000000;stroke-linecap:round;stroke-linejoin:round;stroke-miterlimit:10;}
	.st2{fill-rule:evenodd;clip-rule:evenodd;}
	.st3{fill:#1F77B4;}
	.st4{fill:#FF7F0E;}
	.st5{fill:#2CA02C;}
	.st6{fill:#D62728;}
	.st7{fill:#9467BD;}
	.st8{fill:#8C564B;}
	.st9{fill:#E377C2;}
	.st10{fill:#7F7F7F;}
	.st11{fill:#BCBD22;}
	.st12{fill:#17BECF;}
	.st13{fill:#045A89;}
</style>
<g>
	<rect x="1" y="1.7" class="st0" width="576" height="432"/>
	<line class="st1" x1="449.12" y1="110.19" x2="404.92" y2="140.95"/>
	<polygon class="st2" points="453.66,94.73 454.65,94.73 454.65,102.02 453.66,102.02 453.66,94.73 	"/>
	<polygon class="st2" points="456.78,94.73 457.77,94.73 457.77,101.19 461.32,101.19 461.32,102.02 456.78,102.02 456.78,94.73 	
		"/>
	<polygon class="st2" points="453.92,112.23 455.53,112.23 455.53,106.67 453.78,107.02 453.78,106.12 455.52,105.77 456.51,105.77 
		456.51,112.23 458.12,112.23 458.12,113.06 453.92,113.06 453.92,112.23 	"/>
	<path class="st2" d="M460.26,112.91v-0.9c0.25,0.12,0.5,0.21,0.75,0.27c0.25,0.06,0.5,0.09,0.75,0.09c0.65,0,1.15-0.22,1.49-0.65
		c0.35-0.44,0.54-1.1,0.59-2c-0.19,0.28-0.43,0.49-0.72,0.64c-0.29,0.15-0.61,0.22-0.96,0.22c-0.73,0-1.31-0.22-1.73-0.66
		c-0.42-0.44-0.63-1.04-0.63-1.81c0-0.75,0.22-1.35,0.66-1.8c0.44-0.45,1.03-0.68,1.77-0.68c0.84,0,1.48,0.32,1.93,0.97
		c0.44,0.64,0.67,1.58,0.67,2.81c0,1.15-0.27,2.07-0.82,2.75c-0.54,0.68-1.27,1.03-2.2,1.03c-0.25,0-0.5-0.02-0.75-0.07
		C460.8,113.08,460.53,113.01,460.26,112.91 M462.22,109.82c0.44,0,0.79-0.15,1.05-0.45c0.26-0.3,0.39-0.72,0.39-1.25
		c0-0.52-0.13-0.94-0.39-1.24c-0.26-0.31-0.61-0.46-1.05-0.46c-0.44,0-0.8,0.15-1.05,0.46c-0.26,0.3-0.39,0.72-0.39,1.24
		c0,0.53,0.13,0.94,0.39,1.25C461.43,109.67,461.78,109.82,462.22,109.82L462.22,109.82z"/>
	<polygon class="st2" points="466.47,111.82 467.5,111.82 467.5,113.06 466.47,113.06 466.47,111.82 	"/>
	<path class="st2" d="M472.54,106.63l-2.49,3.89h2.49V106.63 M472.28,105.77h1.24v4.75h1.04v0.82h-1.04v1.72h-0.98v-1.72h-3.29
		v-0.95L472.28,105.77L472.28,105.77z"/>
	<path class="st2" d="M482.27,109.85c-0.28,0-0.51,0.12-0.67,0.36c-0.16,0.24-0.24,0.58-0.24,1.01c0,0.42,0.08,0.76,0.24,1
		c0.16,0.24,0.39,0.36,0.67,0.36c0.28,0,0.49-0.12,0.65-0.36c0.16-0.24,0.24-0.58,0.24-1s-0.08-0.76-0.24-1
		C482.76,109.97,482.55,109.85,482.27,109.85 M482.27,109.23c0.51,0,0.92,0.18,1.23,0.54c0.3,0.36,0.45,0.84,0.45,1.45
		c0,0.61-0.15,1.09-0.46,1.45c-0.3,0.36-0.71,0.53-1.22,0.53c-0.52,0-0.93-0.18-1.24-0.53c-0.3-0.36-0.45-0.84-0.45-1.45
		c0-0.61,0.15-1.09,0.45-1.45C481.34,109.41,481.75,109.23,482.27,109.23 M477.23,106.26c-0.28,0-0.5,0.12-0.66,0.37
		c-0.16,0.24-0.24,0.57-0.24,1c0,0.43,0.08,0.77,0.24,1.01c0.16,0.24,0.38,0.36,0.66,0.36s0.5-0.12,0.66-0.36
		c0.16-0.24,0.24-0.58,0.24-1.01c0-0.42-0.08-0.75-0.24-1C477.73,106.38,477.51,106.26,477.23,106.26 M481.64,105.64h0.78
		l-4.56,7.56h-0.78L481.64,105.64 M477.23,105.64c0.51,0,0.92,0.18,1.23,0.54c0.31,0.36,0.46,0.83,0.46,1.45
		c0,0.62-0.15,1.1-0.46,1.46c-0.3,0.36-0.71,0.53-1.23,0.53s-0.93-0.18-1.23-0.53c-0.3-0.36-0.45-0.84-0.45-1.46
		c0-0.61,0.15-1.09,0.45-1.45C476.31,105.82,476.72,105.64,477.23,105.64L477.23,105.64z"/>
	<polyline class="st1" points="448.76,27.17 345.25,27.17 329.4,88.38 	"/>
	<path class="st2" d="M456.11,21.51c-0.73,0-1.23,0.08-1.51,0.25s-0.42,0.45-0.42,0.85c0,0.32,0.1,0.57,0.31,0.76
		c0.21,0.19,0.5,0.28,0.86,0.28c0.5,0,0.9-0.18,1.2-0.53c0.3-0.36,0.45-0.83,0.45-1.41v-0.2H456.11 M457.9,21.14v3.12H457v-0.83
		c-0.21,0.33-0.46,0.58-0.77,0.74c-0.31,0.16-0.68,0.23-1.12,0.23c-0.56,0-1.01-0.16-1.34-0.47c-0.33-0.32-0.49-0.74-0.49-1.26
		c0-0.62,0.21-1.08,0.62-1.39c0.42-0.31,1.03-0.47,1.85-0.47H457v-0.09c0-0.42-0.14-0.73-0.41-0.96c-0.27-0.23-0.65-0.34-1.14-0.34
		c-0.31,0-0.62,0.04-0.91,0.11s-0.58,0.19-0.85,0.34v-0.83c0.33-0.13,0.65-0.22,0.96-0.28s0.61-0.1,0.9-0.1
		c0.79,0,1.38,0.21,1.77,0.62S457.9,20.31,457.9,21.14L457.9,21.14z"/>
	<polygon class="st2" points="459.86,16.66 460.76,16.66 460.76,24.26 459.86,24.26 459.86,16.66 	"/>
	<path class="st2" d="M466.44,19v0.84c-0.25-0.14-0.51-0.24-0.77-0.31c-0.25-0.07-0.51-0.11-0.77-0.11c-0.58,0-1.04,0.19-1.36,0.56
		c-0.32,0.37-0.48,0.88-0.48,1.55s0.16,1.19,0.48,1.56c0.32,0.37,0.78,0.55,1.36,0.55c0.26,0,0.52-0.03,0.77-0.1
		c0.26-0.07,0.51-0.18,0.77-0.32v0.83c-0.25,0.12-0.51,0.21-0.78,0.26s-0.55,0.09-0.85,0.09c-0.83,0-1.48-0.26-1.96-0.78
		s-0.73-1.22-0.73-2.09c0-0.89,0.24-1.59,0.73-2.1c0.49-0.51,1.16-0.77,2.02-0.77c0.28,0,0.55,0.03,0.81,0.09
		C465.93,18.8,466.19,18.89,466.44,19L466.44,19z"/>
	<path class="st2" d="M470.14,19.42c-0.48,0-0.86,0.19-1.14,0.57s-0.42,0.89-0.42,1.54s0.14,1.17,0.42,1.55s0.66,0.56,1.15,0.56
		c0.48,0,0.86-0.19,1.14-0.57s0.42-0.89,0.42-1.54s-0.14-1.16-0.42-1.54C471,19.61,470.62,19.42,470.14,19.42 M470.14,18.66
		c0.78,0,1.4,0.25,1.84,0.76s0.67,1.21,0.67,2.11c0,0.89-0.22,1.6-0.67,2.11c-0.44,0.51-1.06,0.76-1.84,0.76
		c-0.79,0-1.4-0.25-1.85-0.76c-0.44-0.51-0.66-1.22-0.66-2.11c0-0.9,0.22-1.6,0.66-2.11S469.36,18.66,470.14,18.66L470.14,18.66z"/>
	<path class="st2" d="M478.81,20.96v3.3h-0.9v-3.27c0-0.52-0.1-0.9-0.3-1.16s-0.5-0.39-0.91-0.39c-0.48,0-0.87,0.16-1.15,0.46
		s-0.42,0.73-0.42,1.26v3.09h-0.9v-7.6h0.9v2.98c0.21-0.33,0.47-0.58,0.76-0.74c0.29-0.16,0.63-0.24,1.01-0.24
		c0.63,0,1.1,0.2,1.43,0.59C478.65,19.63,478.81,20.2,478.81,20.96L478.81,20.96z"/>
	<path class="st2" d="M482.62,19.42c-0.48,0-0.86,0.19-1.14,0.57s-0.42,0.89-0.42,1.54s0.14,1.17,0.42,1.55s0.66,0.56,1.15,0.56
		c0.48,0,0.86-0.19,1.14-0.57s0.42-0.89,0.42-1.54s-0.14-1.16-0.42-1.54C483.48,19.61,483.1,19.42,482.62,19.42 M482.62,18.66
		c0.78,0,1.4,0.25,1.84,0.76s0.67,1.21,0.67,2.11c0,0.89-0.22,1.6-0.67,2.11c-0.44,0.51-1.06,0.76-1.84,0.76
		c-0.79,0-1.4-0.25-1.85-0.76c-0.44-0.51-0.66-1.22-0.66-2.11c0-0.9,0.22-1.6,0.66-2.11S481.84,18.66,482.62,18.66L482.62,18.66z"/>
	<polygon class="st2" points="486.74,16.66 487.64,16.66 487.64,24.26 486.74,24.26 486.74,16.66 	"/>
	<path class="st2" d="M456.74,31.61c0.47,0.1,0.84,0.31,1.1,0.63c0.27,0.32,0.4,0.71,0.4,1.18c0,0.72-0.25,1.27-0.74,1.67
		s-1.2,0.59-2.11,0.59c-0.31,0-0.62-0.03-0.95-0.09c-0.32-0.06-0.65-0.15-1-0.27v-0.95c0.27,0.16,0.57,0.28,0.9,0.36
		s0.66,0.12,1.02,0.12c0.62,0,1.09-0.12,1.41-0.37c0.33-0.24,0.49-0.6,0.49-1.06c0-0.43-0.15-0.77-0.45-1.01
		c-0.3-0.24-0.72-0.37-1.25-0.37h-0.85v-0.81h0.89c0.48,0,0.85-0.1,1.11-0.29c0.26-0.2,0.39-0.47,0.39-0.84
		c0-0.38-0.13-0.66-0.4-0.86c-0.26-0.2-0.64-0.3-1.14-0.3c-0.27,0-0.56,0.03-0.87,0.09s-0.65,0.15-1.02,0.27v-0.88
		c0.38-0.1,0.72-0.18,1.05-0.23s0.64-0.08,0.93-0.08c0.75,0,1.34,0.17,1.78,0.51c0.43,0.34,0.65,0.8,0.65,1.38
		c0,0.41-0.12,0.75-0.35,1.03S457.16,31.5,456.74,31.61L456.74,31.61z"/>
	<polygon class="st2" points="460.23,34.3 461.26,34.3 461.26,35.54 460.23,35.54 460.23,34.3 	"/>
	<path class="st2" d="M464.2,34.71h3.44v0.83h-4.63v-0.83c0.38-0.39,0.88-0.91,1.53-1.56c0.65-0.65,1.05-1.07,1.22-1.26
		c0.32-0.36,0.54-0.65,0.66-0.9c0.13-0.25,0.19-0.49,0.19-0.73c0-0.39-0.14-0.7-0.41-0.95c-0.27-0.24-0.62-0.37-1.06-0.37
		c-0.31,0-0.63,0.05-0.98,0.16c-0.34,0.11-0.71,0.27-1.1,0.49v-1c0.4-0.16,0.77-0.28,1.11-0.36c0.35-0.08,0.66-0.12,0.95-0.12
		c0.76,0,1.36,0.19,1.81,0.57c0.45,0.38,0.67,0.88,0.67,1.51c0,0.3-0.06,0.59-0.17,0.85c-0.11,0.27-0.31,0.58-0.61,0.95
		c-0.08,0.09-0.34,0.37-0.78,0.82C465.61,33.27,464.99,33.9,464.2,34.71L464.2,34.71z"/>
	<path class="st2" d="M476.03,32.33c-0.28,0-0.51,0.12-0.67,0.36s-0.24,0.58-0.24,1.01c0,0.42,0.08,0.76,0.24,1
		c0.16,0.24,0.39,0.36,0.67,0.36c0.28,0,0.49-0.12,0.65-0.36c0.16-0.24,0.24-0.58,0.24-1s-0.08-0.76-0.24-1
		C476.52,32.45,476.31,32.33,476.03,32.33 M476.03,31.71c0.51,0,0.92,0.18,1.23,0.54s0.45,0.84,0.45,1.45s-0.15,1.09-0.46,1.45
		c-0.3,0.36-0.71,0.53-1.22,0.53c-0.52,0-0.93-0.18-1.24-0.53s-0.45-0.84-0.45-1.45s0.15-1.09,0.45-1.45
		C475.1,31.89,475.51,31.71,476.03,31.71 M470.99,28.74c-0.28,0-0.5,0.12-0.66,0.37c-0.16,0.24-0.24,0.57-0.24,1
		c0,0.43,0.08,0.77,0.24,1.01s0.38,0.36,0.66,0.36s0.5-0.12,0.66-0.36s0.24-0.58,0.24-1.01c0-0.42-0.08-0.75-0.24-1
		S471.27,28.74,470.99,28.74 M475.4,28.12h0.78l-4.56,7.56h-0.78L475.4,28.12 M470.99,28.12c0.51,0,0.92,0.18,1.23,0.54
		s0.46,0.83,0.46,1.45c0,0.62-0.15,1.1-0.46,1.46c-0.3,0.36-0.71,0.53-1.23,0.53s-0.93-0.18-1.23-0.53
		c-0.3-0.36-0.45-0.84-0.45-1.46c0-0.61,0.15-1.09,0.45-1.45S470.48,28.12,470.99,28.12L470.99,28.12z"/>
	<polyline class="st1" points="143.64,21.18 286.29,21.18 289.49,84.32 	"/>
	<path class="st2" d="M108.83,15.51c-0.73,0-1.23,0.08-1.51,0.25s-0.42,0.45-0.42,0.85c0,0.32,0.1,0.57,0.31,0.76
		c0.21,0.19,0.5,0.28,0.86,0.28c0.5,0,0.9-0.18,1.2-0.53c0.3-0.36,0.45-0.83,0.45-1.41v-0.2H108.83 M110.62,15.14v3.12h-0.9v-0.83
		c-0.21,0.33-0.46,0.58-0.77,0.74c-0.31,0.16-0.68,0.23-1.12,0.23c-0.56,0-1.01-0.16-1.34-0.47c-0.33-0.32-0.49-0.74-0.49-1.26
		c0-0.62,0.21-1.08,0.62-1.39c0.42-0.31,1.03-0.47,1.85-0.47h1.26v-0.09c0-0.42-0.14-0.73-0.41-0.96c-0.27-0.23-0.65-0.34-1.14-0.34
		c-0.31,0-0.62,0.04-0.91,0.11s-0.58,0.19-0.85,0.34v-0.83c0.33-0.13,0.65-0.22,0.96-0.28s0.61-0.1,0.9-0.1
		c0.79,0,1.38,0.21,1.77,0.62S110.62,14.31,110.62,15.14L110.62,15.14z"/>
	<path class="st2" d="M116.6,13.84c0.22-0.41,0.49-0.7,0.81-0.89s0.68-0.29,1.1-0.29c0.57,0,1.01,0.2,1.32,0.6
		c0.31,0.4,0.46,0.96,0.46,1.7v3.3h-0.9v-3.27c0-0.52-0.09-0.91-0.28-1.17s-0.47-0.38-0.85-0.38c-0.46,0-0.83,0.16-1.1,0.46
		s-0.41,0.73-0.41,1.26v3.09h-0.9v-3.27c0-0.53-0.09-0.92-0.28-1.17c-0.19-0.25-0.47-0.38-0.86-0.38c-0.46,0-0.83,0.16-1.09,0.47
		c-0.27,0.31-0.41,0.73-0.41,1.26v3.09h-0.9v-5.47h0.9v0.85c0.21-0.34,0.45-0.58,0.74-0.74s0.62-0.24,1.02-0.24s0.73,0.1,1.01,0.3
		S116.47,13.46,116.6,13.84L116.6,13.84z"/>
	<path class="st2" d="M122.18,12.79h0.9v5.47h-0.9V12.79 M122.18,10.66h0.9v1.14h-0.9V10.66L122.18,10.66z"/>
	<path class="st2" d="M128.42,13.62v-2.96h0.9v7.6h-0.9v-0.82c-0.19,0.33-0.43,0.57-0.72,0.73c-0.29,0.16-0.63,0.23-1.04,0.23
		c-0.66,0-1.2-0.26-1.62-0.79c-0.42-0.53-0.62-1.22-0.62-2.08c0-0.86,0.21-1.55,0.62-2.08c0.42-0.53,0.96-0.79,1.62-0.79
		c0.41,0,0.75,0.08,1.04,0.24C127.99,13.06,128.23,13.29,128.42,13.62 M125.36,15.53c0,0.66,0.14,1.18,0.41,1.56
		c0.27,0.38,0.65,0.56,1.12,0.56c0.47,0,0.85-0.19,1.12-0.56c0.27-0.38,0.41-0.9,0.41-1.56c0-0.66-0.14-1.18-0.41-1.55
		c-0.27-0.38-0.65-0.57-1.12-0.57c-0.47,0-0.85,0.19-1.12,0.57C125.5,14.35,125.36,14.87,125.36,15.53L125.36,15.53z"/>
	<path class="st2" d="M135.98,15.3v0.44h-4.13c0.04,0.62,0.22,1.09,0.56,1.42c0.34,0.32,0.8,0.48,1.4,0.48c0.35,0,0.68-0.04,1-0.13
		c0.33-0.08,0.65-0.21,0.97-0.38v0.85c-0.32,0.14-0.65,0.24-0.99,0.31s-0.68,0.11-1.03,0.11c-0.87,0-1.56-0.25-2.08-0.76
		c-0.51-0.51-0.76-1.2-0.76-2.06c0-0.89,0.24-1.61,0.72-2.13c0.48-0.53,1.14-0.79,1.96-0.79c0.74,0,1.32,0.24,1.74,0.71
		C135.77,13.85,135.98,14.49,135.98,15.3 M135.08,15.04c0-0.49-0.15-0.88-0.42-1.18c-0.27-0.29-0.62-0.44-1.06-0.44
		c-0.5,0-0.9,0.14-1.21,0.42c-0.3,0.28-0.47,0.68-0.52,1.2L135.08,15.04L135.08,15.04z"/>
	<path class="st2" d="M117.58,25.5c-0.44,0-0.8,0.15-1.05,0.45c-0.26,0.3-0.39,0.72-0.39,1.25c0,0.52,0.13,0.94,0.39,1.25
		c0.26,0.3,0.61,0.45,1.05,0.45c0.44,0,0.79-0.15,1.05-0.45c0.26-0.31,0.39-0.72,0.39-1.25c0-0.53-0.13-0.94-0.39-1.25
		C118.37,25.65,118.03,25.5,117.58,25.5 M119.54,22.41v0.9c-0.25-0.12-0.5-0.21-0.75-0.27c-0.25-0.06-0.5-0.09-0.75-0.09
		c-0.65,0-1.15,0.22-1.49,0.66c-0.34,0.44-0.54,1.1-0.59,1.99c0.19-0.28,0.43-0.5,0.72-0.65c0.29-0.15,0.61-0.23,0.96-0.23
		c0.73,0,1.31,0.22,1.73,0.67s0.64,1.04,0.64,1.81c0,0.75-0.22,1.35-0.66,1.8c-0.44,0.45-1.03,0.68-1.77,0.68
		c-0.84,0-1.49-0.32-1.93-0.97c-0.44-0.65-0.67-1.59-0.67-2.81c0-1.15,0.27-2.07,0.82-2.75c0.55-0.69,1.28-1.03,2.2-1.03
		c0.25,0,0.5,0.02,0.75,0.07C119,22.24,119.27,22.31,119.54,22.41L119.54,22.41z"/>
	<polygon class="st2" points="121.59,28.3 122.62,28.3 122.62,29.54 121.59,29.54 121.59,28.3 	"/>
	<path class="st2" d="M124.96,22.25h3.87v0.83h-2.97v1.79c0.14-0.05,0.29-0.08,0.43-0.11c0.14-0.02,0.29-0.04,0.43-0.04
		c0.82,0,1.46,0.22,1.93,0.67c0.47,0.44,0.71,1.05,0.71,1.81c0,0.79-0.24,1.4-0.73,1.83c-0.49,0.43-1.18,0.65-2.07,0.65
		c-0.31,0-0.62-0.02-0.94-0.08c-0.32-0.05-0.64-0.13-0.98-0.23v-0.99c0.29,0.16,0.6,0.28,0.91,0.36c0.31,0.08,0.64,0.12,0.99,0.12
		c0.56,0,1.01-0.15,1.34-0.44c0.33-0.3,0.49-0.7,0.49-1.21s-0.17-0.91-0.49-1.21c-0.33-0.3-0.78-0.44-1.34-0.44
		c-0.26,0-0.53,0.03-0.79,0.09c-0.26,0.06-0.53,0.15-0.8,0.27V22.25L124.96,22.25z"/>
	<path class="st2" d="M137.39,26.33c-0.28,0-0.51,0.12-0.67,0.36s-0.24,0.58-0.24,1.01c0,0.42,0.08,0.76,0.24,1
		c0.16,0.24,0.39,0.36,0.67,0.36c0.28,0,0.49-0.12,0.65-0.36c0.16-0.24,0.24-0.58,0.24-1s-0.08-0.76-0.24-1
		C137.88,26.45,137.67,26.33,137.39,26.33 M137.39,25.71c0.51,0,0.92,0.18,1.23,0.54s0.45,0.84,0.45,1.45s-0.15,1.09-0.46,1.45
		c-0.3,0.36-0.71,0.53-1.22,0.53c-0.52,0-0.93-0.18-1.24-0.53s-0.45-0.84-0.45-1.45s0.15-1.09,0.45-1.45
		C136.46,25.89,136.87,25.71,137.39,25.71 M132.35,22.74c-0.28,0-0.5,0.12-0.66,0.37c-0.16,0.24-0.24,0.57-0.24,1
		c0,0.43,0.08,0.77,0.24,1.01s0.38,0.36,0.66,0.36s0.5-0.12,0.66-0.36s0.24-0.58,0.24-1.01c0-0.42-0.08-0.75-0.24-1
		S132.63,22.74,132.35,22.74 M136.76,22.12h0.78l-4.56,7.56h-0.78L136.76,22.12 M132.35,22.12c0.51,0,0.92,0.18,1.23,0.54
		s0.46,0.83,0.46,1.45c0,0.62-0.15,1.1-0.46,1.46c-0.3,0.36-0.71,0.53-1.23,0.53s-0.93-0.18-1.23-0.53
		c-0.3-0.36-0.45-0.84-0.45-1.46c0-0.61,0.15-1.09,0.45-1.45S131.84,22.12,132.35,22.12L132.35,22.12z"/>
	<polyline class="st1" points="143.64,40.92 210.02,40.92 237.86,97.69 	"/>
	<path class="st2" d="M84.83,35.43c-0.73,0-1.23,0.08-1.51,0.25s-0.42,0.45-0.42,0.85c0,0.32,0.1,0.57,0.31,0.76
		c0.21,0.19,0.5,0.28,0.86,0.28c0.5,0,0.9-0.18,1.2-0.53c0.3-0.36,0.45-0.83,0.45-1.41v-0.2H84.83 M86.62,35.06v3.12h-0.9v-0.83
		c-0.21,0.33-0.46,0.58-0.77,0.74c-0.31,0.16-0.68,0.23-1.12,0.23c-0.56,0-1.01-0.16-1.34-0.47C82.17,37.54,82,37.12,82,36.59
		c0-0.62,0.21-1.08,0.62-1.39c0.42-0.31,1.03-0.47,1.85-0.47h1.26v-0.09c0-0.42-0.14-0.73-0.41-0.96c-0.27-0.23-0.65-0.34-1.14-0.34
		c-0.31,0-0.62,0.04-0.91,0.11s-0.58,0.19-0.85,0.34v-0.83c0.33-0.13,0.65-0.22,0.96-0.28s0.61-0.1,0.9-0.1
		c0.79,0,1.38,0.21,1.77,0.62S86.62,34.23,86.62,35.06L86.62,35.06z"/>
	<path class="st2" d="M92.84,33.76c0.22-0.41,0.49-0.7,0.81-0.89c0.31-0.19,0.68-0.29,1.1-0.29c0.57,0,1.01,0.2,1.32,0.6
		c0.31,0.4,0.46,0.96,0.46,1.7v3.3h-0.9v-3.27c0-0.52-0.09-0.91-0.28-1.17c-0.19-0.25-0.47-0.38-0.85-0.38
		c-0.46,0-0.83,0.16-1.1,0.46c-0.27,0.31-0.41,0.73-0.41,1.26v3.09h-0.9v-3.27c0-0.53-0.09-0.92-0.28-1.17
		c-0.19-0.25-0.47-0.38-0.86-0.38c-0.46,0-0.83,0.16-1.09,0.47c-0.27,0.31-0.41,0.73-0.41,1.26v3.09h-0.9v-5.47h0.9v0.85
		c0.21-0.34,0.45-0.58,0.74-0.74c0.29-0.16,0.62-0.24,1.02-0.24s0.73,0.1,1.01,0.3S92.71,33.38,92.84,33.76L92.84,33.76z"/>
	<path class="st2" d="M98.18,32.71h0.9v5.47h-0.9V32.71 M98.18,30.58h0.9v1.14h-0.9V30.58L98.18,30.58z"/>
	<path class="st2" d="M105.61,34.88v3.3h-0.9v-3.27c0-0.52-0.1-0.9-0.3-1.16s-0.5-0.39-0.91-0.39c-0.48,0-0.87,0.16-1.15,0.46
		s-0.42,0.73-0.42,1.26v3.09h-0.9v-5.47h0.9v0.85c0.21-0.33,0.47-0.58,0.76-0.74c0.29-0.16,0.63-0.24,1.01-0.24
		c0.63,0,1.1,0.2,1.43,0.59C105.45,33.55,105.61,34.12,105.61,34.88L105.61,34.88z"/>
	<path class="st2" d="M109.42,33.34c-0.48,0-0.86,0.19-1.14,0.57s-0.42,0.89-0.42,1.54s0.14,1.17,0.42,1.55s0.66,0.56,1.15,0.56
		c0.48,0,0.86-0.19,1.14-0.57s0.42-0.89,0.42-1.54s-0.14-1.16-0.42-1.54C110.28,33.53,109.9,33.34,109.42,33.34 M109.42,32.58
		c0.78,0,1.4,0.25,1.84,0.76c0.44,0.51,0.67,1.21,0.67,2.11c0,0.89-0.22,1.6-0.67,2.11c-0.44,0.51-1.06,0.76-1.84,0.76
		c-0.79,0-1.4-0.25-1.85-0.76c-0.44-0.51-0.66-1.22-0.66-2.11c0-0.9,0.22-1.6,0.66-2.11C108.02,32.83,108.64,32.58,109.42,32.58
		L109.42,32.58z"/>
	<path class="st2" d="M119.15,35.43c-0.73,0-1.23,0.08-1.51,0.25s-0.42,0.45-0.42,0.85c0,0.32,0.1,0.57,0.31,0.76
		c0.21,0.19,0.5,0.28,0.86,0.28c0.5,0,0.9-0.18,1.2-0.53c0.3-0.36,0.45-0.83,0.45-1.41v-0.2H119.15 M120.94,35.06v3.12h-0.9v-0.83
		c-0.21,0.33-0.46,0.58-0.77,0.74c-0.31,0.16-0.68,0.23-1.12,0.23c-0.56,0-1.01-0.16-1.34-0.47c-0.33-0.32-0.49-0.74-0.49-1.26
		c0-0.62,0.21-1.08,0.62-1.39c0.42-0.31,1.03-0.47,1.85-0.47h1.26v-0.09c0-0.42-0.14-0.73-0.41-0.96c-0.27-0.23-0.65-0.34-1.14-0.34
		c-0.31,0-0.62,0.04-0.91,0.11c-0.3,0.07-0.58,0.19-0.85,0.34v-0.83c0.33-0.13,0.65-0.22,0.96-0.28s0.61-0.1,0.9-0.1
		c0.79,0,1.38,0.21,1.77,0.62C120.74,33.61,120.94,34.23,120.94,35.06L120.94,35.06z"/>
	<path class="st2" d="M126.6,32.92v0.84c-0.25-0.14-0.51-0.24-0.77-0.31c-0.25-0.07-0.51-0.11-0.77-0.11
		c-0.58,0-1.04,0.19-1.36,0.56c-0.32,0.37-0.48,0.88-0.48,1.55s0.16,1.19,0.48,1.56c0.32,0.37,0.78,0.55,1.36,0.55
		c0.26,0,0.52-0.03,0.77-0.1c0.26-0.07,0.51-0.18,0.77-0.32v0.83c-0.25,0.12-0.51,0.21-0.78,0.26c-0.27,0.06-0.55,0.09-0.85,0.09
		c-0.83,0-1.48-0.26-1.96-0.78s-0.73-1.22-0.73-2.09c0-0.89,0.24-1.59,0.73-2.1c0.49-0.51,1.16-0.77,2.02-0.77
		c0.28,0,0.55,0.03,0.81,0.09C126.1,32.72,126.35,32.81,126.6,32.92L126.6,32.92z"/>
	<path class="st2" d="M128.18,32.71h0.9v5.47h-0.9V32.71 M128.18,30.58h0.9v1.14h-0.9V30.58L128.18,30.58z"/>
	<path class="st2" d="M134.66,33.54v-2.96h0.9v7.6h-0.9v-0.82c-0.19,0.33-0.43,0.57-0.72,0.73c-0.29,0.16-0.63,0.23-1.04,0.23
		c-0.66,0-1.2-0.26-1.62-0.79s-0.62-1.22-0.62-2.08s0.21-1.55,0.62-2.08s0.96-0.79,1.62-0.79c0.41,0,0.75,0.08,1.04,0.24
		C134.23,32.98,134.47,33.21,134.66,33.54 M131.6,35.45c0,0.66,0.14,1.18,0.41,1.56c0.27,0.38,0.65,0.56,1.12,0.56
		s0.85-0.19,1.12-0.56s0.41-0.9,0.41-1.56s-0.14-1.18-0.41-1.55s-0.65-0.57-1.12-0.57s-0.85,0.19-1.12,0.57
		C131.74,34.27,131.6,34.79,131.6,35.45L131.6,35.45z"/>
	<path class="st2" d="M117.58,45.18c-0.44,0-0.8,0.15-1.05,0.45c-0.26,0.3-0.39,0.72-0.39,1.25c0,0.52,0.13,0.94,0.39,1.25
		c0.26,0.3,0.61,0.45,1.05,0.45c0.44,0,0.79-0.15,1.05-0.45c0.26-0.31,0.39-0.72,0.39-1.25c0-0.53-0.13-0.94-0.39-1.25
		C118.37,45.33,118.03,45.18,117.58,45.18 M119.54,42.09v0.9c-0.25-0.12-0.5-0.21-0.75-0.27c-0.25-0.06-0.5-0.09-0.75-0.09
		c-0.65,0-1.15,0.22-1.49,0.66c-0.34,0.44-0.54,1.1-0.59,1.99c0.19-0.28,0.43-0.5,0.72-0.65c0.29-0.15,0.61-0.23,0.96-0.23
		c0.73,0,1.31,0.22,1.73,0.67s0.64,1.04,0.64,1.81c0,0.75-0.22,1.35-0.66,1.8c-0.44,0.45-1.03,0.68-1.77,0.68
		c-0.84,0-1.49-0.32-1.93-0.97c-0.44-0.65-0.67-1.59-0.67-2.81c0-1.15,0.27-2.07,0.82-2.75c0.55-0.69,1.28-1.03,2.2-1.03
		c0.25,0,0.5,0.02,0.75,0.07C119,41.92,119.27,41.99,119.54,42.09L119.54,42.09z"/>
	<polygon class="st2" points="121.59,47.98 122.62,47.98 122.62,49.22 121.59,49.22 121.59,47.98 	"/>
	<path class="st2" d="M124.96,41.93h3.87v0.83h-2.97v1.79c0.14-0.05,0.29-0.08,0.43-0.11c0.14-0.02,0.29-0.04,0.43-0.04
		c0.82,0,1.46,0.22,1.93,0.67c0.47,0.44,0.71,1.05,0.71,1.81c0,0.79-0.24,1.4-0.73,1.83c-0.49,0.43-1.18,0.65-2.07,0.65
		c-0.31,0-0.62-0.02-0.94-0.08c-0.32-0.05-0.64-0.13-0.98-0.23v-0.99c0.29,0.16,0.6,0.28,0.91,0.36c0.31,0.08,0.64,0.12,0.99,0.12
		c0.56,0,1.01-0.15,1.34-0.44c0.33-0.3,0.49-0.7,0.49-1.21s-0.17-0.91-0.49-1.21c-0.33-0.3-0.78-0.44-1.34-0.44
		c-0.26,0-0.53,0.03-0.79,0.09c-0.26,0.06-0.53,0.15-0.8,0.27V41.93L124.96,41.93z"/>
	<path class="st2" d="M137.39,46.01c-0.28,0-0.51,0.12-0.67,0.36s-0.24,0.58-0.24,1.01c0,0.42,0.08,0.76,0.24,1
		c0.16,0.24,0.39,0.36,0.67,0.36c0.28,0,0.49-0.12,0.65-0.36c0.16-0.24,0.24-0.58,0.24-1s-0.08-0.76-0.24-1
		C137.88,46.13,137.67,46.01,137.39,46.01 M137.39,45.39c0.51,0,0.92,0.18,1.23,0.54s0.45,0.84,0.45,1.45s-0.15,1.09-0.46,1.45
		c-0.3,0.36-0.71,0.53-1.22,0.53c-0.52,0-0.93-0.18-1.24-0.53s-0.45-0.84-0.45-1.45s0.15-1.09,0.45-1.45
		C136.46,45.57,136.87,45.39,137.39,45.39 M132.35,42.42c-0.28,0-0.5,0.12-0.66,0.37c-0.16,0.24-0.24,0.57-0.24,1
		c0,0.43,0.08,0.77,0.24,1.01s0.38,0.36,0.66,0.36s0.5-0.12,0.66-0.36s0.24-0.58,0.24-1.01c0-0.42-0.08-0.75-0.24-1
		S132.63,42.42,132.35,42.42 M136.76,41.8h0.78l-4.56,7.56h-0.78L136.76,41.8 M132.35,41.8c0.51,0,0.92,0.18,1.23,0.54
		s0.46,0.83,0.46,1.45c0,0.62-0.15,1.1-0.46,1.46c-0.3,0.36-0.71,0.53-1.23,0.53s-0.93-0.18-1.23-0.53
		c-0.3-0.36-0.45-0.84-0.45-1.46c0-0.61,0.15-1.09,0.45-1.45S131.84,41.8,132.35,41.8L132.35,41.8z"/>
	<polyline class="st1" points="143.64,78.24 157.82,78.24 202.53,122.95 	"/>
	<path class="st2" d="M17.63,72.63c-0.73,0-1.23,0.08-1.51,0.25s-0.42,0.45-0.42,0.85c0,0.32,0.1,0.57,0.31,0.76
		c0.21,0.19,0.5,0.28,0.86,0.28c0.5,0,0.9-0.18,1.2-0.53c0.3-0.36,0.45-0.83,0.45-1.41v-0.2H17.63 M19.42,72.26v3.12h-0.9v-0.83
		c-0.21,0.33-0.46,0.58-0.77,0.74c-0.31,0.16-0.68,0.23-1.12,0.23c-0.56,0-1.01-0.16-1.34-0.47c-0.33-0.32-0.49-0.74-0.49-1.26
		c0-0.62,0.21-1.08,0.62-1.39c0.42-0.31,1.03-0.47,1.85-0.47h1.26v-0.09c0-0.42-0.14-0.73-0.41-0.96c-0.27-0.23-0.65-0.34-1.14-0.34
		c-0.31,0-0.62,0.04-0.91,0.11c-0.3,0.07-0.58,0.19-0.85,0.34v-0.83c0.33-0.13,0.65-0.22,0.96-0.28s0.61-0.1,0.9-0.1
		c0.79,0,1.38,0.21,1.77,0.62C19.22,70.81,19.42,71.43,19.42,72.26L19.42,72.26z"/>
	<path class="st2" d="M24.55,70.75c-0.1-0.06-0.21-0.1-0.33-0.13c-0.12-0.03-0.25-0.04-0.39-0.04c-0.51,0-0.9,0.17-1.17,0.5
		c-0.27,0.33-0.41,0.8-0.41,1.42v2.88h-0.9v-5.47h0.9v0.85c0.19-0.33,0.43-0.58,0.74-0.74c0.3-0.16,0.67-0.24,1.1-0.24
		c0.06,0,0.13,0,0.21,0.01c0.07,0,0.16,0.02,0.25,0.03L24.55,70.75L24.55,70.75z"/>
	<path class="st2" d="M27.34,70.54c-0.48,0-0.86,0.19-1.14,0.57s-0.42,0.89-0.42,1.54s0.14,1.17,0.42,1.55s0.66,0.56,1.15,0.56
		c0.48,0,0.86-0.19,1.14-0.57s0.42-0.89,0.42-1.54s-0.14-1.16-0.42-1.54C28.2,70.73,27.82,70.54,27.34,70.54 M27.34,69.78
		c0.78,0,1.4,0.25,1.84,0.76c0.44,0.51,0.67,1.21,0.67,2.11c0,0.89-0.22,1.6-0.67,2.11c-0.44,0.51-1.06,0.76-1.84,0.76
		c-0.79,0-1.4-0.25-1.85-0.76c-0.44-0.51-0.66-1.22-0.66-2.11c0-0.9,0.22-1.6,0.66-2.11C25.94,70.03,26.56,69.78,27.34,69.78
		L27.34,69.78z"/>
	<path class="st2" d="M35.48,70.96c0.22-0.41,0.49-0.7,0.81-0.89c0.31-0.19,0.68-0.29,1.1-0.29c0.57,0,1.01,0.2,1.32,0.6
		c0.31,0.4,0.46,0.96,0.46,1.7v3.3h-0.9v-3.27c0-0.52-0.09-0.91-0.28-1.17c-0.19-0.25-0.47-0.38-0.85-0.38
		c-0.46,0-0.83,0.16-1.1,0.46c-0.27,0.31-0.41,0.73-0.41,1.26v3.09h-0.9v-3.27c0-0.53-0.09-0.92-0.28-1.17
		c-0.19-0.25-0.47-0.38-0.86-0.38c-0.46,0-0.83,0.16-1.09,0.47c-0.27,0.31-0.41,0.73-0.41,1.26v3.09h-0.9v-5.47h0.9v0.85
		c0.21-0.34,0.45-0.58,0.74-0.74c0.29-0.16,0.62-0.24,1.02-0.24s0.73,0.1,1.01,0.3S35.35,70.58,35.48,70.96L35.48,70.96z"/>
	<path class="st2" d="M43.55,72.63c-0.73,0-1.23,0.08-1.51,0.25s-0.42,0.45-0.42,0.85c0,0.32,0.1,0.57,0.31,0.76
		c0.21,0.19,0.5,0.28,0.86,0.28c0.5,0,0.9-0.18,1.2-0.53c0.3-0.36,0.45-0.83,0.45-1.41v-0.2H43.55 M45.34,72.26v3.12h-0.9v-0.83
		c-0.21,0.33-0.46,0.58-0.77,0.74c-0.31,0.16-0.68,0.23-1.12,0.23c-0.56,0-1.01-0.16-1.34-0.47c-0.33-0.32-0.49-0.74-0.49-1.26
		c0-0.62,0.21-1.08,0.62-1.39c0.42-0.31,1.03-0.47,1.85-0.47h1.26v-0.09c0-0.42-0.14-0.73-0.41-0.96c-0.27-0.23-0.65-0.34-1.14-0.34
		c-0.31,0-0.62,0.04-0.91,0.11c-0.3,0.07-0.58,0.19-0.85,0.34v-0.83c0.33-0.13,0.65-0.22,0.96-0.28s0.61-0.1,0.9-0.1
		c0.79,0,1.38,0.21,1.77,0.62C45.14,70.81,45.34,71.43,45.34,72.26L45.34,72.26z"/>
	<path class="st2" d="M48.19,68.36v1.55h1.85v0.7h-1.85v2.97c0,0.44,0.06,0.73,0.18,0.86c0.12,0.13,0.37,0.19,0.75,0.19h0.92v0.75
		h-0.92c-0.69,0-1.17-0.13-1.44-0.39s-0.4-0.73-0.4-1.42v-2.97h-0.66v-0.7h0.66v-1.55H48.19L48.19,68.36z"/>
	<path class="st2" d="M51.14,69.91h0.9v5.47h-0.9V69.91 M51.14,67.78h0.9v1.14h-0.9V67.78L51.14,67.78z"/>
	<path class="st2" d="M57.72,70.12v0.84c-0.25-0.14-0.51-0.24-0.77-0.31c-0.25-0.07-0.51-0.11-0.77-0.11
		c-0.58,0-1.04,0.19-1.36,0.56c-0.32,0.37-0.48,0.88-0.48,1.55s0.16,1.19,0.48,1.56c0.32,0.37,0.78,0.55,1.36,0.55
		c0.26,0,0.52-0.03,0.77-0.1c0.26-0.07,0.51-0.18,0.77-0.32v0.83c-0.25,0.12-0.51,0.21-0.78,0.26c-0.27,0.06-0.55,0.09-0.85,0.09
		c-0.83,0-1.48-0.26-1.96-0.78s-0.73-1.22-0.73-2.09c0-0.89,0.24-1.59,0.73-2.1c0.49-0.51,1.16-0.77,2.02-0.77
		c0.28,0,0.55,0.03,0.81,0.09C57.21,69.92,57.47,70.01,57.72,70.12L57.72,70.12z"/>
	<path class="st2" d="M66.6,70.12v0.84c-0.25-0.14-0.51-0.24-0.77-0.31c-0.25-0.07-0.51-0.11-0.77-0.11c-0.58,0-1.04,0.19-1.36,0.56
		c-0.32,0.37-0.48,0.88-0.48,1.55s0.16,1.19,0.48,1.56c0.32,0.37,0.78,0.55,1.36,0.55c0.26,0,0.52-0.03,0.77-0.1
		c0.26-0.07,0.51-0.18,0.77-0.32v0.83c-0.25,0.12-0.51,0.21-0.78,0.26c-0.27,0.06-0.55,0.09-0.85,0.09c-0.83,0-1.48-0.26-1.96-0.78
		s-0.73-1.22-0.73-2.09c0-0.89,0.24-1.59,0.73-2.1c0.49-0.51,1.16-0.77,2.02-0.77c0.28,0,0.55,0.03,0.81,0.09
		C66.1,69.92,66.35,70.01,66.6,70.12L66.6,70.12z"/>
	<path class="st2" d="M70.67,72.63c-0.73,0-1.23,0.08-1.51,0.25s-0.42,0.45-0.42,0.85c0,0.32,0.1,0.57,0.31,0.76
		c0.21,0.19,0.5,0.28,0.86,0.28c0.5,0,0.9-0.18,1.2-0.53c0.3-0.36,0.45-0.83,0.45-1.41v-0.2H70.67 M72.46,72.26v3.12h-0.9v-0.83
		c-0.21,0.33-0.46,0.58-0.77,0.74c-0.31,0.16-0.68,0.23-1.12,0.23c-0.56,0-1.01-0.16-1.34-0.47c-0.33-0.32-0.49-0.74-0.49-1.26
		c0-0.62,0.21-1.08,0.62-1.39c0.42-0.31,1.03-0.47,1.85-0.47h1.26v-0.09c0-0.42-0.14-0.73-0.41-0.96c-0.27-0.23-0.65-0.34-1.14-0.34
		c-0.31,0-0.62,0.04-0.91,0.11s-0.58,0.19-0.85,0.34v-0.83c0.33-0.13,0.65-0.22,0.96-0.28s0.61-0.1,0.9-0.1
		c0.79,0,1.38,0.21,1.77,0.62S72.46,71.43,72.46,72.26L72.46,72.26z"/>
	<path class="st2" d="M77.35,70.75c-0.1-0.06-0.21-0.1-0.33-0.13c-0.12-0.03-0.25-0.04-0.39-0.04c-0.51,0-0.9,0.17-1.17,0.5
		c-0.27,0.33-0.41,0.8-0.41,1.42v2.88h-0.9v-5.47h0.9v0.85c0.19-0.33,0.43-0.58,0.74-0.74s0.67-0.24,1.1-0.24
		c0.06,0,0.13,0,0.21,0.01c0.07,0,0.16,0.02,0.25,0.03L77.35,70.75L77.35,70.75z"/>
	<path class="st2" d="M82.19,72.65c0-0.66-0.14-1.18-0.41-1.55c-0.27-0.38-0.64-0.57-1.12-0.57s-0.85,0.19-1.12,0.57
		c-0.27,0.38-0.41,0.89-0.41,1.55s0.14,1.18,0.41,1.56c0.27,0.38,0.65,0.56,1.12,0.56s0.85-0.19,1.12-0.56
		C82.05,73.83,82.19,73.31,82.19,72.65 M79.13,70.74c0.19-0.33,0.42-0.57,0.71-0.72c0.29-0.16,0.63-0.24,1.04-0.24
		c0.66,0,1.2,0.26,1.62,0.79s0.62,1.22,0.62,2.08s-0.21,1.55-0.62,2.08s-0.95,0.79-1.62,0.79c-0.4,0-0.75-0.08-1.04-0.23
		c-0.29-0.16-0.52-0.4-0.71-0.73v0.82h-0.9v-7.6h0.9V70.74L79.13,70.74z"/>
	<path class="st2" d="M86.86,70.54c-0.48,0-0.86,0.19-1.14,0.57S85.3,72,85.3,72.65s0.14,1.17,0.42,1.55s0.66,0.56,1.15,0.56
		c0.48,0,0.86-0.19,1.14-0.57s0.42-0.89,0.42-1.54s-0.14-1.16-0.42-1.54C87.72,70.73,87.34,70.54,86.86,70.54 M86.86,69.78
		c0.78,0,1.4,0.25,1.84,0.76c0.44,0.51,0.67,1.21,0.67,2.11c0,0.89-0.22,1.6-0.67,2.11c-0.44,0.51-1.06,0.76-1.84,0.76
		c-0.79,0-1.4-0.25-1.85-0.76c-0.44-0.51-0.66-1.22-0.66-2.11c0-0.9,0.22-1.6,0.66-2.11C85.46,70.03,86.08,69.78,86.86,69.78
		L86.86,69.78z"/>
	<polygon class="st2" points="95.05,69.91 93.07,72.57 95.15,75.38 94.09,75.38 92.5,73.23 90.91,75.38 89.85,75.38 91.97,72.52 
		90.03,69.91 91.09,69.91 92.54,71.86 93.99,69.91 95.05,69.91 	"/>
	<path class="st2" d="M98.78,75.89c-0.25,0.65-0.5,1.07-0.74,1.27c-0.24,0.2-0.56,0.3-0.97,0.3h-0.72v-0.75h0.53
		c0.25,0,0.44-0.06,0.58-0.18c0.14-0.12,0.29-0.4,0.45-0.83l0.16-0.41l-2.21-5.38h0.95l1.71,4.28l1.71-4.28h0.95L98.78,75.89
		L98.78,75.89z"/>
	<polygon class="st2" points="102.26,67.78 103.16,67.78 103.16,75.38 102.26,75.38 102.26,67.78 	"/>
	<path class="st2" d="M105.14,69.91h0.9v5.47h-0.9V69.91 M105.14,67.78h0.9v1.14h-0.9V67.78L105.14,67.78z"/>
	<path class="st2" d="M111.96,70.12v0.84c-0.25-0.14-0.51-0.24-0.77-0.31c-0.25-0.07-0.51-0.11-0.77-0.11
		c-0.58,0-1.04,0.19-1.36,0.56c-0.32,0.37-0.48,0.88-0.48,1.55s0.16,1.19,0.48,1.56c0.32,0.37,0.78,0.55,1.36,0.55
		c0.26,0,0.52-0.03,0.77-0.1c0.26-0.07,0.51-0.18,0.77-0.32v0.83c-0.25,0.12-0.51,0.21-0.78,0.26c-0.27,0.06-0.55,0.09-0.85,0.09
		c-0.83,0-1.48-0.26-1.96-0.78s-0.73-1.22-0.73-2.09c0-0.89,0.24-1.59,0.73-2.1c0.49-0.51,1.16-0.77,2.02-0.77
		c0.28,0,0.55,0.03,0.81,0.09C111.46,69.92,111.71,70.01,111.96,70.12L111.96,70.12z"/>
	<path class="st2" d="M119.15,72.63c-0.73,0-1.23,0.08-1.51,0.25s-0.42,0.45-0.42,0.85c0,0.32,0.1,0.57,0.31,0.76
		c0.21,0.19,0.5,0.28,0.86,0.28c0.5,0,0.9-0.18,1.2-0.53c0.3-0.36,0.45-0.83,0.45-1.41v-0.2H119.15 M120.94,72.26v3.12h-0.9v-0.83
		c-0.21,0.33-0.46,0.58-0.77,0.74c-0.31,0.16-0.68,0.23-1.12,0.23c-0.56,0-1.01-0.16-1.34-0.47c-0.33-0.32-0.49-0.74-0.49-1.26
		c0-0.62,0.21-1.08,0.62-1.39c0.42-0.31,1.03-0.47,1.85-0.47h1.26v-0.09c0-0.42-0.14-0.73-0.41-0.96c-0.27-0.23-0.65-0.34-1.14-0.34
		c-0.31,0-0.62,0.04-0.91,0.11c-0.3,0.07-0.58,0.19-0.85,0.34v-0.83c0.33-0.13,0.65-0.22,0.96-0.28s0.61-0.1,0.9-0.1
		c0.79,0,1.38,0.21,1.77,0.62C120.74,70.81,120.94,71.43,120.94,72.26L120.94,72.26z"/>
	<path class="st2" d="M126.6,70.12v0.84c-0.25-0.14-0.51-0.24-0.77-0.31c-0.25-0.07-0.51-0.11-0.77-0.11
		c-0.58,0-1.04,0.19-1.36,0.56c-0.32,0.37-0.48,0.88-0.48,1.55s0.16,1.19,0.48,1.56c0.32,0.37,0.78,0.55,1.36,0.55
		c0.26,0,0.52-0.03,0.77-0.1c0.26-0.07,0.51-0.18,0.77-0.32v0.83c-0.25,0.12-0.51,0.21-0.78,0.26c-0.27,0.06-0.55,0.09-0.85,0.09
		c-0.83,0-1.48-0.26-1.96-0.78s-0.73-1.22-0.73-2.09c0-0.89,0.24-1.59,0.73-2.1c0.49-0.51,1.16-0.77,2.02-0.77
		c0.28,0,0.55,0.03,0.81,0.09C126.1,69.92,126.35,70.01,126.6,70.12L126.6,70.12z"/>
	<path class="st2" d="M128.18,69.91h0.9v5.47h-0.9V69.91 M128.18,67.78h0.9v1.14h-0.9V67.78L128.18,67.78z"/>
	<path class="st2" d="M134.66,70.74v-2.96h0.9v7.6h-0.9v-0.82c-0.19,0.33-0.43,0.57-0.72,0.73c-0.29,0.16-0.63,0.23-1.04,0.23
		c-0.66,0-1.2-0.26-1.62-0.79s-0.62-1.22-0.62-2.08s0.21-1.55,0.62-2.08s0.96-0.79,1.62-0.79c0.41,0,0.75,0.08,1.04,0.24
		C134.23,70.18,134.47,70.41,134.66,70.74 M131.6,72.65c0,0.66,0.14,1.18,0.41,1.56c0.27,0.38,0.65,0.56,1.12,0.56
		s0.85-0.19,1.12-0.56s0.41-0.9,0.41-1.56s-0.14-1.18-0.41-1.55s-0.65-0.57-1.12-0.57s-0.85,0.19-1.12,0.57
		C131.74,71.47,131.6,71.99,131.6,72.65L131.6,72.65z"/>
	<path class="st2" d="M118.06,80.23l-2.49,3.89h2.49V80.23 M117.8,79.37h1.24v4.75h1.04v0.82h-1.04v1.72h-0.98v-1.72h-3.29v-0.95
		L117.8,79.37L117.8,79.37z"/>
	<polygon class="st2" points="121.59,85.42 122.62,85.42 122.62,86.66 121.59,86.66 121.59,85.42 	"/>
	<path class="st2" d="M127.06,80.02c-0.51,0-0.89,0.25-1.15,0.75c-0.25,0.5-0.38,1.25-0.38,2.25s0.13,1.75,0.38,2.25
		c0.26,0.5,0.64,0.75,1.15,0.75c0.51,0,0.89-0.25,1.15-0.75c0.26-0.5,0.39-1.25,0.39-2.25s-0.13-1.75-0.39-2.25
		C127.95,80.27,127.57,80.02,127.06,80.02 M127.06,79.24c0.82,0,1.44,0.32,1.87,0.97c0.43,0.64,0.65,1.58,0.65,2.81
		c0,1.23-0.21,2.16-0.65,2.81c-0.43,0.64-1.05,0.97-1.87,0.97c-0.82,0-1.44-0.32-1.88-0.97c-0.43-0.65-0.64-1.59-0.64-2.81
		c0-1.23,0.21-2.17,0.64-2.81C125.62,79.56,126.24,79.24,127.06,79.24L127.06,79.24z"/>
	<path class="st2" d="M137.39,83.45c-0.28,0-0.51,0.12-0.67,0.36s-0.24,0.58-0.24,1.01c0,0.42,0.08,0.76,0.24,1
		c0.16,0.24,0.39,0.36,0.67,0.36c0.28,0,0.49-0.12,0.65-0.36c0.16-0.24,0.24-0.58,0.24-1s-0.08-0.76-0.24-1
		C137.88,83.57,137.67,83.45,137.39,83.45 M137.39,82.83c0.51,0,0.92,0.18,1.23,0.54s0.45,0.84,0.45,1.45s-0.15,1.09-0.46,1.45
		c-0.3,0.36-0.71,0.53-1.22,0.53c-0.52,0-0.93-0.18-1.24-0.53s-0.45-0.84-0.45-1.45s0.15-1.09,0.45-1.45
		C136.46,83.01,136.87,82.83,137.39,82.83 M132.35,79.86c-0.28,0-0.5,0.12-0.66,0.37c-0.16,0.24-0.24,0.57-0.24,1
		c0,0.43,0.08,0.77,0.24,1.01s0.38,0.36,0.66,0.36s0.5-0.12,0.66-0.36s0.24-0.58,0.24-1.01c0-0.42-0.08-0.75-0.24-1
		S132.63,79.86,132.35,79.86 M136.76,79.24h0.78l-4.56,7.56h-0.78L136.76,79.24 M132.35,79.24c0.51,0,0.92,0.18,1.23,0.54
		s0.46,0.83,0.46,1.45c0,0.62-0.15,1.1-0.46,1.46c-0.3,0.36-0.71,0.53-1.23,0.53s-0.93-0.18-1.23-0.53
		c-0.3-0.36-0.45-0.84-0.45-1.46c0-0.61,0.15-1.09,0.45-1.45S131.84,79.24,132.35,79.24L132.35,79.24z"/>
	<line class="st1" x1="143.65" y1="212.75" x2="163.78" y2="213.27"/>
	<path class="st2" d="M38.6,204.4c0.22-0.41,0.49-0.7,0.81-0.89c0.31-0.19,0.68-0.29,1.1-0.29c0.57,0,1.01,0.2,1.32,0.6
		c0.31,0.4,0.46,0.96,0.46,1.7v3.3h-0.9v-3.27c0-0.52-0.09-0.91-0.28-1.17c-0.19-0.25-0.47-0.38-0.85-0.38
		c-0.46,0-0.83,0.16-1.1,0.46c-0.27,0.31-0.41,0.73-0.41,1.26v3.09h-0.9v-3.27c0-0.53-0.09-0.92-0.28-1.17
		c-0.19-0.25-0.47-0.38-0.86-0.38c-0.46,0-0.83,0.16-1.09,0.47c-0.27,0.31-0.41,0.73-0.41,1.26v3.09h-0.9v-5.47h0.9v0.85
		c0.21-0.34,0.45-0.58,0.74-0.74c0.29-0.16,0.62-0.24,1.02-0.24s0.73,0.1,1.01,0.3S38.47,204.02,38.6,204.4L38.6,204.4z"/>
	<path class="st2" d="M46.06,203.98c-0.48,0-0.86,0.19-1.14,0.57s-0.42,0.89-0.42,1.54s0.14,1.17,0.42,1.55s0.66,0.56,1.15,0.56
		c0.48,0,0.86-0.19,1.14-0.57s0.42-0.89,0.42-1.54s-0.14-1.16-0.42-1.54C46.92,204.17,46.54,203.98,46.06,203.98 M46.06,203.22
		c0.78,0,1.4,0.25,1.84,0.76c0.44,0.51,0.67,1.21,0.67,2.11c0,0.89-0.22,1.6-0.67,2.11c-0.44,0.51-1.06,0.76-1.84,0.76
		c-0.79,0-1.4-0.25-1.85-0.76c-0.44-0.51-0.66-1.22-0.66-2.11c0-0.9,0.22-1.6,0.66-2.11C44.66,203.47,45.28,203.22,46.06,203.22
		L46.06,203.22z"/>
	<path class="st2" d="M54.73,205.52v3.3h-0.9v-3.27c0-0.52-0.1-0.9-0.3-1.16s-0.5-0.39-0.91-0.39c-0.48,0-0.87,0.16-1.15,0.46
		s-0.42,0.73-0.42,1.26v3.09h-0.9v-5.47h0.9v0.85c0.21-0.33,0.47-0.58,0.76-0.74c0.29-0.16,0.63-0.24,1.01-0.24
		c0.63,0,1.1,0.2,1.43,0.59C54.57,204.19,54.73,204.76,54.73,205.52L54.73,205.52z"/>
	<path class="st2" d="M58.54,203.98c-0.48,0-0.86,0.19-1.14,0.57s-0.42,0.89-0.42,1.54s0.14,1.17,0.42,1.55s0.66,0.56,1.15,0.56
		c0.48,0,0.86-0.19,1.14-0.57s0.42-0.89,0.42-1.54s-0.14-1.16-0.42-1.54C59.4,204.17,59.02,203.98,58.54,203.98 M58.54,203.22
		c0.78,0,1.4,0.25,1.84,0.76c0.44,0.51,0.67,1.21,0.67,2.11c0,0.89-0.22,1.6-0.67,2.11c-0.44,0.51-1.06,0.76-1.84,0.76
		c-0.79,0-1.4-0.25-1.85-0.76c-0.44-0.51-0.66-1.22-0.66-2.11c0-0.9,0.22-1.6,0.66-2.11C57.14,203.47,57.76,203.22,58.54,203.22
		L58.54,203.22z"/>
	<path class="st2" d="M66.6,203.56v0.84c-0.25-0.14-0.51-0.24-0.77-0.31c-0.25-0.07-0.51-0.11-0.77-0.11
		c-0.58,0-1.04,0.19-1.36,0.56c-0.32,0.37-0.48,0.88-0.48,1.55s0.16,1.19,0.48,1.56c0.32,0.37,0.78,0.55,1.36,0.55
		c0.26,0,0.52-0.03,0.77-0.1c0.26-0.07,0.51-0.18,0.77-0.32v0.83c-0.25,0.12-0.51,0.21-0.78,0.26c-0.27,0.06-0.55,0.09-0.85,0.09
		c-0.83,0-1.48-0.26-1.96-0.78s-0.73-1.22-0.73-2.09c0-0.89,0.24-1.59,0.73-2.1c0.49-0.51,1.16-0.77,2.02-0.77
		c0.28,0,0.55,0.03,0.81,0.09C66.1,203.36,66.35,203.45,66.6,203.56L66.6,203.56z"/>
	<path class="st2" d="M70.67,206.07c-0.73,0-1.23,0.08-1.51,0.25s-0.42,0.45-0.42,0.85c0,0.32,0.1,0.57,0.31,0.76
		c0.21,0.19,0.5,0.28,0.86,0.28c0.5,0,0.9-0.18,1.2-0.53c0.3-0.36,0.45-0.83,0.45-1.41v-0.2H70.67 M72.46,205.7v3.12h-0.9v-0.83
		c-0.21,0.33-0.46,0.58-0.77,0.74c-0.31,0.16-0.68,0.23-1.12,0.23c-0.56,0-1.01-0.16-1.34-0.47c-0.33-0.32-0.49-0.74-0.49-1.26
		c0-0.62,0.21-1.08,0.62-1.39c0.42-0.31,1.03-0.47,1.85-0.47h1.26v-0.09c0-0.42-0.14-0.73-0.41-0.96c-0.27-0.23-0.65-0.34-1.14-0.34
		c-0.31,0-0.62,0.04-0.91,0.11s-0.58,0.19-0.85,0.34v-0.83c0.33-0.13,0.65-0.22,0.96-0.28s0.61-0.1,0.9-0.1
		c0.79,0,1.38,0.21,1.77,0.62S72.46,204.87,72.46,205.7L72.46,205.7z"/>
	<path class="st2" d="M77.35,204.19c-0.1-0.06-0.21-0.1-0.33-0.13c-0.12-0.03-0.25-0.04-0.39-0.04c-0.51,0-0.9,0.17-1.17,0.5
		c-0.27,0.33-0.41,0.8-0.41,1.42v2.88h-0.9v-5.47h0.9v0.85c0.19-0.33,0.43-0.58,0.74-0.74s0.67-0.24,1.1-0.24
		c0.06,0,0.13,0,0.21,0.01c0.07,0,0.16,0.02,0.25,0.03L77.35,204.19L77.35,204.19z"/>
	<path class="st2" d="M82.19,206.09c0-0.66-0.14-1.18-0.41-1.55c-0.27-0.38-0.64-0.57-1.12-0.57s-0.85,0.19-1.12,0.57
		c-0.27,0.38-0.41,0.89-0.41,1.55s0.14,1.18,0.41,1.56c0.27,0.38,0.65,0.56,1.12,0.56s0.85-0.19,1.12-0.56
		C82.05,207.27,82.19,206.75,82.19,206.09 M79.13,204.18c0.19-0.33,0.42-0.57,0.71-0.72c0.29-0.16,0.63-0.24,1.04-0.24
		c0.66,0,1.2,0.26,1.62,0.79s0.62,1.22,0.62,2.08s-0.21,1.55-0.62,2.08s-0.95,0.79-1.62,0.79c-0.4,0-0.75-0.08-1.04-0.23
		c-0.29-0.16-0.52-0.4-0.71-0.73v0.82h-0.9v-7.6h0.9V204.18L79.13,204.18z"/>
	<path class="st2" d="M86.86,203.98c-0.48,0-0.86,0.19-1.14,0.57s-0.42,0.89-0.42,1.54s0.14,1.17,0.42,1.55s0.66,0.56,1.15,0.56
		c0.48,0,0.86-0.19,1.14-0.57s0.42-0.89,0.42-1.54s-0.14-1.16-0.42-1.54C87.72,204.17,87.34,203.98,86.86,203.98 M86.86,203.22
		c0.78,0,1.4,0.25,1.84,0.76c0.44,0.51,0.67,1.21,0.67,2.11c0,0.89-0.22,1.6-0.67,2.11c-0.44,0.51-1.06,0.76-1.84,0.76
		c-0.79,0-1.4-0.25-1.85-0.76c-0.44-0.51-0.66-1.22-0.66-2.11c0-0.9,0.22-1.6,0.66-2.11C85.46,203.47,86.08,203.22,86.86,203.22
		L86.86,203.22z"/>
	<polygon class="st2" points="95.05,203.35 93.07,206.01 95.15,208.82 94.09,208.82 92.5,206.67 90.91,208.82 89.85,208.82 
		91.97,205.96 90.03,203.35 91.09,203.35 92.54,205.3 93.99,203.35 95.05,203.35 	"/>
	<path class="st2" d="M98.78,209.33c-0.25,0.65-0.5,1.07-0.74,1.27c-0.24,0.2-0.56,0.3-0.97,0.3h-0.72v-0.75h0.53
		c0.25,0,0.44-0.06,0.58-0.18c0.14-0.12,0.29-0.4,0.45-0.83l0.16-0.41l-2.21-5.38h0.95l1.71,4.28l1.71-4.28h0.95L98.78,209.33
		L98.78,209.33z"/>
	<polygon class="st2" points="102.26,201.22 103.16,201.22 103.16,208.82 102.26,208.82 102.26,201.22 	"/>
	<path class="st2" d="M105.14,203.35h0.9v5.47h-0.9V203.35 M105.14,201.22h0.9v1.14h-0.9V201.22L105.14,201.22z"/>
	<path class="st2" d="M111.96,203.56v0.84c-0.25-0.14-0.51-0.24-0.77-0.31c-0.25-0.07-0.51-0.11-0.77-0.11
		c-0.58,0-1.04,0.19-1.36,0.56c-0.32,0.37-0.48,0.88-0.48,1.55s0.16,1.19,0.48,1.56c0.32,0.37,0.78,0.55,1.36,0.55
		c0.26,0,0.52-0.03,0.77-0.1c0.26-0.07,0.51-0.18,0.77-0.32v0.83c-0.25,0.12-0.51,0.21-0.78,0.26c-0.27,0.06-0.55,0.09-0.85,0.09
		c-0.83,0-1.48-0.26-1.96-0.78s-0.73-1.22-0.73-2.09c0-0.89,0.24-1.59,0.73-2.1c0.49-0.51,1.16-0.77,2.02-0.77
		c0.28,0,0.55,0.03,0.81,0.09C111.46,203.36,111.71,203.45,111.96,203.56L111.96,203.56z"/>
	<path class="st2" d="M119.15,206.07c-0.73,0-1.23,0.08-1.51,0.25s-0.42,0.45-0.42,0.85c0,0.32,0.1,0.57,0.31,0.76
		c0.21,0.19,0.5,0.28,0.86,0.28c0.5,0,0.9-0.18,1.2-0.53c0.3-0.36,0.45-0.83,0.45-1.41v-0.2H119.15 M120.94,205.7v3.12h-0.9v-0.83
		c-0.21,0.33-0.46,0.58-0.77,0.74c-0.31,0.16-0.68,0.23-1.12,0.23c-0.56,0-1.01-0.16-1.34-0.47c-0.33-0.32-0.49-0.74-0.49-1.26
		c0-0.62,0.21-1.08,0.62-1.39c0.42-0.31,1.03-0.47,1.85-0.47h1.26v-0.09c0-0.42-0.14-0.73-0.41-0.96c-0.27-0.23-0.65-0.34-1.14-0.34
		c-0.31,0-0.62,0.04-0.91,0.11c-0.3,0.07-0.58,0.19-0.85,0.34v-0.83c0.33-0.13,0.65-0.22,0.96-0.28s0.61-0.1,0.9-0.1
		c0.79,0,1.38,0.21,1.77,0.62C120.74,204.25,120.94,204.87,120.94,205.7L120.94,205.7z"/>
	<path class="st2" d="M126.6,203.56v0.84c-0.25-0.14-0.51-0.24-0.77-0.31c-0.25-0.07-0.51-0.11-0.77-0.11
		c-0.58,0-1.04,0.19-1.36,0.56c-0.32,0.37-0.48,0.88-0.48,1.55s0.16,1.19,0.48,1.56c0.32,0.37,0.78,0.55,1.36,0.55
		c0.26,0,0.52-0.03,0.77-0.1c0.26-0.07,0.51-0.18,0.77-0.32v0.83c-0.25,0.12-0.51,0.21-0.78,0.26c-0.27,0.06-0.55,0.09-0.85,0.09
		c-0.83,0-1.48-0.26-1.96-0.78s-0.73-1.22-0.73-2.09c0-0.89,0.24-1.59,0.73-2.1c0.49-0.51,1.16-0.77,2.02-0.77
		c0.28,0,0.55,0.03,0.81,0.09C126.1,203.36,126.35,203.45,126.6,203.56L126.6,203.56z"/>
	<path class="st2" d="M128.18,203.35h0.9v5.47h-0.9V203.35 M128.18,201.22h0.9v1.14h-0.9V201.22L128.18,201.22z"/>
	<path class="st2" d="M134.66,204.18v-2.96h0.9v7.6h-0.9V208c-0.19,0.33-0.43,0.57-0.72,0.73c-0.29,0.16-0.63,0.23-1.04,0.23
		c-0.66,0-1.2-0.26-1.62-0.79s-0.62-1.22-0.62-2.08s0.21-1.55,0.62-2.08s0.96-0.79,1.62-0.79c0.41,0,0.75,0.08,1.04,0.24
		C134.23,203.62,134.47,203.85,134.66,204.18 M131.6,206.09c0,0.66,0.14,1.18,0.41,1.56c0.27,0.38,0.65,0.56,1.12,0.56
		s0.85-0.19,1.12-0.56s0.41-0.9,0.41-1.56s-0.14-1.18-0.41-1.55s-0.65-0.57-1.12-0.57s-0.85,0.19-1.12,0.57
		C131.74,204.91,131.6,205.43,131.6,206.09L131.6,206.09z"/>
	<path class="st2" d="M109.72,219.27h3.44v0.83h-4.63v-0.83c0.38-0.39,0.88-0.91,1.53-1.56c0.65-0.65,1.05-1.07,1.22-1.26
		c0.32-0.36,0.54-0.65,0.66-0.9c0.13-0.25,0.19-0.49,0.19-0.73c0-0.39-0.14-0.7-0.41-0.95c-0.27-0.24-0.63-0.37-1.06-0.37
		c-0.31,0-0.63,0.05-0.98,0.16c-0.34,0.11-0.71,0.27-1.1,0.49v-1c0.4-0.16,0.77-0.28,1.11-0.36c0.35-0.08,0.66-0.12,0.95-0.12
		c0.76,0,1.36,0.19,1.81,0.57c0.45,0.38,0.67,0.88,0.67,1.51c0,0.3-0.06,0.59-0.17,0.85c-0.11,0.27-0.31,0.58-0.61,0.95
		c-0.08,0.09-0.34,0.37-0.78,0.82C111.13,217.83,110.51,218.46,109.72,219.27L109.72,219.27z"/>
	<path class="st2" d="M117.46,213.46c-0.51,0-0.89,0.25-1.15,0.75c-0.25,0.5-0.38,1.25-0.38,2.25s0.13,1.75,0.38,2.25
		c0.26,0.5,0.64,0.75,1.15,0.75c0.51,0,0.89-0.25,1.15-0.75c0.26-0.5,0.39-1.25,0.39-2.25s-0.13-1.75-0.39-2.25
		C118.35,213.71,117.97,213.46,117.46,213.46 M117.46,212.68c0.82,0,1.44,0.32,1.87,0.97c0.43,0.64,0.65,1.58,0.65,2.81
		c0,1.23-0.21,2.16-0.65,2.81c-0.43,0.64-1.05,0.97-1.87,0.97c-0.82,0-1.44-0.32-1.88-0.97c-0.43-0.65-0.64-1.59-0.64-2.81
		c0-1.23,0.21-2.17,0.64-2.81C116.02,213,116.64,212.68,117.46,212.68L117.46,212.68z"/>
	<polygon class="st2" points="121.59,218.86 122.62,218.86 122.62,220.1 121.59,220.1 121.59,218.86 	"/>
	<path class="st2" d="M125.8,219.27h3.44v0.83h-4.63v-0.83c0.38-0.39,0.88-0.91,1.53-1.56c0.65-0.65,1.05-1.07,1.22-1.26
		c0.32-0.36,0.54-0.65,0.66-0.9c0.13-0.25,0.19-0.49,0.19-0.73c0-0.39-0.14-0.7-0.41-0.95c-0.27-0.24-0.63-0.37-1.06-0.37
		c-0.31,0-0.63,0.05-0.98,0.16c-0.34,0.11-0.71,0.27-1.1,0.49v-1c0.4-0.16,0.77-0.28,1.11-0.36c0.35-0.08,0.66-0.12,0.95-0.12
		c0.76,0,1.36,0.19,1.81,0.57c0.45,0.38,0.67,0.88,0.67,1.51c0,0.3-0.06,0.59-0.17,0.85c-0.11,0.27-0.31,0.58-0.61,0.95
		c-0.08,0.09-0.34,0.37-0.78,0.82C127.21,217.83,126.59,218.46,125.8,219.27L125.8,219.27z"/>
	<path class="st2" d="M137.39,216.89c-0.28,0-0.51,0.12-0.67,0.36s-0.24,0.58-0.24,1.01c0,0.42,0.08,0.76,0.24,1
		c0.16,0.24,0.39,0.36,0.67,0.36c0.28,0,0.49-0.12,0.65-0.36c0.16-0.24,0.24-0.58,0.24-1s-0.08-0.76-0.24-1
		C137.88,217.01,137.67,216.89,137.39,216.89 M137.39,216.27c0.51,0,0.92,0.18,1.23,0.54s0.45,0.84,0.45,1.45s-0.15,1.09-0.46,1.45
		c-0.3,0.36-0.71,0.53-1.22,0.53c-0.52,0-0.93-0.18-1.24-0.53s-0.45-0.84-0.45-1.45s0.15-1.09,0.45-1.45
		C136.46,216.45,136.87,216.27,137.39,216.27 M132.35,213.3c-0.28,0-0.5,0.12-0.66,0.37c-0.16,0.24-0.24,0.57-0.24,1
		c0,0.43,0.08,0.77,0.24,1.01s0.38,0.36,0.66,0.36s0.5-0.12,0.66-0.36s0.24-0.58,0.24-1.01c0-0.42-0.08-0.75-0.24-1
		S132.63,213.3,132.35,213.3 M136.76,212.68h0.78l-4.56,7.56h-0.78L136.76,212.68 M132.35,212.68c0.51,0,0.92,0.18,1.23,0.54
		s0.46,0.83,0.46,1.45c0,0.62-0.15,1.1-0.46,1.46c-0.3,0.36-0.71,0.53-1.23,0.53s-0.93-0.18-1.23-0.53
		c-0.3-0.36-0.45-0.84-0.45-1.46c0-0.61,0.15-1.09,0.45-1.45S131.84,212.68,132.35,212.68L132.35,212.68z"/>
	<polyline class="st1" points="143.64,380.02 188.51,380.02 223.3,327.23 	"/>
	<path class="st2" d="M112.78,372.46c-0.48,0-0.86,0.19-1.14,0.57s-0.42,0.89-0.42,1.54s0.14,1.17,0.42,1.55s0.66,0.56,1.15,0.56
		c0.48,0,0.86-0.19,1.14-0.57s0.42-0.89,0.42-1.54s-0.14-1.16-0.42-1.54C113.64,372.65,113.26,372.46,112.78,372.46 M112.78,371.7
		c0.78,0,1.4,0.25,1.84,0.76c0.44,0.51,0.67,1.21,0.67,2.11c0,0.89-0.22,1.6-0.67,2.11c-0.44,0.51-1.06,0.76-1.84,0.76
		c-0.79,0-1.4-0.25-1.85-0.76c-0.44-0.51-0.66-1.22-0.66-2.11c0-0.9,0.22-1.6,0.66-2.11C111.38,371.95,112,371.7,112.78,371.7
		L112.78,371.7z"/>
	<path class="st2" d="M117.79,370.28v1.55h1.85v0.7h-1.85v2.97c0,0.44,0.06,0.73,0.18,0.86s0.37,0.19,0.75,0.19h0.92v0.75h-0.92
		c-0.69,0-1.17-0.13-1.44-0.39s-0.4-0.73-0.4-1.42v-2.97h-0.66v-0.7h0.66v-1.55H117.79L117.79,370.28z"/>
	<path class="st2" d="M125.29,374v3.3h-0.9v-3.27c0-0.52-0.1-0.9-0.3-1.16c-0.2-0.26-0.5-0.39-0.91-0.39
		c-0.48,0-0.87,0.16-1.15,0.46s-0.42,0.73-0.42,1.26v3.09h-0.9v-7.6h0.9v2.98c0.21-0.33,0.47-0.58,0.76-0.74
		c0.29-0.16,0.63-0.24,1.01-0.24c0.63,0,1.1,0.2,1.43,0.59C125.13,372.67,125.29,373.24,125.29,374L125.29,374z"/>
	<path class="st2" d="M131.9,374.34v0.44h-4.13c0.04,0.62,0.22,1.09,0.56,1.42c0.34,0.32,0.8,0.48,1.4,0.48c0.35,0,0.68-0.04,1-0.13
		c0.33-0.08,0.65-0.21,0.97-0.38v0.85c-0.32,0.14-0.65,0.24-0.99,0.31s-0.68,0.11-1.03,0.11c-0.87,0-1.56-0.25-2.08-0.76
		c-0.51-0.51-0.76-1.2-0.76-2.06c0-0.89,0.24-1.61,0.72-2.13c0.48-0.53,1.14-0.79,1.96-0.79c0.74,0,1.32,0.24,1.74,0.71
		C131.69,372.89,131.9,373.53,131.9,374.34 M131,374.08c0-0.49-0.15-0.88-0.42-1.18c-0.27-0.29-0.62-0.44-1.06-0.44
		c-0.5,0-0.9,0.14-1.21,0.42c-0.3,0.28-0.47,0.68-0.52,1.2L131,374.08L131,374.08z"/>
	<path class="st2" d="M136.39,372.67c-0.1-0.06-0.21-0.1-0.33-0.13c-0.12-0.03-0.25-0.04-0.39-0.04c-0.51,0-0.9,0.17-1.17,0.5
		c-0.27,0.33-0.41,0.8-0.41,1.42v2.88h-0.9v-5.47h0.9v0.85c0.19-0.33,0.43-0.58,0.74-0.74c0.3-0.16,0.67-0.24,1.1-0.24
		c0.06,0,0.13,0,0.21,0.01c0.07,0,0.16,0.02,0.25,0.03L136.39,372.67L136.39,372.67z"/>
	<polygon class="st2" points="109.04,387.51 110.65,387.51 110.65,381.95 108.9,382.3 108.9,381.4 110.64,381.05 111.63,381.05 
		111.63,387.51 113.24,387.51 113.24,388.34 109.04,388.34 109.04,387.51 	"/>
	<path class="st2" d="M116.2,387.51h3.44v0.83h-4.63v-0.83c0.38-0.39,0.88-0.91,1.53-1.56c0.65-0.65,1.05-1.07,1.22-1.26
		c0.32-0.36,0.54-0.65,0.66-0.9c0.13-0.25,0.19-0.49,0.19-0.73c0-0.39-0.14-0.7-0.41-0.95c-0.27-0.24-0.62-0.37-1.06-0.37
		c-0.31,0-0.63,0.05-0.98,0.16c-0.34,0.11-0.71,0.27-1.1,0.49v-1c0.4-0.16,0.77-0.28,1.11-0.36c0.35-0.08,0.66-0.12,0.95-0.12
		c0.76,0,1.36,0.19,1.81,0.57c0.45,0.38,0.67,0.88,0.67,1.51c0,0.3-0.06,0.59-0.17,0.85c-0.11,0.27-0.31,0.58-0.61,0.95
		c-0.08,0.09-0.34,0.37-0.78,0.82C117.61,386.07,116.99,386.7,116.2,387.51L116.2,387.51z"/>
	<polygon class="st2" points="121.59,387.1 122.62,387.1 122.62,388.34 121.59,388.34 121.59,387.1 	"/>
	<polygon class="st2" points="125.12,387.51 126.73,387.51 126.73,381.95 124.98,382.3 124.98,381.4 126.72,381.05 127.71,381.05 
		127.71,387.51 129.32,387.51 129.32,388.34 125.12,388.34 125.12,387.51 	"/>
	<path class="st2" d="M137.39,385.13c-0.28,0-0.51,0.12-0.67,0.36s-0.24,0.58-0.24,1.01c0,0.42,0.08,0.76,0.24,1
		c0.16,0.24,0.39,0.36,0.67,0.36c0.28,0,0.49-0.12,0.65-0.36c0.16-0.24,0.24-0.58,0.24-1s-0.08-0.76-0.24-1
		C137.88,385.25,137.67,385.13,137.39,385.13 M137.39,384.51c0.51,0,0.92,0.18,1.23,0.54s0.45,0.84,0.45,1.45s-0.15,1.09-0.46,1.45
		c-0.3,0.36-0.71,0.53-1.22,0.53c-0.52,0-0.93-0.18-1.24-0.53s-0.45-0.84-0.45-1.45s0.15-1.09,0.45-1.45
		C136.46,384.69,136.87,384.51,137.39,384.51 M132.35,381.54c-0.28,0-0.5,0.12-0.66,0.37c-0.16,0.24-0.24,0.57-0.24,1
		c0,0.43,0.08,0.77,0.24,1.01s0.38,0.36,0.66,0.36s0.5-0.12,0.66-0.36s0.24-0.58,0.24-1.01c0-0.42-0.08-0.75-0.24-1
		S132.63,381.54,132.35,381.54 M136.76,380.92h0.78l-4.56,7.56h-0.78L136.76,380.92 M132.35,380.92c0.51,0,0.92,0.18,1.23,0.54
		s0.46,0.83,0.46,1.45c0,0.62-0.15,1.1-0.46,1.46c-0.3,0.36-0.71,0.53-1.23,0.53s-0.93-0.18-1.23-0.53
		c-0.3-0.36-0.45-0.84-0.45-1.46c0-0.61,0.15-1.09,0.45-1.45S131.84,380.92,132.35,380.92L132.35,380.92z"/>
	<polyline class="st1" points="448.75,412.07 306.11,412.07 302.91,348.92 	"/>
	<path class="st2" d="M454.49,408.4v2.9h-0.9v-7.55h0.9v0.83c0.19-0.33,0.42-0.57,0.71-0.72c0.29-0.16,0.63-0.24,1.04-0.24
		c0.66,0,1.2,0.26,1.62,0.79s0.62,1.22,0.62,2.08s-0.21,1.55-0.62,2.08s-0.95,0.79-1.62,0.79c-0.4,0-0.75-0.08-1.04-0.23
		C454.92,408.97,454.68,408.73,454.49,408.4 M457.55,406.49c0-0.66-0.14-1.18-0.41-1.55c-0.27-0.38-0.64-0.57-1.12-0.57
		s-0.85,0.19-1.12,0.57c-0.27,0.38-0.41,0.89-0.41,1.55s0.14,1.18,0.41,1.56c0.27,0.38,0.65,0.56,1.12,0.56s0.85-0.19,1.12-0.56
		C457.41,407.67,457.55,407.15,457.55,406.49L457.55,406.49z"/>
	<path class="st2" d="M464.65,405.92v3.3h-0.9v-3.27c0-0.52-0.1-0.9-0.3-1.16c-0.2-0.26-0.5-0.39-0.91-0.39
		c-0.48,0-0.87,0.16-1.15,0.46s-0.42,0.73-0.42,1.26v3.09h-0.9v-7.6h0.9v2.98c0.21-0.33,0.47-0.58,0.76-0.74
		c0.29-0.16,0.63-0.24,1.01-0.24c0.63,0,1.1,0.2,1.43,0.59C464.49,404.59,464.65,405.16,464.65,405.92L464.65,405.92z"/>
	<path class="st2" d="M471.02,406.26v0.44h-4.13c0.04,0.62,0.22,1.09,0.56,1.42c0.34,0.32,0.8,0.48,1.4,0.48
		c0.35,0,0.68-0.04,1-0.13c0.33-0.08,0.65-0.21,0.97-0.38v0.85c-0.32,0.14-0.65,0.24-0.99,0.31s-0.68,0.11-1.03,0.11
		c-0.87,0-1.56-0.25-2.08-0.76c-0.51-0.51-0.76-1.2-0.76-2.06c0-0.89,0.24-1.61,0.72-2.13c0.48-0.53,1.14-0.79,1.96-0.79
		c0.74,0,1.32,0.24,1.74,0.71C470.81,404.81,471.02,405.45,471.02,406.26 M470.12,406c0-0.49-0.15-0.88-0.42-1.18
		s-0.62-0.44-1.06-0.44c-0.5,0-0.9,0.14-1.21,0.42c-0.3,0.28-0.47,0.68-0.52,1.2L470.12,406L470.12,406z"/>
	<path class="st2" d="M477.13,405.92v3.3h-0.9v-3.27c0-0.52-0.1-0.9-0.3-1.16s-0.5-0.39-0.91-0.39c-0.48,0-0.87,0.16-1.15,0.46
		s-0.42,0.73-0.42,1.26v3.09h-0.9v-5.47h0.9v0.85c0.21-0.33,0.47-0.58,0.76-0.74c0.29-0.16,0.63-0.24,1.01-0.24
		c0.63,0,1.1,0.2,1.43,0.59C476.97,404.59,477.13,405.16,477.13,405.92L477.13,405.92z"/>
	<path class="st2" d="M480.94,404.38c-0.48,0-0.86,0.19-1.14,0.57s-0.42,0.89-0.42,1.54s0.14,1.17,0.42,1.55s0.66,0.56,1.15,0.56
		c0.48,0,0.86-0.19,1.14-0.57s0.42-0.89,0.42-1.54s-0.14-1.16-0.42-1.54C481.8,404.57,481.42,404.38,480.94,404.38 M480.94,403.62
		c0.78,0,1.4,0.25,1.84,0.76s0.67,1.21,0.67,2.11c0,0.89-0.22,1.6-0.67,2.11c-0.44,0.51-1.06,0.76-1.84,0.76
		c-0.79,0-1.4-0.25-1.85-0.76c-0.44-0.51-0.66-1.22-0.66-2.11c0-0.9,0.22-1.6,0.66-2.11S480.16,403.62,480.94,403.62L480.94,403.62z
		"/>
	<polygon class="st2" points="485.06,401.62 485.96,401.62 485.96,409.22 485.06,409.22 485.06,401.62 	"/>
	<path class="st2" d="M455.86,417.04c-0.47,0-0.84,0.13-1.11,0.38s-0.4,0.6-0.4,1.04s0.13,0.79,0.4,1.04s0.64,0.38,1.11,0.38
		s0.84-0.13,1.11-0.38c0.27-0.25,0.41-0.6,0.41-1.04c0-0.44-0.14-0.79-0.41-1.04S456.33,417.04,455.86,417.04 M454.87,416.62
		c-0.42-0.1-0.75-0.3-0.99-0.59c-0.23-0.29-0.35-0.64-0.35-1.06c0-0.58,0.21-1.04,0.62-1.38s0.99-0.51,1.71-0.51
		c0.73,0,1.29,0.17,1.71,0.51s0.62,0.8,0.62,1.38c0,0.42-0.12,0.77-0.36,1.06c-0.23,0.29-0.56,0.49-0.98,0.59
		c0.47,0.11,0.84,0.33,1.11,0.65c0.27,0.32,0.4,0.72,0.4,1.18c0,0.71-0.21,1.25-0.65,1.63c-0.43,0.38-1.04,0.57-1.85,0.57
		s-1.42-0.19-1.86-0.57c-0.43-0.38-0.64-0.92-0.64-1.63c0-0.46,0.13-0.86,0.4-1.18S454.4,416.73,454.87,416.62 M454.51,415.06
		c0,0.38,0.12,0.67,0.35,0.88c0.24,0.21,0.57,0.32,1,0.32s0.75-0.11,0.99-0.32s0.36-0.51,0.36-0.88s-0.12-0.67-0.36-0.88
		s-0.57-0.32-0.99-0.32s-0.76,0.11-1,0.32C454.63,414.39,454.51,414.69,454.51,415.06L454.51,415.06z"/>
	<polygon class="st2" points="460.23,419.26 461.26,419.26 461.26,420.5 460.23,420.5 460.23,419.26 	"/>
	<polygon class="st2" points="463.52,419.67 465.13,419.67 465.13,414.11 463.38,414.46 463.38,413.56 465.12,413.21 466.11,413.21 
		466.11,419.67 467.72,419.67 467.72,420.5 463.52,420.5 463.52,419.67 	"/>
	<path class="st2" d="M476.03,417.29c-0.28,0-0.51,0.12-0.67,0.36s-0.24,0.58-0.24,1.01c0,0.42,0.08,0.76,0.24,1
		c0.16,0.24,0.39,0.36,0.67,0.36c0.28,0,0.49-0.12,0.65-0.36c0.16-0.24,0.24-0.58,0.24-1s-0.08-0.76-0.24-1
		C476.52,417.41,476.31,417.29,476.03,417.29 M476.03,416.67c0.51,0,0.92,0.18,1.23,0.54s0.45,0.84,0.45,1.45s-0.15,1.09-0.46,1.45
		c-0.3,0.36-0.71,0.53-1.22,0.53c-0.52,0-0.93-0.18-1.24-0.53s-0.45-0.84-0.45-1.45s0.15-1.09,0.45-1.45
		C475.1,416.85,475.51,416.67,476.03,416.67 M470.99,413.7c-0.28,0-0.5,0.12-0.66,0.37c-0.16,0.24-0.24,0.57-0.24,1
		c0,0.43,0.08,0.77,0.24,1.01s0.38,0.36,0.66,0.36s0.5-0.12,0.66-0.36s0.24-0.58,0.24-1.01c0-0.42-0.08-0.75-0.24-1
		S471.27,413.7,470.99,413.7 M475.4,413.08h0.78l-4.56,7.56h-0.78L475.4,413.08 M470.99,413.08c0.51,0,0.92,0.18,1.23,0.54
		s0.46,0.83,0.46,1.45c0,0.62-0.15,1.1-0.46,1.46c-0.3,0.36-0.71,0.53-1.23,0.53s-0.93-0.18-1.23-0.53
		c-0.3-0.36-0.45-0.84-0.45-1.46c0-0.61,0.15-1.09,0.45-1.45S470.48,413.08,470.99,413.08L470.99,413.08z"/>
	<polyline class="st1" points="448.76,377.24 407.99,377.24 371.87,325.34 	"/>
	<path class="st2" d="M454.49,373.6v2.9h-0.9v-7.55h0.9v0.83c0.19-0.33,0.42-0.57,0.71-0.72c0.29-0.16,0.63-0.24,1.04-0.24
		c0.66,0,1.2,0.26,1.62,0.79s0.62,1.22,0.62,2.08c0,0.86-0.21,1.55-0.62,2.08s-0.95,0.79-1.62,0.79c-0.4,0-0.75-0.08-1.04-0.23
		C454.92,374.17,454.68,373.93,454.49,373.6 M457.55,371.69c0-0.66-0.14-1.18-0.41-1.55c-0.27-0.38-0.64-0.57-1.12-0.57
		s-0.85,0.19-1.12,0.57c-0.27,0.38-0.41,0.89-0.41,1.55s0.14,1.18,0.41,1.56c0.27,0.38,0.65,0.56,1.12,0.56s0.85-0.19,1.12-0.56
		C457.41,372.87,457.55,372.35,457.55,371.69L457.55,371.69z"/>
	<path class="st2" d="M462.22,369.58c-0.48,0-0.86,0.19-1.14,0.57c-0.28,0.38-0.42,0.89-0.42,1.54c0,0.65,0.14,1.17,0.42,1.55
		c0.28,0.38,0.66,0.56,1.15,0.56c0.48,0,0.86-0.19,1.14-0.57c0.28-0.38,0.42-0.89,0.42-1.54c0-0.65-0.14-1.16-0.42-1.54
		C463.08,369.77,462.7,369.58,462.22,369.58 M462.22,368.82c0.78,0,1.4,0.25,1.84,0.76c0.44,0.51,0.67,1.21,0.67,2.11
		c0,0.89-0.22,1.6-0.67,2.11c-0.44,0.51-1.06,0.76-1.84,0.76c-0.79,0-1.4-0.25-1.85-0.76c-0.44-0.51-0.66-1.22-0.66-2.11
		c0-0.9,0.22-1.6,0.66-2.11C460.82,369.07,461.44,368.82,462.22,368.82L462.22,368.82z"/>
	<polygon class="st2" points="466.1,366.82 467,366.82 467,374.42 466.1,374.42 466.1,366.82 	"/>
	<path class="st2" d="M471.26,374.93c-0.25,0.65-0.5,1.07-0.74,1.27c-0.24,0.2-0.56,0.3-0.97,0.3h-0.72v-0.75h0.53
		c0.25,0,0.44-0.06,0.58-0.18s0.29-0.4,0.45-0.83l0.16-0.41l-2.21-5.38h0.95l1.71,4.28l1.71-4.28h0.95L471.26,374.93L471.26,374.93z
		"/>
	<path class="st2" d="M478.68,369.16V370c-0.25-0.14-0.51-0.24-0.77-0.31c-0.25-0.07-0.51-0.11-0.77-0.11
		c-0.58,0-1.04,0.19-1.36,0.56c-0.32,0.37-0.48,0.88-0.48,1.55c0,0.67,0.16,1.19,0.48,1.56c0.32,0.37,0.78,0.55,1.36,0.55
		c0.26,0,0.52-0.03,0.77-0.1c0.26-0.07,0.51-0.18,0.77-0.32v0.83c-0.25,0.12-0.51,0.21-0.78,0.26c-0.27,0.06-0.55,0.09-0.85,0.09
		c-0.83,0-1.48-0.26-1.96-0.78c-0.48-0.52-0.73-1.22-0.73-2.09c0-0.89,0.24-1.59,0.73-2.1c0.49-0.51,1.16-0.77,2.02-0.77
		c0.28,0,0.55,0.03,0.81,0.09C478.18,368.96,478.43,369.05,478.68,369.16L478.68,369.16z"/>
	<path class="st2" d="M482.75,371.67c-0.73,0-1.23,0.08-1.51,0.25c-0.28,0.17-0.42,0.45-0.42,0.85c0,0.32,0.1,0.57,0.31,0.76
		c0.21,0.19,0.5,0.28,0.86,0.28c0.5,0,0.9-0.18,1.2-0.53c0.3-0.36,0.45-0.83,0.45-1.41v-0.2H482.75 M484.54,371.3v3.12h-0.9v-0.83
		c-0.21,0.33-0.46,0.58-0.77,0.74c-0.31,0.16-0.68,0.23-1.12,0.23c-0.56,0-1.01-0.16-1.34-0.47c-0.33-0.32-0.49-0.74-0.49-1.26
		c0-0.62,0.21-1.08,0.62-1.39c0.42-0.31,1.03-0.47,1.85-0.47h1.26v-0.09c0-0.42-0.14-0.73-0.41-0.96c-0.27-0.23-0.65-0.34-1.14-0.34
		c-0.31,0-0.62,0.04-0.91,0.11s-0.58,0.19-0.85,0.34v-0.83c0.33-0.13,0.65-0.22,0.96-0.28c0.31-0.06,0.61-0.1,0.9-0.1
		c0.79,0,1.38,0.21,1.77,0.62S484.54,370.47,484.54,371.3L484.54,371.3z"/>
	<path class="st2" d="M489.67,369.79c-0.1-0.06-0.21-0.1-0.33-0.13c-0.12-0.03-0.25-0.04-0.39-0.04c-0.51,0-0.9,0.17-1.17,0.5
		c-0.27,0.33-0.41,0.8-0.41,1.42v2.88h-0.9v-5.47h0.9v0.85c0.19-0.33,0.43-0.58,0.74-0.74s0.67-0.24,1.1-0.24
		c0.06,0,0.13,0,0.21,0.01c0.07,0,0.16,0.02,0.25,0.03L489.67,369.79L489.67,369.79z"/>
	<path class="st2" d="M494.51,371.69c0-0.66-0.14-1.18-0.41-1.55c-0.27-0.38-0.64-0.57-1.12-0.57s-0.85,0.19-1.12,0.57
		c-0.27,0.38-0.41,0.89-0.41,1.55s0.14,1.18,0.41,1.56c0.27,0.38,0.65,0.56,1.12,0.56s0.85-0.19,1.12-0.56
		C494.37,372.87,494.51,372.35,494.51,371.69 M491.45,369.78c0.19-0.33,0.42-0.57,0.71-0.72c0.29-0.16,0.63-0.24,1.04-0.24
		c0.66,0,1.2,0.26,1.62,0.79s0.62,1.22,0.62,2.08c0,0.86-0.21,1.55-0.62,2.08s-0.95,0.79-1.62,0.79c-0.4,0-0.75-0.08-1.04-0.23
		c-0.29-0.16-0.52-0.4-0.71-0.73v0.82h-0.9v-7.6h0.9V369.78L491.45,369.78z"/>
	<path class="st2" d="M499.18,369.58c-0.48,0-0.86,0.19-1.14,0.57c-0.28,0.38-0.42,0.89-0.42,1.54c0,0.65,0.14,1.17,0.42,1.55
		c0.28,0.38,0.66,0.56,1.15,0.56c0.48,0,0.86-0.19,1.14-0.57c0.28-0.38,0.42-0.89,0.42-1.54c0-0.65-0.14-1.16-0.42-1.54
		C500.04,369.77,499.66,369.58,499.18,369.58 M499.18,368.82c0.78,0,1.4,0.25,1.84,0.76c0.44,0.51,0.67,1.21,0.67,2.11
		c0,0.89-0.22,1.6-0.67,2.11c-0.44,0.51-1.06,0.76-1.84,0.76c-0.79,0-1.4-0.25-1.85-0.76c-0.44-0.51-0.66-1.22-0.66-2.11
		c0-0.9,0.22-1.6,0.66-2.11C497.78,369.07,498.4,368.82,499.18,368.82L499.18,368.82z"/>
	<polygon class="st2" points="507.37,368.95 505.39,371.61 507.47,374.42 506.41,374.42 504.82,372.27 503.23,374.42 502.17,374.42 
		504.29,371.56 502.35,368.95 503.41,368.95 504.86,370.9 506.31,368.95 507.37,368.95 	"/>
	<path class="st2" d="M511.1,374.93c-0.25,0.65-0.5,1.07-0.74,1.27c-0.24,0.2-0.56,0.3-0.97,0.3h-0.72v-0.75h0.53
		c0.25,0,0.44-0.06,0.58-0.18s0.29-0.4,0.45-0.83l0.16-0.41l-2.21-5.38h0.95l1.71,4.28l1.71-4.28h0.95L511.1,374.93L511.1,374.93z"
		/>
	<polygon class="st2" points="514.58,366.82 515.48,366.82 515.48,374.42 514.58,374.42 514.58,366.82 	"/>
	<path class="st2" d="M517.46,368.95h0.9v5.47h-0.9V368.95 M517.46,366.82h0.9v1.14h-0.9V366.82L517.46,366.82z"/>
	<path class="st2" d="M524.04,369.16V370c-0.25-0.14-0.51-0.24-0.77-0.31c-0.25-0.07-0.51-0.11-0.77-0.11
		c-0.58,0-1.04,0.19-1.36,0.56c-0.32,0.37-0.48,0.88-0.48,1.55c0,0.67,0.16,1.19,0.48,1.56c0.32,0.37,0.78,0.55,1.36,0.55
		c0.26,0,0.52-0.03,0.77-0.1c0.26-0.07,0.51-0.18,0.77-0.32v0.83c-0.25,0.12-0.51,0.21-0.78,0.26s-0.55,0.09-0.85,0.09
		c-0.83,0-1.48-0.26-1.96-0.78c-0.48-0.52-0.73-1.22-0.73-2.09c0-0.89,0.24-1.59,0.73-2.1c0.49-0.51,1.16-0.77,2.02-0.77
		c0.28,0,0.55,0.03,0.81,0.09C523.54,368.96,523.79,369.05,524.04,369.16L524.04,369.16z"/>
	<path class="st2" d="M531.47,371.67c-0.73,0-1.23,0.08-1.51,0.25c-0.28,0.17-0.42,0.45-0.42,0.85c0,0.32,0.1,0.57,0.31,0.76
		c0.21,0.19,0.5,0.28,0.86,0.28c0.5,0,0.9-0.18,1.2-0.53c0.3-0.36,0.45-0.83,0.45-1.41v-0.2H531.47 M533.26,371.3v3.12h-0.9v-0.83
		c-0.21,0.33-0.46,0.58-0.77,0.74c-0.31,0.16-0.68,0.23-1.12,0.23c-0.56,0-1.01-0.16-1.34-0.47c-0.33-0.32-0.49-0.74-0.49-1.26
		c0-0.62,0.21-1.08,0.62-1.39c0.42-0.31,1.03-0.47,1.85-0.47h1.26v-0.09c0-0.42-0.14-0.73-0.41-0.96c-0.27-0.23-0.65-0.34-1.14-0.34
		c-0.31,0-0.62,0.04-0.91,0.11s-0.58,0.19-0.85,0.34v-0.83c0.33-0.13,0.65-0.22,0.96-0.28c0.31-0.06,0.61-0.1,0.9-0.1
		c0.79,0,1.38,0.21,1.77,0.62S533.26,370.47,533.26,371.3L533.26,371.3z"/>
	<path class="st2" d="M538.92,369.16V370c-0.25-0.14-0.51-0.24-0.77-0.31c-0.25-0.07-0.51-0.11-0.77-0.11
		c-0.58,0-1.04,0.19-1.36,0.56c-0.32,0.37-0.48,0.88-0.48,1.55c0,0.67,0.16,1.19,0.48,1.56c0.32,0.37,0.78,0.55,1.36,0.55
		c0.26,0,0.52-0.03,0.77-0.1c0.26-0.07,0.51-0.18,0.77-0.32v0.83c-0.25,0.12-0.51,0.21-0.78,0.26c-0.27,0.06-0.55,0.09-0.85,0.09
		c-0.83,0-1.48-0.26-1.96-0.78c-0.48-0.52-0.73-1.22-0.73-2.09c0-0.89,0.24-1.59,0.73-2.1c0.49-0.51,1.16-0.77,2.02-0.77
		c0.28,0,0.55,0.03,0.81,0.09C538.41,368.96,538.67,369.05,538.92,369.16L538.92,369.16z"/>
	<path class="st2" d="M540.5,368.95h0.9v5.47h-0.9V368.95 M540.5,366.82h0.9v1.14h-0.9V366.82L540.5,366.82z"/>
	<path class="st2" d="M546.98,369.78v-2.96h0.9v7.6h-0.9v-0.82c-0.19,0.33-0.43,0.57-0.72,0.73c-0.29,0.16-0.63,0.23-1.04,0.23
		c-0.66,0-1.2-0.26-1.62-0.79s-0.62-1.22-0.62-2.08c0-0.86,0.21-1.55,0.62-2.08s0.96-0.79,1.62-0.79c0.41,0,0.75,0.08,1.04,0.24
		C546.55,369.22,546.79,369.45,546.98,369.78 M543.92,371.69c0,0.66,0.14,1.18,0.41,1.56c0.27,0.38,0.65,0.56,1.12,0.56
		c0.47,0,0.85-0.19,1.12-0.56c0.27-0.38,0.41-0.9,0.41-1.56s-0.14-1.18-0.41-1.55c-0.27-0.38-0.65-0.57-1.12-0.57
		c-0.47,0-0.85,0.19-1.12,0.57C544.06,370.51,543.92,371.03,543.92,371.69L543.92,371.69z"/>
	<path class="st2" d="M453.78,385.55v-0.9c0.25,0.12,0.5,0.21,0.75,0.27c0.25,0.06,0.5,0.09,0.75,0.09c0.65,0,1.15-0.22,1.49-0.65
		c0.35-0.44,0.54-1.1,0.59-2c-0.19,0.28-0.43,0.49-0.72,0.64c-0.29,0.15-0.61,0.22-0.96,0.22c-0.73,0-1.31-0.22-1.73-0.66
		c-0.42-0.44-0.63-1.04-0.63-1.81c0-0.75,0.22-1.35,0.66-1.8s1.03-0.68,1.77-0.68c0.84,0,1.48,0.32,1.93,0.97
		c0.44,0.64,0.67,1.58,0.67,2.81c0,1.15-0.27,2.07-0.82,2.75c-0.54,0.68-1.27,1.03-2.2,1.03c-0.25,0-0.5-0.02-0.75-0.07
		C454.32,385.72,454.05,385.65,453.78,385.55 M455.74,382.46c0.44,0,0.79-0.15,1.05-0.45c0.26-0.3,0.39-0.72,0.39-1.25
		c0-0.52-0.13-0.94-0.39-1.24c-0.26-0.31-0.61-0.46-1.05-0.46s-0.8,0.15-1.05,0.46c-0.26,0.3-0.39,0.72-0.39,1.24
		c0,0.53,0.13,0.94,0.39,1.25C454.95,382.31,455.3,382.46,455.74,382.46L455.74,382.46z"/>
	<polygon class="st2" points="460.23,384.46 461.26,384.46 461.26,385.7 460.23,385.7 460.23,384.46 	"/>
	<polygon class="st2" points="463.1,378.41 467.79,378.41 467.79,378.83 465.14,385.7 464.11,385.7 466.6,379.24 463.1,379.24 
		463.1,378.41 	"/>
	<path class="st2" d="M476.03,382.49c-0.28,0-0.51,0.12-0.67,0.36c-0.16,0.24-0.24,0.58-0.24,1.01c0,0.42,0.08,0.76,0.24,1
		c0.16,0.24,0.39,0.36,0.67,0.36c0.28,0,0.49-0.12,0.65-0.36c0.16-0.24,0.24-0.58,0.24-1s-0.08-0.76-0.24-1
		C476.52,382.61,476.31,382.49,476.03,382.49 M476.03,381.87c0.51,0,0.92,0.18,1.23,0.54c0.3,0.36,0.45,0.84,0.45,1.45
		c0,0.61-0.15,1.09-0.46,1.45c-0.3,0.36-0.71,0.53-1.22,0.53c-0.52,0-0.93-0.18-1.24-0.53c-0.3-0.36-0.45-0.84-0.45-1.45
		c0-0.61,0.15-1.09,0.45-1.45C475.1,382.05,475.51,381.87,476.03,381.87 M470.99,378.9c-0.28,0-0.5,0.12-0.66,0.37
		c-0.16,0.24-0.24,0.57-0.24,1c0,0.43,0.08,0.77,0.24,1.01c0.16,0.24,0.38,0.36,0.66,0.36s0.5-0.12,0.66-0.36
		c0.16-0.24,0.24-0.58,0.24-1.01c0-0.42-0.08-0.75-0.24-1C471.49,379.02,471.27,378.9,470.99,378.9 M475.4,378.28h0.78l-4.56,7.56
		h-0.78L475.4,378.28 M470.99,378.28c0.51,0,0.92,0.18,1.23,0.54c0.31,0.36,0.46,0.83,0.46,1.45c0,0.62-0.15,1.1-0.46,1.46
		c-0.3,0.36-0.71,0.53-1.23,0.53s-0.93-0.18-1.23-0.53c-0.3-0.36-0.45-0.84-0.45-1.46c0-0.61,0.15-1.09,0.45-1.45
		C470.07,378.46,470.48,378.28,470.99,378.28L470.99,378.28z"/>
	<line class="st1" x1="448.98" y1="296.43" x2="413.61" y2="277.95"/>
	<path class="st2" d="M454.49,303.52v2.9h-0.9v-7.55h0.9v0.83c0.19-0.33,0.42-0.57,0.71-0.72c0.29-0.16,0.63-0.24,1.04-0.24
		c0.66,0,1.2,0.26,1.62,0.79s0.62,1.22,0.62,2.08c0,0.86-0.21,1.55-0.62,2.08s-0.95,0.79-1.62,0.79c-0.4,0-0.75-0.08-1.04-0.23
		C454.92,304.09,454.68,303.85,454.49,303.52 M457.55,301.61c0-0.66-0.14-1.18-0.41-1.55c-0.27-0.38-0.64-0.57-1.12-0.57
		s-0.85,0.19-1.12,0.57c-0.27,0.38-0.41,0.89-0.41,1.55s0.14,1.18,0.41,1.56c0.27,0.38,0.65,0.56,1.12,0.56s0.85-0.19,1.12-0.56
		C457.41,302.79,457.55,302.27,457.55,301.61L457.55,301.61z"/>
	<path class="st2" d="M462.22,299.5c-0.48,0-0.86,0.19-1.14,0.57c-0.28,0.38-0.42,0.89-0.42,1.54c0,0.65,0.14,1.17,0.42,1.55
		c0.28,0.38,0.66,0.56,1.15,0.56c0.48,0,0.86-0.19,1.14-0.57c0.28-0.38,0.42-0.89,0.42-1.54c0-0.65-0.14-1.16-0.42-1.54
		C463.08,299.69,462.7,299.5,462.22,299.5 M462.22,298.74c0.78,0,1.4,0.25,1.84,0.76c0.44,0.51,0.67,1.21,0.67,2.11
		c0,0.89-0.22,1.6-0.67,2.11c-0.44,0.51-1.06,0.76-1.84,0.76c-0.79,0-1.4-0.25-1.85-0.76c-0.44-0.51-0.66-1.22-0.66-2.11
		c0-0.9,0.22-1.6,0.66-2.11C460.82,298.99,461.44,298.74,462.22,298.74L462.22,298.74z"/>
	<polygon class="st2" points="466.1,296.74 467,296.74 467,304.34 466.1,304.34 466.1,296.74 	"/>
	<path class="st2" d="M471.26,304.85c-0.25,0.65-0.5,1.07-0.74,1.27c-0.24,0.2-0.56,0.3-0.97,0.3h-0.72v-0.75h0.53
		c0.25,0,0.44-0.06,0.58-0.18s0.29-0.4,0.45-0.83l0.16-0.41l-2.21-5.38h0.95l1.71,4.28l1.71-4.28h0.95L471.26,304.85L471.26,304.85z
		"/>
	<path class="st2" d="M476.86,299.5c-0.48,0-0.86,0.19-1.14,0.57c-0.28,0.38-0.42,0.89-0.42,1.54c0,0.65,0.14,1.17,0.42,1.55
		c0.28,0.38,0.66,0.56,1.15,0.56c0.48,0,0.86-0.19,1.14-0.57c0.28-0.38,0.42-0.89,0.42-1.54c0-0.65-0.14-1.16-0.42-1.54
		C477.72,299.69,477.34,299.5,476.86,299.5 M476.86,298.74c0.78,0,1.4,0.25,1.84,0.76c0.44,0.51,0.67,1.21,0.67,2.11
		c0,0.89-0.22,1.6-0.67,2.11c-0.44,0.51-1.06,0.76-1.84,0.76c-0.79,0-1.4-0.25-1.85-0.76c-0.44-0.51-0.66-1.22-0.66-2.11
		c0-0.9,0.22-1.6,0.66-2.11C475.46,298.99,476.08,298.74,476.86,298.74L476.86,298.74z"/>
	<polygon class="st2" points="480.98,296.74 481.88,296.74 481.88,304.34 480.98,304.34 480.98,296.74 	"/>
	<path class="st2" d="M453.76,308.33h3.87v0.83h-2.97v1.79c0.14-0.05,0.29-0.08,0.43-0.11s0.29-0.04,0.43-0.04
		c0.82,0,1.46,0.22,1.93,0.67s0.71,1.05,0.71,1.81c0,0.79-0.24,1.4-0.73,1.83s-1.18,0.65-2.07,0.65c-0.31,0-0.62-0.02-0.94-0.08
		s-0.64-0.13-0.98-0.23v-0.99c0.29,0.16,0.6,0.28,0.91,0.36s0.64,0.12,0.99,0.12c0.56,0,1.01-0.15,1.34-0.44s0.49-0.7,0.49-1.21
		s-0.17-0.91-0.49-1.21s-0.78-0.44-1.34-0.44c-0.26,0-0.53,0.03-0.79,0.09c-0.26,0.06-0.53,0.15-0.8,0.27V308.33L453.76,308.33z"/>
	<polygon class="st2" points="460.23,314.38 461.26,314.38 461.26,315.62 460.23,315.62 460.23,314.38 	"/>
	<path class="st2" d="M465.58,311.58c-0.44,0-0.8,0.15-1.05,0.45c-0.26,0.3-0.39,0.72-0.39,1.25c0,0.52,0.13,0.94,0.39,1.25
		c0.26,0.3,0.61,0.45,1.05,0.45c0.44,0,0.79-0.15,1.05-0.45c0.26-0.31,0.39-0.72,0.39-1.25c0-0.53-0.13-0.94-0.39-1.25
		C466.37,311.73,466.03,311.58,465.58,311.58 M467.54,308.49v0.9c-0.25-0.12-0.5-0.21-0.75-0.27c-0.25-0.06-0.5-0.09-0.75-0.09
		c-0.65,0-1.15,0.22-1.49,0.66c-0.34,0.44-0.54,1.1-0.59,1.99c0.19-0.28,0.43-0.5,0.72-0.65c0.29-0.15,0.61-0.23,0.96-0.23
		c0.73,0,1.31,0.22,1.73,0.67s0.64,1.04,0.64,1.81c0,0.75-0.22,1.35-0.66,1.8c-0.44,0.45-1.03,0.68-1.77,0.68
		c-0.84,0-1.49-0.32-1.93-0.97c-0.44-0.65-0.67-1.59-0.67-2.81c0-1.15,0.27-2.07,0.82-2.75c0.55-0.69,1.28-1.03,2.2-1.03
		c0.25,0,0.5,0.02,0.75,0.07C467,308.32,467.27,308.39,467.54,308.49L467.54,308.49z"/>
	<path class="st2" d="M476.03,312.41c-0.28,0-0.51,0.12-0.67,0.36s-0.24,0.58-0.24,1.01c0,0.42,0.08,0.76,0.24,1
		c0.16,0.24,0.39,0.36,0.67,0.36c0.28,0,0.49-0.12,0.65-0.36c0.16-0.24,0.24-0.58,0.24-1s-0.08-0.76-0.24-1
		C476.52,312.53,476.31,312.41,476.03,312.41 M476.03,311.79c0.51,0,0.92,0.18,1.23,0.54s0.45,0.84,0.45,1.45s-0.15,1.09-0.46,1.45
		c-0.3,0.36-0.71,0.53-1.22,0.53c-0.52,0-0.93-0.18-1.24-0.53s-0.45-0.84-0.45-1.45s0.15-1.09,0.45-1.45
		C475.1,311.97,475.51,311.79,476.03,311.79 M470.99,308.82c-0.28,0-0.5,0.12-0.66,0.37c-0.16,0.24-0.24,0.57-0.24,1
		c0,0.43,0.08,0.77,0.24,1.01s0.38,0.36,0.66,0.36s0.5-0.12,0.66-0.36s0.24-0.58,0.24-1.01c0-0.42-0.08-0.75-0.24-1
		S471.27,308.82,470.99,308.82 M475.4,308.2h0.78l-4.56,7.56h-0.78L475.4,308.2 M470.99,308.2c0.51,0,0.92,0.18,1.23,0.54
		s0.46,0.83,0.46,1.45c0,0.62-0.15,1.1-0.46,1.46c-0.3,0.36-0.71,0.53-1.23,0.53s-0.93-0.18-1.23-0.53
		c-0.3-0.36-0.45-0.84-0.45-1.46c0-0.61,0.15-1.09,0.45-1.45S470.48,308.2,470.99,308.2L470.99,308.2z"/>
	<line class="st1" x1="448.78" y1="240" x2="427.13" y2="236.68"/>
	<path class="st2" d="M457.11,238.07v0.85c-0.25-0.13-0.52-0.23-0.79-0.29s-0.56-0.1-0.85-0.1c-0.44,0-0.78,0.07-1.01,0.21
		c-0.22,0.14-0.33,0.34-0.33,0.62c0,0.21,0.08,0.37,0.24,0.49c0.16,0.12,0.48,0.23,0.96,0.34l0.31,0.07
		c0.64,0.14,1.09,0.33,1.36,0.58s0.41,0.6,0.41,1.04c0,0.51-0.2,0.91-0.61,1.21c-0.4,0.3-0.95,0.44-1.66,0.44
		c-0.29,0-0.6-0.03-0.92-0.09c-0.32-0.05-0.65-0.14-1-0.25v-0.93c0.33,0.17,0.66,0.3,0.98,0.39c0.32,0.08,0.64,0.13,0.96,0.13
		c0.42,0,0.75-0.07,0.98-0.21c0.23-0.15,0.34-0.35,0.34-0.62c0-0.24-0.08-0.43-0.25-0.56c-0.16-0.13-0.52-0.25-1.08-0.38l-0.31-0.07
		c-0.56-0.12-0.96-0.3-1.21-0.54c-0.25-0.24-0.37-0.58-0.37-1c0-0.51,0.18-0.91,0.55-1.19s0.88-0.42,1.55-0.42
		c0.33,0,0.64,0.02,0.94,0.07S456.86,237.98,457.11,238.07L457.11,238.07z"/>
	<path class="st2" d="M461.39,240.63c-0.73,0-1.23,0.08-1.51,0.25s-0.42,0.45-0.42,0.85c0,0.32,0.1,0.57,0.31,0.76
		c0.21,0.19,0.5,0.28,0.86,0.28c0.5,0,0.9-0.18,1.2-0.53c0.3-0.36,0.45-0.83,0.45-1.41v-0.2H461.39 M463.18,240.26v3.12h-0.9v-0.83
		c-0.21,0.33-0.46,0.58-0.77,0.74c-0.31,0.16-0.68,0.23-1.12,0.23c-0.56,0-1.01-0.16-1.34-0.47c-0.33-0.32-0.49-0.74-0.49-1.26
		c0-0.62,0.21-1.08,0.62-1.39c0.42-0.31,1.03-0.47,1.85-0.47h1.26v-0.09c0-0.42-0.14-0.73-0.41-0.96c-0.27-0.23-0.65-0.34-1.14-0.34
		c-0.31,0-0.62,0.04-0.91,0.11s-0.58,0.19-0.85,0.34v-0.83c0.33-0.13,0.65-0.22,0.96-0.28s0.61-0.1,0.9-0.1
		c0.79,0,1.38,0.21,1.77,0.62S463.18,239.43,463.18,240.26L463.18,240.26z"/>
	<path class="st2" d="M469.08,238.12v0.84c-0.25-0.14-0.51-0.24-0.77-0.31c-0.25-0.07-0.51-0.11-0.77-0.11
		c-0.58,0-1.04,0.19-1.36,0.56c-0.32,0.37-0.48,0.88-0.48,1.55s0.16,1.19,0.48,1.56c0.32,0.37,0.78,0.55,1.36,0.55
		c0.26,0,0.52-0.03,0.77-0.1c0.26-0.07,0.51-0.18,0.77-0.32v0.83c-0.25,0.12-0.51,0.21-0.78,0.26s-0.55,0.09-0.85,0.09
		c-0.83,0-1.48-0.26-1.96-0.78s-0.73-1.22-0.73-2.09c0-0.89,0.24-1.59,0.73-2.1c0.49-0.51,1.16-0.77,2.02-0.77
		c0.28,0,0.55,0.03,0.81,0.09C468.58,237.92,468.83,238.01,469.08,238.12L469.08,238.12z"/>
	<path class="st2" d="M474.36,238.12v0.84c-0.25-0.14-0.51-0.24-0.77-0.31c-0.25-0.07-0.51-0.11-0.77-0.11
		c-0.58,0-1.04,0.19-1.36,0.56c-0.32,0.37-0.48,0.88-0.48,1.55s0.16,1.19,0.48,1.56c0.32,0.37,0.78,0.55,1.36,0.55
		c0.26,0,0.52-0.03,0.77-0.1c0.26-0.07,0.51-0.18,0.77-0.32v0.83c-0.25,0.12-0.51,0.21-0.78,0.26c-0.27,0.06-0.55,0.09-0.85,0.09
		c-0.83,0-1.48-0.26-1.96-0.78s-0.73-1.22-0.73-2.09c0-0.89,0.24-1.59,0.73-2.1c0.49-0.51,1.16-0.77,2.02-0.77
		c0.28,0,0.55,0.03,0.81,0.09C473.86,237.92,474.11,238.01,474.36,238.12L474.36,238.12z"/>
	<path class="st2" d="M480.49,240.08v3.3h-0.9v-3.27c0-0.52-0.1-0.9-0.3-1.16s-0.5-0.39-0.91-0.39c-0.48,0-0.87,0.16-1.15,0.46
		s-0.42,0.73-0.42,1.26v3.09h-0.9v-7.6h0.9v2.98c0.21-0.33,0.47-0.58,0.76-0.74c0.29-0.16,0.63-0.24,1.01-0.24
		c0.63,0,1.1,0.2,1.43,0.59C480.33,238.75,480.49,239.32,480.49,240.08L480.49,240.08z"/>
	<path class="st2" d="M484.91,240.63c-0.73,0-1.23,0.08-1.51,0.25s-0.42,0.45-0.42,0.85c0,0.32,0.1,0.57,0.31,0.76
		c0.21,0.19,0.5,0.28,0.86,0.28c0.5,0,0.9-0.18,1.2-0.53c0.3-0.36,0.45-0.83,0.45-1.41v-0.2H484.91 M486.7,240.26v3.12h-0.9v-0.83
		c-0.21,0.33-0.46,0.58-0.77,0.74c-0.31,0.16-0.68,0.23-1.12,0.23c-0.56,0-1.01-0.16-1.34-0.47c-0.33-0.32-0.49-0.74-0.49-1.26
		c0-0.62,0.21-1.08,0.62-1.39c0.42-0.31,1.03-0.47,1.85-0.47h1.26v-0.09c0-0.42-0.14-0.73-0.41-0.96c-0.27-0.23-0.65-0.34-1.14-0.34
		c-0.31,0-0.62,0.04-0.91,0.11c-0.3,0.07-0.58,0.19-0.85,0.34v-0.83c0.33-0.13,0.65-0.22,0.96-0.28s0.61-0.1,0.9-0.1
		c0.79,0,1.38,0.21,1.77,0.62C486.5,238.81,486.7,239.43,486.7,240.26L486.7,240.26z"/>
	<path class="st2" d="M491.59,238.75c-0.1-0.06-0.21-0.1-0.33-0.13c-0.12-0.03-0.25-0.04-0.39-0.04c-0.51,0-0.9,0.17-1.17,0.5
		c-0.27,0.33-0.41,0.8-0.41,1.42v2.88h-0.9v-5.47h0.9v0.85c0.19-0.33,0.43-0.58,0.74-0.74c0.3-0.16,0.67-0.24,1.1-0.24
		c0.06,0,0.13,0,0.21,0.01c0.07,0,0.16,0.02,0.25,0.03L491.59,238.75L491.59,238.75z"/>
	<path class="st2" d="M492.5,237.91h0.9v5.47h-0.9V237.91 M492.5,235.78h0.9v1.14h-0.9V235.78L492.5,235.78z"/>
	<path class="st2" d="M498.98,238.74v-2.96h0.9v7.6h-0.9v-0.82c-0.19,0.33-0.43,0.57-0.72,0.73c-0.29,0.16-0.63,0.23-1.04,0.23
		c-0.66,0-1.2-0.26-1.62-0.79s-0.62-1.22-0.62-2.08s0.21-1.55,0.62-2.08s0.96-0.79,1.62-0.79c0.41,0,0.75,0.08,1.04,0.24
		C498.55,238.18,498.79,238.41,498.98,238.74 M495.92,240.65c0,0.66,0.14,1.18,0.41,1.56c0.27,0.38,0.65,0.56,1.12,0.56
		s0.85-0.19,1.12-0.56s0.41-0.9,0.41-1.56s-0.14-1.18-0.41-1.55s-0.65-0.57-1.12-0.57s-0.85,0.19-1.12,0.57
		C496.06,239.47,495.92,239.99,495.92,240.65L495.92,240.65z"/>
	<path class="st2" d="M506.3,240.42v0.44h-4.13c0.04,0.62,0.22,1.09,0.56,1.42c0.34,0.32,0.8,0.48,1.4,0.48c0.35,0,0.68-0.04,1-0.13
		c0.33-0.08,0.65-0.21,0.97-0.38v0.85c-0.32,0.14-0.65,0.24-0.99,0.31s-0.68,0.11-1.03,0.11c-0.87,0-1.56-0.25-2.08-0.76
		c-0.51-0.51-0.76-1.2-0.76-2.06c0-0.89,0.24-1.61,0.72-2.13c0.48-0.53,1.14-0.79,1.96-0.79c0.74,0,1.32,0.24,1.74,0.71
		C506.09,238.97,506.3,239.61,506.3,240.42 M505.4,240.16c0-0.49-0.15-0.88-0.42-1.18s-0.62-0.44-1.06-0.44
		c-0.5,0-0.9,0.14-1.21,0.42c-0.3,0.28-0.47,0.68-0.52,1.2L505.4,240.16L505.4,240.16z"/>
	<path class="st2" d="M456.46,248.23l-2.49,3.89h2.49V248.23 M456.2,247.37h1.24v4.75h1.04v0.82h-1.04v1.72h-0.98v-1.72h-3.29v-0.95
		L456.2,247.37L456.2,247.37z"/>
	<polygon class="st2" points="460.23,253.42 461.26,253.42 461.26,254.66 460.23,254.66 460.23,253.42 	"/>
	<path class="st2" d="M465.46,251.2c-0.47,0-0.84,0.13-1.11,0.38c-0.27,0.25-0.4,0.6-0.4,1.04s0.13,0.79,0.4,1.04
		c0.27,0.25,0.64,0.38,1.11,0.38s0.84-0.13,1.11-0.38c0.27-0.25,0.41-0.6,0.41-1.04c0-0.44-0.14-0.79-0.41-1.04
		C466.3,251.33,465.93,251.2,465.46,251.2 M464.47,250.78c-0.42-0.1-0.75-0.3-0.99-0.59c-0.23-0.29-0.35-0.64-0.35-1.06
		c0-0.58,0.21-1.04,0.62-1.38c0.42-0.34,0.99-0.51,1.71-0.51c0.73,0,1.29,0.17,1.71,0.51c0.42,0.34,0.62,0.8,0.62,1.38
		c0,0.42-0.12,0.77-0.36,1.06c-0.23,0.29-0.56,0.49-0.98,0.59c0.47,0.11,0.84,0.33,1.11,0.65c0.27,0.32,0.4,0.72,0.4,1.18
		c0,0.71-0.21,1.25-0.65,1.63c-0.43,0.38-1.04,0.57-1.85,0.57s-1.42-0.19-1.86-0.57c-0.43-0.38-0.64-0.92-0.64-1.63
		c0-0.46,0.13-0.86,0.4-1.18C463.63,251.11,464,250.89,464.47,250.78 M464.11,249.22c0,0.38,0.12,0.67,0.35,0.88
		c0.24,0.21,0.57,0.32,1,0.32s0.75-0.11,0.99-0.32c0.24-0.21,0.36-0.51,0.36-0.88s-0.12-0.67-0.36-0.88
		c-0.24-0.21-0.57-0.32-0.99-0.32s-0.76,0.11-1,0.32C464.23,248.55,464.11,248.85,464.11,249.22L464.11,249.22z"/>
	<path class="st2" d="M476.03,251.45c-0.28,0-0.51,0.12-0.67,0.36s-0.24,0.58-0.24,1.01c0,0.42,0.08,0.76,0.24,1
		c0.16,0.24,0.39,0.36,0.67,0.36c0.28,0,0.49-0.12,0.65-0.36c0.16-0.24,0.24-0.58,0.24-1s-0.08-0.76-0.24-1
		C476.52,251.57,476.31,251.45,476.03,251.45 M476.03,250.83c0.51,0,0.92,0.18,1.23,0.54s0.45,0.84,0.45,1.45s-0.15,1.09-0.46,1.45
		c-0.3,0.36-0.71,0.53-1.22,0.53c-0.52,0-0.93-0.18-1.24-0.53s-0.45-0.84-0.45-1.45s0.15-1.09,0.45-1.45
		C475.1,251.01,475.51,250.83,476.03,250.83 M470.99,247.86c-0.28,0-0.5,0.12-0.66,0.37c-0.16,0.24-0.24,0.57-0.24,1
		c0,0.43,0.08,0.77,0.24,1.01s0.38,0.36,0.66,0.36s0.5-0.12,0.66-0.36s0.24-0.58,0.24-1.01c0-0.42-0.08-0.75-0.24-1
		S471.27,247.86,470.99,247.86 M475.4,247.24h0.78l-4.56,7.56h-0.78L475.4,247.24 M470.99,247.24c0.51,0,0.92,0.18,1.23,0.54
		s0.46,0.83,0.46,1.45c0,0.62-0.15,1.1-0.46,1.46c-0.3,0.36-0.71,0.53-1.23,0.53s-0.93-0.18-1.23-0.53
		c-0.3-0.36-0.45-0.84-0.45-1.46c0-0.61,0.15-1.09,0.45-1.45S470.48,247.24,470.99,247.24L470.99,247.24z"/>
	<path class="st3" d="M426.66,216.62c0-26.64-8.16-52.66-23.38-74.53c-15.22-21.87-36.78-38.56-61.77-47.81L296.2,216.62H426.66
		L426.66,216.62z"/>
	<path class="st4" d="M341.51,94.28c-4.13-1.53-8.34-2.85-12.61-3.96c-4.27-1.1-8.59-1.99-12.95-2.66L296.2,216.62L341.51,94.28
		L341.51,94.28z"/>
	<path class="st5" d="M315.96,87.66c-8.72-1.34-17.55-1.78-26.36-1.34c-8.81,0.45-17.55,1.79-26.09,4l32.7,126.3L315.96,87.66
		L315.96,87.66z"/>
	<path class="st6" d="M263.5,90.32c-8.54,2.21-16.83,5.28-24.75,9.17c-7.92,3.89-15.43,8.56-22.4,13.96l79.86,103.17L263.5,90.32
		L263.5,90.32z"/>
	<path class="st7" d="M216.34,113.45c-4.36,3.37-8.5,7.02-12.39,10.92c-3.9,3.9-7.54,8.04-10.92,12.39l103.17,79.86L216.34,113.45
		L216.34,113.45z"/>
	<path class="st8" d="M193.03,136.76c-17,21.96-26.55,48.79-27.25,76.55s7.48,55.04,23.34,77.83l107.08-74.53L193.03,136.76
		L193.03,136.76z"/>
	<path class="st9" d="M189.12,291.15c9.47,13.61,21.45,25.28,35.29,34.4c13.84,9.12,29.29,15.52,45.53,18.86l26.26-127.79
		L189.12,291.15L189.12,291.15z"/>
	<path class="st10" d="M269.94,344.41c10.81,2.22,21.85,3.06,32.87,2.5c11.02-0.56,21.92-2.51,32.45-5.82L296.2,216.62
		L269.94,344.41L269.94,344.41z"/>
	<path class="st11" d="M335.26,341.1c12.64-3.97,24.6-9.83,35.47-17.4c10.87-7.57,20.53-16.75,28.64-27.22L296.2,216.62
		L335.26,341.1L335.26,341.1z"/>
	<path class="st12" d="M399.37,296.48c4.72-6.1,8.9-12.61,12.47-19.45c3.57-6.84,6.53-13.98,8.84-21.35L296.2,216.62L399.37,296.48
		L399.37,296.48z"/>
	<path class="st13" d="M420.68,255.68c1.98-6.31,3.48-12.76,4.48-19.3s1.5-13.14,1.5-19.76H296.2L420.68,255.68L420.68,255.68z"/>
</g>
</svg>
