<?xml version="1.0" encoding="utf-8"?>
<!-- Generator: Adobe Illustrator 26.1.0, SVG Export Plug-In . SVG Version: 6.00 Build 0)  -->
<svg version="1.1" id="Слой_1" xmlns="http://www.w3.org/2000/svg" xmlns:xlink="http://www.w3.org/1999/xlink" x="0px" y="0px"
	 viewBox="0 0 578.27 433.7" style="enable-background:new 0 0 578.27 433.7;" xml:space="preserve">
<style type="text/css">
	.st0{fill:#FFFFFF;}
	.st1{fill:#FF7F0E;stroke:#000000;stroke-miterlimit:10;}
	.st2{fill:#1F77B4;stroke:#000000;stroke-miterlimit:10;}
	.st3{stroke:#000000;stroke-width:0.8;stroke-linejoin:round;stroke-miterlimit:10;}
	.st4{fill-rule:evenodd;clip-rule:evenodd;}
	.st5{fill:none;stroke:#000000;stroke-width:0.8;stroke-linecap:square;stroke-miterlimit:10;}
	.st6{fill:#FFFFFF;stroke:#CCCCCC;stroke-miterlimit:10;}
</style>
<g>
	<rect x="1" y="1.7" class="st0" width="576" height="432"/>
	<rect x="73" y="53.54" class="st0" width="446.4" height="326.16"/>
	<rect x="151.26" y="379.7" class="st1" width="57.97" height="0"/>
	<rect x="296.2" y="69.07" class="st1" width="57.97" height="310.63"/>
	<rect x="441.14" y="286.51" class="st1" width="57.97" height="93.19"/>
	<rect x="93.29" y="321.46" class="st2" width="57.97" height="58.24"/>
	<rect x="238.23" y="80.72" class="st2" width="57.97" height="298.98"/>
	<rect x="383.16" y="220.5" class="st2" width="57.97" height="159.2"/>
	<line class="st3" x1="151.26" y1="379.7" x2="151.26" y2="383.2"/>
	<polygon class="st4" points="127.02,387.05 128.01,387.05 128.01,394.34 127.02,394.34 127.02,387.05 	"/>
	<polygon class="st4" points="129.9,387.05 130.89,387.05 130.89,393.51 134.44,393.51 134.44,394.34 129.9,394.34 129.9,387.05 	
		"/>
	<path class="st4" d="M143,389.92c0.22-0.41,0.49-0.7,0.81-0.89c0.31-0.19,0.68-0.29,1.1-0.29c0.57,0,1.01,0.2,1.32,0.6
		c0.31,0.4,0.46,0.96,0.46,1.7v3.3h-0.9v-3.27c0-0.52-0.09-0.91-0.28-1.17c-0.19-0.25-0.47-0.38-0.85-0.38
		c-0.46,0-0.83,0.16-1.1,0.46c-0.27,0.31-0.41,0.73-0.41,1.26v3.09h-0.9v-3.27c0-0.53-0.09-0.92-0.28-1.17
		c-0.19-0.25-0.47-0.38-0.86-0.38c-0.46,0-0.83,0.16-1.09,0.47c-0.27,0.31-0.41,0.73-0.41,1.26v3.09h-0.9v-5.47h0.9v0.85
		c0.21-0.34,0.45-0.58,0.74-0.74c0.29-0.16,0.63-0.24,1.02-0.24s0.73,0.1,1.01,0.3S142.87,389.54,143,389.92L143,389.92z"/>
	<path class="st4" d="M148.34,388.87h0.9v5.47h-0.9V388.87 M148.34,386.74h0.9v1.14h-0.9V386.74L148.34,386.74z"/>
	<polygon class="st4" points="155.77,388.87 153.79,391.53 155.87,394.34 154.81,394.34 153.22,392.19 151.63,394.34 150.57,394.34 
		152.69,391.48 150.75,388.87 151.81,388.87 153.26,390.82 154.71,388.87 155.77,388.87 	"/>
	<path class="st4" d="M158.11,387.32v1.55h1.85v0.7h-1.85v2.97c0,0.44,0.06,0.73,0.18,0.86c0.12,0.13,0.37,0.19,0.75,0.19h0.92v0.75
		h-0.92c-0.69,0-1.17-0.13-1.44-0.39s-0.4-0.73-0.4-1.42v-2.97h-0.66v-0.7h0.66v-1.55H158.11L158.11,387.32z"/>
	<path class="st4" d="M160.97,392.18v-3.31h0.9v3.28c0,0.52,0.1,0.91,0.3,1.17s0.5,0.39,0.91,0.39c0.48,0,0.87-0.16,1.15-0.46
		c0.28-0.31,0.42-0.73,0.42-1.26v-3.1h0.9v5.47h-0.9v-0.84c-0.22,0.33-0.47,0.58-0.76,0.74s-0.62,0.24-1,0.24
		c-0.63,0-1.1-0.2-1.43-0.59S160.97,392.93,160.97,392.18 M163.23,388.74L163.23,388.74L163.23,388.74z"/>
	<path class="st4" d="M170.47,389.71c-0.1-0.06-0.21-0.1-0.33-0.13c-0.12-0.03-0.25-0.04-0.39-0.04c-0.51,0-0.9,0.17-1.17,0.5
		c-0.27,0.33-0.41,0.8-0.41,1.42v2.88h-0.9v-5.47h0.9v0.85c0.19-0.33,0.43-0.58,0.74-0.74c0.3-0.16,0.67-0.24,1.1-0.24
		c0.06,0,0.13,0,0.21,0.01c0.07,0,0.16,0.02,0.25,0.03L170.47,389.71L170.47,389.71z"/>
	<path class="st4" d="M175.82,391.38v0.44h-4.13c0.04,0.62,0.22,1.09,0.56,1.42c0.34,0.32,0.8,0.48,1.4,0.48
		c0.35,0,0.68-0.04,1-0.13c0.33-0.08,0.65-0.21,0.97-0.38v0.85c-0.32,0.14-0.65,0.24-0.99,0.31s-0.68,0.11-1.03,0.11
		c-0.87,0-1.56-0.25-2.08-0.76c-0.51-0.51-0.76-1.2-0.76-2.06c0-0.89,0.24-1.61,0.72-2.13c0.48-0.53,1.14-0.79,1.96-0.79
		c0.74,0,1.32,0.24,1.74,0.71C175.61,389.93,175.82,390.57,175.82,391.38 M174.92,391.12c0-0.49-0.15-0.88-0.42-1.18
		c-0.27-0.29-0.62-0.44-1.06-0.44c-0.5,0-0.9,0.14-1.21,0.42c-0.3,0.28-0.47,0.68-0.52,1.2L174.92,391.12L174.92,391.12z"/>
	<line class="st3" x1="296.2" y1="379.7" x2="296.2" y2="383.2"/>
	<polygon class="st4" points="278.65,387.05 284.82,387.05 284.82,387.88 282.23,387.88 282.23,394.34 281.24,394.34 281.24,387.88 
		278.65,387.88 278.65,387.05 	"/>
	<path class="st4" d="M286.46,394.85c-0.25,0.65-0.5,1.07-0.74,1.27s-0.56,0.3-0.97,0.3h-0.72v-0.75h0.53
		c0.25,0,0.44-0.06,0.58-0.18s0.29-0.4,0.45-0.83l0.16-0.41l-2.21-5.38h0.95l1.71,4.28l1.71-4.28h0.95L286.46,394.85L286.46,394.85z
		"/>
	<path class="st4" d="M291.05,393.52v2.9h-0.9v-7.55h0.9v0.83c0.19-0.33,0.42-0.57,0.71-0.72c0.29-0.16,0.63-0.24,1.04-0.24
		c0.66,0,1.2,0.26,1.62,0.79s0.62,1.22,0.62,2.08s-0.21,1.55-0.62,2.08s-0.95,0.79-1.62,0.79c-0.4,0-0.75-0.08-1.04-0.23
		C291.48,394.09,291.24,393.85,291.05,393.52 M294.11,391.61c0-0.66-0.14-1.18-0.41-1.55c-0.27-0.38-0.64-0.57-1.12-0.57
		s-0.85,0.19-1.12,0.57c-0.27,0.38-0.41,0.89-0.41,1.55s0.14,1.18,0.41,1.56c0.27,0.38,0.65,0.56,1.12,0.56s0.85-0.19,1.12-0.56
		C293.97,392.79,294.11,392.27,294.11,391.61L294.11,391.61z"/>
	<path class="st4" d="M301.1,391.38v0.44h-4.13c0.04,0.62,0.22,1.09,0.56,1.42c0.34,0.32,0.8,0.48,1.4,0.48c0.35,0,0.68-0.04,1-0.13
		c0.33-0.08,0.65-0.21,0.97-0.38v0.85c-0.32,0.14-0.65,0.24-0.99,0.31s-0.68,0.11-1.03,0.11c-0.87,0-1.56-0.25-2.08-0.76
		c-0.51-0.51-0.76-1.2-0.76-2.06c0-0.89,0.24-1.61,0.72-2.13c0.48-0.53,1.14-0.79,1.96-0.79c0.74,0,1.32,0.24,1.74,0.71
		C300.89,389.93,301.1,390.57,301.1,391.38 M300.2,391.12c0-0.49-0.15-0.88-0.42-1.18s-0.62-0.44-1.06-0.44
		c-0.5,0-0.9,0.14-1.21,0.42c-0.3,0.28-0.47,0.68-0.52,1.2L300.2,391.12L300.2,391.12z"/>
	<polygon class="st4" points="305.82,387.05 306.81,387.05 306.81,394.34 305.82,394.34 305.82,387.05 	"/>
	<polygon class="st4" points="308.7,387.05 309.69,387.05 309.69,394.34 308.7,394.34 308.7,387.05 	"/>
	<polygon class="st4" points="311.82,387.05 312.81,387.05 312.81,394.34 311.82,394.34 311.82,387.05 	"/>
	<line class="st3" x1="441.13" y1="379.7" x2="441.13" y2="383.2"/>
	<polygon class="st4" points="424.57,387.05 430.74,387.05 430.74,387.88 428.15,387.88 428.15,394.34 427.16,394.34 427.16,387.88 
		424.57,387.88 424.57,387.05 	"/>
	<path class="st4" d="M432.38,394.85c-0.25,0.65-0.5,1.07-0.74,1.27s-0.56,0.3-0.97,0.3h-0.72v-0.75h0.53
		c0.25,0,0.44-0.06,0.58-0.18s0.29-0.4,0.45-0.83l0.16-0.41l-2.21-5.38h0.95l1.71,4.28l1.71-4.28h0.95L432.38,394.85L432.38,394.85z
		"/>
	<path class="st4" d="M436.97,393.52v2.9h-0.9v-7.55h0.9v0.83c0.19-0.33,0.42-0.57,0.71-0.72c0.29-0.16,0.63-0.24,1.04-0.24
		c0.66,0,1.2,0.26,1.62,0.79s0.62,1.22,0.62,2.08s-0.21,1.55-0.62,2.08s-0.95,0.79-1.62,0.79c-0.4,0-0.75-0.08-1.04-0.23
		C437.4,394.09,437.16,393.85,436.97,393.52 M440.03,391.61c0-0.66-0.14-1.18-0.41-1.55c-0.27-0.38-0.64-0.57-1.12-0.57
		s-0.85,0.19-1.12,0.57c-0.27,0.38-0.41,0.89-0.41,1.55s0.14,1.18,0.41,1.56c0.27,0.38,0.65,0.56,1.12,0.56s0.85-0.19,1.12-0.56
		C439.89,392.79,440.03,392.27,440.03,391.61L440.03,391.61z"/>
	<path class="st4" d="M447.02,391.38v0.44h-4.13c0.04,0.62,0.22,1.09,0.56,1.42c0.34,0.32,0.8,0.48,1.4,0.48
		c0.35,0,0.68-0.04,1-0.13c0.33-0.08,0.65-0.21,0.97-0.38v0.85c-0.32,0.14-0.65,0.24-0.99,0.31s-0.68,0.11-1.03,0.11
		c-0.87,0-1.56-0.25-2.08-0.76c-0.51-0.51-0.76-1.2-0.76-2.06c0-0.89,0.24-1.61,0.72-2.13c0.48-0.53,1.14-0.79,1.96-0.79
		c0.74,0,1.32,0.24,1.74,0.71C446.81,389.93,447.02,390.57,447.02,391.38 M446.12,391.12c0-0.49-0.15-0.88-0.42-1.18
		c-0.27-0.29-0.62-0.44-1.06-0.44c-0.5,0-0.9,0.14-1.21,0.42c-0.3,0.28-0.47,0.68-0.52,1.2L446.12,391.12L446.12,391.12z"/>
	<polygon class="st4" points="453.62,394.34 450.84,387.05 451.87,387.05 454.18,393.19 456.49,387.05 457.52,387.05 454.74,394.34 
		453.62,394.34 	"/>
	<polygon class="st4" points="284.65,400.73 290.82,400.73 290.82,401.56 288.23,401.56 288.23,408.02 287.24,408.02 287.24,401.56 
		284.65,401.56 284.65,400.73 	"/>
	<path class="st4" d="M292.46,408.53c-0.25,0.65-0.5,1.07-0.74,1.27s-0.56,0.3-0.97,0.3h-0.72v-0.75h0.53
		c0.25,0,0.44-0.06,0.58-0.18s0.29-0.4,0.45-0.83l0.16-0.41l-2.21-5.38h0.95l1.71,4.28l1.71-4.28h0.95L292.46,408.53L292.46,408.53z
		"/>
	<path class="st4" d="M297.05,407.2v2.9h-0.9v-7.55h0.9v0.83c0.19-0.33,0.42-0.57,0.71-0.72c0.29-0.16,0.63-0.24,1.04-0.24
		c0.66,0,1.2,0.26,1.62,0.79s0.62,1.22,0.62,2.08s-0.21,1.55-0.62,2.08s-0.95,0.79-1.62,0.79c-0.4,0-0.75-0.08-1.04-0.23
		C297.48,407.77,297.24,407.53,297.05,407.2 M300.11,405.29c0-0.66-0.14-1.18-0.41-1.55c-0.27-0.38-0.64-0.57-1.12-0.57
		s-0.85,0.19-1.12,0.57c-0.27,0.38-0.41,0.89-0.41,1.55s0.14,1.18,0.41,1.56c0.27,0.38,0.65,0.56,1.12,0.56s0.85-0.19,1.12-0.56
		C299.97,406.47,300.11,405.95,300.11,405.29L300.11,405.29z"/>
	<path class="st4" d="M307.1,405.06v0.44h-4.13c0.04,0.62,0.22,1.09,0.56,1.42c0.34,0.32,0.8,0.48,1.4,0.48c0.35,0,0.68-0.04,1-0.13
		c0.33-0.08,0.65-0.21,0.97-0.38v0.85c-0.32,0.14-0.65,0.24-0.99,0.31s-0.68,0.11-1.03,0.11c-0.87,0-1.56-0.25-2.08-0.76
		c-0.51-0.51-0.76-1.2-0.76-2.06c0-0.89,0.24-1.61,0.72-2.13c0.48-0.53,1.14-0.79,1.96-0.79c0.74,0,1.32,0.24,1.74,0.71
		C306.89,403.61,307.1,404.25,307.1,405.06 M306.2,404.8c0-0.49-0.15-0.88-0.42-1.18s-0.62-0.44-1.06-0.44
		c-0.5,0-0.9,0.14-1.21,0.42c-0.3,0.28-0.47,0.68-0.52,1.2L306.2,404.8L306.2,404.8z"/>
	<line class="st3" x1="73" y1="379.7" x2="69.5" y2="379.7"/>
	<path class="st4" d="M62.74,376.9c-0.51,0-0.89,0.25-1.15,0.75c-0.25,0.5-0.38,1.25-0.38,2.25c0,1,0.13,1.75,0.38,2.25
		c0.26,0.5,0.64,0.75,1.15,0.75c0.51,0,0.89-0.25,1.15-0.75c0.26-0.5,0.39-1.25,0.39-2.25c0-1-0.13-1.75-0.39-2.25
		C63.63,377.15,63.25,376.9,62.74,376.9 M62.74,376.12c0.82,0,1.44,0.32,1.87,0.97c0.43,0.64,0.65,1.58,0.65,2.81
		c0,1.23-0.21,2.16-0.65,2.81c-0.43,0.64-1.05,0.97-1.87,0.97c-0.82,0-1.44-0.32-1.88-0.97c-0.43-0.65-0.64-1.59-0.64-2.81
		c0-1.23,0.21-2.17,0.64-2.81C61.3,376.44,61.92,376.12,62.74,376.12L62.74,376.12z"/>
	<line class="st3" x1="73" y1="333.69" x2="69.5" y2="333.69"/>
	<path class="st4" d="M60.64,330.17h3.87V331h-2.97v1.79c0.14-0.05,0.29-0.08,0.43-0.11c0.14-0.02,0.29-0.04,0.43-0.04
		c0.82,0,1.46,0.22,1.93,0.67c0.47,0.44,0.71,1.05,0.71,1.81c0,0.79-0.24,1.4-0.73,1.83c-0.49,0.43-1.18,0.65-2.07,0.65
		c-0.31,0-0.62-0.02-0.94-0.08c-0.32-0.05-0.64-0.13-0.98-0.23v-0.99c0.29,0.16,0.6,0.28,0.91,0.36c0.31,0.08,0.64,0.12,0.99,0.12
		c0.56,0,1.01-0.15,1.34-0.44c0.33-0.3,0.49-0.7,0.49-1.21s-0.17-0.91-0.49-1.21c-0.33-0.3-0.78-0.44-1.34-0.44
		c-0.26,0-0.53,0.03-0.79,0.09c-0.26,0.06-0.53,0.15-0.8,0.27V330.17L60.64,330.17z"/>
	<line class="st3" x1="73" y1="287.68" x2="69.5" y2="287.68"/>
	<polygon class="st4" points="54.56,290.55 56.17,290.55 56.17,284.99 54.42,285.34 54.42,284.44 56.16,284.09 57.15,284.09 
		57.15,290.55 58.76,290.55 58.76,291.38 54.56,291.38 54.56,290.55 	"/>
	<path class="st4" d="M62.74,284.74c-0.51,0-0.89,0.25-1.15,0.75c-0.25,0.5-0.38,1.25-0.38,2.25c0,1,0.13,1.75,0.38,2.25
		c0.26,0.5,0.64,0.75,1.15,0.75c0.51,0,0.89-0.25,1.15-0.75c0.26-0.5,0.39-1.25,0.39-2.25c0-1-0.13-1.75-0.39-2.25
		C63.63,284.99,63.25,284.74,62.74,284.74 M62.74,283.96c0.82,0,1.44,0.32,1.87,0.97c0.43,0.64,0.65,1.58,0.65,2.81
		c0,1.23-0.21,2.16-0.65,2.81c-0.43,0.64-1.05,0.97-1.87,0.97c-0.82,0-1.44-0.32-1.88-0.97c-0.43-0.65-0.64-1.59-0.64-2.81
		c0-1.23,0.21-2.17,0.64-2.81C61.3,284.28,61.92,283.96,62.74,283.96L62.74,283.96z"/>
	<line class="st3" x1="73" y1="241.66" x2="69.5" y2="241.66"/>
	<polygon class="st4" points="54.56,244.71 56.17,244.71 56.17,239.15 54.42,239.5 54.42,238.6 56.16,238.25 57.15,238.25 
		57.15,244.71 58.76,244.71 58.76,245.54 54.56,245.54 54.56,244.71 	"/>
	<path class="st4" d="M60.64,238.25h3.87v0.83h-2.97v1.79c0.14-0.05,0.29-0.08,0.43-0.11c0.14-0.02,0.29-0.04,0.43-0.04
		c0.82,0,1.46,0.22,1.93,0.67c0.47,0.44,0.71,1.05,0.71,1.81c0,0.79-0.24,1.4-0.73,1.83c-0.49,0.43-1.18,0.65-2.07,0.65
		c-0.31,0-0.62-0.02-0.94-0.08c-0.32-0.05-0.64-0.13-0.98-0.23v-0.99c0.29,0.16,0.6,0.28,0.91,0.36c0.31,0.08,0.64,0.12,0.99,0.12
		c0.56,0,1.01-0.15,1.34-0.44c0.33-0.3,0.49-0.7,0.49-1.21s-0.17-0.91-0.49-1.21c-0.33-0.3-0.78-0.44-1.34-0.44
		c-0.26,0-0.53,0.03-0.79,0.09c-0.26,0.06-0.53,0.15-0.8,0.27V238.25L60.64,238.25z"/>
	<line class="st3" x1="73" y1="195.65" x2="69.5" y2="195.65"/>
	<path class="st4" d="M55.24,198.63h3.44v0.83h-4.63v-0.83c0.38-0.39,0.88-0.91,1.53-1.56c0.65-0.65,1.05-1.07,1.22-1.26
		c0.32-0.36,0.54-0.65,0.66-0.9c0.13-0.25,0.19-0.49,0.19-0.73c0-0.39-0.14-0.7-0.41-0.95c-0.27-0.24-0.62-0.37-1.06-0.37
		c-0.31,0-0.63,0.05-0.98,0.16c-0.34,0.11-0.71,0.27-1.1,0.49v-1c0.4-0.16,0.77-0.28,1.11-0.36s0.66-0.12,0.95-0.12
		c0.76,0,1.36,0.19,1.81,0.57s0.67,0.88,0.67,1.51c0,0.3-0.06,0.59-0.17,0.85s-0.31,0.58-0.61,0.95c-0.08,0.09-0.34,0.37-0.78,0.82
		C56.65,197.19,56.03,197.82,55.24,198.63L55.24,198.63z"/>
	<path class="st4" d="M62.74,192.82c-0.51,0-0.89,0.25-1.15,0.75c-0.25,0.5-0.38,1.25-0.38,2.25s0.13,1.75,0.38,2.25
		c0.26,0.5,0.64,0.75,1.15,0.75c0.51,0,0.89-0.25,1.15-0.75c0.26-0.5,0.39-1.25,0.39-2.25s-0.13-1.75-0.39-2.25
		C63.63,193.07,63.25,192.82,62.74,192.82 M62.74,192.04c0.82,0,1.44,0.32,1.87,0.97c0.43,0.64,0.65,1.58,0.65,2.81
		c0,1.23-0.21,2.16-0.65,2.81c-0.43,0.64-1.05,0.97-1.87,0.97c-0.82,0-1.44-0.32-1.88-0.97c-0.43-0.65-0.64-1.59-0.64-2.81
		c0-1.23,0.21-2.17,0.64-2.81C61.3,192.36,61.92,192.04,62.74,192.04L62.74,192.04z"/>
	<line class="st3" x1="73" y1="149.64" x2="69.5" y2="149.64"/>
	<path class="st4" d="M55.24,152.55h3.44v0.83h-4.63v-0.83c0.38-0.39,0.88-0.91,1.53-1.56c0.65-0.65,1.05-1.07,1.22-1.26
		c0.32-0.36,0.54-0.65,0.66-0.9c0.13-0.25,0.19-0.49,0.19-0.73c0-0.39-0.14-0.7-0.41-0.95c-0.27-0.24-0.62-0.37-1.06-0.37
		c-0.31,0-0.63,0.05-0.98,0.16c-0.34,0.11-0.71,0.27-1.1,0.49v-1c0.4-0.16,0.77-0.28,1.11-0.36s0.66-0.12,0.95-0.12
		c0.76,0,1.36,0.19,1.81,0.57s0.67,0.88,0.67,1.51c0,0.3-0.06,0.59-0.17,0.85s-0.31,0.58-0.61,0.95c-0.08,0.09-0.34,0.37-0.78,0.82
		C56.65,151.11,56.03,151.74,55.24,152.55L55.24,152.55z"/>
	<path class="st4" d="M60.64,146.09h3.87v0.83h-2.97v1.79c0.14-0.05,0.29-0.08,0.43-0.11c0.14-0.02,0.29-0.04,0.43-0.04
		c0.82,0,1.46,0.22,1.93,0.67c0.47,0.44,0.71,1.05,0.71,1.81c0,0.79-0.24,1.4-0.73,1.83c-0.49,0.43-1.18,0.65-2.07,0.65
		c-0.31,0-0.62-0.02-0.94-0.08c-0.32-0.05-0.64-0.13-0.98-0.23v-0.99c0.29,0.16,0.6,0.28,0.91,0.36c0.31,0.08,0.64,0.12,0.99,0.12
		c0.56,0,1.01-0.15,1.34-0.44c0.33-0.3,0.49-0.7,0.49-1.21s-0.17-0.91-0.49-1.21c-0.33-0.3-0.78-0.44-1.34-0.44
		c-0.26,0-0.53,0.03-0.79,0.09c-0.26,0.06-0.53,0.15-0.8,0.27V146.09L60.64,146.09z"/>
	<line class="st3" x1="73" y1="103.63" x2="69.5" y2="103.63"/>
	<path class="st4" d="M57.38,103.61c0.47,0.1,0.84,0.31,1.1,0.63c0.27,0.32,0.4,0.71,0.4,1.18c0,0.72-0.25,1.27-0.74,1.67
		s-1.2,0.59-2.11,0.59c-0.31,0-0.62-0.03-0.95-0.09c-0.32-0.06-0.65-0.15-1-0.27v-0.95c0.27,0.16,0.57,0.28,0.9,0.36
		s0.66,0.12,1.02,0.12c0.62,0,1.09-0.12,1.41-0.37c0.33-0.24,0.49-0.6,0.49-1.06c0-0.43-0.15-0.77-0.45-1.01
		c-0.3-0.24-0.72-0.37-1.25-0.37h-0.85v-0.81h0.89c0.48,0,0.85-0.1,1.11-0.29c0.26-0.2,0.39-0.47,0.39-0.84
		c0-0.38-0.13-0.66-0.4-0.86c-0.26-0.2-0.64-0.3-1.14-0.3c-0.27,0-0.56,0.03-0.87,0.09s-0.65,0.15-1.02,0.27v-0.88
		c0.38-0.1,0.72-0.18,1.05-0.23s0.64-0.08,0.93-0.08c0.75,0,1.34,0.17,1.78,0.51c0.43,0.34,0.65,0.8,0.65,1.38
		c0,0.41-0.12,0.75-0.35,1.03S57.8,103.5,57.38,103.61L57.38,103.61z"/>
	<path class="st4" d="M62.74,100.9c-0.51,0-0.89,0.25-1.15,0.75c-0.25,0.5-0.38,1.25-0.38,2.25s0.13,1.75,0.38,2.25
		c0.26,0.5,0.64,0.75,1.15,0.75c0.51,0,0.89-0.25,1.15-0.75c0.26-0.5,0.39-1.25,0.39-2.25s-0.13-1.75-0.39-2.25
		C63.63,101.15,63.25,100.9,62.74,100.9 M62.74,100.12c0.82,0,1.44,0.32,1.87,0.97c0.43,0.64,0.65,1.58,0.65,2.81
		c0,1.23-0.21,2.16-0.65,2.81c-0.43,0.64-1.05,0.97-1.87,0.97c-0.82,0-1.44-0.32-1.88-0.97c-0.43-0.65-0.64-1.59-0.64-2.81
		c0-1.23,0.21-2.17,0.64-2.81C61.3,100.44,61.92,100.12,62.74,100.12L62.74,100.12z"/>
	<line class="st3" x1="73" y1="57.62" x2="69.5" y2="57.62"/>
	<path class="st4" d="M57.38,57.53c0.47,0.1,0.84,0.31,1.1,0.63c0.27,0.32,0.4,0.71,0.4,1.18c0,0.72-0.25,1.27-0.74,1.67
		s-1.2,0.59-2.11,0.59c-0.31,0-0.62-0.03-0.95-0.09c-0.32-0.06-0.65-0.15-1-0.27v-0.95c0.27,0.16,0.57,0.28,0.9,0.36
		s0.66,0.12,1.02,0.12c0.62,0,1.09-0.12,1.41-0.37c0.33-0.24,0.49-0.6,0.49-1.06c0-0.43-0.15-0.77-0.45-1.01
		c-0.3-0.24-0.72-0.37-1.25-0.37h-0.85v-0.81h0.89c0.48,0,0.85-0.1,1.11-0.29c0.26-0.2,0.39-0.47,0.39-0.84
		c0-0.38-0.13-0.66-0.4-0.86c-0.26-0.2-0.64-0.3-1.14-0.3c-0.27,0-0.56,0.03-0.87,0.09s-0.65,0.15-1.02,0.27v-0.88
		c0.38-0.1,0.72-0.18,1.05-0.23s0.64-0.08,0.93-0.08c0.75,0,1.34,0.17,1.78,0.51c0.43,0.34,0.65,0.8,0.65,1.38
		c0,0.41-0.12,0.75-0.35,1.03S57.8,57.42,57.38,57.53L57.38,57.53z"/>
	<path class="st4" d="M60.64,54.17h3.87V55h-2.97v1.79c0.14-0.05,0.29-0.08,0.43-0.11c0.14-0.02,0.29-0.04,0.43-0.04
		c0.82,0,1.46,0.22,1.93,0.67c0.47,0.44,0.71,1.05,0.71,1.81c0,0.79-0.24,1.4-0.73,1.83c-0.49,0.43-1.18,0.65-2.07,0.65
		c-0.31,0-0.62-0.02-0.94-0.08c-0.32-0.05-0.64-0.13-0.98-0.23V60.3c0.29,0.16,0.6,0.28,0.91,0.36c0.31,0.08,0.64,0.12,0.99,0.12
		c0.56,0,1.01-0.15,1.34-0.44c0.33-0.3,0.49-0.7,0.49-1.21s-0.17-0.91-0.49-1.21c-0.33-0.3-0.78-0.44-1.34-0.44
		c-0.26,0-0.53,0.03-0.79,0.09c-0.26,0.06-0.53,0.15-0.8,0.27V54.17L60.64,54.17z"/>
	<path class="st4" d="M40.84,233.49h2.74v-1.24c0-0.46-0.12-0.82-0.36-1.06c-0.24-0.25-0.58-0.38-1.02-0.38
		c-0.43,0-0.77,0.13-1.01,0.38s-0.36,0.61-0.36,1.06V233.49 M40.03,234.48v-2.23c0-0.82,0.19-1.44,0.56-1.85
		c0.37-0.42,0.91-0.63,1.62-0.63c0.72,0,1.26,0.21,1.63,0.63c0.37,0.42,0.55,1.04,0.55,1.85v1.24h2.93v0.99H40.03L40.03,234.48z"/>
	<path class="st4" d="M44.36,224.08h0.44v4.13c0.62-0.04,1.09-0.22,1.42-0.56c0.32-0.34,0.48-0.8,0.48-1.4c0-0.35-0.04-0.68-0.13-1
		c-0.08-0.33-0.21-0.65-0.38-0.97h0.85c0.14,0.32,0.24,0.65,0.31,0.99s0.11,0.68,0.11,1.03c0,0.87-0.25,1.56-0.76,2.08
		c-0.51,0.51-1.2,0.76-2.06,0.76c-0.89,0-1.61-0.24-2.13-0.72c-0.53-0.48-0.79-1.14-0.79-1.96c0-0.74,0.24-1.32,0.71-1.74
		C42.91,224.3,43.55,224.08,44.36,224.08 M44.1,224.98c-0.49,0-0.88,0.15-1.18,0.42s-0.44,0.62-0.44,1.06c0,0.5,0.14,0.9,0.42,1.21
		c0.28,0.3,0.68,0.47,1.2,0.52L44.1,224.98L44.1,224.98z"/>
	<path class="st4" d="M42.69,219.59c-0.06,0.1-0.1,0.21-0.13,0.33c-0.03,0.12-0.04,0.25-0.04,0.39c0,0.51,0.17,0.9,0.5,1.17
		c0.33,0.27,0.8,0.41,1.42,0.41h2.88v0.9h-5.47v-0.9h0.85c-0.33-0.19-0.58-0.43-0.74-0.74s-0.24-0.67-0.24-1.1
		c0-0.06,0-0.13,0.01-0.21c0-0.07,0.02-0.16,0.03-0.25L42.69,219.59L42.69,219.59z"/>
	<path class="st4" d="M42.06,214.98h0.84c-0.14,0.25-0.24,0.51-0.31,0.77c-0.07,0.25-0.11,0.51-0.11,0.77
		c0,0.58,0.19,1.04,0.56,1.36c0.37,0.32,0.88,0.48,1.55,0.48s1.19-0.16,1.56-0.48c0.37-0.32,0.55-0.78,0.55-1.36
		c0-0.26-0.03-0.52-0.1-0.77c-0.07-0.26-0.18-0.51-0.32-0.77h0.83c0.12,0.25,0.21,0.51,0.26,0.78s0.09,0.55,0.09,0.85
		c0,0.83-0.26,1.48-0.78,1.96s-1.22,0.73-2.09,0.73c-0.89,0-1.59-0.24-2.1-0.73c-0.51-0.49-0.77-1.16-0.77-2.02
		c0-0.28,0.03-0.55,0.09-0.81C41.86,215.49,41.95,215.23,42.06,214.98L42.06,214.98z"/>
	<path class="st4" d="M44.36,208.72h0.44v4.13c0.62-0.04,1.09-0.22,1.42-0.56c0.32-0.34,0.48-0.8,0.48-1.4c0-0.35-0.04-0.68-0.13-1
		c-0.08-0.33-0.21-0.65-0.38-0.97h0.85c0.14,0.32,0.24,0.65,0.31,0.99s0.11,0.68,0.11,1.03c0,0.87-0.25,1.56-0.76,2.08
		c-0.51,0.51-1.2,0.76-2.06,0.76c-0.89,0-1.61-0.24-2.13-0.72c-0.53-0.48-0.79-1.14-0.79-1.96c0-0.74,0.24-1.32,0.71-1.74
		C42.91,208.94,43.55,208.72,44.36,208.72 M44.1,209.62c-0.49,0-0.88,0.15-1.18,0.42c-0.29,0.27-0.44,0.62-0.44,1.06
		c0,0.5,0.14,0.9,0.42,1.21c0.28,0.3,0.68,0.47,1.2,0.52L44.1,209.62L44.1,209.62z"/>
	<path class="st4" d="M44.02,202.61h3.3v0.9h-3.27c-0.52,0-0.9,0.1-1.16,0.3c-0.26,0.2-0.39,0.5-0.39,0.91
		c0,0.48,0.16,0.87,0.46,1.15c0.31,0.28,0.73,0.42,1.26,0.42h3.09v0.9h-5.47v-0.9h0.85c-0.33-0.21-0.58-0.47-0.74-0.76
		c-0.16-0.29-0.24-0.63-0.24-1.01c0-0.63,0.2-1.1,0.59-1.43C42.69,202.77,43.26,202.61,44.02,202.61L44.02,202.61z"/>
	<path class="st4" d="M40.3,200.03h1.55v-1.85h0.7v1.85h2.97c0.44,0,0.73-0.06,0.86-0.18s0.19-0.37,0.19-0.75v-0.92h0.75v0.92
		c0,0.69-0.13,1.17-0.39,1.44s-0.73,0.4-1.42,0.4h-2.97v0.66h-0.7v-0.66H40.3V200.03L40.3,200.03z"/>
	<path class="st5" d="M73,379.7V53.54 M519.4,379.7V53.54 M73,379.7h446.4 M73,53.54h446.4"/>
	<path class="st6" d="M464.29,105.56h48.11c1.33,0,2-0.67,2-2V60.54c0-1.33-0.67-2-2-2h-48.11c-1.33,0-2,0.67-2,2v43.02
		C462.29,104.89,462.96,105.56,464.29,105.56L464.29,105.56z"/>
	<path class="st4" d="M483.45,63.62v2.74h1.24c0.46,0,0.82-0.12,1.06-0.36s0.38-0.58,0.38-1.02c0-0.43-0.13-0.77-0.38-1.01
		c-0.25-0.24-0.61-0.36-1.06-0.36H483.45 M482.46,62.81h2.23c0.82,0,1.44,0.19,1.85,0.56c0.42,0.37,0.63,0.91,0.63,1.62
		c0,0.72-0.21,1.26-0.63,1.63c-0.42,0.37-1.04,0.55-1.85,0.55h-1.24v2.93h-0.99V62.81L482.46,62.81z"/>
	<path class="st4" d="M489.45,63.62v5.67h1.19c1.01,0,1.74-0.23,2.21-0.68c0.47-0.45,0.7-1.18,0.7-2.16c0-0.98-0.23-1.69-0.7-2.14
		c-0.46-0.45-1.2-0.68-2.21-0.68H489.45 M488.46,62.81h2.03c1.41,0,2.45,0.29,3.11,0.88c0.66,0.59,0.99,1.5,0.99,2.75
		c0,1.25-0.33,2.18-1,2.77c-0.66,0.59-1.7,0.88-3.11,0.88h-2.03V62.81L488.46,62.81z"/>
	<rect x="466.29" y="77.81" class="st2" width="20" height="7"/>
	<polygon class="st4" points="494.18,77.45 495.24,77.45 497.26,80.45 499.27,77.45 500.33,77.45 497.75,81.27 497.75,84.74 
		496.76,84.74 496.76,81.27 494.18,77.45 	"/>
	<path class="st4" d="M504.62,81.78v0.44h-4.13c0.04,0.62,0.22,1.09,0.56,1.42c0.34,0.32,0.8,0.48,1.4,0.48c0.35,0,0.68-0.04,1-0.13
		c0.33-0.08,0.65-0.21,0.97-0.38v0.85c-0.32,0.14-0.65,0.24-0.99,0.31s-0.68,0.11-1.03,0.11c-0.87,0-1.56-0.25-2.08-0.76
		c-0.51-0.51-0.76-1.2-0.76-2.06c0-0.89,0.24-1.61,0.72-2.13c0.48-0.53,1.14-0.79,1.96-0.79c0.74,0,1.32,0.24,1.74,0.71
		C504.41,80.33,504.62,80.97,504.62,81.78 M503.72,81.52c0-0.49-0.15-0.88-0.42-1.18s-0.62-0.44-1.06-0.44
		c-0.5,0-0.9,0.14-1.21,0.42c-0.3,0.28-0.47,0.68-0.52,1.2L503.72,81.52L503.72,81.52z"/>
	<path class="st4" d="M509.67,79.43v0.85c-0.25-0.13-0.52-0.23-0.79-0.29s-0.56-0.1-0.85-0.1c-0.44,0-0.78,0.07-1.01,0.21
		c-0.22,0.14-0.33,0.34-0.33,0.62c0,0.21,0.08,0.37,0.24,0.49c0.16,0.12,0.48,0.23,0.96,0.34l0.31,0.07
		c0.64,0.14,1.09,0.33,1.36,0.58s0.41,0.6,0.41,1.04c0,0.51-0.2,0.91-0.61,1.21c-0.4,0.3-0.95,0.44-1.66,0.44
		c-0.29,0-0.6-0.03-0.92-0.09c-0.32-0.05-0.65-0.14-1-0.25v-0.93c0.33,0.17,0.66,0.3,0.98,0.39c0.32,0.08,0.64,0.13,0.96,0.13
		c0.42,0,0.75-0.07,0.98-0.21c0.23-0.15,0.34-0.35,0.34-0.62c0-0.24-0.08-0.43-0.25-0.56c-0.16-0.13-0.52-0.25-1.08-0.38l-0.31-0.07
		c-0.56-0.12-0.96-0.3-1.21-0.54c-0.25-0.24-0.37-0.58-0.37-1c0-0.51,0.18-0.91,0.55-1.19s0.88-0.42,1.55-0.42
		c0.33,0,0.64,0.02,0.94,0.07S509.42,79.34,509.67,79.43L509.67,79.43z"/>
	<rect x="466.29" y="92.48" class="st1" width="20" height="7"/>
	<polygon class="st4" points="495.18,92.09 496.51,92.09 499.74,98.19 499.74,92.09 500.7,92.09 500.7,99.38 499.37,99.38 
		496.14,93.28 496.14,99.38 495.18,99.38 495.18,92.09 	"/>
	<path class="st4" d="M504.94,94.54c-0.48,0-0.86,0.19-1.14,0.57c-0.28,0.38-0.42,0.89-0.42,1.54c0,0.65,0.14,1.17,0.42,1.55
		c0.28,0.38,0.66,0.56,1.15,0.56c0.48,0,0.86-0.19,1.14-0.57c0.28-0.38,0.42-0.89,0.42-1.54c0-0.65-0.14-1.16-0.42-1.54
		C505.8,94.73,505.42,94.54,504.94,94.54 M504.94,93.78c0.78,0,1.4,0.25,1.84,0.76c0.44,0.51,0.67,1.21,0.67,2.11
		c0,0.89-0.22,1.6-0.67,2.11c-0.44,0.51-1.06,0.76-1.84,0.76c-0.79,0-1.4-0.25-1.85-0.76c-0.44-0.51-0.66-1.22-0.66-2.11
		c0-0.9,0.22-1.6,0.66-2.11C503.54,94.03,504.16,93.78,504.94,93.78L504.94,93.78z"/>
</g>
</svg>
