<?xml version="1.0" encoding="utf-8"?>
<!-- Generator: Adobe Illustrator 26.1.0, SVG Export Plug-In . SVG Version: 6.00 Build 0)  -->
<svg version="1.1" id="Слой_1" xmlns="http://www.w3.org/2000/svg" xmlns:xlink="http://www.w3.org/1999/xlink" x="0px" y="0px"
	 viewBox="0 0 631.3 284" style="enable-background:new 0 0 631.3 284;" xml:space="preserve">
<style type="text/css">
	.st0{clip-path:url(#SVGID_00000160908457327481810110000008253129162212141708_);fill:#FFFFFF;}
	.st1{fill:#FFFFFF;}
	.st2{clip-path:url(#SVGID_00000067926513946499381060000002506305190592686513_);fill:none;stroke:#000000;stroke-miterlimit:10;}
	
		.st3{clip-path:url(#SVGID_00000067926513946499381060000002506305190592686513_);fill:#9467BD;stroke:#000000;stroke-miterlimit:10;}
	
		.st4{clip-path:url(#SVGID_00000067926513946499381060000002506305190592686513_);fill:#D62728;stroke:#000000;stroke-miterlimit:10;}
	
		.st5{clip-path:url(#SVGID_00000067926513946499381060000002506305190592686513_);fill:#2CA02C;stroke:#000000;stroke-miterlimit:10;}
	
		.st6{clip-path:url(#SVGID_00000067926513946499381060000002506305190592686513_);fill:#FF7F0E;stroke:#000000;stroke-miterlimit:10;}
	
		.st7{clip-path:url(#SVGID_00000067926513946499381060000002506305190592686513_);fill:#1F77B4;stroke:#000000;stroke-miterlimit:10;}
	.st8{stroke:#000000;stroke-width:0.8;stroke-linejoin:round;stroke-miterlimit:10;}
	.st9{fill-rule:evenodd;clip-rule:evenodd;}
	.st10{fill:none;stroke:#000000;stroke-width:0.8;stroke-linecap:square;stroke-miterlimit:10;}
	.st11{fill:#FFFFFF;stroke:#CCCCCC;stroke-miterlimit:10;}
	.st12{fill:#1F77B4;stroke:#000000;stroke-miterlimit:10;}
	.st13{fill:#FF7F0E;stroke:#000000;stroke-miterlimit:10;}
	.st14{fill:#2CA02C;stroke:#000000;stroke-miterlimit:10;}
	.st15{fill:#D62728;stroke:#000000;stroke-miterlimit:10;}
	.st16{fill:#9467BD;stroke:#000000;stroke-miterlimit:10;}
</style>
<g>
	<g>
		<defs>
			<rect id="SVGID_1_" x="5.83" y="9.93" width="619.64" height="262.13"/>
		</defs>
		<clipPath id="SVGID_00000046334164227689436450000010270798063136479902_">
			<use xlink:href="#SVGID_1_"  style="overflow:visible;"/>
		</clipPath>
		
			<rect x="5.63" y="9.88" style="clip-path:url(#SVGID_00000046334164227689436450000010270798063136479902_);fill:#FFFFFF;" width="619.84" height="262.18"/>
	</g>
	<rect x="52.58" y="17.08" class="st1" width="334.8" height="217.44"/>
	<g>
		<defs>
			<rect id="SVGID_00000142872879106253772180000001291833480031239828_" x="52.58" y="17.08" width="334.8" height="217.44"/>
		</defs>
		<clipPath id="SVGID_00000123409574355266393500000000101146712740606852_">
			<use xlink:href="#SVGID_00000142872879106253772180000001291833480031239828_"  style="overflow:visible;"/>
		</clipPath>
		
			<rect x="119.06" y="234.52" style="clip-path:url(#SVGID_00000123409574355266393500000000101146712740606852_);fill:none;stroke:#000000;stroke-miterlimit:10;" width="12.82" height="0"/>
		
			<rect x="199.15" y="216.56" style="clip-path:url(#SVGID_00000123409574355266393500000000101146712740606852_);fill:#9467BD;stroke:#000000;stroke-miterlimit:10;" width="12.82" height="17.96"/>
		
			<rect x="279.25" y="234.52" style="clip-path:url(#SVGID_00000123409574355266393500000000101146712740606852_);fill:none;stroke:#000000;stroke-miterlimit:10;" width="12.82" height="0"/>
		
			<rect x="359.35" y="216.56" style="clip-path:url(#SVGID_00000123409574355266393500000000101146712740606852_);fill:#9467BD;stroke:#000000;stroke-miterlimit:10;" width="12.82" height="17.96"/>
		
			<rect x="106.24" y="199.8" style="clip-path:url(#SVGID_00000123409574355266393500000000101146712740606852_);fill:#D62728;stroke:#000000;stroke-miterlimit:10;" width="12.82" height="34.71"/>
		
			<rect x="186.34" y="199.8" style="clip-path:url(#SVGID_00000123409574355266393500000000101146712740606852_);fill:#D62728;stroke:#000000;stroke-miterlimit:10;" width="12.82" height="34.71"/>
		
			<rect x="266.43" y="199.8" style="clip-path:url(#SVGID_00000123409574355266393500000000101146712740606852_);fill:#D62728;stroke:#000000;stroke-miterlimit:10;" width="12.82" height="34.71"/>
		
			<rect x="346.53" y="199.8" style="clip-path:url(#SVGID_00000123409574355266393500000000101146712740606852_);fill:#D62728;stroke:#000000;stroke-miterlimit:10;" width="12.82" height="34.71"/>
		
			<rect x="93.43" y="224.94" style="clip-path:url(#SVGID_00000123409574355266393500000000101146712740606852_);fill:#2CA02C;stroke:#000000;stroke-miterlimit:10;" width="12.82" height="9.58"/>
		
			<rect x="173.52" y="193.82" style="clip-path:url(#SVGID_00000123409574355266393500000000101146712740606852_);fill:#2CA02C;stroke:#000000;stroke-miterlimit:10;" width="12.82" height="40.7"/>
		
			<rect x="253.62" y="228.53" style="clip-path:url(#SVGID_00000123409574355266393500000000101146712740606852_);fill:#2CA02C;stroke:#000000;stroke-miterlimit:10;" width="12.82" height="5.99"/>
		
			<rect x="333.71" y="208.18" style="clip-path:url(#SVGID_00000123409574355266393500000000101146712740606852_);fill:#2CA02C;stroke:#000000;stroke-miterlimit:10;" width="12.82" height="26.33"/>
		
			<rect x="80.61" y="27.43" style="clip-path:url(#SVGID_00000123409574355266393500000000101146712740606852_);fill:#FF7F0E;stroke:#000000;stroke-miterlimit:10;" width="12.82" height="207.09"/>
		
			<rect x="160.71" y="75.31" style="clip-path:url(#SVGID_00000123409574355266393500000000101146712740606852_);fill:#FF7F0E;stroke:#000000;stroke-miterlimit:10;" width="12.82" height="159.2"/>
		
			<rect x="240.8" y="27.43" style="clip-path:url(#SVGID_00000123409574355266393500000000101146712740606852_);fill:#FF7F0E;stroke:#000000;stroke-miterlimit:10;" width="12.82" height="207.09"/>
		
			<rect x="320.9" y="64.54" style="clip-path:url(#SVGID_00000123409574355266393500000000101146712740606852_);fill:#FF7F0E;stroke:#000000;stroke-miterlimit:10;" width="12.82" height="169.98"/>
		
			<rect x="67.8" y="202.2" style="clip-path:url(#SVGID_00000123409574355266393500000000101146712740606852_);fill:#1F77B4;stroke:#000000;stroke-miterlimit:10;" width="12.82" height="32.32"/>
		
			<rect x="147.89" y="203.39" style="clip-path:url(#SVGID_00000123409574355266393500000000101146712740606852_);fill:#1F77B4;stroke:#000000;stroke-miterlimit:10;" width="12.82" height="31.12"/>
		
			<rect x="227.99" y="198.61" style="clip-path:url(#SVGID_00000123409574355266393500000000101146712740606852_);fill:#1F77B4;stroke:#000000;stroke-miterlimit:10;" width="12.82" height="35.91"/>
		
			<rect x="308.08" y="199.8" style="clip-path:url(#SVGID_00000123409574355266393500000000101146712740606852_);fill:#1F77B4;stroke:#000000;stroke-miterlimit:10;" width="12.82" height="34.71"/>
	</g>
	<line class="st8" x1="99.84" y1="234.52" x2="99.84" y2="238.02"/>
	<path class="st9" d="M92.91,242.48v1.04c-0.33-0.31-0.69-0.54-1.06-0.69c-0.38-0.15-0.77-0.23-1.2-0.23
		c-0.83,0-1.47,0.25-1.91,0.77c-0.44,0.51-0.66,1.25-0.66,2.21s0.22,1.69,0.66,2.21c0.44,0.51,1.08,0.76,1.91,0.76
		c0.42,0,0.82-0.08,1.2-0.23s0.73-0.39,1.06-0.69v1.03c-0.35,0.23-0.71,0.41-1.1,0.53s-0.79,0.18-1.22,0.18
		c-1.1,0-1.97-0.34-2.61-1.01c-0.63-0.68-0.95-1.6-0.95-2.77c0-1.17,0.32-2.09,0.95-2.77c0.63-0.68,1.5-1.02,2.61-1.02
		c0.43,0,0.84,0.06,1.23,0.18C92.21,242.08,92.57,242.25,92.91,242.48L92.91,242.48z"/>
	<path class="st9" d="M96.85,242.89l-1.34,3.63h2.68L96.85,242.89 M96.29,241.92h1.12l2.78,7.29h-1.03l-0.66-1.87h-3.29l-0.66,1.87
		h-1.04L96.29,241.92L96.29,241.92z"/>
	<polygon class="st9" points="101.63,248.38 103.24,248.38 103.24,242.82 101.49,243.17 101.49,242.27 103.23,241.92 104.22,241.92 
		104.22,248.38 105.83,248.38 105.83,249.21 101.63,249.21 101.63,248.38 	"/>
	<polygon class="st9" points="107.45,241.92 112.14,241.92 112.14,242.34 109.49,249.21 108.46,249.21 110.95,242.75 107.45,242.75 
		107.45,241.92 	"/>
	<line class="st8" x1="179.93" y1="234.52" x2="179.93" y2="238.02"/>
	<path class="st9" d="M168.99,242.48v1.04c-0.33-0.31-0.69-0.54-1.06-0.69c-0.38-0.15-0.77-0.23-1.2-0.23
		c-0.83,0-1.47,0.25-1.91,0.77c-0.44,0.51-0.66,1.25-0.66,2.21s0.22,1.69,0.66,2.21c0.44,0.51,1.08,0.76,1.91,0.76
		c0.42,0,0.82-0.08,1.2-0.23s0.73-0.39,1.06-0.69v1.03c-0.35,0.23-0.71,0.41-1.1,0.53s-0.79,0.18-1.22,0.18
		c-1.1,0-1.97-0.34-2.61-1.01c-0.63-0.68-0.95-1.6-0.95-2.77c0-1.17,0.32-2.09,0.95-2.77c0.63-0.68,1.5-1.02,2.61-1.02
		c0.43,0,0.84,0.06,1.23,0.18C168.29,242.08,168.65,242.25,168.99,242.48L168.99,242.48z"/>
	<polygon class="st9" points="174.11,242.94 174.11,245.66 176.83,245.66 176.83,246.49 174.11,246.49 174.11,249.21 173.29,249.21 
		173.29,246.49 170.57,246.49 170.57,245.66 173.29,245.66 173.29,242.94 174.11,242.94 	"/>
	<path class="st9" d="M181.33,242.89l-1.34,3.63h2.68L181.33,242.89 M180.77,241.92h1.12l2.78,7.29h-1.03l-0.66-1.87h-3.29
		l-0.66,1.87h-1.04L180.77,241.92L180.77,241.92z"/>
	<polygon class="st9" points="185.87,248.38 187.48,248.38 187.48,242.82 185.73,243.17 185.73,242.27 187.47,241.92 188.46,241.92 
		188.46,248.38 190.07,248.38 190.07,249.21 185.87,249.21 185.87,248.38 	"/>
	<polygon class="st9" points="191.93,241.92 196.62,241.92 196.62,242.34 193.97,249.21 192.94,249.21 195.43,242.75 191.93,242.75 
		191.93,241.92 	"/>
	<line class="st8" x1="260.03" y1="234.52" x2="260.03" y2="238.02"/>
	<path class="st9" d="M253.23,242.48v1.04c-0.33-0.31-0.69-0.54-1.06-0.69c-0.38-0.15-0.77-0.23-1.2-0.23
		c-0.83,0-1.47,0.25-1.91,0.77c-0.44,0.51-0.66,1.25-0.66,2.21s0.22,1.69,0.66,2.21c0.44,0.51,1.08,0.76,1.91,0.76
		c0.42,0,0.82-0.08,1.2-0.23s0.73-0.39,1.06-0.69v1.03c-0.35,0.23-0.71,0.41-1.1,0.53s-0.79,0.18-1.22,0.18
		c-1.1,0-1.97-0.34-2.61-1.01c-0.63-0.68-0.95-1.6-0.95-2.77c0-1.17,0.32-2.09,0.95-2.77c0.63-0.68,1.5-1.02,2.61-1.02
		c0.43,0,0.84,0.06,1.23,0.18C252.53,242.08,252.89,242.25,253.23,242.48L253.23,242.48z"/>
	<path class="st9" d="M257.17,242.89l-1.34,3.63h2.68L257.17,242.89 M256.61,241.92h1.12l2.78,7.29h-1.03l-0.66-1.87h-3.29
		l-0.66,1.87h-1.04L256.61,241.92L256.61,241.92z"/>
	<polygon class="st9" points="261.71,248.38 263.32,248.38 263.32,242.82 261.57,243.17 261.57,242.27 263.31,241.92 264.3,241.92 
		264.3,248.38 265.91,248.38 265.91,249.21 261.71,249.21 261.71,248.38 	"/>
	<path class="st9" d="M268.05,249.06v-0.9c0.25,0.12,0.5,0.21,0.75,0.27s0.5,0.09,0.75,0.09c0.65,0,1.15-0.22,1.49-0.65
		c0.35-0.44,0.54-1.1,0.59-2c-0.19,0.28-0.43,0.49-0.72,0.64s-0.61,0.22-0.96,0.22c-0.73,0-1.31-0.22-1.73-0.66
		c-0.42-0.44-0.63-1.04-0.63-1.81c0-0.75,0.22-1.35,0.66-1.8s1.03-0.68,1.77-0.68c0.84,0,1.48,0.32,1.93,0.97
		c0.44,0.64,0.67,1.58,0.67,2.81c0,1.15-0.27,2.07-0.82,2.75c-0.54,0.68-1.27,1.03-2.2,1.03c-0.25,0-0.5-0.02-0.75-0.07
		S268.32,249.16,268.05,249.06 M270.01,245.97c0.44,0,0.79-0.15,1.05-0.45s0.39-0.72,0.39-1.25c0-0.52-0.13-0.94-0.39-1.24
		c-0.26-0.31-0.61-0.46-1.05-0.46s-0.8,0.15-1.05,0.46c-0.26,0.3-0.39,0.72-0.39,1.24c0,0.53,0.13,0.94,0.39,1.25
		S269.57,245.97,270.01,245.97L270.01,245.97z"/>
	<line class="st8" x1="340.12" y1="234.52" x2="340.12" y2="238.02"/>
	<path class="st9" d="M329.07,242.48v1.04c-0.33-0.31-0.69-0.54-1.06-0.69c-0.38-0.15-0.77-0.23-1.2-0.23
		c-0.83,0-1.47,0.25-1.91,0.77c-0.44,0.51-0.66,1.25-0.66,2.21s0.22,1.69,0.66,2.21c0.44,0.51,1.08,0.76,1.91,0.76
		c0.42,0,0.82-0.08,1.2-0.23s0.73-0.39,1.06-0.69v1.03c-0.35,0.23-0.71,0.41-1.1,0.53s-0.79,0.18-1.22,0.18
		c-1.1,0-1.97-0.34-2.61-1.01c-0.63-0.68-0.95-1.6-0.95-2.77c0-1.17,0.32-2.09,0.95-2.77c0.63-0.68,1.5-1.02,2.61-1.02
		c0.43,0,0.84,0.06,1.23,0.18C328.37,242.08,328.73,242.25,329.07,242.48L329.07,242.48z"/>
	<polygon class="st9" points="334.19,242.94 334.19,245.66 336.91,245.66 336.91,246.49 334.19,246.49 334.19,249.21 333.37,249.21 
		333.37,246.49 330.65,246.49 330.65,245.66 333.37,245.66 333.37,242.94 334.19,242.94 	"/>
	<path class="st9" d="M341.41,242.89l-1.34,3.63h2.68L341.41,242.89 M340.85,241.92h1.12l2.78,7.29h-1.03l-0.66-1.87h-3.29
		l-0.66,1.87h-1.04L340.85,241.92L340.85,241.92z"/>
	<polygon class="st9" points="346.19,248.38 347.8,248.38 347.8,242.82 346.05,243.17 346.05,242.27 347.79,241.92 348.78,241.92 
		348.78,248.38 350.39,248.38 350.39,249.21 346.19,249.21 346.19,248.38 	"/>
	<path class="st9" d="M352.29,249.06v-0.9c0.25,0.12,0.5,0.21,0.75,0.27s0.5,0.09,0.75,0.09c0.65,0,1.15-0.22,1.49-0.65
		c0.35-0.44,0.54-1.1,0.59-2c-0.19,0.28-0.43,0.49-0.72,0.64s-0.61,0.22-0.96,0.22c-0.73,0-1.31-0.22-1.73-0.66
		c-0.42-0.44-0.63-1.04-0.63-1.81c0-0.75,0.22-1.35,0.66-1.8s1.03-0.68,1.77-0.68c0.84,0,1.48,0.32,1.93,0.97
		c0.44,0.64,0.67,1.58,0.67,2.81c0,1.15-0.27,2.07-0.82,2.75c-0.54,0.68-1.27,1.03-2.2,1.03c-0.25,0-0.5-0.02-0.75-0.07
		S352.56,249.16,352.29,249.06 M354.25,245.97c0.44,0,0.79-0.15,1.05-0.45s0.39-0.72,0.39-1.25c0-0.52-0.13-0.94-0.39-1.24
		c-0.26-0.31-0.61-0.46-1.05-0.46s-0.8,0.15-1.05,0.46c-0.26,0.3-0.39,0.72-0.39,1.24c0,0.53,0.13,0.94,0.39,1.25
		S353.81,245.97,354.25,245.97L354.25,245.97z"/>
	<path class="st9" d="M209.51,258.47c0.22-0.41,0.49-0.7,0.81-0.89s0.68-0.29,1.1-0.29c0.57,0,1.01,0.2,1.32,0.6
		c0.31,0.4,0.46,0.96,0.46,1.7v3.3h-0.9v-3.27c0-0.52-0.09-0.91-0.28-1.17s-0.47-0.38-0.85-0.38c-0.46,0-0.83,0.16-1.1,0.46
		s-0.41,0.73-0.41,1.26v3.09h-0.9v-3.27c0-0.53-0.09-0.92-0.28-1.17c-0.19-0.25-0.47-0.38-0.86-0.38c-0.46,0-0.83,0.16-1.09,0.47
		c-0.27,0.31-0.41,0.73-0.41,1.26v3.09h-0.9v-5.47h0.9v0.85c0.21-0.34,0.45-0.58,0.74-0.74s0.62-0.24,1.02-0.24s0.73,0.1,1.01,0.3
		S209.38,258.08,209.51,258.47L209.51,258.47z"/>
	<path class="st9" d="M217.21,258.05c-0.48,0-0.86,0.19-1.14,0.57s-0.42,0.89-0.42,1.54s0.14,1.17,0.42,1.55s0.66,0.56,1.15,0.56
		c0.48,0,0.86-0.19,1.14-0.57s0.42-0.89,0.42-1.54s-0.14-1.16-0.42-1.54C218.07,258.24,217.69,258.05,217.21,258.05 M217.21,257.29
		c0.78,0,1.4,0.25,1.84,0.76c0.44,0.51,0.67,1.21,0.67,2.11c0,0.89-0.22,1.6-0.67,2.11c-0.44,0.51-1.06,0.76-1.84,0.76
		c-0.79,0-1.4-0.25-1.85-0.76c-0.44-0.51-0.66-1.22-0.66-2.11c0-0.9,0.22-1.6,0.66-2.11C215.81,257.54,216.43,257.29,217.21,257.29
		L217.21,257.29z"/>
	<path class="st9" d="M224.69,258.25v-2.96h0.9v7.6h-0.9v-0.82c-0.19,0.33-0.43,0.57-0.72,0.73c-0.29,0.16-0.63,0.23-1.04,0.23
		c-0.66,0-1.2-0.26-1.62-0.79c-0.42-0.53-0.62-1.22-0.62-2.08s0.21-1.55,0.62-2.08c0.42-0.53,0.96-0.79,1.62-0.79
		c0.41,0,0.75,0.08,1.04,0.24C224.26,257.68,224.5,257.92,224.69,258.25 M221.63,260.16c0,0.66,0.14,1.18,0.41,1.56
		c0.27,0.38,0.65,0.56,1.12,0.56c0.47,0,0.85-0.19,1.12-0.56c0.27-0.38,0.41-0.9,0.41-1.56s-0.14-1.18-0.41-1.55
		c-0.27-0.38-0.65-0.57-1.12-0.57c-0.47,0-0.85,0.19-1.12,0.57C221.77,258.98,221.63,259.5,221.63,260.16L221.63,260.16z"/>
	<path class="st9" d="M232.25,259.93v0.44h-4.13c0.04,0.62,0.22,1.09,0.56,1.42c0.34,0.32,0.8,0.48,1.4,0.48
		c0.35,0,0.68-0.04,1-0.13c0.33-0.08,0.65-0.21,0.97-0.38v0.85c-0.32,0.14-0.65,0.24-0.99,0.31s-0.68,0.11-1.03,0.11
		c-0.87,0-1.56-0.25-2.08-0.76c-0.51-0.51-0.76-1.2-0.76-2.06c0-0.89,0.24-1.61,0.72-2.13c0.48-0.53,1.14-0.79,1.96-0.79
		c0.74,0,1.32,0.24,1.74,0.71C232.03,258.47,232.25,259.11,232.25,259.93 M231.35,259.67c0-0.49-0.15-0.88-0.42-1.18
		s-0.62-0.44-1.06-0.44c-0.5,0-0.9,0.14-1.21,0.42c-0.3,0.28-0.47,0.68-0.52,1.2L231.35,259.67L231.35,259.67z"/>
	<polygon class="st9" points="233.81,255.29 234.71,255.29 234.71,262.89 233.81,262.89 233.81,255.29 	"/>
	<line class="st8" x1="52.58" y1="234.52" x2="49.08" y2="234.52"/>
	<path class="st9" d="M42.37,231.77c-0.51,0-0.89,0.25-1.15,0.75c-0.25,0.5-0.38,1.25-0.38,2.25s0.13,1.75,0.38,2.25
		c0.26,0.5,0.64,0.75,1.15,0.75c0.51,0,0.89-0.25,1.15-0.75c0.26-0.5,0.39-1.25,0.39-2.25s-0.13-1.75-0.39-2.25
		C43.26,232.02,42.88,231.77,42.37,231.77 M42.37,230.99c0.82,0,1.44,0.32,1.87,0.97c0.43,0.64,0.65,1.58,0.65,2.81
		c0,1.23-0.21,2.16-0.65,2.81c-0.43,0.64-1.05,0.97-1.87,0.97s-1.44-0.32-1.88-0.97c-0.43-0.65-0.64-1.59-0.64-2.81
		c0-1.23,0.21-2.17,0.64-2.81C40.93,231.31,41.55,230.99,42.37,230.99L42.37,230.99z"/>
	<line class="st8" x1="52.58" y1="204.59" x2="49.08" y2="204.59"/>
	<path class="st9" d="M34.87,207.58h3.44v0.83h-4.63v-0.83c0.38-0.39,0.88-0.91,1.53-1.56c0.65-0.65,1.05-1.07,1.22-1.26
		c0.32-0.36,0.54-0.65,0.66-0.9c0.13-0.25,0.19-0.49,0.19-0.73c0-0.39-0.14-0.7-0.41-0.95c-0.27-0.24-0.62-0.37-1.06-0.37
		c-0.31,0-0.63,0.05-0.98,0.16c-0.34,0.11-0.71,0.27-1.1,0.49v-1c0.4-0.16,0.77-0.28,1.11-0.36c0.35-0.08,0.66-0.12,0.95-0.12
		c0.76,0,1.36,0.19,1.81,0.57c0.45,0.38,0.67,0.88,0.67,1.51c0,0.3-0.06,0.59-0.17,0.85c-0.11,0.27-0.31,0.58-0.61,0.95
		c-0.08,0.09-0.34,0.37-0.78,0.82C36.28,206.14,35.66,206.77,34.87,207.58L34.87,207.58z"/>
	<path class="st9" d="M40.27,201.12h3.87v0.83h-2.97v1.79c0.14-0.05,0.29-0.08,0.43-0.11s0.29-0.04,0.43-0.04
		c0.82,0,1.46,0.22,1.93,0.67s0.71,1.05,0.71,1.81c0,0.79-0.24,1.4-0.73,1.83s-1.18,0.65-2.07,0.65c-0.31,0-0.62-0.02-0.94-0.08
		s-0.64-0.13-0.98-0.23v-0.99c0.29,0.16,0.6,0.28,0.91,0.36s0.64,0.12,0.99,0.12c0.56,0,1.01-0.15,1.34-0.44s0.49-0.7,0.49-1.21
		s-0.17-0.91-0.49-1.21s-0.78-0.44-1.34-0.44c-0.26,0-0.53,0.03-0.79,0.09c-0.26,0.06-0.53,0.15-0.8,0.27V201.12L40.27,201.12z"/>
	<line class="st8" x1="52.58" y1="174.67" x2="49.08" y2="174.67"/>
	<path class="st9" d="M34.03,171.12h3.87v0.83h-2.97v1.79c0.14-0.05,0.29-0.08,0.43-0.11c0.14-0.02,0.29-0.04,0.43-0.04
		c0.82,0,1.46,0.22,1.93,0.67c0.47,0.44,0.71,1.05,0.71,1.81c0,0.79-0.24,1.4-0.73,1.83c-0.49,0.43-1.18,0.65-2.07,0.65
		c-0.31,0-0.62-0.02-0.94-0.08c-0.32-0.05-0.64-0.13-0.98-0.23v-0.99c0.29,0.16,0.6,0.28,0.91,0.36c0.31,0.08,0.64,0.12,0.99,0.12
		c0.56,0,1.01-0.15,1.34-0.44c0.33-0.3,0.49-0.7,0.49-1.21s-0.17-0.91-0.49-1.21c-0.33-0.3-0.78-0.44-1.34-0.44
		c-0.26,0-0.53,0.03-0.79,0.09c-0.26,0.06-0.53,0.15-0.8,0.27V171.12L34.03,171.12z"/>
	<path class="st9" d="M42.37,171.77c-0.51,0-0.89,0.25-1.15,0.75c-0.25,0.5-0.38,1.25-0.38,2.25s0.13,1.75,0.38,2.25
		c0.26,0.5,0.64,0.75,1.15,0.75c0.51,0,0.89-0.25,1.15-0.75c0.26-0.5,0.39-1.25,0.39-2.25s-0.13-1.75-0.39-2.25
		C43.26,172.02,42.88,171.77,42.37,171.77 M42.37,170.99c0.82,0,1.44,0.32,1.87,0.97c0.43,0.64,0.65,1.58,0.65,2.81
		c0,1.23-0.21,2.16-0.65,2.81c-0.43,0.64-1.05,0.97-1.87,0.97s-1.44-0.32-1.88-0.97c-0.43-0.65-0.64-1.59-0.64-2.81
		c0-1.23,0.21-2.17,0.64-2.81C40.93,171.31,41.55,170.99,42.37,170.99L42.37,170.99z"/>
	<line class="st8" x1="52.58" y1="144.74" x2="49.08" y2="144.74"/>
	<polygon class="st9" points="33.77,141.36 38.46,141.36 38.46,141.78 35.81,148.65 34.78,148.65 37.27,142.19 33.77,142.19 
		33.77,141.36 	"/>
	<path class="st9" d="M40.27,141.36h3.87v0.83h-2.97v1.79c0.14-0.05,0.29-0.08,0.43-0.11s0.29-0.04,0.43-0.04
		c0.82,0,1.46,0.22,1.93,0.67s0.71,1.05,0.71,1.81c0,0.79-0.24,1.4-0.73,1.83s-1.18,0.65-2.07,0.65c-0.31,0-0.62-0.02-0.94-0.08
		s-0.64-0.13-0.98-0.23v-0.99c0.29,0.16,0.6,0.28,0.91,0.36s0.64,0.12,0.99,0.12c0.56,0,1.01-0.15,1.34-0.44s0.49-0.7,0.49-1.21
		s-0.17-0.91-0.49-1.21s-0.78-0.44-1.34-0.44c-0.26,0-0.53,0.03-0.79,0.09c-0.26,0.06-0.53,0.15-0.8,0.27V141.36L40.27,141.36z"/>
	<line class="st8" x1="52.58" y1="114.81" x2="49.08" y2="114.81"/>
	<polygon class="st9" points="27.71,117.82 29.32,117.82 29.32,112.26 27.57,112.61 27.57,111.71 29.31,111.36 30.3,111.36 
		30.3,117.82 31.91,117.82 31.91,118.65 27.71,118.65 27.71,117.82 	"/>
	<path class="st9" d="M36.13,112.01c-0.51,0-0.89,0.25-1.15,0.75c-0.25,0.5-0.38,1.25-0.38,2.25s0.13,1.75,0.38,2.25
		c0.26,0.5,0.64,0.75,1.15,0.75c0.51,0,0.89-0.25,1.15-0.75c0.26-0.5,0.39-1.25,0.39-2.25s-0.13-1.75-0.39-2.25
		C37.02,112.26,36.64,112.01,36.13,112.01 M36.13,111.23c0.82,0,1.44,0.32,1.87,0.97c0.43,0.64,0.65,1.58,0.65,2.81
		c0,1.23-0.21,2.16-0.65,2.81c-0.43,0.64-1.05,0.97-1.87,0.97c-0.82,0-1.44-0.32-1.88-0.97c-0.43-0.65-0.64-1.59-0.64-2.81
		c0-1.23,0.21-2.17,0.64-2.81C34.69,111.55,35.31,111.23,36.13,111.23L36.13,111.23z"/>
	<path class="st9" d="M42.37,112.01c-0.51,0-0.89,0.25-1.15,0.75c-0.25,0.5-0.38,1.25-0.38,2.25s0.13,1.75,0.38,2.25
		c0.26,0.5,0.64,0.75,1.15,0.75c0.51,0,0.89-0.25,1.15-0.75c0.26-0.5,0.39-1.25,0.39-2.25s-0.13-1.75-0.39-2.25
		C43.26,112.26,42.88,112.01,42.37,112.01 M42.37,111.23c0.82,0,1.44,0.32,1.87,0.97c0.43,0.64,0.65,1.58,0.65,2.81
		c0,1.23-0.21,2.16-0.65,2.81c-0.43,0.64-1.05,0.97-1.87,0.97s-1.44-0.32-1.88-0.97c-0.43-0.65-0.64-1.59-0.64-2.81
		c0-1.23,0.21-2.17,0.64-2.81C40.93,111.55,41.55,111.23,42.37,111.23L42.37,111.23z"/>
	<line class="st8" x1="52.58" y1="84.89" x2="49.08" y2="84.89"/>
	<polygon class="st9" points="27.71,87.82 29.32,87.82 29.32,82.26 27.57,82.61 27.57,81.71 29.31,81.36 30.3,81.36 30.3,87.82 
		31.91,87.82 31.91,88.65 27.71,88.65 27.71,87.82 	"/>
	<path class="st9" d="M34.87,87.82h3.44v0.83h-4.63v-0.83c0.38-0.39,0.88-0.91,1.53-1.56c0.65-0.65,1.05-1.07,1.22-1.26
		c0.32-0.36,0.54-0.65,0.66-0.9c0.13-0.25,0.19-0.49,0.19-0.73c0-0.39-0.14-0.7-0.41-0.95c-0.27-0.24-0.62-0.37-1.06-0.37
		c-0.31,0-0.63,0.05-0.98,0.16c-0.34,0.11-0.71,0.27-1.1,0.49v-1c0.4-0.16,0.77-0.28,1.11-0.36c0.35-0.08,0.66-0.12,0.95-0.12
		c0.76,0,1.36,0.19,1.81,0.57c0.45,0.38,0.67,0.88,0.67,1.51c0,0.3-0.06,0.59-0.17,0.85c-0.11,0.27-0.31,0.58-0.61,0.95
		c-0.08,0.09-0.34,0.37-0.78,0.82C36.28,86.38,35.66,87.01,34.87,87.82L34.87,87.82z"/>
	<path class="st9" d="M40.27,81.36h3.87v0.83h-2.97v1.79c0.14-0.05,0.29-0.08,0.43-0.11s0.29-0.04,0.43-0.04
		c0.82,0,1.46,0.22,1.93,0.67s0.71,1.05,0.71,1.81c0,0.79-0.24,1.4-0.73,1.83s-1.18,0.65-2.07,0.65c-0.31,0-0.62-0.02-0.94-0.08
		s-0.64-0.13-0.98-0.23v-0.99c0.29,0.16,0.6,0.28,0.91,0.36s0.64,0.12,0.99,0.12c0.56,0,1.01-0.15,1.34-0.44s0.49-0.7,0.49-1.21
		s-0.17-0.91-0.49-1.21s-0.78-0.44-1.34-0.44c-0.26,0-0.53,0.03-0.79,0.09c-0.26,0.06-0.53,0.15-0.8,0.27V81.36L40.27,81.36z"/>
	<line class="st8" x1="52.58" y1="54.96" x2="49.08" y2="54.96"/>
	<polygon class="st9" points="27.71,57.82 29.32,57.82 29.32,52.26 27.57,52.61 27.57,51.71 29.31,51.36 30.3,51.36 30.3,57.82 
		31.91,57.82 31.91,58.65 27.71,58.65 27.71,57.82 	"/>
	<path class="st9" d="M34.03,51.36h3.87v0.83h-2.97v1.79c0.14-0.05,0.29-0.08,0.43-0.11c0.14-0.02,0.29-0.04,0.43-0.04
		c0.82,0,1.46,0.22,1.93,0.67c0.47,0.44,0.71,1.05,0.71,1.81c0,0.79-0.24,1.4-0.73,1.83c-0.49,0.43-1.18,0.65-2.07,0.65
		c-0.31,0-0.62-0.02-0.94-0.08c-0.32-0.05-0.64-0.13-0.98-0.23v-0.99c0.29,0.16,0.6,0.28,0.91,0.36c0.31,0.08,0.64,0.12,0.99,0.12
		c0.56,0,1.01-0.15,1.34-0.44c0.33-0.3,0.49-0.7,0.49-1.21s-0.17-0.91-0.49-1.21c-0.33-0.3-0.78-0.44-1.34-0.44
		c-0.26,0-0.53,0.03-0.79,0.09c-0.26,0.06-0.53,0.15-0.8,0.27V51.36L34.03,51.36z"/>
	<path class="st9" d="M42.37,52.01c-0.51,0-0.89,0.25-1.15,0.75c-0.25,0.5-0.38,1.25-0.38,2.25s0.13,1.75,0.38,2.25
		c0.26,0.5,0.64,0.75,1.15,0.75c0.51,0,0.89-0.25,1.15-0.75c0.26-0.5,0.39-1.25,0.39-2.25s-0.13-1.75-0.39-2.25
		C43.26,52.26,42.88,52.01,42.37,52.01 M42.37,51.23c0.82,0,1.44,0.32,1.87,0.97c0.43,0.64,0.65,1.58,0.65,2.81
		c0,1.23-0.21,2.16-0.65,2.81c-0.43,0.64-1.05,0.97-1.87,0.97s-1.44-0.32-1.88-0.97c-0.43-0.65-0.64-1.59-0.64-2.81
		c0-1.23,0.21-2.17,0.64-2.81C40.93,51.55,41.55,51.23,42.37,51.23L42.37,51.23z"/>
	<line class="st8" x1="52.58" y1="25.04" x2="49.08" y2="25.04"/>
	<polygon class="st9" points="27.71,28.06 29.32,28.06 29.32,22.5 27.57,22.85 27.57,21.95 29.31,21.6 30.3,21.6 30.3,28.06 
		31.91,28.06 31.91,28.89 27.71,28.89 27.71,28.06 	"/>
	<polygon class="st9" points="33.77,21.6 38.46,21.6 38.46,22.02 35.81,28.89 34.78,28.89 37.27,22.43 33.77,22.43 33.77,21.6 	"/>
	<path class="st9" d="M40.27,21.6h3.87v0.83h-2.97v1.79c0.14-0.05,0.29-0.08,0.43-0.11s0.29-0.04,0.43-0.04
		c0.82,0,1.46,0.22,1.93,0.67s0.71,1.05,0.71,1.81c0,0.79-0.24,1.4-0.73,1.83c-0.49,0.43-1.18,0.65-2.07,0.65
		c-0.31,0-0.62-0.02-0.94-0.08c-0.32-0.05-0.64-0.13-0.98-0.23v-0.99c0.29,0.16,0.6,0.28,0.91,0.36c0.31,0.08,0.64,0.12,0.99,0.12
		c0.56,0,1.01-0.15,1.34-0.44c0.33-0.3,0.49-0.7,0.49-1.21c0-0.51-0.17-0.91-0.49-1.21c-0.33-0.3-0.78-0.44-1.34-0.44
		c-0.26,0-0.53,0.03-0.79,0.09c-0.26,0.06-0.53,0.15-0.8,0.27V21.6L40.27,21.6z"/>
	<path class="st9" d="M13.74,134.29h1.04c-0.31,0.33-0.54,0.69-0.69,1.06s-0.23,0.77-0.23,1.2c0,0.83,0.25,1.47,0.77,1.91
		c0.51,0.44,1.25,0.66,2.21,0.66s1.69-0.22,2.21-0.66c0.51-0.44,0.76-1.08,0.76-1.91c0-0.42-0.08-0.82-0.23-1.2
		s-0.39-0.73-0.69-1.06h1.03c0.23,0.35,0.41,0.71,0.53,1.1s0.18,0.79,0.18,1.22c0,1.1-0.34,1.97-1.01,2.61
		c-0.68,0.63-1.6,0.95-2.77,0.95c-1.17,0-2.09-0.32-2.77-0.95c-0.68-0.63-1.02-1.5-1.02-2.61c0-0.43,0.06-0.84,0.18-1.23
		C13.34,134.99,13.51,134.63,13.74,134.29L13.74,134.29z"/>
	<path class="st9" d="M15.63,130.71c0,0.48,0.19,0.86,0.57,1.14c0.38,0.28,0.89,0.42,1.54,0.42s1.17-0.14,1.55-0.42
		s0.56-0.66,0.56-1.15c0-0.48-0.19-0.86-0.57-1.14s-0.89-0.42-1.54-0.42s-1.16,0.14-1.54,0.42
		C15.82,129.85,15.63,130.23,15.63,130.71 M14.87,130.71c0-0.78,0.25-1.4,0.76-1.84c0.51-0.44,1.21-0.67,2.11-0.67
		c0.89,0,1.6,0.22,2.11,0.67c0.51,0.44,0.76,1.06,0.76,1.84c0,0.79-0.25,1.4-0.76,1.85c-0.51,0.44-1.22,0.66-2.11,0.66
		c-0.9,0-1.6-0.22-2.11-0.66C15.12,132.11,14.87,131.49,14.87,130.71L14.87,130.71z"/>
	<path class="st9" d="M18.31,126.68H15v-0.9h3.28c0.52,0,0.91-0.1,1.17-0.3s0.39-0.5,0.39-0.91c0-0.48-0.16-0.87-0.46-1.15
		c-0.31-0.28-0.73-0.42-1.26-0.42H15v-0.9h5.47v0.9h-0.84c0.33,0.22,0.58,0.47,0.74,0.76s0.24,0.62,0.24,1c0,0.63-0.2,1.1-0.59,1.43
		S19.06,126.68,18.31,126.68 M14.87,124.42L14.87,124.42L14.87,124.42z"/>
	<path class="st9" d="M17.17,115.8h3.3v0.9H17.2c-0.52,0-0.9,0.1-1.16,0.3c-0.26,0.2-0.39,0.5-0.39,0.91c0,0.48,0.16,0.87,0.46,1.15
		c0.31,0.28,0.73,0.42,1.26,0.42h3.09v0.9H15v-0.9h0.85c-0.33-0.21-0.58-0.47-0.74-0.76c-0.16-0.29-0.24-0.63-0.24-1.01
		c0-0.63,0.2-1.1,0.59-1.43C15.84,115.96,16.41,115.8,17.17,115.8L17.17,115.8z"/>
	<path class="st9" d="M13.45,112.98H15v-1.85h0.7v1.85h2.97c0.44,0,0.73-0.06,0.86-0.18s0.19-0.37,0.19-0.75v-0.92h0.75v0.92
		c0,0.69-0.13,1.17-0.39,1.44s-0.73,0.4-1.42,0.4H15.7v0.66H15v-0.66h-1.55V112.98L13.45,112.98z"/>
	<path class="st10" d="M52.58,234.52V17.08 M387.38,234.52V17.08 M52.58,234.52h334.8 M52.58,17.08h334.8"/>
	<path class="st11" d="M402.77,115.18h213.5c1.33,0,2-0.67,2-2V40.82c0-1.33-0.67-2-2-2h-213.5c-1.33,0-2,0.67-2,2v72.36
		C400.77,114.51,401.44,115.18,402.77,115.18L402.77,115.18z"/>
	<rect x="404.77" y="43.41" class="st12" width="20" height="7"/>
	<polygon class="st9" points="433.21,45.02 434.11,45.02 435.23,49.29 436.35,45.02 437.41,45.02 438.53,49.29 439.65,45.02 
		440.55,45.02 439.12,50.49 438.06,50.49 436.88,46.01 435.7,50.49 434.64,50.49 433.21,45.02 	"/>
	<path class="st9" d="M441.89,45.02h0.9v5.47h-0.9V45.02 M441.89,42.89h0.9v1.14h-0.9V42.89L441.89,42.89z"/>
	<path class="st9" d="M445.66,43.47v1.55h1.85v0.7h-1.85v2.97c0,0.44,0.06,0.73,0.18,0.86s0.37,0.19,0.75,0.19h0.92v0.75h-0.92
		c-0.69,0-1.17-0.13-1.44-0.39s-0.4-0.73-0.4-1.42v-2.97h-0.66v-0.7h0.66v-1.55H445.66L445.66,43.47z"/>
	<path class="st9" d="M453.16,47.19v3.3h-0.9v-3.27c0-0.52-0.1-0.9-0.3-1.16s-0.5-0.39-0.91-0.39c-0.48,0-0.87,0.16-1.15,0.46
		s-0.42,0.73-0.42,1.26v3.09h-0.9v-7.6h0.9v2.98c0.21-0.33,0.47-0.58,0.76-0.74c0.29-0.16,0.63-0.24,1.01-0.24
		c0.63,0,1.1,0.2,1.43,0.59C453,45.86,453.16,46.43,453.16,47.19L453.16,47.19z"/>
	<path class="st9" d="M456.97,45.65c-0.48,0-0.86,0.19-1.14,0.57s-0.42,0.89-0.42,1.54s0.14,1.17,0.42,1.55s0.66,0.56,1.15,0.56
		c0.48,0,0.86-0.19,1.14-0.57s0.42-0.89,0.42-1.54s-0.14-1.16-0.42-1.54C457.83,45.84,457.45,45.65,456.97,45.65 M456.97,44.89
		c0.78,0,1.4,0.25,1.84,0.76c0.44,0.51,0.67,1.21,0.67,2.11c0,0.89-0.22,1.6-0.67,2.11c-0.44,0.51-1.06,0.76-1.84,0.76
		c-0.79,0-1.4-0.25-1.85-0.76c-0.44-0.51-0.66-1.22-0.66-2.11c0-0.9,0.22-1.6,0.66-2.11C455.57,45.14,456.19,44.89,456.97,44.89
		L456.97,44.89z"/>
	<path class="st9" d="M461,48.33v-3.31h0.9v3.28c0,0.52,0.1,0.91,0.3,1.17s0.5,0.39,0.91,0.39c0.48,0,0.87-0.16,1.15-0.46
		c0.28-0.31,0.42-0.73,0.42-1.26v-3.1h0.9v5.47h-0.9v-0.84c-0.22,0.33-0.47,0.58-0.76,0.74s-0.62,0.24-1,0.24
		c-0.63,0-1.1-0.2-1.43-0.59S461,49.08,461,48.33 M463.26,44.89L463.26,44.89L463.26,44.89z"/>
	<path class="st9" d="M468.22,43.47v1.55h1.85v0.7h-1.85v2.97c0,0.44,0.06,0.73,0.18,0.86s0.37,0.19,0.75,0.19h0.92v0.75h-0.92
		c-0.69,0-1.17-0.13-1.44-0.39s-0.4-0.73-0.4-1.42v-2.97h-0.66v-0.7h0.66v-1.55H468.22L468.22,43.47z"/>
	<path class="st9" d="M474.53,45.02h0.9v5.47h-0.9V45.02 M474.53,42.89h0.9v1.14h-0.9V42.89L474.53,42.89z"/>
	<path class="st9" d="M481.72,47.19v3.3h-0.9v-3.27c0-0.52-0.1-0.9-0.3-1.16c-0.2-0.26-0.5-0.39-0.91-0.39
		c-0.48,0-0.87,0.16-1.15,0.46s-0.42,0.73-0.42,1.26v3.09h-0.9v-5.47h0.9v0.85c0.21-0.33,0.47-0.58,0.76-0.74
		c0.29-0.16,0.63-0.24,1.01-0.24c0.63,0,1.1,0.2,1.43,0.59C481.56,45.86,481.72,46.43,481.72,47.19L481.72,47.19z"/>
	<path class="st9" d="M484.54,43.47v1.55h1.85v0.7h-1.85v2.97c0,0.44,0.06,0.73,0.18,0.86s0.37,0.19,0.75,0.19h0.92v0.75h-0.92
		c-0.69,0-1.17-0.13-1.44-0.39s-0.4-0.73-0.4-1.42v-2.97h-0.66v-0.7h0.66v-1.55H484.54L484.54,43.47z"/>
	<path class="st9" d="M492.17,47.53v0.44h-4.13c0.04,0.62,0.22,1.09,0.56,1.42c0.34,0.32,0.8,0.48,1.4,0.48c0.35,0,0.68-0.04,1-0.13
		c0.33-0.08,0.65-0.21,0.97-0.38v0.85c-0.32,0.14-0.65,0.24-0.99,0.31s-0.68,0.11-1.03,0.11c-0.87,0-1.56-0.25-2.08-0.76
		c-0.51-0.51-0.76-1.2-0.76-2.06c0-0.89,0.24-1.61,0.72-2.13c0.48-0.53,1.14-0.79,1.96-0.79c0.74,0,1.32,0.24,1.74,0.71
		C491.95,46.07,492.17,46.71,492.17,47.53 M491.27,47.27c0-0.49-0.15-0.88-0.42-1.18s-0.62-0.44-1.06-0.44
		c-0.5,0-0.9,0.14-1.21,0.42c-0.3,0.28-0.47,0.68-0.52,1.2L491.27,47.27L491.27,47.27z"/>
	<path class="st9" d="M496.9,45.86c-0.1-0.06-0.21-0.1-0.33-0.13c-0.12-0.03-0.25-0.04-0.39-0.04c-0.51,0-0.9,0.17-1.17,0.5
		c-0.27,0.33-0.41,0.8-0.41,1.42v2.88h-0.9v-5.47h0.9v0.85c0.19-0.33,0.43-0.58,0.74-0.74c0.3-0.16,0.67-0.24,1.1-0.24
		c0.06,0,0.13,0,0.21,0.01c0.07,0,0.16,0.02,0.25,0.03L496.9,45.86L496.9,45.86z"/>
	<path class="st9" d="M501.3,45.18v0.85c-0.25-0.13-0.52-0.23-0.79-0.29c-0.27-0.06-0.56-0.1-0.85-0.1c-0.44,0-0.78,0.07-1.01,0.21
		c-0.22,0.14-0.33,0.34-0.33,0.62c0,0.21,0.08,0.37,0.24,0.49c0.16,0.12,0.48,0.23,0.96,0.34l0.31,0.07
		c0.64,0.14,1.09,0.33,1.36,0.58c0.27,0.25,0.41,0.6,0.41,1.04c0,0.51-0.2,0.91-0.61,1.21c-0.4,0.3-0.95,0.44-1.66,0.44
		c-0.29,0-0.6-0.03-0.92-0.09c-0.32-0.05-0.65-0.14-1-0.25v-0.93c0.33,0.17,0.66,0.3,0.98,0.39c0.32,0.08,0.64,0.13,0.96,0.13
		c0.42,0,0.75-0.07,0.98-0.21c0.23-0.15,0.34-0.35,0.34-0.62c0-0.24-0.08-0.43-0.25-0.56c-0.16-0.13-0.52-0.25-1.08-0.38l-0.31-0.07
		c-0.56-0.12-0.96-0.3-1.21-0.54c-0.25-0.24-0.37-0.58-0.37-1c0-0.51,0.18-0.91,0.55-1.19s0.88-0.42,1.55-0.42
		c0.33,0,0.64,0.02,0.94,0.07S501.05,45.08,501.3,45.18L501.3,45.18z"/>
	<path class="st9" d="M507.77,47.53v0.44h-4.13c0.04,0.62,0.22,1.09,0.56,1.42c0.34,0.32,0.8,0.48,1.4,0.48c0.35,0,0.68-0.04,1-0.13
		c0.33-0.08,0.65-0.21,0.97-0.38v0.85c-0.32,0.14-0.65,0.24-0.99,0.31s-0.68,0.11-1.03,0.11c-0.87,0-1.56-0.25-2.08-0.76
		c-0.51-0.51-0.76-1.2-0.76-2.06c0-0.89,0.24-1.61,0.72-2.13c0.48-0.53,1.14-0.79,1.96-0.79c0.74,0,1.32,0.24,1.74,0.71
		C507.55,46.07,507.77,46.71,507.77,47.53 M506.87,47.27c0-0.49-0.15-0.88-0.42-1.18s-0.62-0.44-1.06-0.44
		c-0.5,0-0.9,0.14-1.21,0.42c-0.3,0.28-0.47,0.68-0.52,1.2L506.87,47.27L506.87,47.27z"/>
	<path class="st9" d="M513.03,45.23v0.84c-0.25-0.14-0.51-0.24-0.77-0.31c-0.25-0.07-0.51-0.11-0.77-0.11
		c-0.58,0-1.04,0.19-1.36,0.56c-0.32,0.37-0.48,0.88-0.48,1.55s0.16,1.19,0.48,1.56c0.32,0.37,0.78,0.55,1.36,0.55
		c0.26,0,0.52-0.03,0.77-0.1c0.26-0.07,0.51-0.18,0.77-0.32v0.83c-0.25,0.12-0.51,0.21-0.78,0.26s-0.55,0.09-0.85,0.09
		c-0.83,0-1.48-0.26-1.96-0.78s-0.73-1.22-0.73-2.09c0-0.89,0.24-1.59,0.73-2.1c0.49-0.51,1.16-0.77,2.02-0.77
		c0.28,0,0.55,0.03,0.81,0.09C512.52,45.03,512.78,45.12,513.03,45.23L513.03,45.23z"/>
	<path class="st9" d="M515.5,43.47v1.55h1.85v0.7h-1.85v2.97c0,0.44,0.06,0.73,0.18,0.86c0.12,0.13,0.37,0.19,0.75,0.19h0.92v0.75
		h-0.92c-0.69,0-1.17-0.13-1.44-0.39s-0.4-0.73-0.4-1.42v-2.97h-0.66v-0.7h0.66v-1.55H515.5L515.5,43.47z"/>
	<path class="st9" d="M518.45,45.02h0.9v5.47h-0.9V45.02 M518.45,42.89h0.9v1.14h-0.9V42.89L518.45,42.89z"/>
	<path class="st9" d="M523.45,45.65c-0.48,0-0.86,0.19-1.14,0.57s-0.42,0.89-0.42,1.54s0.14,1.17,0.42,1.55s0.66,0.56,1.15,0.56
		c0.48,0,0.86-0.19,1.14-0.57s0.42-0.89,0.42-1.54s-0.14-1.16-0.42-1.54C524.31,45.84,523.93,45.65,523.45,45.65 M523.45,44.89
		c0.78,0,1.4,0.25,1.84,0.76s0.67,1.21,0.67,2.11c0,0.89-0.22,1.6-0.67,2.11c-0.44,0.51-1.06,0.76-1.84,0.76
		c-0.79,0-1.4-0.25-1.85-0.76c-0.44-0.51-0.66-1.22-0.66-2.11c0-0.9,0.22-1.6,0.66-2.11S522.67,44.89,523.45,44.89L523.45,44.89z"/>
	<path class="st9" d="M532.12,47.19v3.3h-0.9v-3.27c0-0.52-0.1-0.9-0.3-1.16s-0.5-0.39-0.91-0.39c-0.48,0-0.87,0.16-1.15,0.46
		s-0.42,0.73-0.42,1.26v3.09h-0.9v-5.47h0.9v0.85c0.21-0.33,0.47-0.58,0.76-0.74c0.29-0.16,0.63-0.24,1.01-0.24
		c0.63,0,1.1,0.2,1.43,0.59C531.96,45.86,532.12,46.43,532.12,47.19L532.12,47.19z"/>
	<rect x="404.77" y="58.09" class="st13" width="20" height="7"/>
	<path class="st9" d="M437.22,59.82v0.85c-0.25-0.13-0.52-0.23-0.79-0.29s-0.56-0.1-0.85-0.1c-0.44,0-0.78,0.07-1.01,0.21
		c-0.22,0.14-0.33,0.34-0.33,0.62c0,0.21,0.08,0.37,0.24,0.49c0.16,0.12,0.48,0.23,0.96,0.34l0.31,0.07
		c0.64,0.14,1.09,0.33,1.36,0.58s0.41,0.6,0.41,1.04c0,0.51-0.2,0.91-0.61,1.21c-0.4,0.3-0.95,0.44-1.66,0.44
		c-0.29,0-0.6-0.03-0.92-0.09c-0.32-0.05-0.65-0.14-1-0.25V64c0.33,0.17,0.66,0.3,0.98,0.39c0.32,0.08,0.64,0.13,0.96,0.13
		c0.42,0,0.75-0.07,0.98-0.21c0.23-0.15,0.34-0.35,0.34-0.62c0-0.24-0.08-0.43-0.25-0.56c-0.16-0.13-0.52-0.25-1.08-0.38l-0.31-0.07
		c-0.56-0.12-0.96-0.3-1.21-0.54c-0.25-0.24-0.37-0.58-0.37-1c0-0.51,0.18-0.91,0.55-1.19s0.88-0.42,1.55-0.42
		c0.33,0,0.64,0.02,0.94,0.07S436.97,59.72,437.22,59.82L437.22,59.82z"/>
	<path class="st9" d="M439.01,59.66h0.9v5.47h-0.9V59.66 M439.01,57.53h0.9v1.14h-0.9V57.53L439.01,57.53z"/>
	<path class="st9" d="M446.2,61.83v3.3h-0.9v-3.27c0-0.52-0.1-0.9-0.3-1.16s-0.5-0.39-0.91-0.39c-0.48,0-0.87,0.16-1.15,0.46
		s-0.42,0.73-0.42,1.26v3.09h-0.9v-5.47h0.9v0.85c0.21-0.33,0.47-0.58,0.76-0.74c0.29-0.16,0.63-0.24,1.01-0.24
		c0.63,0,1.1,0.2,1.43,0.59C446.04,60.5,446.2,61.07,446.2,61.83L446.2,61.83z"/>
	<path class="st9" d="M451.73,62.33c0-0.65-0.14-1.16-0.41-1.51s-0.64-0.54-1.13-0.54s-0.86,0.18-1.13,0.54s-0.4,0.86-0.4,1.51
		s0.13,1.15,0.4,1.51s0.64,0.54,1.13,0.54s0.86-0.18,1.13-0.54S451.73,62.98,451.73,62.33 M452.63,64.45c0,0.93-0.21,1.62-0.62,2.08
		s-1.04,0.68-1.9,0.68c-0.32,0-0.62-0.02-0.89-0.07c-0.28-0.04-0.55-0.12-0.82-0.21v-0.87c0.26,0.14,0.52,0.25,0.78,0.32
		s0.52,0.1,0.79,0.1c0.59,0,1.03-0.16,1.32-0.46s0.44-0.77,0.44-1.39v-0.44c-0.19,0.32-0.42,0.56-0.71,0.72s-0.63,0.24-1.04,0.24
		c-0.67,0-1.21-0.25-1.62-0.77s-0.62-1.19-0.62-2.03s0.21-1.52,0.62-2.04s0.95-0.77,1.62-0.77c0.41,0,0.75,0.08,1.04,0.24
		s0.53,0.4,0.71,0.72v-0.83h0.9V64.45L452.63,64.45z"/>
	<polygon class="st9" points="454.37,57.53 455.27,57.53 455.27,65.13 454.37,65.13 454.37,57.53 	"/>
	<path class="st9" d="M461.93,62.17v0.44h-4.13c0.04,0.62,0.22,1.09,0.56,1.42c0.34,0.32,0.8,0.48,1.4,0.48c0.35,0,0.68-0.04,1-0.13
		c0.33-0.08,0.65-0.21,0.97-0.38v0.85c-0.32,0.14-0.65,0.24-0.99,0.31s-0.68,0.11-1.03,0.11c-0.87,0-1.56-0.25-2.08-0.76
		c-0.51-0.51-0.76-1.2-0.76-2.06c0-0.89,0.24-1.61,0.72-2.13c0.48-0.53,1.14-0.79,1.96-0.79c0.74,0,1.32,0.24,1.74,0.71
		C461.71,60.71,461.93,61.35,461.93,62.17 M461.03,61.91c0-0.49-0.15-0.88-0.42-1.18s-0.62-0.44-1.06-0.44
		c-0.5,0-0.9,0.14-1.21,0.42c-0.3,0.28-0.47,0.68-0.52,1.2L461.03,61.91L461.03,61.91z"/>
	<path class="st9" d="M466.61,59.66h0.9v5.47h-0.9V59.66 M466.61,57.53h0.9v1.14h-0.9V57.53L466.61,57.53z"/>
	<path class="st9" d="M473.8,61.83v3.3h-0.9v-3.27c0-0.52-0.1-0.9-0.3-1.16c-0.2-0.26-0.5-0.39-0.91-0.39
		c-0.48,0-0.87,0.16-1.15,0.46s-0.42,0.73-0.42,1.26v3.09h-0.9v-5.47h0.9v0.85c0.21-0.33,0.47-0.58,0.76-0.74
		c0.29-0.16,0.63-0.24,1.01-0.24c0.63,0,1.1,0.2,1.43,0.59C473.64,60.5,473.8,61.07,473.8,61.83L473.8,61.83z"/>
	<path class="st9" d="M476.62,58.11v1.55h1.85v0.7h-1.85v2.97c0,0.44,0.06,0.73,0.18,0.86c0.12,0.13,0.37,0.19,0.75,0.19h0.92v0.75
		h-0.92c-0.69,0-1.17-0.13-1.44-0.39s-0.4-0.73-0.4-1.42v-2.97h-0.66v-0.7h0.66v-1.55H476.62L476.62,58.11z"/>
	<path class="st9" d="M484.25,62.17v0.44h-4.13c0.04,0.62,0.22,1.09,0.56,1.42c0.34,0.32,0.8,0.48,1.4,0.48c0.35,0,0.68-0.04,1-0.13
		c0.33-0.08,0.65-0.21,0.97-0.38v0.85c-0.32,0.14-0.65,0.24-0.99,0.31s-0.68,0.11-1.03,0.11c-0.87,0-1.56-0.25-2.08-0.76
		c-0.51-0.51-0.76-1.2-0.76-2.06c0-0.89,0.24-1.61,0.72-2.13c0.48-0.53,1.14-0.79,1.96-0.79c0.74,0,1.32,0.24,1.74,0.71
		C484.03,60.71,484.25,61.35,484.25,62.17 M483.35,61.91c0-0.49-0.15-0.88-0.42-1.18s-0.62-0.44-1.06-0.44
		c-0.5,0-0.9,0.14-1.21,0.42c-0.3,0.28-0.47,0.68-0.52,1.2L483.35,61.91L483.35,61.91z"/>
	<path class="st9" d="M488.74,60.5c-0.1-0.06-0.21-0.1-0.33-0.13c-0.12-0.03-0.25-0.04-0.39-0.04c-0.51,0-0.9,0.17-1.17,0.5
		c-0.27,0.33-0.41,0.8-0.41,1.42v2.88h-0.9v-5.47h0.9v0.85c0.19-0.33,0.43-0.58,0.74-0.74s0.67-0.24,1.1-0.24
		c0.06,0,0.13,0,0.21,0.01c0.07,0,0.16,0.02,0.25,0.03L488.74,60.5L488.74,60.5z"/>
	<path class="st9" d="M493.38,59.82v0.85c-0.25-0.13-0.52-0.23-0.79-0.29s-0.56-0.1-0.85-0.1c-0.44,0-0.78,0.07-1.01,0.21
		c-0.22,0.14-0.33,0.34-0.33,0.62c0,0.21,0.08,0.37,0.24,0.49c0.16,0.12,0.48,0.23,0.96,0.34l0.31,0.07
		c0.64,0.14,1.09,0.33,1.36,0.58s0.41,0.6,0.41,1.04c0,0.51-0.2,0.91-0.61,1.21c-0.4,0.3-0.95,0.44-1.66,0.44
		c-0.29,0-0.6-0.03-0.92-0.09c-0.32-0.05-0.65-0.14-1-0.25V64c0.33,0.17,0.66,0.3,0.98,0.39c0.32,0.08,0.64,0.13,0.96,0.13
		c0.42,0,0.75-0.07,0.98-0.21c0.23-0.15,0.34-0.35,0.34-0.62c0-0.24-0.08-0.43-0.25-0.56c-0.16-0.13-0.52-0.25-1.08-0.38l-0.31-0.07
		c-0.56-0.12-0.96-0.3-1.21-0.54c-0.25-0.24-0.37-0.58-0.37-1c0-0.51,0.18-0.91,0.55-1.19s0.88-0.42,1.55-0.42
		c0.33,0,0.64,0.02,0.94,0.07S493.13,59.72,493.38,59.82L493.38,59.82z"/>
	<path class="st9" d="M499.61,62.17v0.44h-4.13c0.04,0.62,0.22,1.09,0.56,1.42c0.34,0.32,0.8,0.48,1.4,0.48c0.35,0,0.68-0.04,1-0.13
		c0.33-0.08,0.65-0.21,0.97-0.38v0.85c-0.32,0.14-0.65,0.24-0.99,0.31s-0.68,0.11-1.03,0.11c-0.87,0-1.56-0.25-2.08-0.76
		c-0.51-0.51-0.76-1.2-0.76-2.06c0-0.89,0.24-1.61,0.72-2.13c0.48-0.53,1.14-0.79,1.96-0.79c0.74,0,1.32,0.24,1.74,0.71
		C499.39,60.71,499.61,61.35,499.61,62.17 M498.71,61.91c0-0.49-0.15-0.88-0.42-1.18c-0.27-0.29-0.62-0.44-1.06-0.44
		c-0.5,0-0.9,0.14-1.21,0.42c-0.3,0.28-0.47,0.68-0.52,1.2L498.71,61.91L498.71,61.91z"/>
	<path class="st9" d="M505.11,59.87v0.84c-0.25-0.14-0.51-0.24-0.77-0.31c-0.25-0.07-0.51-0.11-0.77-0.11
		c-0.58,0-1.04,0.19-1.36,0.56c-0.32,0.37-0.48,0.88-0.48,1.55s0.16,1.19,0.48,1.56c0.32,0.37,0.78,0.55,1.36,0.55
		c0.26,0,0.52-0.03,0.77-0.1c0.26-0.07,0.51-0.18,0.77-0.32v0.83c-0.25,0.12-0.51,0.21-0.78,0.26c-0.27,0.06-0.55,0.09-0.85,0.09
		c-0.83,0-1.48-0.26-1.96-0.78s-0.73-1.22-0.73-2.09c0-0.89,0.24-1.59,0.73-2.1c0.49-0.51,1.16-0.77,2.02-0.77
		c0.28,0,0.55,0.03,0.81,0.09C504.6,59.67,504.86,59.76,505.11,59.87L505.11,59.87z"/>
	<path class="st9" d="M507.58,58.11v1.55h1.85v0.7h-1.85v2.97c0,0.44,0.06,0.73,0.18,0.86s0.37,0.19,0.75,0.19h0.92v0.75h-0.92
		c-0.69,0-1.17-0.13-1.44-0.39s-0.4-0.73-0.4-1.42v-2.97h-0.66v-0.7h0.66v-1.55H507.58L507.58,58.11z"/>
	<path class="st9" d="M510.53,59.66h0.9v5.47h-0.9V59.66 M510.53,57.53h0.9v1.14h-0.9V57.53L510.53,57.53z"/>
	<path class="st9" d="M515.53,60.29c-0.48,0-0.86,0.19-1.14,0.57s-0.42,0.89-0.42,1.54s0.14,1.17,0.42,1.55s0.66,0.56,1.15,0.56
		c0.48,0,0.86-0.19,1.14-0.57s0.42-0.89,0.42-1.54s-0.14-1.16-0.42-1.54C516.39,60.48,516.01,60.29,515.53,60.29 M515.53,59.53
		c0.78,0,1.4,0.25,1.84,0.76s0.67,1.21,0.67,2.11c0,0.89-0.22,1.6-0.67,2.11c-0.44,0.51-1.06,0.76-1.84,0.76
		c-0.79,0-1.4-0.25-1.85-0.76c-0.44-0.51-0.66-1.22-0.66-2.11c0-0.9,0.22-1.6,0.66-2.11S514.75,59.53,515.53,59.53L515.53,59.53z"/>
	<path class="st9" d="M523.96,61.83v3.3h-0.9v-3.27c0-0.52-0.1-0.9-0.3-1.16s-0.5-0.39-0.91-0.39c-0.48,0-0.87,0.16-1.15,0.46
		s-0.42,0.73-0.42,1.26v3.09h-0.9v-5.47h0.9v0.85c0.21-0.33,0.47-0.58,0.76-0.74c0.29-0.16,0.63-0.24,1.01-0.24
		c0.63,0,1.1,0.2,1.43,0.59C523.8,60.5,523.96,61.07,523.96,61.83L523.96,61.83z"/>
	<rect x="404.77" y="72.76" class="st14" width="20" height="7"/>
	<path class="st9" d="M437.99,75.35c0.22-0.41,0.49-0.7,0.81-0.89s0.68-0.29,1.1-0.29c0.57,0,1.01,0.2,1.32,0.6
		c0.31,0.4,0.46,0.96,0.46,1.7v3.3h-0.9V76.5c0-0.52-0.09-0.91-0.28-1.17c-0.19-0.25-0.47-0.38-0.85-0.38
		c-0.46,0-0.83,0.16-1.1,0.46s-0.41,0.73-0.41,1.26v3.09h-0.9V76.5c0-0.53-0.09-0.92-0.28-1.17c-0.19-0.25-0.47-0.38-0.86-0.38
		c-0.46,0-0.83,0.16-1.09,0.47c-0.27,0.31-0.41,0.73-0.41,1.26v3.09h-0.9V74.3h0.9v0.85c0.21-0.34,0.45-0.58,0.74-0.74
		s0.62-0.24,1.02-0.24s0.73,0.1,1.01,0.3C437.65,74.67,437.86,74.96,437.99,75.35L437.99,75.35z"/>
	<path class="st9" d="M443.48,77.61V74.3h0.9v3.28c0,0.52,0.1,0.91,0.3,1.17s0.5,0.39,0.91,0.39c0.48,0,0.87-0.16,1.15-0.46
		c0.28-0.31,0.42-0.73,0.42-1.26v-3.1h0.9v5.47h-0.9v-0.84c-0.22,0.33-0.47,0.58-0.76,0.74s-0.62,0.24-1,0.24
		c-0.63,0-1.1-0.2-1.43-0.59S443.48,78.36,443.48,77.61 M445.74,74.17L445.74,74.17L445.74,74.17z"/>
	<polygon class="st9" points="449.81,72.17 450.71,72.17 450.71,79.77 449.81,79.77 449.81,72.17 	"/>
	<path class="st9" d="M453.34,72.75v1.55h1.85V75h-1.85v2.97c0,0.44,0.06,0.73,0.18,0.86s0.37,0.19,0.75,0.19h0.92v0.75h-0.92
		c-0.69,0-1.17-0.13-1.44-0.39s-0.4-0.73-0.4-1.42V75h-0.66v-0.7h0.66v-1.55H453.34L453.34,72.75z"/>
	<path class="st9" d="M456.53,74.3h0.9v5.47h-0.9V74.3 M456.53,72.17h0.9v1.14h-0.9V72.17L456.53,72.17z"/>
	<path class="st9" d="M460.04,78.95v2.9h-0.9V74.3h0.9v0.83c0.19-0.33,0.42-0.57,0.71-0.72c0.29-0.16,0.63-0.24,1.04-0.24
		c0.66,0,1.2,0.26,1.62,0.79c0.42,0.53,0.62,1.22,0.62,2.08s-0.21,1.55-0.62,2.08c-0.42,0.53-0.95,0.79-1.62,0.79
		c-0.4,0-0.75-0.08-1.04-0.23C460.47,79.52,460.23,79.28,460.04,78.95 M463.1,77.04c0-0.66-0.14-1.18-0.41-1.55
		c-0.27-0.38-0.64-0.57-1.12-0.57c-0.47,0-0.85,0.19-1.12,0.57c-0.27,0.38-0.41,0.89-0.41,1.55s0.14,1.18,0.41,1.56
		c0.27,0.38,0.65,0.56,1.12,0.56c0.47,0,0.85-0.19,1.12-0.56C462.96,78.22,463.1,77.7,463.1,77.04L463.1,77.04z"/>
	<polygon class="st9" points="465.65,72.17 466.55,72.17 466.55,79.77 465.65,79.77 465.65,72.17 	"/>
	<path class="st9" d="M472.97,76.81v0.44h-4.13c0.04,0.62,0.22,1.09,0.56,1.42c0.34,0.32,0.8,0.48,1.4,0.48c0.35,0,0.68-0.04,1-0.13
		c0.33-0.08,0.65-0.21,0.97-0.38v0.85c-0.32,0.14-0.65,0.24-0.99,0.31s-0.68,0.11-1.03,0.11c-0.87,0-1.56-0.25-2.08-0.76
		c-0.51-0.51-0.76-1.2-0.76-2.06c0-0.89,0.24-1.61,0.72-2.13c0.48-0.53,1.14-0.79,1.96-0.79c0.74,0,1.32,0.24,1.74,0.71
		C472.75,75.35,472.97,75.99,472.97,76.81 M472.07,76.55c0-0.49-0.15-0.88-0.42-1.18c-0.27-0.29-0.62-0.44-1.06-0.44
		c-0.5,0-0.9,0.14-1.21,0.42c-0.3,0.28-0.47,0.68-0.52,1.2L472.07,76.55L472.07,76.55z"/>
	<path class="st9" d="M477.65,74.3h0.9v5.47h-0.9V74.3 M477.65,72.17h0.9v1.14h-0.9V72.17L477.65,72.17z"/>
	<path class="st9" d="M485.08,76.47v3.3h-0.9V76.5c0-0.52-0.1-0.9-0.3-1.16c-0.2-0.26-0.5-0.39-0.91-0.39
		c-0.48,0-0.87,0.16-1.15,0.46s-0.42,0.73-0.42,1.26v3.09h-0.9V74.3h0.9v0.85c0.21-0.33,0.47-0.58,0.76-0.74
		c0.29-0.16,0.63-0.24,1.01-0.24c0.63,0,1.1,0.2,1.43,0.59C484.92,75.14,485.08,75.71,485.08,76.47L485.08,76.47z"/>
	<path class="st9" d="M487.66,72.75v1.55h1.85V75h-1.85v2.97c0,0.44,0.06,0.73,0.18,0.86s0.37,0.19,0.75,0.19h0.92v0.75h-0.92
		c-0.69,0-1.17-0.13-1.44-0.39s-0.4-0.73-0.4-1.42V75h-0.66v-0.7h0.66v-1.55H487.66L487.66,72.75z"/>
	<path class="st9" d="M495.53,76.81v0.44h-4.13c0.04,0.62,0.22,1.09,0.56,1.42c0.34,0.32,0.8,0.48,1.4,0.48c0.35,0,0.68-0.04,1-0.13
		c0.33-0.08,0.65-0.21,0.97-0.38v0.85c-0.32,0.14-0.65,0.24-0.99,0.31s-0.68,0.11-1.03,0.11c-0.87,0-1.56-0.25-2.08-0.76
		c-0.51-0.51-0.76-1.2-0.76-2.06c0-0.89,0.24-1.61,0.72-2.13c0.48-0.53,1.14-0.79,1.96-0.79c0.74,0,1.32,0.24,1.74,0.71
		C495.31,75.35,495.53,75.99,495.53,76.81 M494.63,76.55c0-0.49-0.15-0.88-0.42-1.18s-0.62-0.44-1.06-0.44
		c-0.5,0-0.9,0.14-1.21,0.42c-0.3,0.28-0.47,0.68-0.52,1.2L494.63,76.55L494.63,76.55z"/>
	<path class="st9" d="M500.02,75.14c-0.1-0.06-0.21-0.1-0.33-0.13c-0.12-0.03-0.25-0.04-0.39-0.04c-0.51,0-0.9,0.17-1.17,0.5
		c-0.27,0.33-0.41,0.8-0.41,1.42v2.88h-0.9V74.3h0.9v0.85c0.19-0.33,0.43-0.58,0.74-0.74s0.67-0.24,1.1-0.24
		c0.06,0,0.13,0,0.21,0.01c0.07,0,0.16,0.02,0.25,0.03L500.02,75.14L500.02,75.14z"/>
	<path class="st9" d="M504.42,74.46v0.85c-0.25-0.13-0.52-0.23-0.79-0.29c-0.27-0.06-0.56-0.1-0.85-0.1c-0.44,0-0.78,0.07-1.01,0.21
		c-0.22,0.14-0.33,0.34-0.33,0.62c0,0.21,0.08,0.37,0.24,0.49c0.16,0.12,0.48,0.23,0.96,0.34l0.31,0.07
		c0.64,0.14,1.09,0.33,1.36,0.58c0.27,0.25,0.41,0.6,0.41,1.04c0,0.51-0.2,0.91-0.61,1.21c-0.4,0.3-0.95,0.44-1.66,0.44
		c-0.29,0-0.6-0.03-0.92-0.09c-0.32-0.05-0.65-0.14-1-0.25v-0.93c0.33,0.17,0.66,0.3,0.98,0.39c0.32,0.08,0.64,0.13,0.96,0.13
		c0.42,0,0.75-0.07,0.98-0.21c0.23-0.15,0.34-0.35,0.34-0.62c0-0.24-0.08-0.43-0.25-0.56c-0.16-0.13-0.52-0.25-1.08-0.38l-0.31-0.07
		c-0.56-0.12-0.96-0.3-1.21-0.54c-0.25-0.24-0.37-0.58-0.37-1c0-0.51,0.18-0.91,0.55-1.19s0.88-0.42,1.55-0.42
		c0.33,0,0.64,0.02,0.94,0.07C503.9,74.29,504.17,74.36,504.42,74.46L504.42,74.46z"/>
	<path class="st9" d="M510.89,76.81v0.44h-4.13c0.04,0.62,0.22,1.09,0.56,1.42c0.34,0.32,0.8,0.48,1.4,0.48c0.35,0,0.68-0.04,1-0.13
		c0.33-0.08,0.65-0.21,0.97-0.38v0.85c-0.32,0.14-0.65,0.24-0.99,0.31s-0.68,0.11-1.03,0.11c-0.87,0-1.56-0.25-2.08-0.76
		c-0.51-0.51-0.76-1.2-0.76-2.06c0-0.89,0.24-1.61,0.72-2.13c0.48-0.53,1.14-0.79,1.96-0.79c0.74,0,1.32,0.24,1.74,0.71
		C510.67,75.35,510.89,75.99,510.89,76.81 M509.99,76.55c0-0.49-0.15-0.88-0.42-1.18s-0.62-0.44-1.06-0.44
		c-0.5,0-0.9,0.14-1.21,0.42c-0.3,0.28-0.47,0.68-0.52,1.2L509.99,76.55L509.99,76.55z"/>
	<path class="st9" d="M516.39,74.51v0.84c-0.25-0.14-0.51-0.24-0.77-0.31c-0.25-0.07-0.51-0.11-0.77-0.11
		c-0.58,0-1.04,0.19-1.36,0.56c-0.32,0.37-0.48,0.88-0.48,1.55s0.16,1.19,0.48,1.56c0.32,0.37,0.78,0.55,1.36,0.55
		c0.26,0,0.52-0.03,0.77-0.1c0.26-0.07,0.51-0.18,0.77-0.32v0.83c-0.25,0.12-0.51,0.21-0.78,0.26s-0.55,0.09-0.85,0.09
		c-0.83,0-1.48-0.26-1.96-0.78s-0.73-1.22-0.73-2.09c0-0.89,0.24-1.59,0.73-2.1c0.49-0.51,1.16-0.77,2.02-0.77
		c0.28,0,0.55,0.03,0.81,0.09C515.88,74.31,516.14,74.4,516.39,74.51L516.39,74.51z"/>
	<path class="st9" d="M518.86,72.75v1.55h1.85V75h-1.85v2.97c0,0.44,0.06,0.73,0.18,0.86s0.37,0.19,0.75,0.19h0.92v0.75h-0.92
		c-0.69,0-1.17-0.13-1.44-0.39s-0.4-0.73-0.4-1.42V75h-0.66v-0.7h0.66v-1.55H518.86L518.86,72.75z"/>
	<path class="st9" d="M521.81,74.3h0.9v5.47h-0.9V74.3 M521.81,72.17h0.9v1.14h-0.9V72.17L521.81,72.17z"/>
	<path class="st9" d="M526.81,74.93c-0.48,0-0.86,0.19-1.14,0.57c-0.28,0.38-0.42,0.89-0.42,1.54s0.14,1.17,0.42,1.55
		s0.66,0.56,1.15,0.56c0.48,0,0.86-0.19,1.14-0.57s0.42-0.89,0.42-1.54c0-0.65-0.14-1.16-0.42-1.54
		C527.67,75.12,527.29,74.93,526.81,74.93 M526.81,74.17c0.78,0,1.4,0.25,1.84,0.76c0.44,0.51,0.67,1.21,0.67,2.11
		c0,0.89-0.22,1.6-0.67,2.11c-0.44,0.51-1.06,0.76-1.84,0.76c-0.79,0-1.4-0.25-1.85-0.76c-0.44-0.51-0.66-1.22-0.66-2.11
		c0-0.9,0.22-1.6,0.66-2.11C525.41,74.42,526.03,74.17,526.81,74.17L526.81,74.17z"/>
	<path class="st9" d="M535.24,76.47v3.3h-0.9V76.5c0-0.52-0.1-0.9-0.3-1.16c-0.2-0.26-0.5-0.39-0.91-0.39
		c-0.48,0-0.87,0.16-1.15,0.46s-0.42,0.73-0.42,1.26v3.09h-0.9V74.3h0.9v0.85c0.21-0.33,0.47-0.58,0.76-0.74
		c0.29-0.16,0.63-0.24,1.01-0.24c0.63,0,1.1,0.2,1.43,0.59C535.08,75.14,535.24,75.71,535.24,76.47L535.24,76.47z"/>
	<path class="st9" d="M540.42,74.46v0.85c-0.25-0.13-0.52-0.23-0.79-0.29c-0.27-0.06-0.56-0.1-0.85-0.1c-0.44,0-0.78,0.07-1.01,0.21
		c-0.22,0.14-0.33,0.34-0.33,0.62c0,0.21,0.08,0.37,0.24,0.49c0.16,0.12,0.48,0.23,0.96,0.34l0.31,0.07
		c0.64,0.14,1.09,0.33,1.36,0.58s0.41,0.6,0.41,1.04c0,0.51-0.2,0.91-0.61,1.21c-0.4,0.3-0.95,0.44-1.66,0.44
		c-0.29,0-0.6-0.03-0.92-0.09c-0.32-0.05-0.65-0.14-1-0.25v-0.93c0.33,0.17,0.66,0.3,0.98,0.39c0.32,0.08,0.64,0.13,0.96,0.13
		c0.42,0,0.75-0.07,0.98-0.21c0.23-0.15,0.34-0.35,0.34-0.62c0-0.24-0.08-0.43-0.25-0.56c-0.16-0.13-0.52-0.25-1.08-0.38l-0.31-0.07
		c-0.56-0.12-0.96-0.3-1.21-0.54c-0.25-0.24-0.37-0.58-0.37-1c0-0.51,0.18-0.91,0.55-1.19s0.88-0.42,1.55-0.42
		c0.33,0,0.64,0.02,0.94,0.07C539.9,74.29,540.17,74.36,540.42,74.46L540.42,74.46z"/>
	<rect x="404.77" y="87.43" class="st15" width="20" height="7"/>
	<polygon class="st9" points="433.21,88.94 434.11,88.94 435.23,93.21 436.35,88.94 437.41,88.94 438.53,93.21 439.65,88.94 
		440.55,88.94 439.12,94.41 438.06,94.41 436.88,89.93 435.7,94.41 434.64,94.41 433.21,88.94 	"/>
	<path class="st9" d="M441.89,88.94h0.9v5.47h-0.9V88.94 M441.89,86.81h0.9v1.14h-0.9V86.81L441.89,86.81z"/>
	<path class="st9" d="M445.66,87.39v1.55h1.85v0.7h-1.85v2.97c0,0.44,0.06,0.73,0.18,0.86s0.37,0.19,0.75,0.19h0.92v0.75h-0.92
		c-0.69,0-1.17-0.13-1.44-0.39s-0.4-0.73-0.4-1.42v-2.97h-0.66v-0.7h0.66v-1.55H445.66L445.66,87.39z"/>
	<path class="st9" d="M453.16,91.11v3.3h-0.9v-3.27c0-0.52-0.1-0.9-0.3-1.16s-0.5-0.39-0.91-0.39c-0.48,0-0.87,0.16-1.15,0.46
		s-0.42,0.73-0.42,1.26v3.09h-0.9v-7.6h0.9v2.98c0.21-0.33,0.47-0.58,0.76-0.74c0.29-0.16,0.63-0.24,1.01-0.24
		c0.63,0,1.1,0.2,1.43,0.59C453,89.78,453.16,90.35,453.16,91.11L453.16,91.11z"/>
	<path class="st9" d="M456.97,89.57c-0.48,0-0.86,0.19-1.14,0.57s-0.42,0.89-0.42,1.54s0.14,1.17,0.42,1.55s0.66,0.56,1.15,0.56
		c0.48,0,0.86-0.19,1.14-0.57s0.42-0.89,0.42-1.54s-0.14-1.16-0.42-1.54C457.83,89.76,457.45,89.57,456.97,89.57 M456.97,88.81
		c0.78,0,1.4,0.25,1.84,0.76c0.44,0.51,0.67,1.21,0.67,2.11c0,0.89-0.22,1.6-0.67,2.11c-0.44,0.51-1.06,0.76-1.84,0.76
		c-0.79,0-1.4-0.25-1.85-0.76c-0.44-0.51-0.66-1.22-0.66-2.11c0-0.9,0.22-1.6,0.66-2.11C455.57,89.06,456.19,88.81,456.97,88.81
		L456.97,88.81z"/>
	<path class="st9" d="M461,92.25v-3.31h0.9v3.28c0,0.52,0.1,0.91,0.3,1.17s0.5,0.39,0.91,0.39c0.48,0,0.87-0.16,1.15-0.46
		c0.28-0.31,0.42-0.73,0.42-1.26v-3.1h0.9v5.47h-0.9v-0.84c-0.22,0.33-0.47,0.58-0.76,0.74s-0.62,0.24-1,0.24
		c-0.63,0-1.1-0.2-1.43-0.59S461,93,461,92.25 M463.26,88.81L463.26,88.81L463.26,88.81z"/>
	<path class="st9" d="M468.22,87.39v1.55h1.85v0.7h-1.85v2.97c0,0.44,0.06,0.73,0.18,0.86s0.37,0.19,0.75,0.19h0.92v0.75h-0.92
		c-0.69,0-1.17-0.13-1.44-0.39s-0.4-0.73-0.4-1.42v-2.97h-0.66v-0.7h0.66v-1.55H468.22L468.22,87.39z"/>
	<path class="st9" d="M479.21,91.45v0.44h-4.13c0.04,0.62,0.22,1.09,0.56,1.42c0.34,0.32,0.8,0.48,1.4,0.48c0.35,0,0.68-0.04,1-0.13
		c0.33-0.08,0.65-0.21,0.97-0.38v0.85c-0.32,0.14-0.65,0.24-0.99,0.31s-0.68,0.11-1.03,0.11c-0.87,0-1.56-0.25-2.08-0.76
		c-0.51-0.51-0.76-1.2-0.76-2.06c0-0.89,0.24-1.61,0.72-2.13c0.48-0.53,1.14-0.79,1.96-0.79c0.74,0,1.32,0.24,1.74,0.71
		C478.99,89.99,479.21,90.63,479.21,91.45 M478.31,91.19c0-0.49-0.15-0.88-0.42-1.18s-0.62-0.44-1.06-0.44
		c-0.5,0-0.9,0.14-1.21,0.42c-0.3,0.28-0.47,0.68-0.52,1.2L478.31,91.19L478.31,91.19z"/>
	<path class="st9" d="M485.08,91.11v3.3h-0.9v-3.27c0-0.52-0.1-0.9-0.3-1.16s-0.5-0.39-0.91-0.39c-0.48,0-0.87,0.16-1.15,0.46
		s-0.42,0.73-0.42,1.26v3.09h-0.9v-5.47h0.9v0.85c0.21-0.33,0.47-0.58,0.76-0.74c0.29-0.16,0.63-0.24,1.01-0.24
		c0.63,0,1.1,0.2,1.43,0.59C484.92,89.78,485.08,90.35,485.08,91.11L485.08,91.11z"/>
	<path class="st9" d="M487.9,87.39v1.55h1.85v0.7h-1.85v2.97c0,0.44,0.06,0.73,0.18,0.86s0.37,0.19,0.75,0.19h0.92v0.75h-0.92
		c-0.69,0-1.17-0.13-1.44-0.39s-0.4-0.73-0.4-1.42v-2.97h-0.66v-0.7H487v-1.55H487.9L487.9,87.39z"/>
	<path class="st9" d="M495.4,91.11v3.3h-0.9v-3.27c0-0.52-0.1-0.9-0.3-1.16s-0.5-0.39-0.91-0.39c-0.48,0-0.87,0.16-1.15,0.46
		s-0.42,0.73-0.42,1.26v3.09h-0.9v-7.6h0.9v2.98c0.21-0.33,0.47-0.58,0.76-0.74c0.29-0.16,0.63-0.24,1.01-0.24
		c0.63,0,1.1,0.2,1.43,0.59C495.24,89.78,495.4,90.35,495.4,91.11L495.4,91.11z"/>
	<path class="st9" d="M499.82,91.66c-0.73,0-1.23,0.08-1.51,0.25s-0.42,0.45-0.42,0.85c0,0.32,0.1,0.57,0.31,0.76
		c0.21,0.19,0.5,0.28,0.86,0.28c0.5,0,0.9-0.18,1.2-0.53c0.3-0.36,0.45-0.83,0.45-1.41v-0.2H499.82 M501.61,91.29v3.12h-0.9v-0.83
		c-0.21,0.33-0.46,0.58-0.77,0.74c-0.31,0.16-0.68,0.23-1.12,0.23c-0.56,0-1.01-0.16-1.34-0.47c-0.33-0.32-0.49-0.74-0.49-1.26
		c0-0.62,0.21-1.08,0.62-1.39c0.42-0.31,1.03-0.47,1.85-0.47h1.26v-0.09c0-0.42-0.14-0.73-0.41-0.96c-0.27-0.23-0.65-0.34-1.14-0.34
		c-0.31,0-0.62,0.04-0.91,0.11s-0.58,0.19-0.85,0.34v-0.83c0.33-0.13,0.65-0.22,0.96-0.28s0.61-0.1,0.9-0.1
		c0.79,0,1.38,0.21,1.77,0.62S501.61,90.45,501.61,91.29L501.61,91.29z"/>
	<polygon class="st9" points="503.33,86.81 504.23,86.81 504.23,94.41 503.33,94.41 503.33,86.81 	"/>
	<path class="st9" d="M507.08,93.59v2.9h-0.9v-7.55h0.9v0.83c0.19-0.33,0.42-0.57,0.71-0.72c0.29-0.16,0.63-0.24,1.04-0.24
		c0.66,0,1.2,0.26,1.62,0.79s0.62,1.22,0.62,2.08s-0.21,1.55-0.62,2.08s-0.95,0.79-1.62,0.79c-0.4,0-0.75-0.08-1.04-0.23
		C507.51,94.16,507.27,93.92,507.08,93.59 M510.14,91.68c0-0.66-0.14-1.18-0.41-1.55c-0.27-0.38-0.64-0.57-1.12-0.57
		s-0.85,0.19-1.12,0.57c-0.27,0.38-0.41,0.89-0.41,1.55s0.14,1.18,0.41,1.56c0.27,0.38,0.65,0.56,1.12,0.56s0.85-0.19,1.12-0.56
		C510,92.86,510.14,92.34,510.14,91.68L510.14,91.68z"/>
	<path class="st9" d="M514.73,94.92c-0.25,0.65-0.5,1.07-0.74,1.27s-0.56,0.3-0.97,0.3h-0.72v-0.75h0.53c0.25,0,0.44-0.06,0.58-0.18
		s0.29-0.4,0.45-0.83l0.16-0.41l-2.21-5.38h0.95l1.71,4.28l1.71-4.28h0.95L514.73,94.92L514.73,94.92z"/>
	<path class="st9" d="M525.17,89.77v-2.96h0.9v7.6h-0.9v-0.82c-0.19,0.33-0.43,0.57-0.72,0.73c-0.29,0.16-0.63,0.23-1.04,0.23
		c-0.66,0-1.2-0.26-1.62-0.79s-0.62-1.22-0.62-2.08s0.21-1.55,0.62-2.08s0.96-0.79,1.62-0.79c0.41,0,0.75,0.08,1.04,0.24
		C524.74,89.2,524.98,89.44,525.17,89.77 M522.11,91.68c0,0.66,0.14,1.18,0.41,1.56c0.27,0.38,0.65,0.56,1.12,0.56
		s0.85-0.19,1.12-0.56s0.41-0.9,0.41-1.56s-0.14-1.18-0.41-1.55s-0.65-0.57-1.12-0.57s-0.85,0.19-1.12,0.57
		C522.25,90.5,522.11,91.02,522.11,91.68L522.11,91.68z"/>
	<path class="st9" d="M530.3,91.66c-0.73,0-1.23,0.08-1.51,0.25s-0.42,0.45-0.42,0.85c0,0.32,0.1,0.57,0.31,0.76
		c0.21,0.19,0.5,0.28,0.86,0.28c0.5,0,0.9-0.18,1.2-0.53c0.3-0.36,0.45-0.83,0.45-1.41v-0.2H530.3 M532.09,91.29v3.12h-0.9v-0.83
		c-0.21,0.33-0.46,0.58-0.77,0.74c-0.31,0.16-0.68,0.23-1.12,0.23c-0.56,0-1.01-0.16-1.34-0.47c-0.33-0.32-0.49-0.74-0.49-1.26
		c0-0.62,0.21-1.08,0.62-1.39c0.41-0.31,1.03-0.47,1.85-0.47h1.26v-0.09c0-0.42-0.14-0.73-0.41-0.96c-0.27-0.23-0.65-0.34-1.14-0.34
		c-0.31,0-0.62,0.04-0.91,0.11c-0.3,0.07-0.58,0.19-0.85,0.34v-0.83c0.33-0.13,0.65-0.22,0.96-0.28s0.61-0.1,0.9-0.1
		c0.79,0,1.38,0.21,1.77,0.62C531.89,89.83,532.09,90.45,532.09,91.29L532.09,91.29z"/>
	<path class="st9" d="M534.94,87.39v1.55h1.85v0.7h-1.85v2.97c0,0.44,0.06,0.73,0.18,0.86s0.37,0.19,0.75,0.19h0.92v0.75h-0.92
		c-0.69,0-1.17-0.13-1.44-0.39s-0.4-0.73-0.4-1.42v-2.97h-0.66v-0.7h0.66v-1.55H534.94L534.94,87.39z"/>
	<path class="st9" d="M540.38,91.66c-0.73,0-1.23,0.08-1.51,0.25s-0.42,0.45-0.42,0.85c0,0.32,0.1,0.57,0.31,0.76
		c0.21,0.19,0.5,0.28,0.86,0.28c0.5,0,0.9-0.18,1.2-0.53c0.3-0.36,0.45-0.83,0.45-1.41v-0.2H540.38 M542.17,91.29v3.12h-0.9v-0.83
		c-0.21,0.33-0.46,0.58-0.77,0.74c-0.31,0.16-0.68,0.23-1.12,0.23c-0.56,0-1.01-0.16-1.34-0.47c-0.33-0.32-0.49-0.74-0.49-1.26
		c0-0.62,0.21-1.08,0.62-1.39c0.42-0.31,1.03-0.47,1.85-0.47h1.26v-0.09c0-0.42-0.14-0.73-0.41-0.96c-0.27-0.23-0.65-0.34-1.14-0.34
		c-0.31,0-0.62,0.04-0.91,0.11s-0.58,0.19-0.85,0.34v-0.83c0.33-0.13,0.65-0.22,0.96-0.28s0.61-0.1,0.9-0.1
		c0.79,0,1.38,0.21,1.77,0.62S542.17,90.45,542.17,91.29L542.17,91.29z"/>
	<rect x="404.77" y="102.1" class="st16" width="20" height="7"/>
	<path class="st9" d="M437.67,103.79v0.84c-0.25-0.14-0.51-0.24-0.77-0.31c-0.25-0.07-0.51-0.11-0.77-0.11
		c-0.58,0-1.04,0.19-1.36,0.56c-0.32,0.37-0.48,0.88-0.48,1.55s0.16,1.19,0.48,1.56c0.32,0.37,0.78,0.55,1.36,0.55
		c0.26,0,0.52-0.03,0.77-0.1c0.26-0.07,0.51-0.18,0.77-0.32v0.83c-0.25,0.12-0.51,0.21-0.78,0.26s-0.55,0.09-0.85,0.09
		c-0.83,0-1.48-0.26-1.96-0.78s-0.73-1.22-0.73-2.09c0-0.89,0.24-1.59,0.73-2.1c0.49-0.51,1.16-0.77,2.02-0.77
		c0.28,0,0.55,0.03,0.81,0.09C437.16,103.59,437.42,103.68,437.67,103.79L437.67,103.79z"/>
	<path class="st9" d="M441.74,106.3c-0.73,0-1.23,0.08-1.51,0.25s-0.42,0.45-0.42,0.85c0,0.32,0.1,0.57,0.31,0.76
		c0.21,0.19,0.5,0.28,0.86,0.28c0.5,0,0.9-0.18,1.2-0.53c0.3-0.36,0.45-0.83,0.45-1.41v-0.2H441.74 M443.53,105.93v3.12h-0.9v-0.83
		c-0.21,0.33-0.46,0.58-0.77,0.74c-0.31,0.16-0.68,0.23-1.12,0.23c-0.56,0-1.01-0.16-1.34-0.47c-0.33-0.32-0.49-0.74-0.49-1.26
		c0-0.62,0.21-1.08,0.62-1.39c0.42-0.31,1.03-0.47,1.85-0.47h1.26v-0.09c0-0.42-0.14-0.73-0.41-0.96c-0.27-0.23-0.65-0.34-1.14-0.34
		c-0.31,0-0.62,0.04-0.91,0.11c-0.3,0.07-0.58,0.19-0.85,0.34v-0.83c0.33-0.13,0.65-0.22,0.96-0.28s0.61-0.1,0.9-0.1
		c0.79,0,1.38,0.21,1.77,0.62C443.33,104.47,443.53,105.09,443.53,105.93L443.53,105.93z"/>
	<path class="st9" d="M449.8,105.75v3.3h-0.9v-3.27c0-0.52-0.1-0.9-0.3-1.16s-0.5-0.39-0.91-0.39c-0.48,0-0.87,0.16-1.15,0.46
		s-0.42,0.73-0.42,1.26v3.09h-0.9v-5.47h0.9v0.85c0.21-0.33,0.47-0.58,0.76-0.74c0.29-0.16,0.63-0.24,1.01-0.24
		c0.63,0,1.1,0.2,1.43,0.59C449.64,104.42,449.8,104.99,449.8,105.75L449.8,105.75z"/>
	<path class="st9" d="M459.4,105.75v3.3h-0.9v-3.27c0-0.52-0.1-0.9-0.3-1.16c-0.2-0.26-0.5-0.39-0.91-0.39
		c-0.48,0-0.87,0.16-1.15,0.46s-0.42,0.73-0.42,1.26v3.09h-0.9v-5.47h0.9v0.85c0.21-0.33,0.47-0.58,0.76-0.74
		c0.29-0.16,0.63-0.24,1.01-0.24c0.63,0,1.1,0.2,1.43,0.59C459.24,104.42,459.4,104.99,459.4,105.75L459.4,105.75z"/>
	<path class="st9" d="M463.21,104.21c-0.48,0-0.86,0.19-1.14,0.57s-0.42,0.89-0.42,1.54s0.14,1.17,0.42,1.55s0.66,0.56,1.15,0.56
		c0.48,0,0.86-0.19,1.14-0.57s0.42-0.89,0.42-1.54s-0.14-1.16-0.42-1.54C464.07,104.4,463.69,104.21,463.21,104.21 M463.21,103.45
		c0.78,0,1.4,0.25,1.84,0.76s0.67,1.21,0.67,2.11c0,0.89-0.22,1.6-0.67,2.11c-0.44,0.51-1.06,0.76-1.84,0.76
		c-0.79,0-1.4-0.25-1.85-0.76c-0.44-0.51-0.66-1.22-0.66-2.11c0-0.9,0.22-1.6,0.66-2.11S462.43,103.45,463.21,103.45L463.21,103.45z
		"/>
	<path class="st9" d="M468.22,102.03v1.55h1.85v0.7h-1.85v2.97c0,0.44,0.06,0.73,0.18,0.86s0.37,0.19,0.75,0.19h0.92v0.75h-0.92
		c-0.69,0-1.17-0.13-1.44-0.39s-0.4-0.73-0.4-1.42v-2.97h-0.66v-0.7h0.66v-1.55H468.22L468.22,102.03z"/>
	<path class="st9" d="M478.22,106.32c0-0.66-0.14-1.18-0.41-1.55c-0.27-0.38-0.64-0.57-1.12-0.57c-0.47,0-0.85,0.19-1.12,0.57
		c-0.27,0.38-0.41,0.89-0.41,1.55s0.14,1.18,0.41,1.56c0.27,0.38,0.65,0.56,1.12,0.56c0.47,0,0.85-0.19,1.12-0.56
		C478.08,107.5,478.22,106.98,478.22,106.32 M475.16,104.41c0.19-0.33,0.42-0.57,0.71-0.72c0.29-0.16,0.63-0.24,1.04-0.24
		c0.66,0,1.2,0.26,1.62,0.79c0.42,0.53,0.63,1.22,0.63,2.08s-0.21,1.55-0.63,2.08c-0.42,0.53-0.95,0.79-1.62,0.79
		c-0.4,0-0.75-0.08-1.04-0.23c-0.29-0.16-0.52-0.4-0.71-0.73v0.82h-0.9v-7.6h0.9V104.41L475.16,104.41z"/>
	<path class="st9" d="M485.45,106.09v0.44h-4.13c0.04,0.62,0.22,1.09,0.56,1.42c0.34,0.32,0.8,0.48,1.4,0.48
		c0.35,0,0.68-0.04,1-0.13c0.33-0.08,0.65-0.21,0.97-0.38v0.85c-0.32,0.14-0.65,0.24-0.99,0.31s-0.68,0.11-1.03,0.11
		c-0.87,0-1.56-0.25-2.08-0.76c-0.51-0.51-0.76-1.2-0.76-2.06c0-0.89,0.24-1.61,0.72-2.13c0.48-0.53,1.14-0.79,1.96-0.79
		c0.74,0,1.32,0.24,1.74,0.71C485.23,104.63,485.45,105.27,485.45,106.09 M484.55,105.83c0-0.49-0.15-0.88-0.42-1.18
		s-0.62-0.44-1.06-0.44c-0.5,0-0.9,0.14-1.21,0.42c-0.3,0.28-0.47,0.68-0.52,1.2L484.55,105.83L484.55,105.83z"/>
	<path class="st9" d="M494.07,103.79v0.84c-0.25-0.14-0.51-0.24-0.77-0.31c-0.25-0.07-0.51-0.11-0.77-0.11
		c-0.58,0-1.04,0.19-1.36,0.56c-0.32,0.37-0.48,0.88-0.48,1.55s0.16,1.19,0.48,1.56c0.32,0.37,0.78,0.55,1.36,0.55
		c0.26,0,0.52-0.03,0.77-0.1c0.26-0.07,0.51-0.18,0.77-0.32v0.83c-0.25,0.12-0.51,0.21-0.78,0.26s-0.55,0.09-0.85,0.09
		c-0.83,0-1.48-0.26-1.96-0.78s-0.73-1.22-0.73-2.09c0-0.89,0.24-1.59,0.73-2.1c0.49-0.51,1.16-0.77,2.02-0.77
		c0.28,0,0.55,0.03,0.81,0.09C493.56,103.59,493.82,103.68,494.07,103.79L494.07,103.79z"/>
	<path class="st9" d="M498.14,106.3c-0.73,0-1.23,0.08-1.51,0.25s-0.42,0.45-0.42,0.85c0,0.32,0.1,0.57,0.31,0.76
		c0.21,0.19,0.5,0.28,0.86,0.28c0.5,0,0.9-0.18,1.2-0.53c0.3-0.36,0.45-0.83,0.45-1.41v-0.2H498.14 M499.93,105.93v3.12h-0.9v-0.83
		c-0.21,0.33-0.46,0.58-0.77,0.74c-0.31,0.16-0.68,0.23-1.12,0.23c-0.56,0-1.01-0.16-1.34-0.47c-0.33-0.32-0.49-0.74-0.49-1.26
		c0-0.62,0.21-1.08,0.62-1.39c0.42-0.31,1.03-0.47,1.85-0.47h1.26v-0.09c0-0.42-0.14-0.73-0.41-0.96c-0.27-0.23-0.65-0.34-1.14-0.34
		c-0.31,0-0.62,0.04-0.91,0.11s-0.58,0.19-0.85,0.34v-0.83c0.33-0.13,0.65-0.22,0.96-0.28s0.61-0.1,0.9-0.1
		c0.79,0,1.38,0.21,1.77,0.62S499.93,105.09,499.93,105.93L499.93,105.93z"/>
	<polygon class="st9" points="501.65,101.45 502.55,101.45 502.55,109.05 501.65,109.05 501.65,101.45 	"/>
	<path class="st9" d="M508.47,103.79v0.84c-0.25-0.14-0.51-0.24-0.77-0.31c-0.25-0.07-0.51-0.11-0.77-0.11
		c-0.58,0-1.04,0.19-1.36,0.56c-0.32,0.37-0.48,0.88-0.48,1.55s0.16,1.19,0.48,1.56c0.32,0.37,0.78,0.55,1.36,0.55
		c0.26,0,0.52-0.03,0.77-0.1c0.26-0.07,0.51-0.18,0.77-0.32v0.83c-0.25,0.12-0.51,0.21-0.78,0.26s-0.55,0.09-0.85,0.09
		c-0.83,0-1.48-0.26-1.96-0.78s-0.73-1.22-0.73-2.09c0-0.89,0.24-1.59,0.73-2.1c0.49-0.51,1.16-0.77,2.02-0.77
		c0.28,0,0.55,0.03,0.81,0.09C507.96,103.59,508.22,103.68,508.47,103.79L508.47,103.79z"/>
	<path class="st9" d="M509.96,106.89v-3.31h0.9v3.28c0,0.52,0.1,0.91,0.3,1.17s0.5,0.39,0.91,0.39c0.48,0,0.87-0.16,1.15-0.46
		c0.28-0.31,0.42-0.73,0.42-1.26v-3.1h0.9v5.47h-0.9v-0.84c-0.22,0.33-0.47,0.58-0.76,0.74s-0.62,0.24-1,0.24
		c-0.63,0-1.1-0.2-1.43-0.59S509.96,107.64,509.96,106.89 M512.22,103.45L512.22,103.45L512.22,103.45z"/>
	<polygon class="st9" points="516.29,101.45 517.19,101.45 517.19,109.05 516.29,109.05 516.29,101.45 	"/>
	<path class="st9" d="M521.66,106.3c-0.73,0-1.23,0.08-1.51,0.25s-0.42,0.45-0.42,0.85c0,0.32,0.1,0.57,0.31,0.76
		c0.21,0.19,0.5,0.28,0.86,0.28c0.5,0,0.9-0.18,1.2-0.53c0.3-0.36,0.45-0.83,0.45-1.41v-0.2H521.66 M523.45,105.93v3.12h-0.9v-0.83
		c-0.21,0.33-0.46,0.58-0.77,0.74c-0.31,0.16-0.68,0.23-1.12,0.23c-0.56,0-1.01-0.16-1.34-0.47c-0.33-0.32-0.49-0.74-0.49-1.26
		c0-0.62,0.21-1.08,0.62-1.39c0.42-0.31,1.03-0.47,1.85-0.47h1.26v-0.09c0-0.42-0.14-0.73-0.41-0.96c-0.27-0.23-0.65-0.34-1.14-0.34
		c-0.31,0-0.62,0.04-0.91,0.11c-0.3,0.07-0.58,0.19-0.85,0.34v-0.83c0.33-0.13,0.65-0.22,0.96-0.28s0.61-0.1,0.9-0.1
		c0.79,0,1.38,0.21,1.77,0.62S523.45,105.09,523.45,105.93L523.45,105.93z"/>
	<path class="st9" d="M526.06,102.03v1.55h1.85v0.7h-1.85v2.97c0,0.44,0.06,0.73,0.18,0.86s0.37,0.19,0.75,0.19h0.92v0.75h-0.92
		c-0.69,0-1.17-0.13-1.44-0.39s-0.4-0.73-0.4-1.42v-2.97h-0.66v-0.7h0.66v-1.55H526.06L526.06,102.03z"/>
	<path class="st9" d="M533.93,106.09v0.44h-4.13c0.04,0.62,0.22,1.09,0.56,1.42c0.34,0.32,0.8,0.48,1.4,0.48
		c0.35,0,0.68-0.04,1-0.13c0.33-0.08,0.65-0.21,0.97-0.38v0.85c-0.32,0.14-0.65,0.24-0.99,0.31s-0.68,0.11-1.03,0.11
		c-0.87,0-1.56-0.25-2.08-0.76c-0.51-0.51-0.76-1.2-0.76-2.06c0-0.89,0.24-1.61,0.72-2.13c0.48-0.53,1.14-0.79,1.96-0.79
		c0.74,0,1.32,0.24,1.74,0.71C533.71,104.63,533.93,105.27,533.93,106.09 M533.03,105.83c0-0.49-0.15-0.88-0.42-1.18
		s-0.62-0.44-1.06-0.44c-0.5,0-0.9,0.14-1.21,0.42c-0.3,0.28-0.47,0.68-0.52,1.2L533.03,105.83L533.03,105.83z"/>
	<path class="st9" d="M538.85,104.41v-2.96h0.9v7.6h-0.9v-0.82c-0.19,0.33-0.43,0.57-0.72,0.73c-0.29,0.16-0.63,0.23-1.04,0.23
		c-0.66,0-1.2-0.26-1.62-0.79s-0.62-1.22-0.62-2.08s0.21-1.55,0.62-2.08s0.96-0.79,1.62-0.79c0.41,0,0.75,0.08,1.04,0.24
		C538.42,103.84,538.66,104.08,538.85,104.41 M535.79,106.32c0,0.66,0.14,1.18,0.41,1.56c0.27,0.38,0.65,0.56,1.12,0.56
		s0.85-0.19,1.12-0.56s0.41-0.9,0.41-1.56s-0.14-1.18-0.41-1.55s-0.65-0.57-1.12-0.57s-0.85,0.19-1.12,0.57
		C535.93,105.14,535.79,105.66,535.79,106.32L535.79,106.32z"/>
	<path class="st9" d="M548.78,106.32c0-0.66-0.14-1.18-0.41-1.55c-0.27-0.38-0.64-0.57-1.12-0.57s-0.85,0.19-1.12,0.57
		c-0.27,0.38-0.41,0.89-0.41,1.55s0.14,1.18,0.41,1.56c0.27,0.38,0.65,0.56,1.12,0.56s0.85-0.19,1.12-0.56
		C548.64,107.5,548.78,106.98,548.78,106.32 M545.72,104.41c0.19-0.33,0.42-0.57,0.71-0.72c0.29-0.16,0.63-0.24,1.04-0.24
		c0.66,0,1.2,0.26,1.62,0.79s0.62,1.22,0.62,2.08s-0.21,1.55-0.62,2.08s-0.95,0.79-1.62,0.79c-0.4,0-0.75-0.08-1.04-0.23
		c-0.29-0.16-0.52-0.4-0.71-0.73v0.82h-0.9v-7.6h0.9V104.41L545.72,104.41z"/>
	<path class="st9" d="M553.37,109.56c-0.25,0.65-0.5,1.07-0.74,1.27s-0.56,0.3-0.97,0.3h-0.72v-0.75h0.53
		c0.25,0,0.44-0.06,0.58-0.18s0.29-0.4,0.45-0.83l0.16-0.41l-2.21-5.38h0.95l1.71,4.28l1.71-4.28h0.95L553.37,109.56L553.37,109.56z
		"/>
	<path class="st9" d="M565.71,102.32v1.04c-0.33-0.31-0.69-0.54-1.06-0.69s-0.77-0.23-1.2-0.23c-0.83,0-1.47,0.25-1.91,0.77
		c-0.44,0.51-0.66,1.25-0.66,2.21s0.22,1.69,0.66,2.21c0.44,0.51,1.08,0.76,1.91,0.76c0.42,0,0.82-0.08,1.2-0.23
		s0.73-0.39,1.06-0.69v1.03c-0.35,0.23-0.71,0.41-1.1,0.53s-0.79,0.18-1.22,0.18c-1.1,0-1.97-0.34-2.61-1.01
		c-0.63-0.68-0.95-1.6-0.95-2.77c0-1.17,0.32-2.09,0.95-2.77c0.63-0.68,1.5-1.02,2.61-1.02c0.43,0,0.84,0.06,1.23,0.18
		C565.01,101.92,565.37,102.09,565.71,102.32L565.71,102.32z"/>
	<path class="st9" d="M570.17,102.43c-0.72,0-1.28,0.27-1.71,0.8c-0.42,0.53-0.63,1.26-0.63,2.18c0,0.92,0.21,1.65,0.63,2.18
		c0.42,0.53,0.99,0.8,1.71,0.8s1.28-0.27,1.7-0.8c0.42-0.53,0.63-1.26,0.63-2.18c0-0.92-0.21-1.65-0.63-2.18
		C571.45,102.7,570.89,102.43,570.17,102.43 M570.17,101.63c1.02,0,1.84,0.34,2.45,1.03c0.61,0.68,0.92,1.6,0.92,2.75
		c0,1.15-0.31,2.07-0.92,2.75c-0.61,0.68-1.43,1.03-2.45,1.03c-1.03,0-1.85-0.34-2.46-1.03c-0.61-0.68-0.92-1.6-0.92-2.75
		s0.31-2.07,0.92-2.75C568.32,101.97,569.14,101.63,570.17,101.63L570.17,101.63z"/>
	<path class="st9" d="M579.5,102v0.96c-0.38-0.18-0.73-0.31-1.06-0.4s-0.65-0.13-0.96-0.13c-0.54,0-0.95,0.1-1.25,0.31
		c-0.29,0.21-0.43,0.5-0.43,0.89c0,0.32,0.1,0.57,0.29,0.73c0.2,0.16,0.56,0.29,1.1,0.4l0.6,0.12c0.74,0.14,1.28,0.39,1.63,0.74
		c0.35,0.35,0.53,0.83,0.53,1.42c0,0.71-0.24,1.24-0.71,1.61s-1.17,0.55-2.08,0.55c-0.35,0-0.71-0.04-1.1-0.12
		c-0.39-0.08-0.79-0.2-1.21-0.35v-1.02c0.4,0.22,0.79,0.4,1.18,0.51s0.76,0.17,1.13,0.17c0.56,0,1-0.11,1.3-0.33
		s0.46-0.54,0.46-0.95c0-0.36-0.11-0.64-0.33-0.84s-0.58-0.35-1.08-0.45l-0.6-0.12c-0.74-0.15-1.27-0.38-1.6-0.69
		s-0.49-0.75-0.49-1.3c0-0.64,0.22-1.15,0.68-1.52s1.08-0.56,1.88-0.56c0.34,0,0.69,0.03,1.04,0.09S579.13,101.88,579.5,102
		L579.5,102z"/>
	<polygon class="st9" points="581.61,101.76 583.08,101.76 584.94,106.72 586.81,101.76 588.28,101.76 588.28,109.05 587.32,109.05 
		587.32,102.65 585.44,107.65 584.45,107.65 582.57,102.65 582.57,109.05 581.61,109.05 581.61,101.76 	"/>
	<path class="st9" d="M593.21,102.43c-0.72,0-1.28,0.27-1.71,0.8c-0.42,0.53-0.63,1.26-0.63,2.18c0,0.92,0.21,1.65,0.63,2.18
		c0.42,0.53,0.99,0.8,1.71,0.8s1.28-0.27,1.7-0.8c0.42-0.53,0.63-1.26,0.63-2.18c0-0.92-0.21-1.65-0.63-2.18
		C594.49,102.7,593.93,102.43,593.21,102.43 M593.21,101.63c1.02,0,1.84,0.34,2.45,1.03c0.61,0.68,0.92,1.6,0.92,2.75
		c0,1.15-0.31,2.07-0.92,2.75c-0.61,0.68-1.43,1.03-2.45,1.03c-1.03,0-1.85-0.34-2.46-1.03c-0.61-0.68-0.92-1.6-0.92-2.75
		s0.31-2.07,0.92-2.75C591.36,101.97,592.18,101.63,593.21,101.63L593.21,101.63z"/>
	<polygon class="st9" points="597.68,105.91 600.31,105.91 600.31,106.71 597.68,106.71 597.68,105.91 	"/>
	<path class="st9" d="M605.23,105.63c0.21,0.07,0.42,0.22,0.62,0.46c0.2,0.23,0.41,0.56,0.61,0.97l1,1.99h-1.06l-0.93-1.87
		c-0.24-0.49-0.47-0.81-0.7-0.97c-0.22-0.16-0.53-0.24-0.92-0.24h-1.07v3.08h-0.99v-7.29H604c0.83,0,1.46,0.18,1.87,0.52
		s0.62,0.87,0.62,1.58c0,0.46-0.11,0.84-0.32,1.14C605.95,105.3,605.63,105.51,605.23,105.63 M602.76,102.57v2.59H604
		c0.47,0,0.83-0.11,1.07-0.33c0.24-0.22,0.37-0.55,0.37-0.97s-0.12-0.75-0.37-0.96c-0.24-0.22-0.6-0.33-1.07-0.33H602.76
		L602.76,102.57z"/>
	<path class="st9" d="M613.1,102v0.96c-0.38-0.18-0.73-0.31-1.06-0.4c-0.33-0.09-0.65-0.13-0.96-0.13c-0.54,0-0.95,0.1-1.25,0.31
		c-0.29,0.21-0.43,0.5-0.43,0.89c0,0.32,0.1,0.57,0.29,0.73c0.2,0.16,0.56,0.29,1.1,0.4l0.6,0.12c0.74,0.14,1.28,0.39,1.63,0.74
		c0.35,0.35,0.53,0.83,0.53,1.42c0,0.71-0.24,1.24-0.71,1.61c-0.47,0.37-1.17,0.55-2.08,0.55c-0.35,0-0.71-0.04-1.1-0.12
		c-0.39-0.08-0.79-0.2-1.21-0.35v-1.02c0.4,0.22,0.79,0.4,1.18,0.51c0.39,0.11,0.76,0.17,1.13,0.17c0.56,0,1-0.11,1.3-0.33
		s0.46-0.54,0.46-0.95c0-0.36-0.11-0.64-0.33-0.84s-0.58-0.35-1.08-0.45l-0.6-0.12c-0.74-0.15-1.27-0.38-1.6-0.69
		c-0.33-0.31-0.49-0.75-0.49-1.3c0-0.64,0.22-1.15,0.68-1.52s1.08-0.56,1.88-0.56c0.34,0,0.69,0.03,1.04,0.09
		C612.37,101.78,612.73,101.88,613.1,102L613.1,102z"/>
</g>
</svg>
