<?xml version="1.0" encoding="utf-8" standalone="no"?>
<!DOCTYPE svg PUBLIC "-//W3C//DTD SVG 1.1//EN"
  "http://www.w3.org/Graphics/SVG/1.1/DTD/svg11.dtd">
<svg xmlns:xlink="http://www.w3.org/1999/xlink" width="432pt" height="432pt" viewBox="0 0 432 432" xmlns="http://www.w3.org/2000/svg" version="1.1">
 <metadata>
  <rdf:RDF xmlns:dc="http://purl.org/dc/elements/1.1/" xmlns:cc="http://creativecommons.org/ns#" xmlns:rdf="http://www.w3.org/1999/02/22-rdf-syntax-ns#">
   <cc:Work>
    <dc:type rdf:resource="http://purl.org/dc/dcmitype/StillImage"/>
    <dc:date>2022-10-10T02:08:07.185836</dc:date>
    <dc:format>image/svg+xml</dc:format>
    <dc:creator>
     <cc:Agent>
      <dc:title>Matplotlib v3.5.2, https://matplotlib.org/</dc:title>
     </cc:Agent>
    </dc:creator>
   </cc:Work>
  </rdf:RDF>
 </metadata>
 <defs>
  <style type="text/css">*{stroke-linejoin: round; stroke-linecap: butt}</style>
 </defs>
 <g id="figure_1">
  <g id="patch_1">
   <path d="M 0 432 
L 432 432 
L 432 0 
L 0 0 
z
" style="fill: #ffffff"/>
  </g>
  <g id="axes_1">
   <g id="patch_2">
    <path d="M 54 378 
L 388.8 378 
L 388.8 51.84 
L 54 51.84 
z
" style="fill: #ffffff"/>
   </g>
   <g id="PathCollection_1">
    <defs>
     <path id="C0_0_c45cec7703" d="M 0 4.1833 
C 1.109424 4.1833 2.173559 3.742521 2.95804 2.95804 
C 3.742521 2.173559 4.1833 1.109424 4.1833 -0 
C 4.1833 -1.109424 3.742521 -2.173559 2.95804 -2.95804 
C 2.173559 -3.742521 1.109424 -4.1833 0 -4.1833 
C -1.109424 -4.1833 -2.173559 -3.742521 -2.95804 -2.95804 
C -3.742521 -2.173559 -4.1833 -1.109424 -4.1833 0 
C -4.1833 1.109424 -3.742521 2.173559 -2.95804 2.95804 
C -2.173559 3.742521 -1.109424 4.1833 0 4.1833 
z
"/>
    </defs>
    <g clip-path="url(#pac2bdac324)">
     <use xlink:href="#C0_0_c45cec7703" x="99.654545" y="128.373926" style="fill: none; stroke: #8a2be2; stroke-width: 2"/>
    </g>
    <g clip-path="url(#pac2bdac324)">
     <use xlink:href="#C0_0_c45cec7703" x="114.872727" y="131.416949" style="fill: none; stroke: #8a2be2; stroke-width: 2"/>
    </g>
    <g clip-path="url(#pac2bdac324)">
     <use xlink:href="#C0_0_c45cec7703" x="130.090909" y="134.867464" style="fill: none; stroke: #8a2be2; stroke-width: 2"/>
    </g>
    <g clip-path="url(#pac2bdac324)">
     <use xlink:href="#C0_0_c45cec7703" x="145.309091" y="168.883239" style="fill: none; stroke: #8a2be2; stroke-width: 2"/>
    </g>
    <g clip-path="url(#pac2bdac324)">
     <use xlink:href="#C0_0_c45cec7703" x="160.527273" y="203.296281" style="fill: none; stroke: #8a2be2; stroke-width: 2"/>
    </g>
    <g clip-path="url(#pac2bdac324)">
     <use xlink:href="#C0_0_c45cec7703" x="175.745455" y="231.440912" style="fill: none; stroke: #8a2be2; stroke-width: 2"/>
    </g>
    <g clip-path="url(#pac2bdac324)">
     <use xlink:href="#C0_0_c45cec7703" x="190.963636" y="236.631804" style="fill: none; stroke: #8a2be2; stroke-width: 2"/>
    </g>
    <g clip-path="url(#pac2bdac324)">
     <use xlink:href="#C0_0_c45cec7703" x="206.181818" y="237.14404" style="fill: none; stroke: #8a2be2; stroke-width: 2"/>
    </g>
    <g clip-path="url(#pac2bdac324)">
     <use xlink:href="#C0_0_c45cec7703" x="221.4" y="258.888782" style="fill: none; stroke: #8a2be2; stroke-width: 2"/>
    </g>
    <g clip-path="url(#pac2bdac324)">
     <use xlink:href="#C0_0_c45cec7703" x="236.618182" y="271.914804" style="fill: none; stroke: #8a2be2; stroke-width: 2"/>
    </g>
    <g clip-path="url(#pac2bdac324)">
     <use xlink:href="#C0_0_c45cec7703" x="251.836364" y="274.653782" style="fill: none; stroke: #8a2be2; stroke-width: 2"/>
    </g>
    <g clip-path="url(#pac2bdac324)">
     <use xlink:href="#C0_0_c45cec7703" x="267.054545" y="280.054467" style="fill: none; stroke: #8a2be2; stroke-width: 2"/>
    </g>
    <g clip-path="url(#pac2bdac324)">
     <use xlink:href="#C0_0_c45cec7703" x="282.272727" y="276.995544" style="fill: none; stroke: #8a2be2; stroke-width: 2"/>
    </g>
    <g clip-path="url(#pac2bdac324)">
     <use xlink:href="#C0_0_c45cec7703" x="297.490909" y="275.498017" style="fill: none; stroke: #8a2be2; stroke-width: 2"/>
    </g>
    <g clip-path="url(#pac2bdac324)">
     <use xlink:href="#C0_0_c45cec7703" x="312.709091" y="271.525298" style="fill: none; stroke: #8a2be2; stroke-width: 2"/>
    </g>
    <g clip-path="url(#pac2bdac324)">
     <use xlink:href="#C0_0_c45cec7703" x="327.927273" y="268.839203" style="fill: none; stroke: #8a2be2; stroke-width: 2"/>
    </g>
    <g clip-path="url(#pac2bdac324)">
     <use xlink:href="#C0_0_c45cec7703" x="343.145455" y="265.700331" style="fill: none; stroke: #8a2be2; stroke-width: 2"/>
    </g>
   </g>
   <g id="PathCollection_2">
    <defs>
     <path id="m7b5360a21b" d="M 0 4.1833 
C 1.109424 4.1833 2.173559 3.742521 2.95804 2.95804 
C 3.742521 2.173559 4.1833 1.109424 4.1833 0 
C 4.1833 -1.109424 3.742521 -2.173559 2.95804 -2.95804 
C 2.173559 -3.742521 1.109424 -4.1833 0 -4.1833 
C -1.109424 -4.1833 -2.173559 -3.742521 -2.95804 -2.95804 
C -3.742521 -2.173559 -4.1833 -1.109424 -4.1833 0 
C -4.1833 1.109424 -3.742521 2.173559 -2.95804 2.95804 
C -2.173559 3.742521 -1.109424 4.1833 0 4.1833 
z
" style="stroke: #8a2be2; stroke-width: 2"/>
    </defs>
    <g clip-path="url(#pac2bdac324)">
     <use xlink:href="#m7b5360a21b" x="267.054545" y="280.054467" style="fill: #8a2be2; stroke: #8a2be2; stroke-width: 2"/>
    </g>
   </g>
   <g id="PathCollection_3">
    <defs>
     <path id="C1_0_13c26e6ff3" d="M 0 4.1833 
C 1.109424 4.1833 2.173559 3.742521 2.95804 2.95804 
C 3.742521 2.173559 4.1833 1.109424 4.1833 -0 
C 4.1833 -1.109424 3.742521 -2.173559 2.95804 -2.95804 
C 2.173559 -3.742521 1.109424 -4.1833 0 -4.1833 
C -1.109424 -4.1833 -2.173559 -3.742521 -2.95804 -2.95804 
C -3.742521 -2.173559 -4.1833 -1.109424 -4.1833 0 
C -4.1833 1.109424 -3.742521 2.173559 -2.95804 2.95804 
C -2.173559 3.742521 -1.109424 4.1833 0 4.1833 
z
"/>
    </defs>
    <g clip-path="url(#pac2bdac324)">
     <use xlink:href="#C1_0_13c26e6ff3" x="99.654545" y="169.816483" style="fill: none; stroke: #ffd700; stroke-width: 2"/>
    </g>
    <g clip-path="url(#pac2bdac324)">
     <use xlink:href="#C1_0_13c26e6ff3" x="114.872727" y="170.92855" style="fill: none; stroke: #ffd700; stroke-width: 2"/>
    </g>
    <g clip-path="url(#pac2bdac324)">
     <use xlink:href="#C1_0_13c26e6ff3" x="130.090909" y="179.794874" style="fill: none; stroke: #ffd700; stroke-width: 2"/>
    </g>
    <g clip-path="url(#pac2bdac324)">
     <use xlink:href="#C1_0_13c26e6ff3" x="145.309091" y="192.168174" style="fill: none; stroke: #ffd700; stroke-width: 2"/>
    </g>
    <g clip-path="url(#pac2bdac324)">
     <use xlink:href="#C1_0_13c26e6ff3" x="160.527273" y="207.607003" style="fill: none; stroke: #ffd700; stroke-width: 2"/>
    </g>
    <g clip-path="url(#pac2bdac324)">
     <use xlink:href="#C1_0_13c26e6ff3" x="175.745455" y="214.252179" style="fill: none; stroke: #ffd700; stroke-width: 2"/>
    </g>
    <g clip-path="url(#pac2bdac324)">
     <use xlink:href="#C1_0_13c26e6ff3" x="190.963636" y="221.546805" style="fill: none; stroke: #ffd700; stroke-width: 2"/>
    </g>
    <g clip-path="url(#pac2bdac324)">
     <use xlink:href="#C1_0_13c26e6ff3" x="206.181818" y="242.39845" style="fill: none; stroke: #ffd700; stroke-width: 2"/>
    </g>
    <g clip-path="url(#pac2bdac324)">
     <use xlink:href="#C1_0_13c26e6ff3" x="221.4" y="251.741486" style="fill: none; stroke: #ffd700; stroke-width: 2"/>
    </g>
    <g clip-path="url(#pac2bdac324)">
     <use xlink:href="#C1_0_13c26e6ff3" x="236.618182" y="252.671319" style="fill: none; stroke: #ffd700; stroke-width: 2"/>
    </g>
    <g clip-path="url(#pac2bdac324)">
     <use xlink:href="#C1_0_13c26e6ff3" x="251.836364" y="252.671319" style="fill: none; stroke: #ffd700; stroke-width: 2"/>
    </g>
    <g clip-path="url(#pac2bdac324)">
     <use xlink:href="#C1_0_13c26e6ff3" x="267.054545" y="258.820731" style="fill: none; stroke: #ffd700; stroke-width: 2"/>
    </g>
    <g clip-path="url(#pac2bdac324)">
     <use xlink:href="#C1_0_13c26e6ff3" x="282.272727" y="258.820731" style="fill: none; stroke: #ffd700; stroke-width: 2"/>
    </g>
    <g clip-path="url(#pac2bdac324)">
     <use xlink:href="#C1_0_13c26e6ff3" x="297.490909" y="259.976161" style="fill: none; stroke: #ffd700; stroke-width: 2"/>
    </g>
    <g clip-path="url(#pac2bdac324)">
     <use xlink:href="#C1_0_13c26e6ff3" x="312.709091" y="259.401431" style="fill: none; stroke: #ffd700; stroke-width: 2"/>
    </g>
    <g clip-path="url(#pac2bdac324)">
     <use xlink:href="#C1_0_13c26e6ff3" x="327.927273" y="256.516521" style="fill: none; stroke: #ffd700; stroke-width: 2"/>
    </g>
    <g clip-path="url(#pac2bdac324)">
     <use xlink:href="#C1_0_13c26e6ff3" x="343.145455" y="254.741926" style="fill: none; stroke: #ffd700; stroke-width: 2"/>
    </g>
   </g>
   <g id="PathCollection_4">
    <defs>
     <path id="m5e9d696368" d="M 0 4.1833 
C 1.109424 4.1833 2.173559 3.742521 2.95804 2.95804 
C 3.742521 2.173559 4.1833 1.109424 4.1833 0 
C 4.1833 -1.109424 3.742521 -2.173559 2.95804 -2.95804 
C 2.173559 -3.742521 1.109424 -4.1833 0 -4.1833 
C -1.109424 -4.1833 -2.173559 -3.742521 -2.95804 -2.95804 
C -3.742521 -2.173559 -4.1833 -1.109424 -4.1833 0 
C -4.1833 1.109424 -3.742521 2.173559 -2.95804 2.95804 
C -2.173559 3.742521 -1.109424 4.1833 0 4.1833 
z
" style="stroke: #ffd700; stroke-width: 2"/>
    </defs>
    <g clip-path="url(#pac2bdac324)">
     <use xlink:href="#m5e9d696368" x="297.490909" y="259.976161" style="fill: #ffd700; stroke: #ffd700; stroke-width: 2"/>
    </g>
   </g>
   <g id="PathCollection_5">
    <defs>
     <path id="C2_0_0cbd4be62f" d="M 0 4.1833 
C 1.109424 4.1833 2.173559 3.742521 2.95804 2.95804 
C 3.742521 2.173559 4.1833 1.109424 4.1833 -0 
C 4.1833 -1.109424 3.742521 -2.173559 2.95804 -2.95804 
C 2.173559 -3.742521 1.109424 -4.1833 0 -4.1833 
C -1.109424 -4.1833 -2.173559 -3.742521 -2.95804 -2.95804 
C -3.742521 -2.173559 -4.1833 -1.109424 -4.1833 0 
C -4.1833 1.109424 -3.742521 2.173559 -2.95804 2.95804 
C -2.173559 3.742521 -1.109424 4.1833 0 4.1833 
z
"/>
    </defs>
    <g clip-path="url(#pac2bdac324)">
     <use xlink:href="#C2_0_0cbd4be62f" x="99.654545" y="137.34999" style="fill: none; stroke: #800000; stroke-width: 2"/>
    </g>
    <g clip-path="url(#pac2bdac324)">
     <use xlink:href="#C2_0_0cbd4be62f" x="114.872727" y="150.611329" style="fill: none; stroke: #800000; stroke-width: 2"/>
    </g>
    <g clip-path="url(#pac2bdac324)">
     <use xlink:href="#C2_0_0cbd4be62f" x="130.090909" y="164.474874" style="fill: none; stroke: #800000; stroke-width: 2"/>
    </g>
    <g clip-path="url(#pac2bdac324)">
     <use xlink:href="#C2_0_0cbd4be62f" x="145.309091" y="178.587863" style="fill: none; stroke: #800000; stroke-width: 2"/>
    </g>
    <g clip-path="url(#pac2bdac324)">
     <use xlink:href="#C2_0_0cbd4be62f" x="160.527273" y="192.569214" style="fill: none; stroke: #800000; stroke-width: 2"/>
    </g>
    <g clip-path="url(#pac2bdac324)">
     <use xlink:href="#C2_0_0cbd4be62f" x="175.745455" y="206.024659" style="fill: none; stroke: #800000; stroke-width: 2"/>
    </g>
    <g clip-path="url(#pac2bdac324)">
     <use xlink:href="#C2_0_0cbd4be62f" x="190.963636" y="218.563151" style="fill: none; stroke: #800000; stroke-width: 2"/>
    </g>
    <g clip-path="url(#pac2bdac324)">
     <use xlink:href="#C2_0_0cbd4be62f" x="206.181818" y="229.813682" style="fill: none; stroke: #800000; stroke-width: 2"/>
    </g>
    <g clip-path="url(#pac2bdac324)">
     <use xlink:href="#C2_0_0cbd4be62f" x="221.4" y="239.441576" style="fill: none; stroke: #800000; stroke-width: 2"/>
    </g>
    <g clip-path="url(#pac2bdac324)">
     <use xlink:href="#C2_0_0cbd4be62f" x="236.618182" y="247.163353" style="fill: none; stroke: #800000; stroke-width: 2"/>
    </g>
    <g clip-path="url(#pac2bdac324)">
     <use xlink:href="#C2_0_0cbd4be62f" x="251.836364" y="252.759329" style="fill: none; stroke: #800000; stroke-width: 2"/>
    </g>
    <g clip-path="url(#pac2bdac324)">
     <use xlink:href="#C2_0_0cbd4be62f" x="267.054545" y="256.083249" style="fill: none; stroke: #800000; stroke-width: 2"/>
    </g>
    <g clip-path="url(#pac2bdac324)">
     <use xlink:href="#C2_0_0cbd4be62f" x="282.272727" y="257.06843" style="fill: none; stroke: #800000; stroke-width: 2"/>
    </g>
    <g clip-path="url(#pac2bdac324)">
     <use xlink:href="#C2_0_0cbd4be62f" x="297.490909" y="255.730132" style="fill: none; stroke: #800000; stroke-width: 2"/>
    </g>
    <g clip-path="url(#pac2bdac324)">
     <use xlink:href="#C2_0_0cbd4be62f" x="312.709091" y="252.16408" style="fill: none; stroke: #800000; stroke-width: 2"/>
    </g>
    <g clip-path="url(#pac2bdac324)">
     <use xlink:href="#C2_0_0cbd4be62f" x="327.927273" y="246.54137" style="fill: none; stroke: #800000; stroke-width: 2"/>
    </g>
    <g clip-path="url(#pac2bdac324)">
     <use xlink:href="#C2_0_0cbd4be62f" x="343.145455" y="239.100155" style="fill: none; stroke: #800000; stroke-width: 2"/>
    </g>
   </g>
   <g id="PathCollection_6">
    <defs>
     <path id="m1204638a11" d="M 0 4.1833 
C 1.109424 4.1833 2.173559 3.742521 2.95804 2.95804 
C 3.742521 2.173559 4.1833 1.109424 4.1833 0 
C 4.1833 -1.109424 3.742521 -2.173559 2.95804 -2.95804 
C 2.173559 -3.742521 1.109424 -4.1833 0 -4.1833 
C -1.109424 -4.1833 -2.173559 -3.742521 -2.95804 -2.95804 
C -3.742521 -2.173559 -4.1833 -1.109424 -4.1833 0 
C -4.1833 1.109424 -3.742521 2.173559 -2.95804 2.95804 
C -2.173559 3.742521 -1.109424 4.1833 0 4.1833 
z
" style="stroke: #800000; stroke-width: 2"/>
    </defs>
    <g clip-path="url(#pac2bdac324)">
     <use xlink:href="#m1204638a11" x="282.272727" y="257.06843" style="fill: #800000; stroke: #800000; stroke-width: 2"/>
    </g>
   </g>
   <g id="PathCollection_7">
    <defs>
     <path id="C3_0_75f3228c7d" d="M 0 4.1833 
C 1.109424 4.1833 2.173559 3.742521 2.95804 2.95804 
C 3.742521 2.173559 4.1833 1.109424 4.1833 -0 
C 4.1833 -1.109424 3.742521 -2.173559 2.95804 -2.95804 
C 2.173559 -3.742521 1.109424 -4.1833 0 -4.1833 
C -1.109424 -4.1833 -2.173559 -3.742521 -2.95804 -2.95804 
C -3.742521 -2.173559 -4.1833 -1.109424 -4.1833 0 
C -4.1833 1.109424 -3.742521 2.173559 -2.95804 2.95804 
C -2.173559 3.742521 -1.109424 4.1833 0 4.1833 
z
"/>
    </defs>
    <g clip-path="url(#pac2bdac324)">
     <use xlink:href="#C3_0_75f3228c7d" x="99.654545" y="186.401367" style="fill: none; stroke: #fa8072; stroke-width: 2"/>
    </g>
    <g clip-path="url(#pac2bdac324)">
     <use xlink:href="#C3_0_75f3228c7d" x="114.872727" y="205.40194" style="fill: none; stroke: #fa8072; stroke-width: 2"/>
    </g>
    <g clip-path="url(#pac2bdac324)">
     <use xlink:href="#C3_0_75f3228c7d" x="130.090909" y="205.40194" style="fill: none; stroke: #fa8072; stroke-width: 2"/>
    </g>
    <g clip-path="url(#pac2bdac324)">
     <use xlink:href="#C3_0_75f3228c7d" x="145.309091" y="205.40194" style="fill: none; stroke: #fa8072; stroke-width: 2"/>
    </g>
    <g clip-path="url(#pac2bdac324)">
     <use xlink:href="#C3_0_75f3228c7d" x="160.527273" y="195.759326" style="fill: none; stroke: #fa8072; stroke-width: 2"/>
    </g>
    <g clip-path="url(#pac2bdac324)">
     <use xlink:href="#C3_0_75f3228c7d" x="175.745455" y="195.759326" style="fill: none; stroke: #fa8072; stroke-width: 2"/>
    </g>
    <g clip-path="url(#pac2bdac324)">
     <use xlink:href="#C3_0_75f3228c7d" x="190.963636" y="223.513845" style="fill: none; stroke: #fa8072; stroke-width: 2"/>
    </g>
    <g clip-path="url(#pac2bdac324)">
     <use xlink:href="#C3_0_75f3228c7d" x="206.181818" y="221.027126" style="fill: none; stroke: #fa8072; stroke-width: 2"/>
    </g>
    <g clip-path="url(#pac2bdac324)">
     <use xlink:href="#C3_0_75f3228c7d" x="221.4" y="225.422507" style="fill: none; stroke: #fa8072; stroke-width: 2"/>
    </g>
    <g clip-path="url(#pac2bdac324)">
     <use xlink:href="#C3_0_75f3228c7d" x="236.618182" y="225.422507" style="fill: none; stroke: #fa8072; stroke-width: 2"/>
    </g>
    <g clip-path="url(#pac2bdac324)">
     <use xlink:href="#C3_0_75f3228c7d" x="251.836364" y="247.646265" style="fill: none; stroke: #fa8072; stroke-width: 2"/>
    </g>
    <g clip-path="url(#pac2bdac324)">
     <use xlink:href="#C3_0_75f3228c7d" x="267.054545" y="268.005231" style="fill: none; stroke: #fa8072; stroke-width: 2"/>
    </g>
    <g clip-path="url(#pac2bdac324)">
     <use xlink:href="#C3_0_75f3228c7d" x="282.272727" y="280.673691" style="fill: none; stroke: #fa8072; stroke-width: 2"/>
    </g>
    <g clip-path="url(#pac2bdac324)">
     <use xlink:href="#C3_0_75f3228c7d" x="297.490909" y="312.782825" style="fill: none; stroke: #fa8072; stroke-width: 2"/>
    </g>
    <g clip-path="url(#pac2bdac324)">
     <use xlink:href="#C3_0_75f3228c7d" x="312.709091" y="320.265976" style="fill: none; stroke: #fa8072; stroke-width: 2"/>
    </g>
    <g clip-path="url(#pac2bdac324)">
     <use xlink:href="#C3_0_75f3228c7d" x="327.927273" y="321.658928" style="fill: none; stroke: #fa8072; stroke-width: 2"/>
    </g>
    <g clip-path="url(#pac2bdac324)">
     <use xlink:href="#C3_0_75f3228c7d" x="343.145455" y="312.363176" style="fill: none; stroke: #fa8072; stroke-width: 2"/>
    </g>
   </g>
   <g id="PathCollection_8">
    <defs>
     <path id="mcad2bb2d11" d="M 0 4.1833 
C 1.109424 4.1833 2.173559 3.742521 2.95804 2.95804 
C 3.742521 2.173559 4.1833 1.109424 4.1833 0 
C 4.1833 -1.109424 3.742521 -2.173559 2.95804 -2.95804 
C 2.173559 -3.742521 1.109424 -4.1833 0 -4.1833 
C -1.109424 -4.1833 -2.173559 -3.742521 -2.95804 -2.95804 
C -3.742521 -2.173559 -4.1833 -1.109424 -4.1833 0 
C -4.1833 1.109424 -3.742521 2.173559 -2.95804 2.95804 
C -2.173559 3.742521 -1.109424 4.1833 0 4.1833 
z
" style="stroke: #fa8072; stroke-width: 2"/>
    </defs>
    <g clip-path="url(#pac2bdac324)">
     <use xlink:href="#mcad2bb2d11" x="312.709091" y="320.265976" style="fill: #fa8072; stroke: #fa8072; stroke-width: 2"/>
    </g>
   </g>
   <g id="PathCollection_9">
    <defs>
     <path id="mbe7c308216" d="M 0 4.1833 
C 1.109424 4.1833 2.173559 3.742521 2.95804 2.95804 
C 3.742521 2.173559 4.1833 1.109424 4.1833 0 
C 4.1833 -1.109424 3.742521 -2.173559 2.95804 -2.95804 
C 2.173559 -3.742521 1.109424 -4.1833 0 -4.1833 
C -1.109424 -4.1833 -2.173559 -3.742521 -2.95804 -2.95804 
C -3.742521 -2.173559 -4.1833 -1.109424 -4.1833 0 
C -4.1833 1.109424 -3.742521 2.173559 -2.95804 2.95804 
C -2.173559 3.742521 -1.109424 4.1833 0 4.1833 
z
" style="stroke: #000000; stroke-width: 2"/>
    </defs>
    <g clip-path="url(#pac2bdac324)">
     <use xlink:href="#mbe7c308216" x="343.145455" y="363.174545" style="stroke: #000000; stroke-width: 2"/>
    </g>
   </g>
   <g id="matplotlib.axis_1">
    <g id="xtick_1">
     <g id="line2d_1">
      <defs>
       <path id="mca1930ec7b" d="M 0 0 
L 0 3.5 
" style="stroke: #000000; stroke-width: 0.8"/>
      </defs>
      <g>
       <use xlink:href="#mca1930ec7b" x="69.218182" y="378" style="stroke: #000000; stroke-width: 0.8"/>
      </g>
     </g>
     <g id="text_1">
      <!-- 0.0 -->
      <g transform="translate(58.085994 395.637812)scale(0.14 -0.14)">
       <defs>
        <path id="DejaVuSans-30" d="M 2034 4250 
Q 1547 4250 1301 3770 
Q 1056 3291 1056 2328 
Q 1056 1369 1301 889 
Q 1547 409 2034 409 
Q 2525 409 2770 889 
Q 3016 1369 3016 2328 
Q 3016 3291 2770 3770 
Q 2525 4250 2034 4250 
z
M 2034 4750 
Q 2819 4750 3233 4129 
Q 3647 3509 3647 2328 
Q 3647 1150 3233 529 
Q 2819 -91 2034 -91 
Q 1250 -91 836 529 
Q 422 1150 422 2328 
Q 422 3509 836 4129 
Q 1250 4750 2034 4750 
z
" transform="scale(0.015625)"/>
        <path id="DejaVuSans-2e" d="M 684 794 
L 1344 794 
L 1344 0 
L 684 0 
L 684 794 
z
" transform="scale(0.015625)"/>
       </defs>
       <use xlink:href="#DejaVuSans-30"/>
       <use xlink:href="#DejaVuSans-2e" x="63.623047"/>
       <use xlink:href="#DejaVuSans-30" x="95.410156"/>
      </g>
     </g>
    </g>
    <g id="xtick_2">
     <g id="line2d_2">
      <g>
       <use xlink:href="#mca1930ec7b" x="130.090909" y="378" style="stroke: #000000; stroke-width: 0.8"/>
      </g>
     </g>
     <g id="text_2">
      <!-- 0.2 -->
      <g transform="translate(118.958722 395.637812)scale(0.14 -0.14)">
       <defs>
        <path id="DejaVuSans-32" d="M 1228 531 
L 3431 531 
L 3431 0 
L 469 0 
L 469 531 
Q 828 903 1448 1529 
Q 2069 2156 2228 2338 
Q 2531 2678 2651 2914 
Q 2772 3150 2772 3378 
Q 2772 3750 2511 3984 
Q 2250 4219 1831 4219 
Q 1534 4219 1204 4116 
Q 875 4013 500 3803 
L 500 4441 
Q 881 4594 1212 4672 
Q 1544 4750 1819 4750 
Q 2544 4750 2975 4387 
Q 3406 4025 3406 3419 
Q 3406 3131 3298 2873 
Q 3191 2616 2906 2266 
Q 2828 2175 2409 1742 
Q 1991 1309 1228 531 
z
" transform="scale(0.015625)"/>
       </defs>
       <use xlink:href="#DejaVuSans-30"/>
       <use xlink:href="#DejaVuSans-2e" x="63.623047"/>
       <use xlink:href="#DejaVuSans-32" x="95.410156"/>
      </g>
     </g>
    </g>
    <g id="xtick_3">
     <g id="line2d_3">
      <g>
       <use xlink:href="#mca1930ec7b" x="190.963636" y="378" style="stroke: #000000; stroke-width: 0.8"/>
      </g>
     </g>
     <g id="text_3">
      <!-- 0.4 -->
      <g transform="translate(179.831449 395.637812)scale(0.14 -0.14)">
       <defs>
        <path id="DejaVuSans-34" d="M 2419 4116 
L 825 1625 
L 2419 1625 
L 2419 4116 
z
M 2253 4666 
L 3047 4666 
L 3047 1625 
L 3713 1625 
L 3713 1100 
L 3047 1100 
L 3047 0 
L 2419 0 
L 2419 1100 
L 313 1100 
L 313 1709 
L 2253 4666 
z
" transform="scale(0.015625)"/>
       </defs>
       <use xlink:href="#DejaVuSans-30"/>
       <use xlink:href="#DejaVuSans-2e" x="63.623047"/>
       <use xlink:href="#DejaVuSans-34" x="95.410156"/>
      </g>
     </g>
    </g>
    <g id="xtick_4">
     <g id="line2d_4">
      <g>
       <use xlink:href="#mca1930ec7b" x="251.836364" y="378" style="stroke: #000000; stroke-width: 0.8"/>
      </g>
     </g>
     <g id="text_4">
      <!-- 0.6 -->
      <g transform="translate(240.704176 395.637812)scale(0.14 -0.14)">
       <defs>
        <path id="DejaVuSans-36" d="M 2113 2584 
Q 1688 2584 1439 2293 
Q 1191 2003 1191 1497 
Q 1191 994 1439 701 
Q 1688 409 2113 409 
Q 2538 409 2786 701 
Q 3034 994 3034 1497 
Q 3034 2003 2786 2293 
Q 2538 2584 2113 2584 
z
M 3366 4563 
L 3366 3988 
Q 3128 4100 2886 4159 
Q 2644 4219 2406 4219 
Q 1781 4219 1451 3797 
Q 1122 3375 1075 2522 
Q 1259 2794 1537 2939 
Q 1816 3084 2150 3084 
Q 2853 3084 3261 2657 
Q 3669 2231 3669 1497 
Q 3669 778 3244 343 
Q 2819 -91 2113 -91 
Q 1303 -91 875 529 
Q 447 1150 447 2328 
Q 447 3434 972 4092 
Q 1497 4750 2381 4750 
Q 2619 4750 2861 4703 
Q 3103 4656 3366 4563 
z
" transform="scale(0.015625)"/>
       </defs>
       <use xlink:href="#DejaVuSans-30"/>
       <use xlink:href="#DejaVuSans-2e" x="63.623047"/>
       <use xlink:href="#DejaVuSans-36" x="95.410156"/>
      </g>
     </g>
    </g>
    <g id="xtick_5">
     <g id="line2d_5">
      <g>
       <use xlink:href="#mca1930ec7b" x="312.709091" y="378" style="stroke: #000000; stroke-width: 0.8"/>
      </g>
     </g>
     <g id="text_5">
      <!-- 0.8 -->
      <g transform="translate(301.576903 395.637812)scale(0.14 -0.14)">
       <defs>
        <path id="DejaVuSans-38" d="M 2034 2216 
Q 1584 2216 1326 1975 
Q 1069 1734 1069 1313 
Q 1069 891 1326 650 
Q 1584 409 2034 409 
Q 2484 409 2743 651 
Q 3003 894 3003 1313 
Q 3003 1734 2745 1975 
Q 2488 2216 2034 2216 
z
M 1403 2484 
Q 997 2584 770 2862 
Q 544 3141 544 3541 
Q 544 4100 942 4425 
Q 1341 4750 2034 4750 
Q 2731 4750 3128 4425 
Q 3525 4100 3525 3541 
Q 3525 3141 3298 2862 
Q 3072 2584 2669 2484 
Q 3125 2378 3379 2068 
Q 3634 1759 3634 1313 
Q 3634 634 3220 271 
Q 2806 -91 2034 -91 
Q 1263 -91 848 271 
Q 434 634 434 1313 
Q 434 1759 690 2068 
Q 947 2378 1403 2484 
z
M 1172 3481 
Q 1172 3119 1398 2916 
Q 1625 2713 2034 2713 
Q 2441 2713 2670 2916 
Q 2900 3119 2900 3481 
Q 2900 3844 2670 4047 
Q 2441 4250 2034 4250 
Q 1625 4250 1398 4047 
Q 1172 3844 1172 3481 
z
" transform="scale(0.015625)"/>
       </defs>
       <use xlink:href="#DejaVuSans-30"/>
       <use xlink:href="#DejaVuSans-2e" x="63.623047"/>
       <use xlink:href="#DejaVuSans-38" x="95.410156"/>
      </g>
     </g>
    </g>
    <g id="xtick_6">
     <g id="line2d_6">
      <g>
       <use xlink:href="#mca1930ec7b" x="373.581818" y="378" style="stroke: #000000; stroke-width: 0.8"/>
      </g>
     </g>
     <g id="text_6">
      <!-- 1.0 -->
      <g transform="translate(362.449631 395.637812)scale(0.14 -0.14)">
       <defs>
        <path id="DejaVuSans-31" d="M 794 531 
L 1825 531 
L 1825 4091 
L 703 3866 
L 703 4441 
L 1819 4666 
L 2450 4666 
L 2450 531 
L 3481 531 
L 3481 0 
L 794 0 
L 794 531 
z
" transform="scale(0.015625)"/>
       </defs>
       <use xlink:href="#DejaVuSans-31"/>
       <use xlink:href="#DejaVuSans-2e" x="63.623047"/>
       <use xlink:href="#DejaVuSans-30" x="95.410156"/>
      </g>
     </g>
    </g>
    <g id="text_7">
     <!-- Mole fraction of 2,2,2-Trifluoroacetamide -->
     <g transform="translate(79.627031 413.187187)scale(0.14 -0.14)">
      <defs>
       <path id="DejaVuSans-4d" d="M 628 4666 
L 1569 4666 
L 2759 1491 
L 3956 4666 
L 4897 4666 
L 4897 0 
L 4281 0 
L 4281 4097 
L 3078 897 
L 2444 897 
L 1241 4097 
L 1241 0 
L 628 0 
L 628 4666 
z
" transform="scale(0.015625)"/>
       <path id="DejaVuSans-6f" d="M 1959 3097 
Q 1497 3097 1228 2736 
Q 959 2375 959 1747 
Q 959 1119 1226 758 
Q 1494 397 1959 397 
Q 2419 397 2687 759 
Q 2956 1122 2956 1747 
Q 2956 2369 2687 2733 
Q 2419 3097 1959 3097 
z
M 1959 3584 
Q 2709 3584 3137 3096 
Q 3566 2609 3566 1747 
Q 3566 888 3137 398 
Q 2709 -91 1959 -91 
Q 1206 -91 779 398 
Q 353 888 353 1747 
Q 353 2609 779 3096 
Q 1206 3584 1959 3584 
z
" transform="scale(0.015625)"/>
       <path id="DejaVuSans-6c" d="M 603 4863 
L 1178 4863 
L 1178 0 
L 603 0 
L 603 4863 
z
" transform="scale(0.015625)"/>
       <path id="DejaVuSans-65" d="M 3597 1894 
L 3597 1613 
L 953 1613 
Q 991 1019 1311 708 
Q 1631 397 2203 397 
Q 2534 397 2845 478 
Q 3156 559 3463 722 
L 3463 178 
Q 3153 47 2828 -22 
Q 2503 -91 2169 -91 
Q 1331 -91 842 396 
Q 353 884 353 1716 
Q 353 2575 817 3079 
Q 1281 3584 2069 3584 
Q 2775 3584 3186 3129 
Q 3597 2675 3597 1894 
z
M 3022 2063 
Q 3016 2534 2758 2815 
Q 2500 3097 2075 3097 
Q 1594 3097 1305 2825 
Q 1016 2553 972 2059 
L 3022 2063 
z
" transform="scale(0.015625)"/>
       <path id="DejaVuSans-20" transform="scale(0.015625)"/>
       <path id="DejaVuSans-66" d="M 2375 4863 
L 2375 4384 
L 1825 4384 
Q 1516 4384 1395 4259 
Q 1275 4134 1275 3809 
L 1275 3500 
L 2222 3500 
L 2222 3053 
L 1275 3053 
L 1275 0 
L 697 0 
L 697 3053 
L 147 3053 
L 147 3500 
L 697 3500 
L 697 3744 
Q 697 4328 969 4595 
Q 1241 4863 1831 4863 
L 2375 4863 
z
" transform="scale(0.015625)"/>
       <path id="DejaVuSans-72" d="M 2631 2963 
Q 2534 3019 2420 3045 
Q 2306 3072 2169 3072 
Q 1681 3072 1420 2755 
Q 1159 2438 1159 1844 
L 1159 0 
L 581 0 
L 581 3500 
L 1159 3500 
L 1159 2956 
Q 1341 3275 1631 3429 
Q 1922 3584 2338 3584 
Q 2397 3584 2469 3576 
Q 2541 3569 2628 3553 
L 2631 2963 
z
" transform="scale(0.015625)"/>
       <path id="DejaVuSans-61" d="M 2194 1759 
Q 1497 1759 1228 1600 
Q 959 1441 959 1056 
Q 959 750 1161 570 
Q 1363 391 1709 391 
Q 2188 391 2477 730 
Q 2766 1069 2766 1631 
L 2766 1759 
L 2194 1759 
z
M 3341 1997 
L 3341 0 
L 2766 0 
L 2766 531 
Q 2569 213 2275 61 
Q 1981 -91 1556 -91 
Q 1019 -91 701 211 
Q 384 513 384 1019 
Q 384 1609 779 1909 
Q 1175 2209 1959 2209 
L 2766 2209 
L 2766 2266 
Q 2766 2663 2505 2880 
Q 2244 3097 1772 3097 
Q 1472 3097 1187 3025 
Q 903 2953 641 2809 
L 641 3341 
Q 956 3463 1253 3523 
Q 1550 3584 1831 3584 
Q 2591 3584 2966 3190 
Q 3341 2797 3341 1997 
z
" transform="scale(0.015625)"/>
       <path id="DejaVuSans-63" d="M 3122 3366 
L 3122 2828 
Q 2878 2963 2633 3030 
Q 2388 3097 2138 3097 
Q 1578 3097 1268 2742 
Q 959 2388 959 1747 
Q 959 1106 1268 751 
Q 1578 397 2138 397 
Q 2388 397 2633 464 
Q 2878 531 3122 666 
L 3122 134 
Q 2881 22 2623 -34 
Q 2366 -91 2075 -91 
Q 1284 -91 818 406 
Q 353 903 353 1747 
Q 353 2603 823 3093 
Q 1294 3584 2113 3584 
Q 2378 3584 2631 3529 
Q 2884 3475 3122 3366 
z
" transform="scale(0.015625)"/>
       <path id="DejaVuSans-74" d="M 1172 4494 
L 1172 3500 
L 2356 3500 
L 2356 3053 
L 1172 3053 
L 1172 1153 
Q 1172 725 1289 603 
Q 1406 481 1766 481 
L 2356 481 
L 2356 0 
L 1766 0 
Q 1100 0 847 248 
Q 594 497 594 1153 
L 594 3053 
L 172 3053 
L 172 3500 
L 594 3500 
L 594 4494 
L 1172 4494 
z
" transform="scale(0.015625)"/>
       <path id="DejaVuSans-69" d="M 603 3500 
L 1178 3500 
L 1178 0 
L 603 0 
L 603 3500 
z
M 603 4863 
L 1178 4863 
L 1178 4134 
L 603 4134 
L 603 4863 
z
" transform="scale(0.015625)"/>
       <path id="DejaVuSans-6e" d="M 3513 2113 
L 3513 0 
L 2938 0 
L 2938 2094 
Q 2938 2591 2744 2837 
Q 2550 3084 2163 3084 
Q 1697 3084 1428 2787 
Q 1159 2491 1159 1978 
L 1159 0 
L 581 0 
L 581 3500 
L 1159 3500 
L 1159 2956 
Q 1366 3272 1645 3428 
Q 1925 3584 2291 3584 
Q 2894 3584 3203 3211 
Q 3513 2838 3513 2113 
z
" transform="scale(0.015625)"/>
       <path id="DejaVuSans-2c" d="M 750 794 
L 1409 794 
L 1409 256 
L 897 -744 
L 494 -744 
L 750 256 
L 750 794 
z
" transform="scale(0.015625)"/>
       <path id="DejaVuSans-2d" d="M 313 2009 
L 1997 2009 
L 1997 1497 
L 313 1497 
L 313 2009 
z
" transform="scale(0.015625)"/>
       <path id="DejaVuSans-54" d="M -19 4666 
L 3928 4666 
L 3928 4134 
L 2272 4134 
L 2272 0 
L 1638 0 
L 1638 4134 
L -19 4134 
L -19 4666 
z
" transform="scale(0.015625)"/>
       <path id="DejaVuSans-75" d="M 544 1381 
L 544 3500 
L 1119 3500 
L 1119 1403 
Q 1119 906 1312 657 
Q 1506 409 1894 409 
Q 2359 409 2629 706 
Q 2900 1003 2900 1516 
L 2900 3500 
L 3475 3500 
L 3475 0 
L 2900 0 
L 2900 538 
Q 2691 219 2414 64 
Q 2138 -91 1772 -91 
Q 1169 -91 856 284 
Q 544 659 544 1381 
z
M 1991 3584 
L 1991 3584 
z
" transform="scale(0.015625)"/>
       <path id="DejaVuSans-6d" d="M 3328 2828 
Q 3544 3216 3844 3400 
Q 4144 3584 4550 3584 
Q 5097 3584 5394 3201 
Q 5691 2819 5691 2113 
L 5691 0 
L 5113 0 
L 5113 2094 
Q 5113 2597 4934 2840 
Q 4756 3084 4391 3084 
Q 3944 3084 3684 2787 
Q 3425 2491 3425 1978 
L 3425 0 
L 2847 0 
L 2847 2094 
Q 2847 2600 2669 2842 
Q 2491 3084 2119 3084 
Q 1678 3084 1418 2786 
Q 1159 2488 1159 1978 
L 1159 0 
L 581 0 
L 581 3500 
L 1159 3500 
L 1159 2956 
Q 1356 3278 1631 3431 
Q 1906 3584 2284 3584 
Q 2666 3584 2933 3390 
Q 3200 3197 3328 2828 
z
" transform="scale(0.015625)"/>
       <path id="DejaVuSans-64" d="M 2906 2969 
L 2906 4863 
L 3481 4863 
L 3481 0 
L 2906 0 
L 2906 525 
Q 2725 213 2448 61 
Q 2172 -91 1784 -91 
Q 1150 -91 751 415 
Q 353 922 353 1747 
Q 353 2572 751 3078 
Q 1150 3584 1784 3584 
Q 2172 3584 2448 3432 
Q 2725 3281 2906 2969 
z
M 947 1747 
Q 947 1113 1208 752 
Q 1469 391 1925 391 
Q 2381 391 2643 752 
Q 2906 1113 2906 1747 
Q 2906 2381 2643 2742 
Q 2381 3103 1925 3103 
Q 1469 3103 1208 2742 
Q 947 2381 947 1747 
z
" transform="scale(0.015625)"/>
      </defs>
      <use xlink:href="#DejaVuSans-4d"/>
      <use xlink:href="#DejaVuSans-6f" x="86.279297"/>
      <use xlink:href="#DejaVuSans-6c" x="147.460938"/>
      <use xlink:href="#DejaVuSans-65" x="175.244141"/>
      <use xlink:href="#DejaVuSans-20" x="236.767578"/>
      <use xlink:href="#DejaVuSans-66" x="268.554688"/>
      <use xlink:href="#DejaVuSans-72" x="303.759766"/>
      <use xlink:href="#DejaVuSans-61" x="344.873047"/>
      <use xlink:href="#DejaVuSans-63" x="406.152344"/>
      <use xlink:href="#DejaVuSans-74" x="461.132812"/>
      <use xlink:href="#DejaVuSans-69" x="500.341797"/>
      <use xlink:href="#DejaVuSans-6f" x="528.125"/>
      <use xlink:href="#DejaVuSans-6e" x="589.306641"/>
      <use xlink:href="#DejaVuSans-20" x="652.685547"/>
      <use xlink:href="#DejaVuSans-6f" x="684.472656"/>
      <use xlink:href="#DejaVuSans-66" x="745.654297"/>
      <use xlink:href="#DejaVuSans-20" x="780.859375"/>
      <use xlink:href="#DejaVuSans-32" x="812.646484"/>
      <use xlink:href="#DejaVuSans-2c" x="876.269531"/>
      <use xlink:href="#DejaVuSans-32" x="908.056641"/>
      <use xlink:href="#DejaVuSans-2c" x="971.679688"/>
      <use xlink:href="#DejaVuSans-32" x="1003.466797"/>
      <use xlink:href="#DejaVuSans-2d" x="1067.089844"/>
      <use xlink:href="#DejaVuSans-54" x="1094.048828"/>
      <use xlink:href="#DejaVuSans-72" x="1140.382812"/>
      <use xlink:href="#DejaVuSans-69" x="1181.496094"/>
      <use xlink:href="#DejaVuSans-66" x="1209.279297"/>
      <use xlink:href="#DejaVuSans-6c" x="1244.484375"/>
      <use xlink:href="#DejaVuSans-75" x="1272.267578"/>
      <use xlink:href="#DejaVuSans-6f" x="1335.646484"/>
      <use xlink:href="#DejaVuSans-72" x="1396.828125"/>
      <use xlink:href="#DejaVuSans-6f" x="1435.691406"/>
      <use xlink:href="#DejaVuSans-61" x="1496.873047"/>
      <use xlink:href="#DejaVuSans-63" x="1558.152344"/>
      <use xlink:href="#DejaVuSans-65" x="1613.132812"/>
      <use xlink:href="#DejaVuSans-74" x="1674.65625"/>
      <use xlink:href="#DejaVuSans-61" x="1713.865234"/>
      <use xlink:href="#DejaVuSans-6d" x="1775.144531"/>
      <use xlink:href="#DejaVuSans-69" x="1872.556641"/>
      <use xlink:href="#DejaVuSans-64" x="1900.339844"/>
      <use xlink:href="#DejaVuSans-65" x="1963.816406"/>
     </g>
    </g>
   </g>
   <g id="matplotlib.axis_2">
    <g id="ytick_1">
     <g id="line2d_7">
      <defs>
       <path id="m7aac6fa421" d="M 0 0 
L -3.5 0 
" style="stroke: #000000; stroke-width: 0.8"/>
      </defs>
      <g>
       <use xlink:href="#m7aac6fa421" x="54" y="366.985945" style="stroke: #000000; stroke-width: 0.8"/>
      </g>
     </g>
     <g id="text_8">
      <!-- 200 -->
      <g transform="translate(20.2775 372.304851)scale(0.14 -0.14)">
       <use xlink:href="#DejaVuSans-32"/>
       <use xlink:href="#DejaVuSans-30" x="63.623047"/>
       <use xlink:href="#DejaVuSans-30" x="127.246094"/>
      </g>
     </g>
    </g>
    <g id="ytick_2">
     <g id="line2d_8">
      <g>
       <use xlink:href="#m7aac6fa421" x="54" y="317.615488" style="stroke: #000000; stroke-width: 0.8"/>
      </g>
     </g>
     <g id="text_9">
      <!-- 250 -->
      <g transform="translate(20.2775 322.934394)scale(0.14 -0.14)">
       <defs>
        <path id="DejaVuSans-35" d="M 691 4666 
L 3169 4666 
L 3169 4134 
L 1269 4134 
L 1269 2991 
Q 1406 3038 1543 3061 
Q 1681 3084 1819 3084 
Q 2600 3084 3056 2656 
Q 3513 2228 3513 1497 
Q 3513 744 3044 326 
Q 2575 -91 1722 -91 
Q 1428 -91 1123 -41 
Q 819 9 494 109 
L 494 744 
Q 775 591 1075 516 
Q 1375 441 1709 441 
Q 2250 441 2565 725 
Q 2881 1009 2881 1497 
Q 2881 1984 2565 2268 
Q 2250 2553 1709 2553 
Q 1456 2553 1204 2497 
Q 953 2441 691 2322 
L 691 4666 
z
" transform="scale(0.015625)"/>
       </defs>
       <use xlink:href="#DejaVuSans-32"/>
       <use xlink:href="#DejaVuSans-35" x="63.623047"/>
       <use xlink:href="#DejaVuSans-30" x="127.246094"/>
      </g>
     </g>
    </g>
    <g id="ytick_3">
     <g id="line2d_9">
      <g>
       <use xlink:href="#m7aac6fa421" x="54" y="268.245031" style="stroke: #000000; stroke-width: 0.8"/>
      </g>
     </g>
     <g id="text_10">
      <!-- 300 -->
      <g transform="translate(20.2775 273.563937)scale(0.14 -0.14)">
       <defs>
        <path id="DejaVuSans-33" d="M 2597 2516 
Q 3050 2419 3304 2112 
Q 3559 1806 3559 1356 
Q 3559 666 3084 287 
Q 2609 -91 1734 -91 
Q 1441 -91 1130 -33 
Q 819 25 488 141 
L 488 750 
Q 750 597 1062 519 
Q 1375 441 1716 441 
Q 2309 441 2620 675 
Q 2931 909 2931 1356 
Q 2931 1769 2642 2001 
Q 2353 2234 1838 2234 
L 1294 2234 
L 1294 2753 
L 1863 2753 
Q 2328 2753 2575 2939 
Q 2822 3125 2822 3475 
Q 2822 3834 2567 4026 
Q 2313 4219 1838 4219 
Q 1578 4219 1281 4162 
Q 984 4106 628 3988 
L 628 4550 
Q 988 4650 1302 4700 
Q 1616 4750 1894 4750 
Q 2613 4750 3031 4423 
Q 3450 4097 3450 3541 
Q 3450 3153 3228 2886 
Q 3006 2619 2597 2516 
z
" transform="scale(0.015625)"/>
       </defs>
       <use xlink:href="#DejaVuSans-33"/>
       <use xlink:href="#DejaVuSans-30" x="63.623047"/>
       <use xlink:href="#DejaVuSans-30" x="127.246094"/>
      </g>
     </g>
    </g>
    <g id="ytick_4">
     <g id="line2d_10">
      <g>
       <use xlink:href="#m7aac6fa421" x="54" y="218.874574" style="stroke: #000000; stroke-width: 0.8"/>
      </g>
     </g>
     <g id="text_11">
      <!-- 350 -->
      <g transform="translate(20.2775 224.19348)scale(0.14 -0.14)">
       <use xlink:href="#DejaVuSans-33"/>
       <use xlink:href="#DejaVuSans-35" x="63.623047"/>
       <use xlink:href="#DejaVuSans-30" x="127.246094"/>
      </g>
     </g>
    </g>
    <g id="ytick_5">
     <g id="line2d_11">
      <g>
       <use xlink:href="#m7aac6fa421" x="54" y="169.504117" style="stroke: #000000; stroke-width: 0.8"/>
      </g>
     </g>
     <g id="text_12">
      <!-- 400 -->
      <g transform="translate(20.2775 174.823023)scale(0.14 -0.14)">
       <use xlink:href="#DejaVuSans-34"/>
       <use xlink:href="#DejaVuSans-30" x="63.623047"/>
       <use xlink:href="#DejaVuSans-30" x="127.246094"/>
      </g>
     </g>
    </g>
    <g id="ytick_6">
     <g id="line2d_12">
      <g>
       <use xlink:href="#m7aac6fa421" x="54" y="120.13366" style="stroke: #000000; stroke-width: 0.8"/>
      </g>
     </g>
     <g id="text_13">
      <!-- 450 -->
      <g transform="translate(20.2775 125.452566)scale(0.14 -0.14)">
       <use xlink:href="#DejaVuSans-34"/>
       <use xlink:href="#DejaVuSans-35" x="63.623047"/>
       <use xlink:href="#DejaVuSans-30" x="127.246094"/>
      </g>
     </g>
    </g>
    <g id="ytick_7">
     <g id="line2d_13">
      <g>
       <use xlink:href="#m7aac6fa421" x="54" y="70.763202" style="stroke: #000000; stroke-width: 0.8"/>
      </g>
     </g>
     <g id="text_14">
      <!-- 500 -->
      <g transform="translate(20.2775 76.082109)scale(0.14 -0.14)">
       <use xlink:href="#DejaVuSans-35"/>
       <use xlink:href="#DejaVuSans-30" x="63.623047"/>
       <use xlink:href="#DejaVuSans-30" x="127.246094"/>
      </g>
     </g>
    </g>
    <g id="text_15">
     <!-- Temperature, K -->
     <g transform="translate(13.365937 268.297188)rotate(-90)scale(0.14 -0.14)">
      <defs>
       <path id="DejaVuSans-70" d="M 1159 525 
L 1159 -1331 
L 581 -1331 
L 581 3500 
L 1159 3500 
L 1159 2969 
Q 1341 3281 1617 3432 
Q 1894 3584 2278 3584 
Q 2916 3584 3314 3078 
Q 3713 2572 3713 1747 
Q 3713 922 3314 415 
Q 2916 -91 2278 -91 
Q 1894 -91 1617 61 
Q 1341 213 1159 525 
z
M 3116 1747 
Q 3116 2381 2855 2742 
Q 2594 3103 2138 3103 
Q 1681 3103 1420 2742 
Q 1159 2381 1159 1747 
Q 1159 1113 1420 752 
Q 1681 391 2138 391 
Q 2594 391 2855 752 
Q 3116 1113 3116 1747 
z
" transform="scale(0.015625)"/>
       <path id="DejaVuSans-4b" d="M 628 4666 
L 1259 4666 
L 1259 2694 
L 3353 4666 
L 4166 4666 
L 1850 2491 
L 4331 0 
L 3500 0 
L 1259 2247 
L 1259 0 
L 628 0 
L 628 4666 
z
" transform="scale(0.015625)"/>
      </defs>
      <use xlink:href="#DejaVuSans-54"/>
      <use xlink:href="#DejaVuSans-65" x="44.083984"/>
      <use xlink:href="#DejaVuSans-6d" x="105.607422"/>
      <use xlink:href="#DejaVuSans-70" x="203.019531"/>
      <use xlink:href="#DejaVuSans-65" x="266.496094"/>
      <use xlink:href="#DejaVuSans-72" x="328.019531"/>
      <use xlink:href="#DejaVuSans-61" x="369.132812"/>
      <use xlink:href="#DejaVuSans-74" x="430.412109"/>
      <use xlink:href="#DejaVuSans-75" x="469.621094"/>
      <use xlink:href="#DejaVuSans-72" x="533"/>
      <use xlink:href="#DejaVuSans-65" x="571.863281"/>
      <use xlink:href="#DejaVuSans-2c" x="633.386719"/>
      <use xlink:href="#DejaVuSans-20" x="665.173828"/>
      <use xlink:href="#DejaVuSans-4b" x="696.960938"/>
     </g>
    </g>
   </g>
   <g id="line2d_14">
    <path d="M 69.218182 66.665455 
L 145.309091 218.686966 
L 175.745455 205.317446 
L 221.4 231.908374 
L 251.836364 237.092272 
L 267.054545 294.756966 
L 297.490909 326.146703 
L 312.709091 343.406614 
L 327.927273 355.966459 
L 343.145455 363.174545 
L 373.581818 220.849392 
" clip-path="url(#pac2bdac324)" style="fill: none; stroke-dasharray: 7.4,3.2; stroke-dashoffset: 0; stroke: #008000; stroke-opacity: 0.6; stroke-width: 2"/>
    <defs>
     <path id="m173c269641" d="M 0 4 
C 1.060812 4 2.078319 3.578535 2.828427 2.828427 
C 3.578535 2.078319 4 1.060812 4 0 
C 4 -1.060812 3.578535 -2.078319 2.828427 -2.828427 
C 2.078319 -3.578535 1.060812 -4 0 -4 
C -1.060812 -4 -2.078319 -3.578535 -2.828427 -2.828427 
C -3.578535 -2.078319 -4 -1.060812 -4 0 
C -4 1.060812 -3.578535 2.078319 -2.828427 2.828427 
C -2.078319 3.578535 -1.060812 4 0 4 
z
" style="stroke: #008000; stroke-opacity: 0.6"/>
    </defs>
    <g clip-path="url(#pac2bdac324)">
     <use xlink:href="#m173c269641" x="69.218182" y="66.665455" style="fill: #008000; fill-opacity: 0.6; stroke: #008000; stroke-opacity: 0.6"/>
     <use xlink:href="#m173c269641" x="145.309091" y="218.686966" style="fill: #008000; fill-opacity: 0.6; stroke: #008000; stroke-opacity: 0.6"/>
     <use xlink:href="#m173c269641" x="175.745455" y="205.317446" style="fill: #008000; fill-opacity: 0.6; stroke: #008000; stroke-opacity: 0.6"/>
     <use xlink:href="#m173c269641" x="221.4" y="231.908374" style="fill: #008000; fill-opacity: 0.6; stroke: #008000; stroke-opacity: 0.6"/>
     <use xlink:href="#m173c269641" x="251.836364" y="237.092272" style="fill: #008000; fill-opacity: 0.6; stroke: #008000; stroke-opacity: 0.6"/>
     <use xlink:href="#m173c269641" x="267.054545" y="294.756966" style="fill: #008000; fill-opacity: 0.6; stroke: #008000; stroke-opacity: 0.6"/>
     <use xlink:href="#m173c269641" x="297.490909" y="326.146703" style="fill: #008000; fill-opacity: 0.6; stroke: #008000; stroke-opacity: 0.6"/>
     <use xlink:href="#m173c269641" x="312.709091" y="343.406614" style="fill: #008000; fill-opacity: 0.6; stroke: #008000; stroke-opacity: 0.6"/>
     <use xlink:href="#m173c269641" x="327.927273" y="355.966459" style="fill: #008000; fill-opacity: 0.6; stroke: #008000; stroke-opacity: 0.6"/>
     <use xlink:href="#m173c269641" x="343.145455" y="363.174545" style="fill: #008000; fill-opacity: 0.6; stroke: #008000; stroke-opacity: 0.6"/>
     <use xlink:href="#m173c269641" x="373.581818" y="220.849392" style="fill: #008000; fill-opacity: 0.6; stroke: #008000; stroke-opacity: 0.6"/>
    </g>
   </g>
   <g id="patch_3">
    <path d="M 54 378 
L 54 51.84 
" style="fill: none; stroke: #000000; stroke-width: 0.8; stroke-linejoin: miter; stroke-linecap: square"/>
   </g>
   <g id="patch_4">
    <path d="M 388.8 378 
L 388.8 51.84 
" style="fill: none; stroke: #000000; stroke-width: 0.8; stroke-linejoin: miter; stroke-linecap: square"/>
   </g>
   <g id="patch_5">
    <path d="M 54 378 
L 388.8 378 
" style="fill: none; stroke: #000000; stroke-width: 0.8; stroke-linejoin: miter; stroke-linecap: square"/>
   </g>
   <g id="patch_6">
    <path d="M 54 51.84 
L 388.8 51.84 
" style="fill: none; stroke: #000000; stroke-width: 0.8; stroke-linejoin: miter; stroke-linecap: square"/>
   </g>
   <g id="text_16">
    <!-- 2,2,2-Trifluoroacetamide_Methyltriphenylphosphonium bromide -->
    <g transform="translate(-0.676094 45.84)scale(0.14 -0.14)">
     <defs>
      <path id="DejaVuSans-5f" d="M 3263 -1063 
L 3263 -1509 
L -63 -1509 
L -63 -1063 
L 3263 -1063 
z
" transform="scale(0.015625)"/>
      <path id="DejaVuSans-68" d="M 3513 2113 
L 3513 0 
L 2938 0 
L 2938 2094 
Q 2938 2591 2744 2837 
Q 2550 3084 2163 3084 
Q 1697 3084 1428 2787 
Q 1159 2491 1159 1978 
L 1159 0 
L 581 0 
L 581 4863 
L 1159 4863 
L 1159 2956 
Q 1366 3272 1645 3428 
Q 1925 3584 2291 3584 
Q 2894 3584 3203 3211 
Q 3513 2838 3513 2113 
z
" transform="scale(0.015625)"/>
      <path id="DejaVuSans-79" d="M 2059 -325 
Q 1816 -950 1584 -1140 
Q 1353 -1331 966 -1331 
L 506 -1331 
L 506 -850 
L 844 -850 
Q 1081 -850 1212 -737 
Q 1344 -625 1503 -206 
L 1606 56 
L 191 3500 
L 800 3500 
L 1894 763 
L 2988 3500 
L 3597 3500 
L 2059 -325 
z
" transform="scale(0.015625)"/>
      <path id="DejaVuSans-73" d="M 2834 3397 
L 2834 2853 
Q 2591 2978 2328 3040 
Q 2066 3103 1784 3103 
Q 1356 3103 1142 2972 
Q 928 2841 928 2578 
Q 928 2378 1081 2264 
Q 1234 2150 1697 2047 
L 1894 2003 
Q 2506 1872 2764 1633 
Q 3022 1394 3022 966 
Q 3022 478 2636 193 
Q 2250 -91 1575 -91 
Q 1294 -91 989 -36 
Q 684 19 347 128 
L 347 722 
Q 666 556 975 473 
Q 1284 391 1588 391 
Q 1994 391 2212 530 
Q 2431 669 2431 922 
Q 2431 1156 2273 1281 
Q 2116 1406 1581 1522 
L 1381 1569 
Q 847 1681 609 1914 
Q 372 2147 372 2553 
Q 372 3047 722 3315 
Q 1072 3584 1716 3584 
Q 2034 3584 2315 3537 
Q 2597 3491 2834 3397 
z
" transform="scale(0.015625)"/>
      <path id="DejaVuSans-62" d="M 3116 1747 
Q 3116 2381 2855 2742 
Q 2594 3103 2138 3103 
Q 1681 3103 1420 2742 
Q 1159 2381 1159 1747 
Q 1159 1113 1420 752 
Q 1681 391 2138 391 
Q 2594 391 2855 752 
Q 3116 1113 3116 1747 
z
M 1159 2969 
Q 1341 3281 1617 3432 
Q 1894 3584 2278 3584 
Q 2916 3584 3314 3078 
Q 3713 2572 3713 1747 
Q 3713 922 3314 415 
Q 2916 -91 2278 -91 
Q 1894 -91 1617 61 
Q 1341 213 1159 525 
L 1159 0 
L 581 0 
L 581 4863 
L 1159 4863 
L 1159 2969 
z
" transform="scale(0.015625)"/>
     </defs>
     <use xlink:href="#DejaVuSans-32"/>
     <use xlink:href="#DejaVuSans-2c" x="63.623047"/>
     <use xlink:href="#DejaVuSans-32" x="95.410156"/>
     <use xlink:href="#DejaVuSans-2c" x="159.033203"/>
     <use xlink:href="#DejaVuSans-32" x="190.820312"/>
     <use xlink:href="#DejaVuSans-2d" x="254.443359"/>
     <use xlink:href="#DejaVuSans-54" x="281.402344"/>
     <use xlink:href="#DejaVuSans-72" x="327.736328"/>
     <use xlink:href="#DejaVuSans-69" x="368.849609"/>
     <use xlink:href="#DejaVuSans-66" x="396.632812"/>
     <use xlink:href="#DejaVuSans-6c" x="431.837891"/>
     <use xlink:href="#DejaVuSans-75" x="459.621094"/>
     <use xlink:href="#DejaVuSans-6f" x="523"/>
     <use xlink:href="#DejaVuSans-72" x="584.181641"/>
     <use xlink:href="#DejaVuSans-6f" x="623.044922"/>
     <use xlink:href="#DejaVuSans-61" x="684.226562"/>
     <use xlink:href="#DejaVuSans-63" x="745.505859"/>
     <use xlink:href="#DejaVuSans-65" x="800.486328"/>
     <use xlink:href="#DejaVuSans-74" x="862.009766"/>
     <use xlink:href="#DejaVuSans-61" x="901.21875"/>
     <use xlink:href="#DejaVuSans-6d" x="962.498047"/>
     <use xlink:href="#DejaVuSans-69" x="1059.910156"/>
     <use xlink:href="#DejaVuSans-64" x="1087.693359"/>
     <use xlink:href="#DejaVuSans-65" x="1151.169922"/>
     <use xlink:href="#DejaVuSans-5f" x="1212.693359"/>
     <use xlink:href="#DejaVuSans-4d" x="1262.693359"/>
     <use xlink:href="#DejaVuSans-65" x="1348.972656"/>
     <use xlink:href="#DejaVuSans-74" x="1410.496094"/>
     <use xlink:href="#DejaVuSans-68" x="1449.705078"/>
     <use xlink:href="#DejaVuSans-79" x="1513.083984"/>
     <use xlink:href="#DejaVuSans-6c" x="1572.263672"/>
     <use xlink:href="#DejaVuSans-74" x="1600.046875"/>
     <use xlink:href="#DejaVuSans-72" x="1639.255859"/>
     <use xlink:href="#DejaVuSans-69" x="1680.369141"/>
     <use xlink:href="#DejaVuSans-70" x="1708.152344"/>
     <use xlink:href="#DejaVuSans-68" x="1771.628906"/>
     <use xlink:href="#DejaVuSans-65" x="1835.007812"/>
     <use xlink:href="#DejaVuSans-6e" x="1896.53125"/>
     <use xlink:href="#DejaVuSans-79" x="1959.910156"/>
     <use xlink:href="#DejaVuSans-6c" x="2019.089844"/>
     <use xlink:href="#DejaVuSans-70" x="2046.873047"/>
     <use xlink:href="#DejaVuSans-68" x="2110.349609"/>
     <use xlink:href="#DejaVuSans-6f" x="2173.728516"/>
     <use xlink:href="#DejaVuSans-73" x="2234.910156"/>
     <use xlink:href="#DejaVuSans-70" x="2287.009766"/>
     <use xlink:href="#DejaVuSans-68" x="2350.486328"/>
     <use xlink:href="#DejaVuSans-6f" x="2413.865234"/>
     <use xlink:href="#DejaVuSans-6e" x="2475.046875"/>
     <use xlink:href="#DejaVuSans-69" x="2538.425781"/>
     <use xlink:href="#DejaVuSans-75" x="2566.208984"/>
     <use xlink:href="#DejaVuSans-6d" x="2629.587891"/>
     <use xlink:href="#DejaVuSans-20" x="2727"/>
     <use xlink:href="#DejaVuSans-62" x="2758.787109"/>
     <use xlink:href="#DejaVuSans-72" x="2822.263672"/>
     <use xlink:href="#DejaVuSans-6f" x="2861.126953"/>
     <use xlink:href="#DejaVuSans-6d" x="2922.308594"/>
     <use xlink:href="#DejaVuSans-69" x="3019.720703"/>
     <use xlink:href="#DejaVuSans-64" x="3047.503906"/>
     <use xlink:href="#DejaVuSans-65" x="3110.980469"/>
    </g>
   </g>
   <g id="legend_1">
    <g id="patch_7">
     <path d="M 404.992 191.402875 
L 579.136688 191.402875 
Q 581.936688 191.402875 581.936688 188.602875 
L 581.936688 87.256 
Q 581.936688 84.456 579.136688 84.456 
L 404.992 84.456 
Q 402.192 84.456 402.192 87.256 
L 402.192 188.602875 
Q 402.192 191.402875 404.992 191.402875 
z
" style="fill: #ffffff; opacity: 0.8; stroke: #cccccc; stroke-linejoin: miter"/>
    </g>
    <g id="line2d_15">
     <path d="M 407.792 95.793812 
L 421.792 95.793812 
L 433 95.793812 
" style="fill: none; stroke-dasharray: 7.4,3.2; stroke-dashoffset: 0; stroke: #008000; stroke-opacity: 0.6; stroke-width: 2"/>
     <g>
      <use xlink:href="#m173c269641" x="421.792" y="95.793812" style="fill: #008000; fill-opacity: 0.6; stroke: #008000; stroke-opacity: 0.6"/>
     </g>
    </g>
    <g id="text_17">
     <!-- Experimental data -->
     <g transform="translate(446.992 100.693812)scale(0.14 -0.14)">
      <defs>
       <path id="DejaVuSans-45" d="M 628 4666 
L 3578 4666 
L 3578 4134 
L 1259 4134 
L 1259 2753 
L 3481 2753 
L 3481 2222 
L 1259 2222 
L 1259 531 
L 3634 531 
L 3634 0 
L 628 0 
L 628 4666 
z
" transform="scale(0.015625)"/>
       <path id="DejaVuSans-78" d="M 3513 3500 
L 2247 1797 
L 3578 0 
L 2900 0 
L 1881 1375 
L 863 0 
L 184 0 
L 1544 1831 
L 300 3500 
L 978 3500 
L 1906 2253 
L 2834 3500 
L 3513 3500 
z
" transform="scale(0.015625)"/>
      </defs>
      <use xlink:href="#DejaVuSans-45"/>
      <use xlink:href="#DejaVuSans-78" x="63.183594"/>
      <use xlink:href="#DejaVuSans-70" x="122.363281"/>
      <use xlink:href="#DejaVuSans-65" x="185.839844"/>
      <use xlink:href="#DejaVuSans-72" x="247.363281"/>
      <use xlink:href="#DejaVuSans-69" x="288.476562"/>
      <use xlink:href="#DejaVuSans-6d" x="316.259766"/>
      <use xlink:href="#DejaVuSans-65" x="413.671875"/>
      <use xlink:href="#DejaVuSans-6e" x="475.195312"/>
      <use xlink:href="#DejaVuSans-74" x="538.574219"/>
      <use xlink:href="#DejaVuSans-61" x="577.783203"/>
      <use xlink:href="#DejaVuSans-6c" x="639.0625"/>
      <use xlink:href="#DejaVuSans-20" x="666.845703"/>
      <use xlink:href="#DejaVuSans-64" x="698.632812"/>
      <use xlink:href="#DejaVuSans-61" x="762.109375"/>
      <use xlink:href="#DejaVuSans-74" x="823.388672"/>
      <use xlink:href="#DejaVuSans-61" x="862.597656"/>
     </g>
    </g>
    <g id="PathCollection_10">
     <path d="M 421.792 121.751488 
C 422.901424 121.751488 423.965559 121.310709 424.75004 120.526227 
C 425.534521 119.741746 425.9753 118.677612 425.9753 117.568187 
C 425.9753 116.458763 425.534521 115.394629 424.75004 114.610148 
C 423.965559 113.825666 422.901424 113.384887 421.792 113.384887 
C 420.682576 113.384887 419.618441 113.825666 418.83396 114.610148 
C 418.049479 115.394629 417.6087 116.458763 417.6087 117.568187 
C 417.6087 118.677612 418.049479 119.741746 418.83396 120.526227 
C 419.618441 121.310709 420.682576 121.751488 421.792 121.751488 
L 421.792 121.751488 
z
" style="fill: none; stroke: #8a2be2; stroke-width: 2"/>
    </g>
    <g id="text_18">
     <!-- GBR -->
     <g transform="translate(446.992 121.243187)scale(0.14 -0.14)">
      <defs>
       <path id="DejaVuSans-47" d="M 3809 666 
L 3809 1919 
L 2778 1919 
L 2778 2438 
L 4434 2438 
L 4434 434 
Q 4069 175 3628 42 
Q 3188 -91 2688 -91 
Q 1594 -91 976 548 
Q 359 1188 359 2328 
Q 359 3472 976 4111 
Q 1594 4750 2688 4750 
Q 3144 4750 3555 4637 
Q 3966 4525 4313 4306 
L 4313 3634 
Q 3963 3931 3569 4081 
Q 3175 4231 2741 4231 
Q 1884 4231 1454 3753 
Q 1025 3275 1025 2328 
Q 1025 1384 1454 906 
Q 1884 428 2741 428 
Q 3075 428 3337 486 
Q 3600 544 3809 666 
z
" transform="scale(0.015625)"/>
       <path id="DejaVuSans-42" d="M 1259 2228 
L 1259 519 
L 2272 519 
Q 2781 519 3026 730 
Q 3272 941 3272 1375 
Q 3272 1813 3026 2020 
Q 2781 2228 2272 2228 
L 1259 2228 
z
M 1259 4147 
L 1259 2741 
L 2194 2741 
Q 2656 2741 2882 2914 
Q 3109 3088 3109 3444 
Q 3109 3797 2882 3972 
Q 2656 4147 2194 4147 
L 1259 4147 
z
M 628 4666 
L 2241 4666 
Q 2963 4666 3353 4366 
Q 3744 4066 3744 3513 
Q 3744 3084 3544 2831 
Q 3344 2578 2956 2516 
Q 3422 2416 3680 2098 
Q 3938 1781 3938 1306 
Q 3938 681 3513 340 
Q 3088 0 2303 0 
L 628 0 
L 628 4666 
z
" transform="scale(0.015625)"/>
       <path id="DejaVuSans-52" d="M 2841 2188 
Q 3044 2119 3236 1894 
Q 3428 1669 3622 1275 
L 4263 0 
L 3584 0 
L 2988 1197 
Q 2756 1666 2539 1819 
Q 2322 1972 1947 1972 
L 1259 1972 
L 1259 0 
L 628 0 
L 628 4666 
L 2053 4666 
Q 2853 4666 3247 4331 
Q 3641 3997 3641 3322 
Q 3641 2881 3436 2590 
Q 3231 2300 2841 2188 
z
M 1259 4147 
L 1259 2491 
L 2053 2491 
Q 2509 2491 2742 2702 
Q 2975 2913 2975 3322 
Q 2975 3731 2742 3939 
Q 2509 4147 2053 4147 
L 1259 4147 
z
" transform="scale(0.015625)"/>
      </defs>
      <use xlink:href="#DejaVuSans-47"/>
      <use xlink:href="#DejaVuSans-42" x="77.490234"/>
      <use xlink:href="#DejaVuSans-52" x="146.09375"/>
     </g>
    </g>
    <g id="PathCollection_11">
     <path d="M 421.792 142.300863 
C 422.901424 142.300863 423.965559 141.860084 424.75004 141.075602 
C 425.534521 140.291121 425.9753 139.226987 425.9753 138.117562 
C 425.9753 137.008138 425.534521 135.944004 424.75004 135.159523 
C 423.965559 134.375041 422.901424 133.934262 421.792 133.934262 
C 420.682576 133.934262 419.618441 134.375041 418.83396 135.159523 
C 418.049479 135.944004 417.6087 137.008138 417.6087 138.117562 
C 417.6087 139.226987 418.049479 140.291121 418.83396 141.075602 
C 419.618441 141.860084 420.682576 142.300863 421.792 142.300863 
L 421.792 142.300863 
z
" style="fill: none; stroke: #ffd700; stroke-width: 2"/>
    </g>
    <g id="text_19">
     <!-- RFR -->
     <g transform="translate(446.992 141.792562)scale(0.14 -0.14)">
      <defs>
       <path id="DejaVuSans-46" d="M 628 4666 
L 3309 4666 
L 3309 4134 
L 1259 4134 
L 1259 2759 
L 3109 2759 
L 3109 2228 
L 1259 2228 
L 1259 0 
L 628 0 
L 628 4666 
z
" transform="scale(0.015625)"/>
      </defs>
      <use xlink:href="#DejaVuSans-52"/>
      <use xlink:href="#DejaVuSans-46" x="69.482422"/>
      <use xlink:href="#DejaVuSans-52" x="127.001953"/>
     </g>
    </g>
    <g id="PathCollection_12">
     <path d="M 421.792 162.850238 
C 422.901424 162.850238 423.965559 162.409459 424.75004 161.624977 
C 425.534521 160.840496 425.9753 159.776362 425.9753 158.666937 
C 425.9753 157.557513 425.534521 156.493379 424.75004 155.708898 
C 423.965559 154.924416 422.901424 154.483637 421.792 154.483637 
C 420.682576 154.483637 419.618441 154.924416 418.83396 155.708898 
C 418.049479 156.493379 417.6087 157.557513 417.6087 158.666937 
C 417.6087 159.776362 418.049479 160.840496 418.83396 161.624977 
C 419.618441 162.409459 420.682576 162.850238 421.792 162.850238 
L 421.792 162.850238 
z
" style="fill: none; stroke: #800000; stroke-width: 2"/>
    </g>
    <g id="text_20">
     <!-- SVR -->
     <g transform="translate(446.992 162.341937)scale(0.14 -0.14)">
      <defs>
       <path id="DejaVuSans-53" d="M 3425 4513 
L 3425 3897 
Q 3066 4069 2747 4153 
Q 2428 4238 2131 4238 
Q 1616 4238 1336 4038 
Q 1056 3838 1056 3469 
Q 1056 3159 1242 3001 
Q 1428 2844 1947 2747 
L 2328 2669 
Q 3034 2534 3370 2195 
Q 3706 1856 3706 1288 
Q 3706 609 3251 259 
Q 2797 -91 1919 -91 
Q 1588 -91 1214 -16 
Q 841 59 441 206 
L 441 856 
Q 825 641 1194 531 
Q 1563 422 1919 422 
Q 2459 422 2753 634 
Q 3047 847 3047 1241 
Q 3047 1584 2836 1778 
Q 2625 1972 2144 2069 
L 1759 2144 
Q 1053 2284 737 2584 
Q 422 2884 422 3419 
Q 422 4038 858 4394 
Q 1294 4750 2059 4750 
Q 2388 4750 2728 4690 
Q 3069 4631 3425 4513 
z
" transform="scale(0.015625)"/>
       <path id="DejaVuSans-56" d="M 1831 0 
L 50 4666 
L 709 4666 
L 2188 738 
L 3669 4666 
L 4325 4666 
L 2547 0 
L 1831 0 
z
" transform="scale(0.015625)"/>
      </defs>
      <use xlink:href="#DejaVuSans-53"/>
      <use xlink:href="#DejaVuSans-56" x="63.476562"/>
      <use xlink:href="#DejaVuSans-52" x="131.884766"/>
     </g>
    </g>
    <g id="PathCollection_13">
     <path d="M 421.792 183.399613 
C 422.901424 183.399613 423.965559 182.958834 424.75004 182.174352 
C 425.534521 181.389871 425.9753 180.325737 425.9753 179.216312 
C 425.9753 178.106888 425.534521 177.042754 424.75004 176.258273 
C 423.965559 175.473791 422.901424 175.033012 421.792 175.033012 
C 420.682576 175.033012 419.618441 175.473791 418.83396 176.258273 
C 418.049479 177.042754 417.6087 178.106888 417.6087 179.216312 
C 417.6087 180.325737 418.049479 181.389871 418.83396 182.174352 
C 419.618441 182.958834 420.682576 183.399613 421.792 183.399613 
L 421.792 183.399613 
z
" style="fill: none; stroke: #fa8072; stroke-width: 2"/>
    </g>
    <g id="text_21">
     <!-- KNN -->
     <g transform="translate(446.992 182.891312)scale(0.14 -0.14)">
      <defs>
       <path id="DejaVuSans-4e" d="M 628 4666 
L 1478 4666 
L 3547 763 
L 3547 4666 
L 4159 4666 
L 4159 0 
L 3309 0 
L 1241 3903 
L 1241 0 
L 628 0 
L 628 4666 
z
" transform="scale(0.015625)"/>
      </defs>
      <use xlink:href="#DejaVuSans-4b"/>
      <use xlink:href="#DejaVuSans-4e" x="65.576172"/>
      <use xlink:href="#DejaVuSans-4e" x="140.380859"/>
     </g>
    </g>
   </g>
  </g>
 </g>
 <defs>
  <clipPath id="pac2bdac324">
   <rect x="54" y="51.84" width="334.8" height="326.16"/>
  </clipPath>
 </defs>
</svg>
